<?xml version="1.0" encoding="utf-8"?>
<!-- Generator: Adobe Illustrator 25.2.0, SVG Export Plug-In . SVG Version: 6.00 Build 0)  -->
<svg version="1.1" id="Layer_1" xmlns="http://www.w3.org/2000/svg" xmlns:xlink="http://www.w3.org/1999/xlink" x="0px" y="0px"
	 viewBox="0 0 642.5 643.3" style="enable-background:new 0 0 642.5 643.3;" xml:space="preserve">
<style type="text/css">
	.st0{fill:#A87C2C;}
	.st1{fill:#292929;}
	.st2{fill:#FCBD2C;}
	.st3{fill:#E1A955;}
	.st4{fill:#010101;}
	.st5{fill:#916329;}
	.st6{fill:#F1C07C;}
	.st7{fill:#422513;stroke:#010101;stroke-width:4;stroke-miterlimit:10;}
	.st8{fill:#F7F8F8;stroke:#010101;stroke-width:4;stroke-miterlimit:10;}
	.st9{fill:#1F140D;}
	.st10{fill:#FFFFFF;}
	.st11{fill:#FCBD2C;stroke:#010101;stroke-width:4;stroke-miterlimit:10;}
	.st12{fill:#C12332;stroke:#010101;stroke-width:4;stroke-miterlimit:10;}
	.st13{fill:#969696;stroke:#010101;stroke-width:4;stroke-miterlimit:10;}
	.st14{fill:#C4C4C4;stroke:#010101;stroke-width:4;stroke-miterlimit:10;}
	.st15{fill:#F0EFEF;}
	.st16{fill:#969696;}
	.st17{fill:#D3D3D3;}
	.st18{fill:#C4C4C4;}
	.st19{fill:#F8D6B0;}
	.st20{fill:none;stroke:#1A1413;stroke-width:4;stroke-linecap:round;stroke-miterlimit:10;}
</style>
<g id="XMLID_75_">
	<ellipse id="XMLID_78_" class="st0" cx="307" cy="625.4" rx="302.8" ry="17.9"/>
	<path id="XMLID_74_" class="st1" d="M103,437.3c0.1,0,0.1,0.1,0.2,0.1l288.5-0.1c-0.2,0.3-1.7,3.5-1.9,3.7
		c-0.1,0.2-0.2,0.4-0.3,0.6c0,0,0,0-0.1,0.1c-11.4,19-25.3,35.6-41,49.1c-4.7,4-9.5,7.8-14.5,11.2c-4.8,3.3-10.4,4.9-15.9,4.9
		c-8.8,0-17.4-4.1-22.9-11.7c-1.1-1.6-2.3-3-3.6-4.5c-10.8-12.2-26.5-19.8-44-19.8c-17.5,0-33.2,7.7-44,19.8
		c-1.3,1.4-2.5,2.9-3.6,4.5c-5.5,7.6-14.1,11.6-22.9,11.6c-5.6,0-11.3-1.7-16.3-5.1c-4.9-3.4-9.6-7.1-14.2-11
		C129.7,476.2,114.9,458.1,103,437.3"/>
	<rect id="XMLID_67_" x="182.2" y="542" class="st2" width="44.8" height="25.1"/>
	<g>
		<polygon class="st3" points="512.6,621 512.6,584.6 102.1,584.6 102.1,621 37.8,621 37.8,584.6 37.7,582.6 37.7,423.2 
			576.9,423.2 576.9,621 		"/>
		<path class="st4" d="M574.9,425.2v141.9v15.4V619h-60.3v-36.4H100.1V619H39.8v-36.4h0V425.2H574.9 M578.9,421.2h-4H39.7h-4v4
			v157.3v4h0V619v4h4h60.3h4v-4v-32.4h406.6V619v4h4h60.3h4v-4v-36.4v-15.4V425.2V421.2L578.9,421.2z"/>
	</g>
	<rect id="XMLID_31_" x="559.2" y="425.3" class="st5" width="15.9" height="193.6"/>
	<rect id="XMLID_30_" x="39.7" y="439" class="st6" width="6.1" height="180"/>
	<rect id="XMLID_28_" x="84.2" y="425.3" class="st5" width="15.9" height="193.6"/>
	<polygon id="XMLID_27_" class="st5" points="514.6,439 98.3,467.1 100.8,432.1 	"/>
	<path id="XMLID_66_" class="st7" d="M505.3,376c-1.5-5,0.3-21.9,3.7-43.7c8.9-57.1,28.7-148.2,28.7-148.2s109.6,68,102.1,107.6
		c-17.7,94.6-100.9,93.8-100.9,93.8"/>
	<path id="XMLID_57_" class="st7" d="M299.1,270.9c3.8-3.5,10.8-19,18.8-39.6c21.1-53.8,49.7-142.5,49.7-142.5
		s-128.9,3.5-142.4,41.5c-32.3,90.7,40,131.9,40,131.9"/>
	<path id="XMLID_65_" class="st8" d="M227.1,245.4c1.7-8,3.8-16,6.4-24c1.4-4.6,3-9.1,4.7-13.5l155.1,92L573,314
		c-1.2,4.6-2.5,9.1-3.9,13.7c-5.4,17-19.1,42-29.9,59.9c0,0-21.4,45.7-38.6,45.7c-17.2,0-59.1-18.7-59.1-18.7l-25.4-8.1l-27.9-8.9
		l-46.9-14.9l-81.9,47l-34.6-9.2c0,0,0.5-83.3-0.8-98.1c-0.8-2.9-1.3-5.8-1.7-8.3c-0.4-2.8-0.6-5.2-0.8-7.4
		c-0.2-7.7-0.1-15.5,0.4-23.3C221.6,266.1,222.8,250.7,227.1,245.4C227.1,245.4,227.1,245.4,227.1,245.4"/>
	<path id="XMLID_64_" class="st9" d="M571.3,285c0,0,3.1-65.7-15.5-106.8c0,0,35.7,34.5,32.8,106.9s-25.3-8.9-25.3-8.9"/>
	<path id="XMLID_62_" class="st9" d="M269.9,165.3c0,0,38.4-53.4,78.5-73.9c0,0-49.4,4.8-92.2,63.3s25.3,8.8,25.3,8.8"/>
	<path id="XMLID_102_" class="st7" d="M238.2,207.9c20.2-53.6,55.8-95.8,97.8-120.7c-3.8-2.5-7-6-9.2-10.3
		c-7-13.5-1.7-30.3,11.8-37.3c6.7-3.5,14.3-3.9,21.1-1.8c6.8,2.1,12.7,6.8,16.2,13.6c2.9,5.5,3.7,11.5,2.7,17.2
		c14.2-4.1,28.7-6.2,43.3-6.2c-0.5-1.3-1.1-2.7-1.7-4c-0.7-1.4-1.4-2.7-2.3-4.1c-12.1-19.9-38.2-36.5-38.2-36.5c28,2,52,9.2,72,19
		C444.6,22.4,436,11,436,11c46.9,21.3,74.6,54.5,90.8,84.2c2.1,3.9,4,7.7,5.8,11.4c1.8,3.8,3.3,7.4,4.8,11c0.5,1,0.8,1.5,0.8,1.5
		c2.5-5.2,6.6-9.7,12.1-12.5c6.8-3.5,14.3-3.9,21.1-1.8c6.8,2.1,12.7,6.8,16.2,13.6c7,13.5,1.7,30.3-11.8,37.3
		c-4.3,2.2-8.9,3.2-13.4,3.1c16.3,36.3,22.6,79.8,16.6,124.7c-1.4,10.1-3.4,20.2-6,30.4l-181.2-5L238.2,207.9z M355.2,51.6
		c-6.8-2.2-14.1,1.6-16.3,8.5c-2.2,6.8,1.6,14.2,8.5,16.3c6.8,2.2,14.1-1.6,16.3-8.5C365.8,61,362,53.7,355.2,51.6 M392.3,101
		c-14.1-3.4-28.8,4.2-34.1,17.7c-6.3,16,2.3,33.7,18.4,38.8c1.7,0.5,3.3,0.9,5,1.1c3.2-0.1,6.4-0.6,9.5-1.6c3.6-1.2,7-2.1,10.2-2.8
		c5.6-3.6,10-9,12.1-15.8C418.5,122.3,409,105,392.3,101 M506.4,137c-15.4-4.9-31.9,3.7-36.8,19.1c-2.2,6.8-1.7,13.8,0.8,19.9
		c2.3,2.4,4.5,5.1,6.8,8.2c1.9,2.6,4.2,4.8,6.8,6.8c1.5,0.8,3.1,1.4,4.7,2c15.4,4.9,31.9-3.7,36.8-19.1
		C530.4,158.4,521.8,141.9,506.4,137 M559.3,143.5c6.8,2.2,14.1-1.6,16.3-8.5c2.2-6.8-1.6-14.2-8.5-16.3c-6.8-2.2-14.1,1.6-16.3,8.5
		C548.7,134,552.4,141.3,559.3,143.5"/>
	<path id="XMLID_55_" class="st10" d="M369.3,234.1c-0.8-0.2-1.6-0.4-2.4-0.7c0,0,0,0,0,0c0.1,0,0.1,0,0.2,0.1
		C367.8,233.7,368.5,233.9,369.3,234.1"/>
	<path id="XMLID_54_" class="st10" d="M453.1,260.7C453.1,260.7,453.1,260.7,453.1,260.7c-0.8-0.2-1.6-0.5-2.3-0.8
		c0.7,0.3,1.4,0.5,2.2,0.8C452.9,260.6,453,260.7,453.1,260.7"/>
	<path id="XMLID_53_" class="st10" d="M391.1,157c-3.1,1-6.2,1.5-9.5,1.6c-1.7-0.2-3.3-0.6-5-1.1c-16.1-5.1-24.7-22.8-18.4-38.8
		c5.3-13.5,20-21.2,34.1-17.7c16.7,4,26.2,21.3,21.1,37.4c-2.2,6.8-6.5,12.3-12.1,15.8C398.1,154.9,394.7,155.8,391.1,157"/>
	<path id="XMLID_52_" class="st10" d="M488.7,193c-1.7-0.5-3.2-1.2-4.7-2c-2.6-1.9-4.9-4.2-6.8-6.8c-2.2-3.1-4.5-5.8-6.8-8.2
		c-2.5-6.1-3-13.1-0.8-19.9c4.9-15.5,21.4-24,36.8-19.1c15.4,4.9,24,21.4,19.1,36.9C520.6,189.3,504.1,197.9,488.7,193"/>
	<path id="XMLID_51_" class="st9" d="M506.4,175.4c-9.8-1.2-15.5-11.1-12-20c2.1-5.3,7.2-8.8,12.8-9.2c3.3-0.3,6,0.6,8.3,1.9
		c-3.3-0.2-6.4,2.2-6.8,5.8c-0.3,2.5,1,5.1,3.2,6.3c3.7,2.1,8.2,0.2,9.4-3.7c0.1-0.5,0.2-0.9,0.3-1.4c1.6,3.9,1.6,8.6-0.7,12.8
		C518,173.2,512.2,176.2,506.4,175.4"/>
	<path id="XMLID_50_" class="st9" d="M394.4,140c-10.2-1.2-15.9-11.9-11.6-21c2.1-4.5,6.5-7.4,11.4-8.1c3.7-0.5,6.7,0.4,9.2,1.8
		c-3.3-0.2-6.4,2.2-6.8,5.8c-0.3,2.5,1,5.1,3.2,6.3c3.7,2.1,8.2,0.2,9.4-3.7c0.1-0.5,0.2-1,0.3-1.4c1.6,3.9,1.6,8.6-0.7,12.8
		C406,137.7,400.2,140.7,394.4,140"/>
	<path id="XMLID_49_" class="st11" d="M347.3,76.4c-6.8-2.2-10.6-9.5-8.5-16.3c2.2-6.8,9.5-10.6,16.3-8.5c6.8,2.2,10.6,9.5,8.5,16.3
		C361.5,74.7,354.2,78.5,347.3,76.4"/>
	<path id="XMLID_43_" class="st2" d="M550.8,127.2c-2.2,6.8,1.6,14.2,8.5,16.3c6.8,2.2,14.1-1.6,16.3-8.5c2.2-6.8-1.6-14.2-8.5-16.3
		C560.3,116.5,553,120.3,550.8,127.2"/>
	<path id="XMLID_42_" class="st8" d="M574.6,298.9c1.9-1,4.3-0.6,5.8,1l0,0l49.2,48.6c0,0-79.1,105-141.7,70.8
		c-60.7-33.2,16.2-83.8,20.8-86.8c0.1-0.1,0.3-0.2,0.4-0.2L574.6,298.9z"/>
	<path id="XMLID_41_" class="st12" d="M342.2,394.7l33.3-63.2c-2.3-3.6-3-8.2-1.5-12.6c2.7-7.7,11-11.7,18.7-9.1
		c7.7,2.7,11.7,11,9.1,18.7c-1.5,4.4-4.9,7.5-9,9l-12.9,70.3L342.2,394.7z"/>
	<circle class="st12" cx="387.5" cy="322.5" r="15.1"/>
	<polygon class="st8" points="391.8,309 360.6,335.1 242.1,227.8 249.1,216.5 	"/>
	<rect id="XMLID_33_" x="39.7" y="425.2" class="st5" width="535.2" height="13.6"/>
	
		<ellipse id="XMLID_24_" transform="matrix(0.9449 -0.3274 0.3274 0.9449 -90.0843 80.3506)" class="st7" cx="193.6" cy="307.7" rx="59.4" ry="77.9"/>
	<g id="XMLID_106_">
		<path id="XMLID_23_" class="st13" d="M252.2,272.3c0,8.8-7.1,16-15.9,16H36.4c-8.8,0-15.9-7.1-15.9-16V146.9c0-8.8,7.1-16,15.9-16
			h199.8c8.8,0,15.9,7.1,15.9,16V272.3z"/>
		<rect id="XMLID_22_" x="34.5" y="363.6" class="st14" width="162" height="17.4"/>
		<path id="XMLID_21_" class="st15" d="M241.4,264.2c0,7.7-6.3,14-14,14H45.7c-7.7,0-14-6.3-14-14V153.9c0-7.7,6.3-14,14-14h181.7
			c7.7,0,14,6.3,14,14V264.2z"/>
		<g id="XMLID_112_">
			<polygon id="XMLID_20_" class="st16" points="83.8,363.6 139.5,363.6 141.5,346.2 85.8,346.2 			"/>
			<polygon id="XMLID_19_" class="st16" points="85.4,349.9 141.1,349.9 157.2,206.4 101.5,206.4 			"/>
			<path id="XMLID_18_" class="st16" d="M156.9,208.9c-0.5,4.8-4.9,8.8-9.7,8.8h-38.3c-4.8,0-8.3-3.9-7.8-8.8l1.1-10
				c0.5-4.8,4.9-8.8,9.7-8.8h38.3c4.8,0,8.3,3.9,7.8,8.8L156.9,208.9z"/>
		</g>
		<g id="XMLID_108_">
			<polygon id="XMLID_17_" class="st17" points="77.9,363.6 133.6,363.6 135.5,346.2 79.9,346.2 			"/>
			<polygon id="XMLID_16_" class="st18" points="79.5,349.9 135.1,349.9 151.2,206.4 95.6,206.4 			"/>
			<path id="XMLID_15_" class="st18" d="M150.9,208.9c-0.5,4.8-4.9,8.8-9.7,8.8H103c-4.8,0-8.3-3.9-7.8-8.8l1.1-10
				c0.5-4.8,4.9-8.8,9.7-8.8h38.3c4.8,0,8.3,3.9,7.8,8.8L150.9,208.9z"/>
		</g>
		<path class="st14" d="M150.2,190.2h-5.9H112H106c-4.8,0-9.2,3.9-9.7,8.8l-1.1,10c0,0.4-0.1,0.8,0,1.2L79.9,346.2h0l-1.9,17.4h5.9
			h49.7h5.9l1.5-13.7h0l16.1-143.4h0l0.8-7.5C158.5,194.1,155,190.2,150.2,190.2z"/>
		<path id="XMLID_14_" class="st17" d="M85.1,347.8L102,200.1c0,0-0.9-7.6,14.9-6.5c15.8,1.1,16.7,1.3,16.7,1.3L85.1,347.8z"/>
	</g>
	<g id="XMLID_68_">
		<path id="XMLID_133_" class="st9" d="M437.1,260.7c-4.1-1.4-7.3-4-9.6-7.2c-4.5-5.1-7.8-13.1-6.1-20c-0.9-0.4-0.3,0-1.2-0.3
			c-1.3-0.5-2.6-1-4-1.5c-1.3-0.5-2.7-0.9-4-1.3c-0.4-0.1-0.8-0.2-1.2-0.4c-3.1,8.5-12.5,13.4-21.3,12.5c-3.1,0.4-6.3,0.2-9.2-0.9
			c-3.4-1.2-6.3-3.2-8.4-5.7c-2.3,7.3-2.6,14.7-1.2,21.6c2.8,13.6,12.1,25.3,25.8,30.1c13.7,4.8,28.3,1.5,38.9-7.4
			c5.7-4.8,10.3-11.2,13-18.9c0-0.1,0.1-0.2,0.1-0.3C444.9,262.1,440.8,262,437.1,260.7z"/>
		<path id="XMLID_84_" class="st10" d="M371.1,232.4c-1,5.8-1.2,9.4-1.1,15c0.1,4.3,2.5,8,6.1,9.2l13.5,4.7c5,1.7,10.6-1.4,12.6-7.1
			l8.5-24.5c-3,1.1-6.1,1.9-9.3,2.5C391.7,234.1,381,235.5,371.1,232.4z"/>
		<path id="XMLID_141_" class="st10" d="M421.4,233.5l-8.5,24.5c-2,5.7,0.4,11.7,5.4,13.4l13.5,4.7c3.6,1.3,7.8-0.1,10.5-3.4
			c3.5-4.3,6.7-9.1,9.5-14.3c-9.6-3.7-18.2-9.6-24.8-17.2C425,238.8,423.1,236.2,421.4,233.5z"/>
	</g>
	<g id="XMLID_37_">
		<rect x="2.9" y="380.2" class="st3" width="608.8" height="47"/>
		<g>
			<path class="st4" d="M609.7,382.2v43H4.9v-43H609.7 M613.7,378.2h-4H4.9h-4v4v43v4h4h604.8h4v-4v-43V378.2L613.7,378.2z"/>
		</g>
	</g>
	<rect id="XMLID_36_" x="4.9" y="382.7" class="st19" width="604.8" height="10.5"/>
	
		<ellipse id="XMLID_26_" transform="matrix(0.4506 -0.8927 0.8927 0.4506 -108.0106 446.5514)" class="st7" cx="308.8" cy="311" rx="77.8" ry="59.4"/>
	<path id="XMLID_46_" class="st9" d="M397.1,196.7c-1.4-5.6-1.4-11.7,0.5-17.7c2.5-7.9,17.1-7.9,31.6-4c1.1,0.3,2.2,0.6,3.3,1
		c1.1,0.3,2.1,0.7,3.2,1.1c14.1,5.1,26,13.5,23.5,21.4c-1.9,5.9-5.3,11-9.7,14.7c-8.2,7-19.7,9.8-30.8,6.3
		C407.6,216.1,399.7,207.2,397.1,196.7"/>
	<path id="XMLID_89_" class="st11" d="M409.2,230.2c-1.8,0.5-3.3,1.2-3.3,1.2s-23.4,6.2-36.7,2.6c-0.7-0.2-1.5-0.4-2.2-0.6
		c-0.1,0-0.1,0-0.2-0.1c-20.1-6.4-33.7-22.9-35.7-40.7c-0.6-5.4-0.1-10.9,1.6-16.4c1.4-4.4,3.6-7.1,6.3-8.7
		c11.8-6.6,34.4,7.7,55.5,0.6c2.3-0.8,4.5-1.4,6.6-1.9c2.4-0.8,5.3-1.4,8.7-1.5c5.7-0.3,12.4,0.6,19.4,2.3c1.8,0.5,3.6,1,5.4,1.5
		c1.8,0.6,3.6,1.2,5.3,1.9c6.8,2.6,12.8,5.8,17.3,9.3c2.7,2.1,4.8,4.2,6.3,6.3c1.4,1.6,2.8,3.4,4.3,5.3c13.2,18,39.9,19.4,45.8,31.5
		c1.4,2.9,1.6,6.3,0.2,10.8c-1.7,5.4-4.5,10.2-8.1,14.3c-11.9,13.4-32.5,19-52.6,12.7c-0.1,0-0.1,0-0.2,0c-0.7-0.2-1.5-0.5-2.2-0.8
		c-12.9-4.7-28.5-23.3-28.5-23.3s-0.8-1.3-2-2.8c-1.3-1.7-3.1-3.6-4.8-4.1C413.8,229.1,411.2,229.6,409.2,230.2 M449.4,213.3
		c4.4-3.8,7.8-8.8,9.7-14.7c2.5-7.9-9.5-16.3-23.5-21.4c-1.1-0.4-2.1-0.8-3.2-1.1c-1.1-0.3-2.2-0.7-3.3-1c-14.4-4-29.1-3.9-31.6,4
		c-1.9,5.9-1.9,12-0.5,17.7c2.7,10.5,10.5,19.4,21.6,22.9C429.7,223.1,441.2,220.3,449.4,213.3"/>
	<ellipse id="XMLID_25_" class="st9" cx="563.2" cy="131.1" rx="23.5" ry="23.5"/>
	<path id="XMLID_29_" class="st20" d="M558.7,146.2c0,0-22.1,108.7-27.7,113.7c-5.6,4.9-58.4,14.9-58.4,14.9"/>
	<path id="XMLID_39_" class="st9" d="M474.4,285.4l37-4.6c4.5-0.6,7.8-4.7,7.2-9.2l-1.2-9.7c-0.6-4.5-4.7-7.8-9.3-7.2l-37,4.6
		c-4.5,0.6-7.8,4.7-7.2,9.2l1.2,9.7C465.7,282.7,469.8,285.9,474.4,285.4z"/>
	<polygon class="st8" points="391.8,309 400.2,347.8 519.1,327.2 543.8,313.2 	"/>
</g>
</svg>
