<?xml version="1.0" encoding="utf-8"?>
<!-- Generator: Adobe Illustrator 25.2.0, SVG Export Plug-In . SVG Version: 6.00 Build 0)  -->
<svg version="1.1" id="Layer_1" xmlns="http://www.w3.org/2000/svg" xmlns:xlink="http://www.w3.org/1999/xlink" x="0px" y="0px"
	 viewBox="0 0 758.5 349.8" style="enable-background:new 0 0 758.5 349.8;" xml:space="preserve">
<style type="text/css">
	.st0{clip-path:url(#SVGID_2_);}
	.st1{fill:#FCBD2C;}
	.st2{fill:#FFFFFF;}
	.st3{fill:#422513;}
	.st4{fill:#010101;}
</style>
<g>
	<g>
		<defs>
			<rect id="SVGID_1_" x="138.9" width="536.9" height="290.2"/>
		</defs>
		<clipPath id="SVGID_2_">
			<use xlink:href="#SVGID_1_"  style="overflow:visible;"/>
		</clipPath>
		<g class="st0">
			<g>
				<path class="st1" d="M379.3,429.8c-44.4,0-80.5,44.7-80.5,87.5s36,15.3,80.5,15.3c44.4,0,80.5,27.5,80.5-15.3
					C459.7,474.5,423.7,429.8,379.3,429.8z"/>
			</g>
			<g>
				<path class="st2" d="M316.3,327.8L316.3,327.8c1.2,0,2.3,0,3.5-0.1c-1.1,0-2.1,0.1-3.2,0.1C316.5,327.8,316.4,327.8,316.3,327.8
					z"/>
			</g>
			<g>
				<path class="st2" d="M336.7,374.5h20.7c7.6,0,13.8-7,13.8-15.7v-37.3c-3.6,2.9-7.4,5.5-11.4,7.8c-12.6,7.1-27,11.1-42,11.6
					c1.4,8.4,3.4,16.5,6.2,24C326.1,370.7,331.2,374.5,336.7,374.5z"/>
			</g>
			<g>
				<path class="st2" d="M421.8,374.5c5.6,0,10.6-3.8,12.7-9.7c2.7-7.5,4.8-15.6,6.2-24c-14.9-0.5-29.3-4.5-41.9-11.6
					c-4.1-2.3-7.9-4.9-11.5-7.8v37.4c0,8.7,6.2,15.7,13.8,15.7L421.8,374.5L421.8,374.5z"/>
			</g>
			<g>
				<path class="st2" d="M442.1,216.3c3.6,2.7,7.7,4.6,11.9,6.1c2.3,0.4,4.7,0.6,7.1,0.6c22.6,0,40.9-18.3,40.9-40.8
					c0-22.6-18.3-40.8-40.9-40.8c-22.6,0-40.9,18.3-40.9,40.8c0,9.9,3.5,19,9.4,26.1C433.7,210.5,437.8,213.2,442.1,216.3z
					 M445.5,169c-0.1,0.6-0.2,1.3-0.2,2c0,5,4,9,9,9s9-4,9-9c0-4.2-2.9-7.7-6.8-8.7c1.5-0.3,3-0.5,4.6-0.5
					c11.3,0,20.4,9.1,20.4,20.4s-9.1,20.4-20.4,20.4c-11.3,0-20.4-9.1-20.4-20.4C440.7,177.2,442.5,172.6,445.5,169z"/>
			</g>
			<g>
				<path class="st2" d="M297.4,223c2.4,0,4.8-0.2,7.1-0.6c4.3-1.5,8.3-3.4,11.9-6.1c4.3-3.1,8.4-5.8,12.4-8
					c5.9-7.1,9.4-16.2,9.4-26.1c0-22.6-18.3-40.8-40.9-40.8c-22.6,0-40.9,18.3-40.9,40.8C256.6,204.8,274.9,223,297.4,223z
					 M281.8,169c-0.1,0.6-0.2,1.3-0.2,2c0,5,4,9,9,9s9-4,9-9c0-4.2-2.9-7.7-6.8-8.7c1.5-0.3,3-0.5,4.6-0.5
					c11.3,0,20.4,9.1,20.4,20.4s-9.1,20.4-20.4,20.4c-11.3,0-20.4-9.1-20.4-20.4C277,177.2,278.8,172.6,281.8,169z"/>
			</g>
			<g>
				<path class="st2" d="M604.5,486.2c-1.1,2.8-2.5,6-4.2,9.4c-2,4.1-4.4,8.6-7.5,13.1c-3.1,4.4-6.8,8.9-11.3,12.4
					c-2.2,1.8-4.7,3.3-7.3,4.5c-2.7,1.1-5.4,2-8.4,2.3c-5.9,0.8-12.4-0.3-18.9-2.6l-0.6-0.2L546,525l-0.2-0.1h-0.1l-1-0.5l-2.7-1.2
					c-1-0.4-1.4-0.8-2-1.2s-1.2-0.8-1.8-1.1c-2.4-2-4.7-4.2-6.4-7c-3.5-5.4-5.5-12.3-6.2-19.5c-0.8-7.2-0.4-14.5,0.3-21.7
					c0.7-7.1,2-14.1,3.5-20.6c1.4-6.5,3.1-12.7,4.7-18.3c3.3-11.3,6.6-20.6,9-27.1s3.9-10.2,3.9-10.2s-2.2,3.3-5.6,9.4
					c-3.4,6.1-8,14.9-12.7,26c-4.6,11.1-9.6,24.3-12.5,39.4c-1.5,7.5-2.4,15.5-2.1,23.9c0.1,2.1,0.3,4.2,0.5,6.4
					c0.4,2.1,0.7,4.3,1.2,6.5l0.9,3.2l0.5,1.6l0.6,1.6l1.3,3.2c0.5,1,1.1,2,1.7,3.1c1.1,2.1,2.6,3.9,4,5.8c0.7,1,1.6,1.8,2.4,2.6
					l2.6,2.5l3.1,2.2c1,0.7,2.2,1.6,3,1.9l2.6,1.4l1.3,0.7l0.5,0.2h0.1l0.2,0.1l0.4,0.2l0.8,0.3c8,3.2,17,5.1,25.9,4
					c4.4-0.5,8.7-1.9,12.6-3.5c0.1,0,0.2-0.1,0.3-0.1c-21,36.8-48.5,67.5-80.5,89.7c-6.9,4.8-14.8,7.1-22.6,7.1
					c-12.2,0-24.2-5.6-31.8-16.2c-14.8-20.5-39-33.8-66.2-33.8s-51.4,13.3-66.2,33.8c-7.7,10.6-19.7,16.3-31.9,16.3
					c-7.6,0-15.3-2.2-22.1-6.9c-31-21.4-57.9-50.8-78.6-86c-0.8-1.3-1.6-2.7-2.4-4.1c0.1,0,0.2,0.1,0.3,0.1c3.9,1.7,8.2,3,12.6,3.5
					c8.9,1.1,17.9-0.8,25.9-4l0.8-0.3l0.4-0.2l0.2-0.1h0.1l0.5-0.2l1.3-0.7l2.6-1.4c0.8-0.3,2-1.2,3-1.9l3.1-2.2l2.6-2.5
					c0.8-0.8,1.7-1.6,2.4-2.6c1.5-1.9,3-3.7,4-5.8c0.6-1,1.2-2,1.7-3.1l1.3-3.2l0.6-1.6l0.5-1.6l0.9-3.2c0.5-2.2,0.8-4.3,1.2-6.5
					c0.2-2.1,0.4-4.3,0.5-6.4c0.2-8.4-0.6-16.4-2.1-23.9c-0.4-2.1-0.9-4.1-1.3-6.1c-3-12.6-7.2-23.7-11.2-33.3
					c-4.7-11-9.3-19.9-12.7-26s-5.6-9.4-5.6-9.4s1.5,3.7,3.9,10.2s5.7,15.8,9,27.1c1.5,5.2,3.1,10.9,4.4,17c0.1,0.5,0.2,0.9,0.3,1.4
					c1.5,6.5,2.8,13.4,3.5,20.6c0.7,7.1,1.1,14.5,0.3,21.7c-0.7,7.2-2.7,14.1-6.2,19.5c-1.7,2.8-4,5-6.4,7c-0.6,0.4-1.2,0.7-1.8,1.1
					c-0.6,0.4-1,0.8-2,1.2l-2.7,1.2l-1,0.5h-0.1l-0.2,0.1l-0.3,0.1l-0.6,0.2c-6.5,2.3-13,3.4-18.9,2.6c-3-0.3-5.7-1.2-8.4-2.3
					c-2.6-1.3-5.1-2.7-7.3-4.5c-4.6-3.5-8.2-8-11.3-12.4s-5.5-9-7.5-13.1c-1.7-3.5-3.1-6.7-4.2-9.5c-12.8-36.3-19.8-76.2-19.8-118.2
					c0-21.5,1.9-42.4,5.4-62.6c10.8-62.1,37.4-117.1,74.3-158.4c-6.1-1.7-11.8-5-16.5-9.7c-15-15-15-39.5,0-54.5
					c7.5-7.5,17.4-11.2,27.2-11.2c9.9,0,19.7,3.7,27.2,11.2c6.1,6.1,9.7,13.8,10.8,21.7c0,0,0.6-0.6,1.7-1.7
					c3.4-4.1,7-8.3,10.9-12.6c3.9-4.2,8.1-8.5,12.5-12.7c34.1-32.6,84.7-65,155.9-73.6c0,0-16.2,11.4-31.4,27.7
					c30.8-4.5,65.6-4.1,103.6,5.1c0,0-41.6,11-66.1,32.3c-1.7,1.4-3.2,2.9-4.7,4.5c-1.4,1.5-2.8,3-4,4.6
					c19.3,6.1,37.7,15.1,54.8,26.4c1.1-8,4.7-15.6,10.8-21.7c7.5-7.5,17.4-11.2,27.2-11.2c9.9,0,19.7,3.7,27.2,11.2
					c15,15,15,39.5,0,54.5c-4.8,4.8-10.5,8-16.5,9.7c49,54.8,79.7,133.5,79.7,221.1C624.4,409.9,617.3,449.9,604.5,486.2z"/>
			</g>
			<g>
				<path class="st2" d="M438.7,327.7c1.1,0.1,2.3,0.1,3.5,0.1l0,0c-0.1,0-0.2,0-0.2,0C440.9,327.8,439.8,327.7,438.7,327.7z"/>
			</g>
			<g>
				<path class="st1" d="M224.5,91.5c-10,0-18.1,8.1-18.1,18.1s8.1,18.1,18.1,18.1s18.1-8.1,18.1-18.1
					C242.6,99.6,234.5,91.5,224.5,91.5z"/>
			</g>
			<g>
				<path class="st1" d="M534.1,91.5c-10,0-18.1,8.1-18.1,18.1s8.1,18.1,18.1,18.1s18.1-8.1,18.1-18.1
					C552.1,99.6,544,91.5,534.1,91.5z"/>
			</g>
			<g>
				<path class="st3" d="M544.7,146.8c6.1-1.7,11.8-5,16.5-9.7c15-15,15-39.5,0-54.5c-7.5-7.5-17.4-11.2-27.2-11.2
					c-9.9,0-19.7,3.7-27.2,11.2c-6.1,6.1-9.7,13.8-10.8,21.7c-17.1-11.4-35.5-20.3-54.8-26.4c1.2-1.6,2.6-3.1,4-4.6
					c1.5-1.5,3.1-3,4.7-4.5C474.4,47.5,516,36.5,516,36.5c-38.1-9.2-72.8-9.6-103.6-5.1c15.2-16.3,31.4-27.7,31.4-27.7
					c-71.2,8.6-121.9,40.9-155.9,73.6c-4.4,4.3-8.6,8.5-12.5,12.7c-3.9,4.3-7.6,8.5-10.9,12.6c-1.1,1.1-1.7,1.7-1.7,1.7
					c-1.1-8-4.8-15.6-10.8-21.7c-7.5-7.5-17.4-11.2-27.2-11.2c-9.9,0-19.7,3.7-27.2,11.2c-15,15-15,39.5,0,54.5
					c4.8,4.8,10.5,8,16.5,9.7c-36.9,41.3-63.5,96.3-74.3,158.4c-3.5,20.2-5.4,41.2-5.4,62.6c0,42,7.1,82,19.8,118.2
					c1.1,2.8,2.5,6,4.2,9.5c2,4.1,4.4,8.6,7.5,13.1c3.1,4.4,6.8,8.9,11.3,12.4c2.2,1.8,4.7,3.3,7.3,4.5c2.7,1.1,5.4,2,8.4,2.3
					c5.9,0.8,12.4-0.3,18.9-2.6l0.6-0.2l0.3-0.1l0.2-0.1h0.1l1-0.5l2.7-1.2c1-0.4,1.3-0.8,2-1.2c0.6-0.4,1.2-0.8,1.8-1.1
					c2.4-2,4.7-4.2,6.4-7c3.5-5.4,5.5-12.3,6.2-19.5c0.8-7.2,0.4-14.5-0.3-21.7c-0.7-7.1-2-14.1-3.5-20.6c-0.1-0.5-0.2-0.9-0.3-1.4
					c-1.4-6-2.9-11.7-4.4-17c-3.3-11.3-6.6-20.6-9-27.1s-3.9-10.2-3.9-10.2s2.2,3.3,5.6,9.4c3.4,6.1,8,14.9,12.7,26
					c4,9.6,8.2,20.7,11.2,33.3c0.5,2,0.9,4,1.3,6.1c1.5,7.5,2.4,15.5,2.1,23.9c-0.1,2.1-0.3,4.2-0.5,6.4c-0.4,2.1-0.7,4.3-1.2,6.5
					l-0.9,3.2l-0.5,1.6l-0.6,1.6l-1.3,3.2c-0.5,1-1.1,2-1.7,3.1c-1.1,2.1-2.6,3.9-4,5.8c-0.7,1-1.6,1.8-2.4,2.6l-2.6,2.5l-3.1,2.2
					c-1,0.7-2.2,1.6-3,1.9l-2.6,1.4l-1.3,0.7l-0.5,0.2h-0.1l-0.2,0.1l-0.4,0.2l-0.8,0.3c-8,3.2-17,5.1-25.9,4
					c-4.4-0.5-8.7-1.9-12.6-3.5c-0.1,0-0.2-0.1-0.3-0.1c0.8,1.4,1.6,2.7,2.4,4.1c20.8,35.1,47.6,64.6,78.6,86
					c6.7,4.6,14.4,6.9,22.1,6.9c12.2,0,24.3-5.7,31.9-16.3c14.8-20.5,39-33.8,66.2-33.8s51.4,13.3,66.2,33.8
					c7.7,10.6,19.7,16.2,31.8,16.2c7.8,0,15.7-2.3,22.6-7.1c32-22.2,59.6-53,80.5-89.7c-0.1,0-0.2,0.1-0.3,0.1
					c-3.9,1.7-8.2,3-12.6,3.5c-8.9,1.1-17.9-0.8-25.9-4l-0.8-0.3l-0.4-0.2v0h-0.1l-0.5-0.2l-1.3-0.7l-2.6-1.4c-0.8-0.3-2-1.2-3-1.9
					l-3.1-2.2l-2.6-2.5c-0.8-0.8-1.7-1.6-2.4-2.6c-1.5-1.9-3-3.7-4-5.8c-0.6-1-1.2-2-1.7-3.1l-1.3-3.2l-0.6-1.6l-0.5-1.6l-0.9-3.2
					c-0.5-2.2-0.8-4.3-1.2-6.5c-0.2-2.1-0.4-4.3-0.5-6.4c-0.3-8.4,0.6-16.4,2.1-23.9c3-15.1,7.9-28.3,12.5-39.4
					c4.7-11,9.3-19.9,12.7-26s5.6-9.4,5.6-9.4s-1.5,3.7-3.9,10.2s-5.7,15.8-9,27.1c-1.7,5.6-3.3,11.8-4.7,18.3
					c-1.5,6.5-2.8,13.4-3.5,20.6c-0.7,7.1-1.1,14.5-0.3,21.7c0.7,7.2,2.7,14.1,6.2,19.5c1.7,2.8,4,5,6.4,7c0.6,0.4,1.2,0.7,1.8,1.1
					c0.6,0.4,1,0.8,2,1.2l2.7,1.2l1,0.5h0.1l0.2,0.1l0.3,0.1l0.6,0.2c6.5,2.3,13,3.4,18.9,2.6c3-0.3,5.7-1.2,8.4-2.3
					c2.6-1.3,5.1-2.7,7.3-4.5c4.6-3.5,8.2-8,11.3-12.4s5.5-9,7.5-13.1c1.7-3.5,3-6.7,4.2-9.4c12.8-36.3,19.9-76.3,19.9-118.3
					C624.4,280.4,593.7,201.6,544.7,146.8z M224.5,127.7c-10,0-18.1-8.1-18.1-18.1s8.1-18.1,18.1-18.1s18.1,8.1,18.1,18.1
					C242.6,119.6,234.5,127.7,224.5,127.7z M461.1,141.3c22.6,0,40.9,18.3,40.9,40.8c0,22.6-18.3,40.8-40.9,40.8
					c-2.4,0-4.8-0.2-7.1-0.6c-4.3-1.5-8.3-3.4-11.9-6.1c-4.3-3.1-8.4-5.8-12.4-8c-5.9-7.1-9.4-16.2-9.4-26.1
					C420.2,159.6,438.5,141.3,461.1,141.3z M297.4,141.3c22.6,0,40.9,18.3,40.9,40.8c0,9.9-3.5,19-9.4,26.1c-4,2.2-8.1,4.9-12.4,8
					c-3.6,2.7-7.7,4.6-11.9,6.1c-2.3,0.4-4.7,0.6-7.1,0.6c-22.6,0-40.9-18.3-40.9-40.8C256.6,159.6,274.9,141.3,297.4,141.3z
					 M379.3,532.6c-44.4,0-80.5,27.5-80.5-15.3s36-87.5,80.5-87.5c44.4,0,80.5,44.7,80.5,87.5C459.7,560.1,423.7,532.6,379.3,532.6z
					 M317.8,340.9c14.9-0.5,29.3-4.5,42-11.6c4.1-2.3,7.9-4.9,11.4-7.8v37.3c0,8.7-6.2,15.7-13.8,15.7h-20.7
					c-5.6,0-10.6-3.8-12.7-9.7C321.2,357.3,319.2,349.3,317.8,340.9z M387.3,358.8v-37.4c3.6,2.9,7.4,5.5,11.5,7.8
					c12.6,7.1,27,11.1,41.9,11.6c-1.4,8.4-3.4,16.5-6.2,24c-2.1,5.9-7.2,9.7-12.7,9.7h-20.7C393.5,374.5,387.3,367.5,387.3,358.8z
					 M442.2,327.8L442.2,327.8c-1.2,0-2.3,0-3.5-0.1c-19.1-0.8-49.2-20.3-51.4-21.8c-2.4-1.7-5.6-3.4-8.1-3.4s-5.6,1.8-8.1,3.4
					c-2.2,1.5-32.3,21.1-51.4,21.8c-1.1,0.1-2.3,0.1-3.5,0.1l0,0c-38.3-0.1-69.3-27.5-69.3-61.3c0-33.4,46.3-14.7,77.3-35.8
					c0.5-0.3,1-0.6,1.5-0.9c2.7-2,5.4-3.8,7.9-5.3c0.5-0.4,1-0.7,1.6-1.1c2.6-1.7,5.6-3.2,9.4-4.6c7.4-2.7,16.7-4.5,26.8-5.1
					c2.6-0.2,5.2-0.2,7.8-0.2s5.3,0.1,7.8,0.2c10.1,0.6,19.4,2.3,26.8,5.1c3.7,1.4,6.8,3,9.4,4.6c0.5,0.4,1.1,0.7,1.6,1.1
					c2.5,1.5,5.2,3.3,7.9,5.3c0.5,0.3,1,0.6,1.5,0.9c31,21.1,77.3,2.5,77.3,35.8C511.5,300.2,480.5,327.6,442.2,327.8z M534.1,127.7
					c-10,0-18.1-8.1-18.1-18.1s8.1-18.1,18.1-18.1s18.1,8.1,18.1,18.1C552.1,119.6,544,127.7,534.1,127.7z"/>
				<path class="st4" d="M281.2,638.4c-8.4,0-16.5-2.5-23.5-7.3c-30.9-21.3-58.3-51.3-79.3-86.8c-0.4-0.7-0.8-1.4-1.2-2
					c-0.4-0.7-0.8-1.4-1.2-2.1l-2.1-3.7h4.3c0.3,0,0.5,0,0.7,0.1h0.1l0.5,0.2c4.5,1.8,8.4,2.9,11.9,3.3c7.7,1,16-0.3,24.7-3.8
					l1.2-0.5l0.5-0.3h0.2l4-2.1c0.4-0.1,1.4-0.8,2-1.3l3.4-2.4l2.9-2.8c0.6-0.6,1.2-1.2,1.6-1.8c0.3-0.5,0.7-0.9,1-1.3
					c1.1-1.4,2.1-2.8,2.8-4.2c0.2-0.4,0.5-0.8,0.7-1.2c0.3-0.6,0.7-1.2,1-1.7l1.8-4.6l0.5-1.5l0.9-3.1c0.3-1.3,0.5-2.6,0.7-3.9
					c0.1-0.8,0.3-1.5,0.4-2.3l0-0.5c0.2-2,0.4-3.9,0.4-5.7c0.3-7.4-0.4-15.1-2.1-23.3c-0.4-2.2-0.8-4.1-1.3-6
					c-3.1-13.1-7.6-24.5-11.1-32.9c-0.8-1.9-1.6-3.7-2.4-5.6c0.6,1.9,1.2,3.8,1.8,5.8c1.7,5.8,3.1,11.6,4.4,17.1
					c0.1,0.3,0.1,0.5,0.2,0.7c0.1,0.2,0.1,0.5,0.2,0.8c1.7,7.5,2.9,14.4,3.5,20.8c0.6,6.6,1.2,14.3,0.3,22.2
					c-0.8,8-3.1,15.1-6.6,20.6c-2,3.2-4.7,5.7-6.9,7.6l-0.2,0.2l-0.3,0.1c-0.5,0.2-1,0.6-1.5,0.9l-0.1,0.1c-0.2,0.1-0.3,0.2-0.4,0.3
					c-0.4,0.3-1,0.7-1.9,1.1l-4,1.9h-0.2l-0.8,0.3c-7.3,2.6-14.1,3.5-20,2.7c-3.5-0.3-6.5-1.4-9-2.5l-0.1,0c-2.9-1.4-5.6-3-7.8-4.8
					c-4-3.1-7.8-7.3-11.8-12.9c-3.5-5.1-6.1-10.1-7.7-13.4c-1.7-3.4-3.1-6.7-4.3-9.7c-13.3-37.8-20-77.8-20-119.1
					c0-21,1.8-42.2,5.4-63c10.5-60.2,35.5-114.4,72.4-156.8c-5.2-2-9.9-5.1-13.9-9.1c-16-16-16-42,0-58c7.7-7.7,18-11.9,29-11.9
					s21.3,4.2,29,11.9c5.1,5.2,8.7,11.4,10.5,18.1c2.5-3.1,5.5-6.4,9.3-10.6c4.4-4.7,9-9.3,12.6-12.8c43.6-42,96.6-67,157.3-74.3
					l9.9-1.2l-8.1,5.7c-0.1,0.1-12.8,9.1-26,22.2c32.1-3.8,64.9-1.8,97.4,6.1l9.6,2.3l-9.5,2.5c-0.4,0.1-41.3,11.1-65.1,31.8
					c-1.5,1.4-3.1,2.9-4.6,4.4c-0.5,0.5-1,1.1-1.5,1.6c17,5.7,33.3,13.6,48.7,23.5c1.7-7.3,5.4-13.9,10.8-19.3
					c7.7-7.7,18-11.9,29-11.9s21.3,4.2,29,11.9c16,16,16,42,0,58c-4,4-8.7,7.1-13.9,9.1c23.9,27.4,42.8,59.8,56.2,96.2
					c14.4,39,21.6,80.6,21.6,123.7c0,41.3-6.7,81.4-20,119.1l-0.1,0.2c-0.4,0.8-0.7,1.6-1.1,2.5c-0.9,2.1-1.9,4.5-3.1,7
					c-2,4-4.4,8.8-7.7,13.4c-2.8,4-6.7,9-11.8,13c-2.5,2-5.3,3.5-7.7,4.7l-0.2,0.1c-2.5,1-5.6,2.1-9.1,2.5c-5.9,0.8-12.6-0.1-20-2.7
					l-0.8-0.3h-0.2l-1.5-0.7l-2.6-1.2c-1-0.4-1.5-0.8-2-1.2c-0.1-0.1-0.2-0.2-0.3-0.2c-0.3-0.2-0.5-0.3-0.8-0.5
					c-0.3-0.2-0.7-0.4-1-0.6l-0.2-0.2c-2.3-1.9-4.9-4.3-6.9-7.6c-3.5-5.4-5.8-12.5-6.6-20.6c-0.9-8-0.3-16,0.3-22.2
					c0.6-6.4,1.8-13.3,3.6-20.9c1.4-6.5,3-12.7,4.7-18.5c0.6-2,1.1-3.9,1.7-5.7c-0.8,1.8-1.6,3.6-2.4,5.5
					c-4.1,10-9.3,23.4-12.3,38.9c-1.6,8.2-2.3,15.9-2.1,23.3c0.1,2,0.3,4.1,0.5,6.1c0.1,0.7,0.2,1.3,0.3,1.9
					c0.2,1.5,0.5,2.9,0.8,4.3l1.3,4.6l0.6,1.5l1.3,3.1c0.4,1,1,1.9,1.5,2.8l0.1,0.2c0.8,1.6,2,3.2,3.3,4.8l0.5,0.7
					c0.4,0.6,1,1.2,1.6,1.8l2.9,2.8l3.4,2.4c0.6,0.4,1.6,1.1,2,1.3l0.3,0.1l3.8,2l1.6,0.7c8.8,3.5,17.1,4.8,24.7,3.9
					c3.9-0.4,7.9-1.6,11.9-3.3l0.6-0.2c0.2-0.1,0.4-0.1,0.7-0.1h4.3l-2.1,3.7c-21,36.9-49.1,68.2-81.2,90.5
					c-7.1,4.9-15.4,7.5-24,7.5c-13.3,0-26-6.4-33.8-17.2c-14.8-20.5-38.8-32.8-64.2-32.8c-25.4,0-49.4,12.2-64.2,32.8
					C307.3,631.9,294.7,638.4,281.2,638.4z M183.7,543.5c20.5,34,47,62.8,76.8,83.4c6.2,4.2,13.3,6.5,20.7,6.5
					c11.9,0,23-5.7,29.9-15.3c15.8-21.8,41.3-34.8,68.2-34.8s52.5,13,68.2,34.8c6.9,9.5,18,15.2,29.8,15.2c7.6,0,14.9-2.3,21.2-6.7
					c29.8-20.7,56.1-49.3,76.3-83c-2.4,0.7-4.7,1.1-7,1.4c-8.5,1-17.6-0.4-27.1-4.2l-2.1-0.8l-3.8-2c-0.9-0.4-1.9-1.1-2.9-1.8
					l-3.9-2.8l-3.1-3c-0.7-0.7-1.5-1.4-2.2-2.4l-0.4-0.5c-1.4-1.7-2.8-3.5-3.8-5.6c-0.6-1-1.2-2.1-1.8-3.3l0-0.1l-2-5l-0.5-1.6
					l-1-3.4c-0.4-1.6-0.6-3.1-0.9-4.6c-0.1-0.7-0.2-1.3-0.3-2l0-0.2c-0.2-2.1-0.4-4.3-0.5-6.5c-0.3-7.9,0.4-15.9,2.1-24.5
					c3.2-15.9,8.4-29.7,12.6-39.9c4.9-11.5,9.7-20.6,12.8-26.3c3.4-6.1,5.6-9.4,5.7-9.6l13.6-20.5l-9.2,22.8c0,0-1.5,3.7-3.9,10.1
					c-2.2,6-5.6,15.3-8.9,26.9c-1.7,5.7-3.3,11.8-4.7,18.1c-1.7,7.5-2.9,14.1-3.5,20.3c-0.6,5.9-1.1,13.6-0.3,21.2
					c0.7,7.3,2.7,13.6,5.8,18.4c1.6,2.7,3.8,4.7,5.8,6.3c0.2,0.1,0.4,0.3,0.7,0.4c0.3,0.2,0.7,0.4,1,0.6c0.2,0.1,0.3,0.2,0.5,0.4
					c0.4,0.3,0.6,0.4,1,0.6l4.2,1.9l0.6,0.2c6.7,2.4,12.6,3.2,17.8,2.5c2.9-0.3,5.5-1.2,7.7-2.1c2.1-1.1,4.6-2.4,6.7-4.2
					c4.7-3.6,8.3-8.2,10.8-11.9c3.1-4.4,5.4-8.9,7.3-12.8c1.2-2.4,2.2-4.7,3-6.8c0.4-0.9,0.7-1.7,1.1-2.5
					c13.1-37.2,19.7-76.6,19.7-117.4c0-83.3-28.8-163.2-79.1-219.4l-2.7-3l3.9-1.1c5.8-1.6,11.1-4.7,15.4-9.1
					c14.1-14.1,14.1-36.9,0-51c-6.8-6.8-15.8-10.5-25.4-10.5c-9.6,0-18.7,3.7-25.4,10.5c-5.5,5.5-9,12.5-10.1,20.3l-0.5,3.9
					l-3.3-2.2c-17-11.3-35.2-20.1-54.2-26.1l-3.4-1.1l2.1-2.8c1.3-1.7,2.7-3.3,4.2-4.8l0.1-0.1c1.5-1.5,3.1-3,4.7-4.5l0.1-0.1
					c17.8-15.5,44.1-25.5,57.9-30.1c-31.3-6.5-62.7-7.5-93.4-3l-7,1l4.9-5.2c8.9-9.5,18-17.3,24.1-22.2
					C379,16,330.2,40.1,289.6,79.1c-3.5,3.4-8.1,8-12.4,12.6c-4.6,5.1-7.9,8.9-10.8,12.5l-0.2,0.2l-5.3,5.3l-0.7-5
					c-1-7.6-4.5-14.6-10.1-20.3c-6.7-6.7-15.8-10.5-25.4-10.5c-9.6,0-18.7,3.7-25.4,10.5c-14.1,14.1-14.1,36.9,0,51
					c4.3,4.3,9.5,7.4,15.4,9.1l3.8,1.1l-2.7,3c-37.7,42.2-63.2,96.5-73.7,157.2c-3.6,20.5-5.4,41.5-5.4,62.2
					c0,40.7,6.6,80.2,19.7,117.4c1.1,2.8,2.5,5.9,4.1,9.2c1.6,3.2,4,8,7.3,12.8c3.6,5.1,7.2,9,10.8,11.8c2,1.6,4.2,3,6.8,4.2
					c2.2,0.9,4.8,1.8,7.7,2.1c5.2,0.7,11.2-0.1,17.8-2.5l0.8-0.3l1.2-0.5l2.7-1.2c0.4-0.2,0.6-0.3,0.9-0.5c0.2-0.2,0.5-0.4,0.8-0.5
					c0.5-0.4,1.1-0.7,1.7-1.1c1.9-1.6,4.1-3.6,5.7-6.2c3.1-4.8,5.1-11.2,5.8-18.4c0.8-7.5,0.3-14.9-0.3-21.2
					c-0.6-6.3-1.7-12.9-3.4-20.3c-0.1-0.3-0.1-0.5-0.2-0.7c-0.1-0.2-0.1-0.5-0.2-0.8c-1.3-5.4-2.7-11.1-4.4-16.8
					c-3.4-11.6-6.7-20.9-8.9-26.9c-2.4-6.4-3.9-10.1-3.9-10.1l-9.2-22.8l13.6,20.4c0.1,0.1,2.3,3.5,5.7,9.6
					c4.7,8.5,9,17.3,12.8,26.2c3.6,8.6,8.1,20.2,11.3,33.7c0.5,2,0.9,3.9,1.3,6.2c1.7,8.6,2.4,16.6,2.1,24.5c-0.1,2-0.3,3.9-0.5,6
					l-0.1,0.8c-0.1,0.8-0.3,1.5-0.4,2.3c-0.2,1.4-0.5,2.8-0.8,4.3l0,0.1l-1.5,5l-0.6,1.6l-1.4,3.4c-0.3,0.7-0.7,1.3-1.1,2.1
					c-0.2,0.4-0.4,0.7-0.6,1.1c-0.9,1.8-2.1,3.4-3.3,4.9c-0.3,0.4-0.6,0.8-0.9,1.2c-0.7,0.9-1.5,1.7-2.2,2.4l-3.4,3.2l-3.6,2.5
					c-1,0.7-2,1.4-2.9,1.8l-4,2.2l-2.1,0.8c-9.5,3.8-18.6,5.2-27.1,4.1C188.5,544.7,186.2,544.3,183.7,543.5z M441.4,543.8
					c-6.7,0-14.7-1.7-23.7-3.6c-11.5-2.4-24.5-5.1-38.4-5.1c-13.9,0-26.9,2.7-38.4,5.1c-16.3,3.4-29.1,6.1-37.1-0.4
					c-5.1-4.1-7.4-11.3-7.4-22.5c0-42.5,35.5-90,83-90c21.7,0,42.5,10.1,58.8,28.5c15.4,17.5,24.2,39.9,24.2,61.5
					c0,11.3-2.4,18.4-7.5,22.5C451.2,542.7,446.7,543.8,441.4,543.8z M379.3,432.3c-44.6,0-78,44.9-78,85c0,9.5,1.8,15.6,5.6,18.7
					c6.2,5,18,2.5,33-0.6c11.8-2.5,25.1-5.2,39.4-5.2c14.4,0,27.7,2.8,39.4,5.2c15,3.1,26.8,5.6,32.9,0.6c3.8-3.1,5.6-9.2,5.6-18.7
					C457.3,477.2,423.9,432.3,379.3,432.3z M421.8,377h-20.7c-9,0-16.3-8.2-16.3-18.2v-42.6l4.1,3.3c3.6,2.9,7.2,5.4,11.2,7.6
					c12.2,6.9,26.3,10.8,40.8,11.3l2.9,0.1l-0.5,2.8c-1.5,9-3.6,17.2-6.3,24.5C434.4,372.4,428.4,377,421.8,377z M389.8,326.5v32.4
					c0,7.3,5.1,13.2,11.3,13.2h20.7c4.5,0,8.6-3.2,10.3-8c2.3-6.2,4.2-13.2,5.6-20.8c-14.2-0.9-28.1-5-40.2-11.8
					C394.9,329.9,392.3,328.2,389.8,326.5z M357.4,377h-20.7c-6.7,0-12.6-4.5-15.1-11.4c-2.7-7.3-4.8-15.3-6.3-24.3l-0.5-2.8
					l2.9-0.1c14.4-0.5,28.5-4.4,40.9-11.3c3.9-2.2,7.7-4.8,11-7.5l4.1-3.4v42.6C373.7,368.8,366.4,377,357.4,377z M320.8,343.3
					c1.4,7.6,3.2,14.4,5.6,20.7c1.8,4.9,5.8,8.1,10.4,8.1h20.7c6.2,0,11.3-5.9,11.3-13.2v-32.2c-2.4,1.8-5,3.4-7.7,4.9
					C348.8,338.3,334.9,342.4,320.8,343.3z M442.2,330.3L442.2,330.3c-1.2,0-2.4,0-3.7-0.1c-20.5-0.9-52.3-22-52.7-22.2
					c-2.6-1.8-5.1-3-6.7-3c-2.1,0-5.5,2.2-6.8,3c-0.3,0.2-31.9,21.4-52.6,22.2c-1.2,0.1-2.4,0.1-3.7,0.1
					c-39.6-0.1-71.8-28.7-71.8-63.8c0-21.6,18-23.7,37-26c13.6-1.6,28.9-3.4,41.4-11.9l0.1-0.1l1.4-0.8c2.6-1.9,5.3-3.7,7.9-5.3
					c0.4-0.3,0.8-0.6,1.2-0.8l0.4-0.3c2.9-1.9,6.1-3.5,9.9-4.9c7.7-2.8,17.3-4.6,27.5-5.2c2.7-0.2,5.3-0.2,7.9-0.2
					c2.6,0,5.3,0.1,7.9,0.2c10.6,0.6,20.2,2.5,27.6,5.3c3.5,1.3,6.8,2.9,9.8,4.8l0.3,0.2c0.2,0.1,0.4,0.3,0.6,0.4
					c0.3,0.2,0.6,0.4,0.9,0.6c2.6,1.5,5.3,3.4,7.9,5.3l1.5,0.9c12.5,8.5,27.9,10.3,41.5,11.9c19,2.3,36.9,4.4,36.9,25.9
					C514,301.5,481.8,330.1,442.2,330.3z M325.5,232.8c-13.5,9.2-29.5,11-43.6,12.7c-20.8,2.4-32.5,4.6-32.5,21
					c0,32.3,30,58.7,66.8,58.8c1.2,0,2.3,0,3.3-0.1l0.1,0c19-0.7,49.8-21.2,50.1-21.4c3.1-2,6.4-3.8,9.5-3.8c3.6,0,7.5,2.4,9.5,3.9
					c6.3,4.3,33.5,20.6,50.1,21.3l0.1,0c1.1,0.1,2.1,0.1,3.3,0.1c36.8-0.2,66.8-26.6,66.8-58.8c0-16.3-11.8-18.5-32.5-21
					c-14.1-1.7-30.1-3.6-43.6-12.7l-1.6-1c-2.5-1.9-5.2-3.7-7.7-5.2l-0.3-0.2c-0.2-0.1-0.4-0.3-0.6-0.4c-0.3-0.2-0.6-0.4-0.9-0.6
					c-2.8-1.7-5.7-3.1-8.9-4.3c-7-2.6-16-4.3-26.1-4.9c-2.6-0.1-5.1-0.2-7.7-0.2c-2.6,0-5.1,0-7.6,0.2c-9.8,0.6-18.8,2.3-26.1,5
					c-3.5,1.3-6.3,2.7-8.9,4.3l-0.5,0.3c-0.4,0.2-0.7,0.4-0.9,0.7l-0.3,0.2c-2.5,1.5-5.2,3.3-7.7,5.2L327,232L325.5,232.8z
					 M461.1,225.4c-2.6,0-5.1-0.2-7.5-0.6l-0.4-0.1c-5-1.7-9.1-3.9-12.6-6.5c-4.5-3.3-8.5-5.8-12.1-7.8l-0.4-0.2l-0.3-0.4
					c-6.4-7.7-10-17.6-10-27.7c-0.1-11.5,4.4-22.4,12.6-30.5c8.2-8.2,19.1-12.8,30.7-12.8c23.9,0,43.4,19.4,43.4,43.3
					S485,225.4,461.1,225.4z M454.6,219.9c2.1,0.4,4.3,0.5,6.5,0.5c21.2,0,38.4-17.2,38.4-38.3c0-21.1-17.2-38.3-38.4-38.3
					c-10.3,0-20,4-27.2,11.3c-7.2,7.2-11.1,16.8-11.1,27c0,8.8,3,17.4,8.5,24.2c3.7,2,7.7,4.6,12.2,7.9
					C446.7,216.5,450.2,218.3,454.6,219.9z M297.5,225.4c-23.9,0-43.4-19.4-43.4-43.3s19.4-43.3,43.3-43.3
					c23.9,0,43.4,19.4,43.4,43.3c0,10.1-3.5,20-10,27.7l-0.3,0.4l-0.4,0.2c-3.6,2-7.6,4.5-12.1,7.8c-3.3,2.5-7.4,4.6-12.5,6.4
					l-0.4,0.1C302.6,225.2,300.1,225.4,297.5,225.4z M297.4,143.8c-21.1,0-38.3,17.2-38.3,38.3c0,21.1,17.2,38.3,38.4,38.3
					c2.2,0,4.4-0.2,6.5-0.5c4.5-1.6,8.1-3.5,11-5.7c4.6-3.3,8.6-5.9,12.3-8c5.5-6.8,8.5-15.3,8.5-24.1
					C335.8,161,318.6,143.8,297.4,143.8z M534.1,130.2c-11.4,0-20.6-9.2-20.6-20.6S522.7,89,534.1,89c11.4,0,20.6,9.2,20.6,20.6
					C554.6,121,545.3,130.2,534.1,130.2z M534.1,94c-8.6,0-15.6,7-15.6,15.6c0,8.6,7,15.6,15.6,15.6c8.5,0,15.5-7,15.6-15.6
					C549.7,101,542.7,94,534.1,94z M224.5,130.2c-11.4,0-20.6-9.2-20.6-20.6S213.1,89,224.5,89s20.6,9.2,20.6,20.6
					S235.9,130.2,224.5,130.2z M224.5,94c-8.6,0-15.6,7-15.6,15.6c0,8.6,7,15.6,15.6,15.6s15.6-7,15.6-15.6
					C240.1,101,233.1,94,224.5,94z"/>
			</g>
			<g>
				<g>
					<g>
						<path class="st4" d="M289.7,242.9c-21.8,0-42.7-12-54.5-31.4c-11.6-19.2-12.4-41.5-2.1-61.3c14.4-27.7,65.1-38.7,100.8-30
							c22.9,5.6,36.1,18.5,36.1,35.4C369.9,203.7,333.9,242.9,289.7,242.9z M308.2,124.3c-28.4,0-59,10.2-68.9,29.1
							c-9.1,17.5-8.4,37.4,1.9,54.4c10.5,17.3,29.1,28.1,48.5,28.1c40.4,0,73.2-36,73.2-80.3c0-18.3-19.2-25.8-30.7-28.6
							C324.8,125.2,316.6,124.3,308.2,124.3z"/>
					</g>
					<g>
						<path class="st4" d="M467.6,242.9c-44.2,0-80.2-39.2-80.2-87.3c0-16.9,13.1-29.8,36.1-35.4c35.7-8.7,86.3,2.2,100.8,30
							c10.3,19.8,9.5,42.1-2.1,61.3C510.3,230.9,489.4,242.9,467.6,242.9z M449.1,124.3c-8.4,0-16.6,0.9-24,2.7
							c-11.5,2.8-30.7,10.3-30.7,28.6c0,44.3,32.8,80.3,73.2,80.3c19.4,0,38-10.8,48.5-28.1c10.3-17,11-36.9,1.9-54.4
							C508.1,134.5,477.5,124.3,449.1,124.3z"/>
					</g>
				</g>
				<g>
					<path class="st4" d="M407.6,133.1h-7c0-1.5-7.6-6-22-6s-22,4.5-22,6h-7c0-8.9,15-13,29-13C393,120.1,407.6,124.6,407.6,133.1z"
						/>
				</g>
			</g>
			<g>
				<g>
					<path class="st1" d="M442,330.3c-0.9,0-1.9,0-2.8-0.1h-0.5c-14.4-0.6-28-4.9-39.3-12.3l1.6,2.8l-11.4-10c0,0-1.6-1.4-3.6-2.8
						c-4-2.7-6-3-6.7-3c-1.4,0-3.9,1.1-6.7,3c-2,1.4-3.6,2.7-3.6,2.8l-11.4,10l1.6-2.8c-11.4,7.4-24.9,11.7-39.3,12.3h-0.5
						c-0.9,0-1.9,0.1-2.8,0.1h-0.2c-39.6-0.1-71.8-28.8-71.8-63.8c0-21.6,17.9-23.7,36.9-26c13.6-1.6,28.9-3.4,41.4-11.9
						c0.3-0.2,0.5-0.3,0.8-0.5c0.2-0.1,0.4-0.2,0.6-0.4c2.6-1.9,5.3-3.7,8-5.4c0.5-0.3,1-0.7,1.5-1l0.1-0.1c2.9-1.9,6.2-3.5,9.9-4.9
						c7.6-2.8,17.1-4.6,27.5-5.2c2.9-0.2,5.5-0.3,8-0.3s5.1,0.1,8,0.3c10.4,0.6,20,2.4,27.5,5.2c3.7,1.3,7,3,9.9,4.9l0.2,0.1
						c0.5,0.3,1,0.6,1.5,1c2.7,1.6,5.3,3.4,8,5.4c0.2,0.1,0.4,0.3,0.6,0.4c0.3,0.2,0.5,0.3,0.8,0.5c12.5,8.5,27.9,10.3,41.4,11.9
						c19,2.2,36.9,4.4,36.9,26c0,35.1-32.2,63.7-71.8,63.8H442z M379.3,226.7c-1.5,0-3,0-4.6,0.1c-22.3,0.9-37.8,7.5-37.8,16
						c0,7.9,2.2,15.6,6.3,22.3c7.8,12.6,21.3,20.1,36.1,20.1s28.3-7.5,36.1-20.1c4.2-6.7,6.4-14.4,6.4-22.3c0-8.6-15.6-15.2-37.8-16
						C382.2,226.7,380.7,226.7,379.3,226.7z"/>
				</g>
				<g>
					<path class="st4" d="M379.3,213.4c2.6,0,5.3,0.1,7.8,0.2c10.1,0.6,19.4,2.3,26.8,5.1c3.7,1.4,6.8,3,9.4,4.6
						c0.5,0.4,1.1,0.7,1.6,1.1c2.5,1.5,5.2,3.3,7.9,5.3c0.5,0.3,1,0.6,1.5,0.9c31,21.1,77.3,2.5,77.3,35.8c0,33.8-31,61.2-69.3,61.3
						c-0.1,0-0.2,0-0.2,0c-1.1,0-2.2-0.1-3.2-0.1c-19.1-0.8-36.2-8.3-48.2-20l0.6,1.1c0,0-1.6-1.4-3.8-2.9c-2.4-1.7-5.6-3.4-8.1-3.4
						s-5.6,1.8-8.1,3.4c-2.2,1.5-3.8,2.9-3.8,2.9l0.6-1.1c-12,11.7-29.1,19.2-48.2,20c-1.1,0-2.1,0.1-3.2,0.1c-0.1,0-0.2,0-0.2,0
						c-38.3-0.1-69.3-27.5-69.3-61.3c0-33.4,46.3-14.7,77.3-35.8c0.5-0.3,1-0.6,1.5-0.9c2.7-2,5.4-3.8,7.9-5.3
						c0.5-0.4,1-0.7,1.6-1.1c2.6-1.7,5.6-3.2,9.4-4.6c7.4-2.7,16.7-4.5,26.8-5.1C374,213.5,376.6,213.4,379.3,213.4 M379.3,287.7
						c16.1,0,30.3-8.5,38.2-21.3c4.3-6.9,6.7-15,6.7-23.7c0-11.5-19.4-17.7-40.2-18.5c-1.6-0.1-3.1-0.1-4.7-0.1
						c-1.6,0-3.2,0-4.7,0.1c-20.8,0.8-40.2,7-40.2,18.5c0,8.7,2.5,16.8,6.7,23.6C349,279.2,363.1,287.7,379.3,287.7 M379.3,208.4
						c-2.5,0-5.2,0.1-8.1,0.3c-10.7,0.6-20.4,2.5-28.2,5.4c-3.8,1.4-7.3,3.1-10.4,5.1l-0.2,0.1c-0.5,0.3-1,0.6-1.4,1
						c-2.7,1.6-5.4,3.5-8.1,5.4c-0.1,0-0.3,0.2-0.4,0.3c-0.3,0.2-0.6,0.4-0.9,0.6c-12,8.2-27,9.9-40.3,11.5
						c-9.8,1.2-19.1,2.3-26.2,5.8c-8.7,4.4-12.9,11.8-12.9,22.6c0,17.8,7.8,34.5,22,47.1c14,12.4,32.6,19.2,52.3,19.3
						c0.1,0,0.2,0,0.3,0c1,0,2,0,3-0.1h0.5c11.6-0.5,22.6-3.3,32.5-8.1l-4.6,8l22.8-20c0,0,1.5-1.3,3.4-2.6c3-2,4.7-2.5,5.3-2.5
						c0.5,0,2.3,0.5,5.2,2.5c1.9,1.3,3.4,2.6,3.4,2.6l22.7,19.9l-4.5-7.8c9.9,4.8,20.9,7.6,32.5,8.1h0.5c1,0,1.9,0.1,3,0.1
						c0.1,0,0.2,0,0.3,0l0,0c19.8-0.1,38.3-6.9,52.3-19.3c14.2-12.5,22-29.3,22-47.1c0-10.8-4.2-18.2-12.9-22.6
						c-7.1-3.6-16.4-4.7-26.2-5.8c-13.3-1.6-28.3-3.3-40.3-11.5c-0.3-0.2-0.6-0.4-0.9-0.6c-0.2-0.1-0.3-0.2-0.4-0.3
						c-2.7-2-5.4-3.8-8.1-5.4c-0.5-0.3-1-0.7-1.4-1l-0.2-0.1c-3.1-2-6.5-3.7-10.4-5.1c-7.8-2.9-17.6-4.7-28.2-5.4
						C384.5,208.4,381.8,208.4,379.3,208.4L379.3,208.4z M379.3,282.7c-13.9,0-26.6-7.1-34-18.9c-3.9-6.3-6-13.6-6-21
						c0-6.9,15.2-12.7,35.4-13.5c1.6-0.1,3.1-0.1,4.5-0.1s2.9,0,4.5,0.1c20.2,0.8,35.4,6.6,35.4,13.5c0,7.4-2.1,14.7-6,21
						C405.9,275.7,393.2,282.7,379.3,282.7L379.3,282.7z"/>
				</g>
			</g>
			<g>
				<path class="st4" d="M379.3,287.7c16.1,0,30.3-8.5,38.2-21.3c4.3-6.9,6.7-15,6.7-23.7c0-11.5-19.4-17.7-40.2-18.5
					c-1.6-0.1-3.1-0.1-4.7-0.1c-1.6,0-3.2,0-4.7,0.1c-20.8,0.8-40.2,7-40.2,18.5c0,8.7,2.5,16.8,6.7,23.6
					C349,279.2,363.1,287.7,379.3,287.7z"/>
			</g>
		</g>
	</g>
</g>
<g>
	<g>
		<g>
			<path class="st3" d="M179.4,303.7c0,39.3-38.6,43.6-87.4,43.6S2.5,343,2.5,303.7s39.6-71.1,88.4-71.1S179.4,264.4,179.4,303.7z"
				/>
			<path class="st4" d="M92,349.8c-46.6,0-92-3.6-92-46.1c0-40.6,40.8-73.6,90.9-73.6c50.2,0,91,33,91,73.6
				C181.9,346.3,139.4,349.8,92,349.8z M90.9,235.1C43.5,235.1,5,265.9,5,303.7c0,34.4,31.9,41.1,87,41.1c55.1,0,84.9-6.5,84.9-41.1
				C176.9,265.9,138.3,235.1,90.9,235.1z"/>
		</g>
	</g>
	<g>
		<g>
			<path class="st3" d="M756,303.7c0,39.3-38.6,43.6-87.4,43.6c-48.8,0-89.5-4.3-89.5-43.6s39.6-71.1,88.4-71.1S756,264.4,756,303.7
				z"/>
			<path class="st4" d="M668.6,349.8c-46.6,0-92-3.6-92-46.1c0-40.6,40.8-73.6,90.9-73.6c50.2,0,91,33,91,73.6
				C758.5,346.3,716,349.8,668.6,349.8z M667.5,235.1c-47.4,0-85.9,30.8-85.9,68.6c0,34.4,31.9,41.1,87,41.1
				c55.1,0,84.9-6.5,84.9-41.1C753.5,265.9,714.9,235.1,667.5,235.1z"/>
		</g>
	</g>
</g>
</svg>
