<?xml version="1.0" encoding="utf-8"?>
<!-- Generator: Adobe Illustrator 25.2.0, SVG Export Plug-In . SVG Version: 6.00 Build 0)  -->
<svg version="1.1" id="Layer_1" xmlns="http://www.w3.org/2000/svg" xmlns:xlink="http://www.w3.org/1999/xlink" x="0px" y="0px"
	 viewBox="0 0 288.8 168.5" style="enable-background:new 0 0 288.8 168.5;" xml:space="preserve">
<g>
	<g>
		<g>
			<path d="M248.1,128c0.2,4.2,2.4,8.1,5.9,10.3c0.8,0.5,1.9,0.7,2.7,1.2c-0.2-0.1,0,0,0.1,0.1c0.3,0.4,0.4,0.8,0.6,1.2
				c0.8,1.8,1.9,3.5,4.1,3.6c0.7,0.1,1.4-0.1,2.1-0.1c0.7,0,0.4,0.1-0.2-0.3c-0.9-0.6-0.2,0,0,0.3s0.4,0.5,0.7,0.8
				c1.6,1.5,3.6,2.4,5.8,2.6c0.5,0,1,0,1.4,0c0.5,0,1.5,0,0.3-0.2c0.6,0.1-0.9-0.2-0.8-0.3c0.2,0,0.2,0.3,0,0
				c0.1,0.1,0.2,0.3,0.3,0.4c0.2,0.3,0.4,0.6,0.6,0.9c1.2,1.7,2.9,2.3,4.9,1.4c1.2-0.6,2.5-1.4,3.5-2.4c1.9-2,0-5.4-2.7-4.3
				c-1.3,0.5-2.1,1.7-1.7,3.1c0.3,1.2,1.8,2.2,3.1,1.7c0.5-0.2,0.2-0.2-0.9-0.1c-0.5-0.4-1-0.8-1.5-1.1l0,0
				c-0.1-0.6-0.2-1.3-0.3-1.9c0.4-1.4,0.8-1,0.2-0.6c-0.5,0.4,0,0-0.4,0.3c-0.5,0.3-1.2,0.6-1.6,1c0.3-0.1,0.3-0.1,0.1-0.1
				c0.6-0.1,1.1,0,1.5,0.3c0.1,0.2,0.1,0.2,0-0.1c-0.1-0.1-0.2-0.3-0.3-0.4c-0.4-0.6-0.8-1.3-1.4-1.8c-1.6-1.5-3.5-0.3-5.3-1.1
				c-1.6-0.7-2.1-2.5-3.9-3c-0.8-0.2-1.5-0.1-2.3-0.1c-0.2,0-0.9-0.1-1.1,0c0.5-0.4,1,1,0.6,0.1c-0.6-1.6-1.6-3.5-3.1-4.5
				c-0.8-0.5-1.7-0.7-2.5-1.1c-0.7-0.4-1.4-1-1.9-1.7c-1-1.2-1.6-2.8-1.7-4.4C253,124.8,248,124.8,248.1,128L248.1,128z"/>
		</g>
	</g>
	<g>
		<g>
			<path d="M257.7,88.6c0.6,1.1,1.4,2,2.3,2.8c1,0.9,2,1.9,3.2,2.7s2.7,1.4,4.2,1c1.6-0.4,2.5-1.6,3.9-2.2c-0.4,0.1-0.8,0.2-1.3,0.3
				c-0.7,0.1-0.8-0.5-0.5,0c0.1,0.2,0.3,0.3,0.4,0.5c0.4,0.5,0.8,1,1.4,1.3c0.8,0.5,1.6,0.5,2.5,0.2c0.2-0.1,0.4-0.2,0.7-0.3
				c0.2-0.1,0.3-0.3,0.5-0.4c0.5-0.4,0.2-0.3-0.9,0.3c-0.4-0.1-0.8-0.2-1.3-0.3c-0.6-0.3,0,0,0.3,0.2c0.2,0.1,0.5,0.2,0.7,0.3
				c0.5,0.1,1.1,0.1,1.6,0c0.9-0.2,1.6-0.9,2-1.7c0.4-0.7,0.7-1.4,0.9-2.1c0.1-0.3,0.2-0.7,0.4-1c0.1-0.2,0.1-0.3,0.2-0.5
				c0.2-0.4-0.2,0.5,0.1-0.2c0.1-0.3,0.3-0.5,0.4-0.8c0,0-0.3,0.4-0.3,0.3H279c0.1,0,0.3,0,0.4,0c0.4,0.1-0.3-0.1,0.2,0
				c0.4,0.1,0.8,0.2,1.1,0.3c1.9,0.5,4,1,5.7-0.3c1.1-0.8,1.6-2.2,0.9-3.4c-0.6-1.1-2.3-1.7-3.4-0.9c-0.1,0.1-0.3,0.2-0.1,0.1
				c-0.6,0.2,0.1,0-0.2,0c0,0-0.5-0.1-0.9-0.2c-0.9-0.2-1.7-0.5-2.6-0.6c-2.1-0.3-4.1,0.4-5.2,2.3c-0.4,0.7-0.7,1.5-1,2.3
				c-0.1,0.4-0.3,0.7-0.4,1.1c-0.1,0.2-0.1,0.3-0.2,0.5c-0.1,0.3,0.2-0.3-0.1,0.1c-0.1,0.1-0.1,0.2-0.2,0.3l-0.1,0.1
				c0.3-0.6,0.9-0.6,1.6-0.3c1.6,0,1.8,0.1,0.8-0.4c-0.3-0.2-0.6-0.3-1-0.3c-0.7-0.1-1.3,0-1.9,0.4c-0.3,0.2-0.5,0.4-0.8,0.6
				c-0.2,0.2,0.3-0.2-0.1,0c0.4-0.1,0.8-0.2,1.3-0.3c-0.1,0-0.1,0-0.2,0c0.4,0.1,0.8,0.2,1.3,0.3c0.4,0.2-0.2-0.3-0.4-0.5
				s-0.4-0.5-0.6-0.7c-0.6-0.6-1.2-1.1-2-1.3c-2.1-0.5-2.9,1.3-4.6,1.9c-0.1,0,0.2,0,0.2,0c-0.2,0-0.6-0.3-0.8-0.5
				c-0.5-0.3-0.9-0.8-1.3-1.1c-1-1-1.8-1.6-2.4-2.6C260.5,83.2,256.2,85.8,257.7,88.6L257.7,88.6z"/>
		</g>
	</g>
	<g>
		<g>
			<path d="M251.2,48.8c3,0.6,6.9,0.7,8.6-2.5c0.1-0.2,0.3-0.6,0.3-0.8c0-0.1,0.2-0.5,0.1-0.1c0.1-0.4,0.2-0.3,0-0.1
				c0,0-0.4,0.3,0,0s0.7-0.6,1.1-0.9c1.1-1,2.4-1.9,3.2-3.2c1-1.7,0.2-3.4,0.2-4.8c0-0.2,0.1-0.8,0-0.3c0-0.1,0.1-0.3,0.1-0.4
				c0-0.5,0.1,0.4-0.1,0.1l0.2-0.3c0,0-0.3,0.4-0.2,0.2c0.1-0.1,0.3-0.3,0-0.1c-0.3,0.3,0,0,0.1-0.1c0.4,0-0.5,0.1,0,0
				c0.1,0,0.5-0.1,0.6-0.2c0.2-0.1-0.2,0-0.2,0c0.1,0,0.2,0,0.3,0c0.3,0,0.5,0,0.8,0c1.4,0,3,0.2,4.1-0.9c0.4-0.3,0.7-0.8,0.8-1.3
				c0.1-0.3,0.1-0.6,0.1-0.8c0-0.1,0-0.1,0-0.2c0-0.2,0-0.3,0-0.1c0.1,0-1.1,1.1-0.6,0.9c0.1,0,0.3-0.2,0.5-0.3
				c0.3-0.2,0.6-0.3,0.8-0.5c1.6-1,3.3-2.6,2.7-4.8c-0.9-3.1-5.7-1.8-4.8,1.3c-0.1-0.6,0-1.1,0.4-1.5c-0.1,0.1-0.2,0.2-0.3,0.3
				c0.3-0.3-0.2,0.1-0.3,0.2c-0.4,0.3-0.9,0.5-1.3,0.8c-0.6,0.4-1.2,0.9-1.6,1.5c-0.2,0.3-0.3,0.6-0.4,1c-0.1,0.3-0.1,0.6-0.1,0.9
				c0,0.6,0.1,0.3,0.5-1c0.4-0.2,0.7-0.4,1.1-0.6c0.3,0,0.3,0,0.1,0c-0.1,0-0.2,0-0.4,0s-0.5,0-0.7,0c-0.4,0-0.9,0-1.3,0
				c-1.1,0.1-2.3,0.3-3.3,0.8c-2.5,1.3-2.9,4.1-2.6,6.7c0.1,0.4,0.1,0.8,0.2,1.2c0,0.1,0.1,0.2,0.1,0.3c-0.1-0.3-0.1-0.6,0.1-0.8
				c0.1,0.1-0.9,0.9-1.3,1.2c-0.2,0.2-0.4,0.3-0.6,0.5c-0.1,0.1-0.9,0.8-0.5,0.4c-0.4,0.3-0.8,0.6-1.2,0.9c-0.5,0.5-1,1.4-1.2,2.1
				v-0.1c-0.2,0.3-0.2,0.3,0,0.1c-0.2,0.2-0.2,0.2,0,0c-0.3,0.1-0.3,0.1,0,0c-0.9,0.4-2,0.2-3,0c-1.3-0.3-2.7,0.4-3.1,1.7
				C249.1,47,249.8,48.5,251.2,48.8L251.2,48.8z"/>
		</g>
	</g>
	<g>
		<g>
			<path d="M148.1,30.1c0.3-1.8-0.2-3.2-1.4-4.5c-0.3-0.4-0.7-0.7-1.1-1c-0.1-0.1-0.2-0.2-0.3-0.3c0.2,0.3,0.2,0.3,0.1,0.1
				c0.2,0.3,0.3,0.7,0.1,1.2c-0.1,0.3-0.1,0.3,0,0.1c1.3-1.8-0.8-4.3-2.8-3.7c-0.5,0.1-0.2,0.2,0.9,0c0.5,0.4,1,0.8,1.5,1.1l0,0
				c0.1,0.4,0.2,0.8,0.3,1.3c0,1.5-0.5,1.2-0.1,0.8c0.1-0.1,0.2-0.3,0.3-0.5c0.3-0.4,0.5-0.7,0.8-1.1c0.6-0.8,1.2-1.8,1.5-2.8
				c0.3-1.4-0.1-2.7-0.7-4c-0.5-1-1.3-1.9-1.5-2.9c0,0.3-0.1,0.5,0.1,0.1c0.1-0.1,0.1-0.3,0.2-0.5c0.3-0.5,0.6-1,0.9-1.5
				c0.7-1,1.4-1.9,2-2.9c1.3-2.4,1-5-1.2-6.7c-1.1-0.8-2.5-1-3.5,0c-0.9,0.9-1.1,2.7,0,3.5c0.2,0.2,0.4,0.4,0.7,0.6
				c-0.2-0.2,0.1,0.3-0.1-0.1c0-0.1,0-0.3,0-0.3c0,0.1-0.1,0.3-0.1,0.4c0.1-0.2,0.1-0.2,0-0.1c-0.6,1-1.3,1.9-2,2.9
				c-0.8,1.2-1.6,2.5-1.9,3.8c-0.3,1.5,0.3,3,1,4.3c0.3,0.6,0.7,1.1,1,1.7c0.1,0.1,0.1,0.4,0.2,0.5c0.6,0.7-0.5-0.3,0.1-0.2
				c-0.1,0.2-0.1,0.3,0,0.1c0.1-0.2,0.1-0.1-0.1,0.1c-0.1,0.2-0.2,0.4-0.4,0.6c-0.3,0.4-0.6,0.8-0.9,1.3c-0.6,0.8-1.3,1.6-1.3,2.7
				c0,1.9,1.9,3,3.6,2.5c-0.9-1.2-1.9-2.4-2.8-3.7c-1.1,1.5-0.7,3.4,0.5,4.8c0.4,0.4,0.8,0.8,1.2,1.1c0.1,0.1,0.2,0.2,0.3,0.3
				c0.2,0.2,0.2,0.2,0,0c0.1,0.3,0.1,0.2,0,0c0-0.2,0-0.3,0-0.5c-0.2,1.3,0.4,2.7,1.7,3.1C146.2,32.1,147.9,31.4,148.1,30.1
				L148.1,30.1z"/>
		</g>
	</g>
	<g>
		<g>
			<path d="M33.9,35.8c-0.7,0.4-1.8,1.2-2.6,1c-0.5-0.1-0.2-0.4-0.6-1c-1.2-2-3.2-1.3-5-0.7c-0.1,0-0.3,0.1-0.4,0.1
				c-0.6,0.3,0.1-0.1,0.1,0c0.6,0.5,1.1,0.9,1.7,1.4c0.1,0.2,0.1,0.4,0,0.5c0.1,0.3,0,0,0-0.1c0.2-0.7,0.4-1.3,0.6-1.9
				c0.7-1.9,0.7-3.5-0.9-4.9c-0.2-0.2-0.4-0.4-0.6-0.7c-0.4-0.4,0.1,0.3,0,0c0-0.1-0.1-0.2-0.1-0.4c0-0.4,0,0.4,0,0.1
				c0-0.1,0-0.3,0-0.4c0-0.3,0-0.7,0-1c-0.1-1.7-0.5-3.4-2.1-4.2c-0.9-0.5-2.1-0.6-3.1-0.3c-0.5,0.2-0.9,0,0.4,0.3
				c1.8,0.4,0.7,0.3,0.6,0c-0.1-0.3,0.2,0.2,0,0c-0.2-0.3-0.4-0.6-0.7-0.8c-1.4-1.4-3.1-1.4-4.7-0.4c-1.3,0.9-2.9,1.7-4,2.8
				c-0.6,0.6,0.7-0.2,1.1-0.3c-0.1,0,0.4,0.1,0.3,0.2c0,0-0.5-0.5-0.3-0.3c-0.2-0.2-0.5-0.9-0.5-0.9C13,23.7,13,23.5,13,23.4
				c0.1,0.4,0-0.2,0.1-0.3c0.2-1.3-1.3-2.5-2.5-2.5c-1.5,0-2.3,1.2-2.5,2.5c-0.4,3.3,3.4,8.4,7,6.4c0.3-0.2,0.6-0.4,0.9-0.7
				c0.2-0.1-0.5,0.3,0.1-0.1c0.6-0.4,1.1-0.8,1.7-1.2c0.5-0.3,1-0.7,1.5-1s0.8-0.3-0.5-0.2c-0.3,0-0.6,0-0.9,0
				c-0.2-0.2-0.3-0.2-0.1-0.1c0.1,0.1,0.1,0.1,0,0s-0.1-0.1,0.1,0.1c0.6,0.7,1.1,1.3,1.9,1.7c0.5,0.2,1.1,0.3,1.6,0.2
				c0.4,0,0.8-0.2,0.9-0.2c-0.1-0.1-0.4-0.1-0.6-0.1c0,0-0.9-0.6-0.5-0.4c-0.1,0-0.1-0.4-0.1-0.2c0,0.1,0.1,0.5,0,0.1
				c0-0.3,0,0.5,0,0.6c0,0.3,0,0.7,0,1c0.1,1.8,0.8,3.5,2.2,4.7c0.1,0.1,0.7,0.6,0.8,0.6c0,0-1.2-1.8-1-1.8c0,0,0.1-0.2,0,0.1
				c0,0.1-0.1,0.3-0.1,0.4c-0.2,0.7-0.5,1.3-0.7,2c-0.6,1.9-0.4,4,1.6,4.8c0.9,0.4,2,0.3,2.9,0c0.3-0.1,0.7-0.3,1-0.4
				c0.1,0,0.3-0.1,0.4-0.1c0.4-0.2-0.3,0.1-0.6,0c-0.4-0.2-0.7-0.4-1.1-0.6c-0.4-0.9-0.5-1-0.3-0.4c0.1,0.3,0.2,0.6,0.4,0.9
				c0.2,0.4,0.5,0.7,0.8,1c0.7,0.7,1.7,1.2,2.6,1.4c2.3,0.5,4.4-0.4,6.3-1.5C39.2,38.5,36.7,34.2,33.9,35.8L33.9,35.8z"/>
		</g>
	</g>
	<g>
		<g>
			<path d="M24.1,83.8c-1.6,0.4-3.4-0.2-5.1,0.3c-1.2,0.3-2.2,1-3.1,1.7c-0.4,0.3-0.9,0.6-1.3,0.8c-0.4,0.3-0.3,0-0.1,0.1
				c-0.1,0-0.2,0.1-0.3,0.1c0.3,0,0.7,0,1,0c0.5,0.5,0.9,0.9,1.4,1.4c0.4,0.9-0.1,0.3,0,0.2c0,0,0-0.4,0-0.3c0,0.5,0,0.1,0.1-0.1
				c0.1-0.6,0.3-1.1,0.5-1.7c0.7-2.3,1.7-5.6-0.9-7.1c-1.1-0.6-2.4-0.4-3.6-0.2c-1.1,0.2-2.1,0.4-3.1,0.6c-0.2,0-0.5,0.1-0.7,0.1
				c-0.6,0.1,0.3,0.1,0,0c-0.1,0-0.3,0-0.4,0c-0.1,0-0.8-0.1-0.5,0c0,0-0.5-0.2-0.1,0c-1.4-0.7-2.7-1.1-4.2-1.1c-3.2,0-3.2,5,0,5
				c0.2,0,0.5,0,0.7,0c0,0,0.5,0.1,0.2,0s0.2,0.1,0.2,0.1c0.3,0.1-0.1-0.1-0.2-0.1C5,83.8,5.4,84,5.9,84.2c1.3,0.5,2.7,0.6,4.1,0.4
				c1-0.2,2-0.4,3-0.6c0.3-0.1,0.5-0.1,0.8-0.1c0.2,0,0.9-0.1,0.2-0.1c0.2,0,0.4,0,0.6,0h0.2c0,0.2-1.2-0.5-1.2-0.5
				c-0.3-0.3-0.3-0.3-0.5-0.7c0.1,0.4,0-0.1,0-0.2v0.3c0,0,0.1-0.3,0-0.1c-0.1,0.6-0.3,1.1-0.4,1.6c-0.3,1.1-0.7,2.2-0.9,3.4
				c-0.2,1.4,0.1,3,1.5,3.8c1.3,0.8,2.8,0.3,4.1-0.5c1.1-0.6,2-1.4,3.1-1.9c-0.5,0.3,0,0,0.2,0c0.5-0.1,1.1,0,1.6,0
				c1.1,0.1,2.2,0.1,3.3-0.2C28.5,87.8,27.2,83,24.1,83.8L24.1,83.8z"/>
		</g>
	</g>
	<g>
		<g>
			<path d="M38.2,135.4c-1.4,0.8-2.8,1.6-4.2,2.4c-1.3,0.7-3.2,1.4-3.6,3c-0.3,1.3,0.4,2.3,1.2,3.2c0.3,0.3,0.6,0.6,0.9,0.8
				c0.1,0.1,0.3,0.4,0.4,0.4c-0.2,0-0.4-0.9-0.3-0.6c0-0.4,0-0.9,0-1.3c0.1-0.5-0.1,0.1-0.2,0.2c-0.1,0.2-0.2,0.3-0.3,0.5
				c-0.3,0.5-0.5,1.1-0.5,1.7c0,0.4,0.1,0.9,0.2,1.3c0.1,0.3,0.3,0.7,0.4,1c0.3,0.6,0,0.1,0-0.2c0.1-0.4,0.2-0.8,0.3-1.3
				c0.8-1.9,2.4-0.8,1.3-1c-0.2,0-0.4,0-0.5,0c-0.5,0-0.9,0-1.4,0c-1.2,0.1-2.1,0.7-3.1,1c-2.1,0.8-4.9,0.9-6.6,2.5
				c-1.4,1.4-1.7,3.6-1.8,5.4c-0.1,1.7,0,3.5,0.4,5.3c0.3,1.3,1.8,2.1,3.1,1.7c1.4-0.4,2-1.7,1.7-3.1c0-0.2-0.1-0.4-0.1-0.7
				c0.1,0.7,0-0.3,0-0.4c-0.1-0.7-0.1-1.3-0.1-2c0-0.6,0-1.2,0.1-1.8c-0.1,0.5,0.1-0.4,0.1-0.5c0-0.2,0.1-1,0.1-0.4
				c0.1-0.1,0.1-0.2,0.2-0.3c-0.2,0.3-0.3,0.3-0.1,0.2c0.1-0.1-0.3,0.1-0.1,0.1c0.3,0,0.9-0.3,1.2-0.4c0.4-0.1,0.9-0.2,1.3-0.4
				c0.8-0.2,1.5-0.4,2.3-0.7c0.5-0.2,1-0.4,1.5-0.6c0.2-0.1,0.5-0.2,0.3-0.2c1.5-0.1,3,0.4,4.2-0.8c0.8-0.7,1-1.8,0.7-2.9
				c-0.1-0.3-0.3-0.7-0.4-1c-0.5-0.9,0.3,0.7-0.4,0.8c0.3-0.1,1.1-1.8,1.1-2.1c0.2-0.8,0-1.6-0.4-2.3c-0.4-0.6-0.8-1-1.3-1.5
				c-0.2-0.2-0.4-0.4-0.6-0.5c-0.5-0.5,0.1,0.2,0.2,0.5c0,0.4,0,0.9,0,1.3c0,0,0,0,0-0.1c-0.2,0.4-0.4,0.7-0.6,1.1
				c-0.3,0.3,0.2,0,0.3-0.1c0.3-0.2,0.6-0.4,0.9-0.5c0.6-0.3,1.1-0.6,1.7-0.9c1.1-0.6,2.2-1.3,3.3-1.9
				C43.5,138.2,41,133.8,38.2,135.4L38.2,135.4z"/>
		</g>
	</g>
	<g>
		<g>
			<path d="M140,143.4c0.3,0.6,0.3,0.9,0.3,1.3c0,0.2-0.2,1-0.4,1.2c0,0.1-0.4,0.5-0.3,0.4c-0.2,0.3-0.3,0.3-0.4,0.4
				c-0.4,0.3-0.9,0.4-1.5,0.7c-1.7,0.7-3.1,2.1-2.8,4.1c0.3,1.8,1.8,2.3,3.4,2.4c0.9,0,1.9,0.1,2.7-0.1c0.5-0.1-0.8,0-0.8-0.3
				c0,0,0.5,0.6,0.3,0.3c0.1,0.2,0.2,0.7,0.2,0.9c0,1.6-0.1,3,0.4,4.5c0,0.1,0.2,0.7,0.2,0.8c-0.2-0.1,0.6-1.2,0.3-0.8
				c0.6-1.1,0.4-0.5,0.1-0.5c-0.2,0-0.3,0.2-0.5,0.2c-0.1,0-0.5,0.2-0.2,0.1c0.2-0.1-0.2,0.1-0.2,0.1c-2.8,1.1-6.6,2.6-5,6.4
				c0.5,1.2,2.4,1.5,3.4,0.9c1.3-0.8,1.4-2.2,0.9-3.4c0.4,0.8,0.3,1.4-0.1,2.1c0.2-0.3-0.4,0.2,0.2-0.1c0.5-0.2,0.9-0.5,1.4-0.7
				c-0.4,0.2,0.3-0.1,0.3-0.1c0.2-0.1,0.4-0.2,0.7-0.3c0.5-0.2,1.1-0.4,1.6-0.7c1.4-0.7,2.3-2,2.2-3.5c0-0.8-0.3-1.4-0.5-2.1
				c-0.2-0.6-0.2-0.8-0.1-1.5c0.1-2.7-0.4-5.7-3-7.1c-0.9-0.5-1.9-0.4-2.9-0.4c-0.4,0-0.9,0-1.3,0c-0.2,0-0.4,0-0.6,0
				c-0.2,0-0.1,0,0.3,0.1c-0.3-0.1-0.1,0,0.4,0.2c0.3,0.3,0.6,0.6,0.9,0.9l0,0c0.1,0.4,0.2,0.8,0.3,1.3c0,0.4-0.2,0.6-0.4,0.8
				c-0.3,0.2-0.3,0.3,0,0.1c0.3-0.1,0.1-0.1,0.3-0.1c0.6-0.2,1.2-0.4,1.7-0.7c1.1-0.6,1.9-1.5,2.6-2.4c1.3-1.9,1.7-4.6,0.8-6.8
				c-0.5-1.2-1.7-2.1-3.1-1.7C140.5,140.6,139.4,142.1,140,143.4L140,143.4z"/>
		</g>
	</g>
</g>
</svg>
