<?xml version="1.0" encoding="utf-8"?>
<!-- Generator: Adobe Illustrator 25.2.0, SVG Export Plug-In . SVG Version: 6.00 Build 0)  -->
<svg version="1.1" id="Layer_1" xmlns="http://www.w3.org/2000/svg" xmlns:xlink="http://www.w3.org/1999/xlink" x="0px" y="0px"
	 viewBox="0 0 288.8 168.5" style="enable-background:new 0 0 288.8 168.5;" xml:space="preserve">
<style type="text/css">
	.st0{fill:#010101;}
</style>
<g>
	<g>
		<g>
			<path class="st0" d="M248.4,129.9c0.2,3.6,3.5,5.1,6.4,6.3c0.5,0.2,1.1,0.5,1.6,0.8c0.2,0.1,0.5,0.3,0.7,0.4
				c-0.1,0-0.4-0.4-0.2-0.1c0.3,0.4-0.3-0.5-0.1-0.1c-0.1-0.3-0.2-0.6-0.2-0.9c0,0,0.3-1.1,0.2-0.7c0.3-0.6-0.1,0.1-0.3,0.3
				c-0.6,0.8-1.2,1.6-1.4,2.6c-0.8,4.1,3.9,4.7,6.7,5.7c-0.4-0.1-0.1,0-0.1,0c0.2-0.2,0.3,0.5,0.1,0c0,0-0.4-0.4-0.3-0.4
				c0,0,0.2,0.7,0.2,0.6c0.3,1.1,0.4,2.2,0.9,3.3c1.1,2.1,3.2,3.8,5.5,4.2c1.5,0.2,3.2,0.1,4.5-0.9c0.8-0.7,1.3-1.6,1.9-2.5
				c0.2-0.3,0.4-0.8,0.5-0.7c-0.1,0-0.1,0.1-0.2,0.1c-0.8,0.2-1,0.2-0.6,0.2c-0.1,0-0.1,0-0.2,0c0.2,0,0.4,0.1,0.5,0.1
				c0.3,0.1,0.9,0.3,1.1,0.4c0.2,0.1,0.4,0.2,0.6,0.3c0.2,0.1,0.2,0.1,0,0c0.3,0.3,0.2,0.2-0.2-0.5c0.5,1.3,1.7,2.1,3.1,1.7
				c1.2-0.3,2.2-1.8,1.7-3.1c-0.8-2.1-2.9-3.2-5-3.7c-1-0.3-2.1-0.4-3.2,0c-1.1,0.4-1.7,1.3-2.3,2.2c-0.2,0.4-0.4,0.7-0.7,1.1
				c-0.1,0.2-0.4,0.6-0.4,0.6s-0.1,0-0.1,0.1c0.7-0.4,0.9-0.5,0.6-0.4H269c-0.3,0-0.6-0.1-0.9-0.3c-0.5-0.4-1.2-1.2-1.3-1.5
				c-0.4-1-0.4-2.2-0.8-3.2c-0.7-1.7-2.3-2.3-4-2.8c-0.6-0.2-1.3-0.4-1.9-0.5c-0.1,0-0.3-0.1-0.4-0.1c0.5,0.2,0.2,0.1,0.1,0
				c-0.1-0.1-0.2-0.1-0.4-0.2c0,0,0.2,0.1,0.3,0.3c0.1,0.3,0.1,0.4,0.2,0.7c0.1,0.5,0,0.4,0,0.2c0,0.4-0.2,0.2,0.1,0
				c0.3-0.4-0.5,0.5,0.2-0.2c0.6-0.7,1.1-1.3,1.3-2.2c0.4-1.8-0.7-3.3-2.1-4.2c-1.2-0.8-2.6-1.2-3.9-1.8c-0.4-0.2-0.7-0.4-1.1-0.6
				c-0.2-0.1-1-0.7-0.6-0.4c-0.1-0.1-0.2-0.2-0.3-0.3c-0.3-0.3-0.3-0.2-0.1,0c-0.2-0.1-0.1-0.5-0.1-0.2c0.1,0.2,0.1,0.2,0,0
				c0,0.4,0,0.4,0,0.1C253.2,126.7,248.2,126.7,248.4,129.9L248.4,129.9z"/>
		</g>
	</g>
	<g>
		<g>
			<path class="st0" d="M257.9,90.5c0.6,1,1.6,1.7,2.7,2c0.9,0.2,1.8,0.2,2.6,0.5c-0.1,0-0.1-0.1-0.2-0.2c0.2,0.2,0.4,0.4,0.6,0.6
				c0.4,0.3,0.8,0.7,1.2,0.9c0.6,0.3,1.3,0.5,1.9,0.5c0.3,0,0.6-0.1,0.9-0.1c0.2,0,0.3-0.1,0.5-0.1c0.4-0.1,0.2-0.1-0.5-0.1
				c-0.4-0.2-0.7-0.4-1.1-0.6c-0.8-0.7,0,0.1,0.2,0.2c0.5,0.5,1.1,0.7,1.8,0.7c0.8,0,1.3-0.3,1.9-0.6c-0.4,0.1-0.8,0.2-1.3,0.3
				c-0.6,0-1-0.2-1.3-0.6c-0.1-0.1-0.1-0.1,0.1,0.1c0.1,0.2,0.2,0.4,0.3,0.6c0.2,0.4,0.4,0.9,0.7,1.3c0.7,1.2,1.9,2,3.3,1.7
				c1.2-0.2,2.3-0.9,3.1-1.7c0.4-0.4,0.8-0.9,1-1.5c0.1-0.2,0.4-0.9,0.2-1.1c0.2,0.3-0.5,0.8-0.6,0.9c-0.2,0.2-0.4,0,0,0
				c0.3,0-0.4,0,0.1,0c0.4,0,0.9,0,1.3,0.1c0.9,0.1,1.9,0.1,2.8-0.1c1.2-0.3,2.1-1.2,3.2-1.7c1.2-0.6,2.3-1.3,3.3-2.1
				c1.1-0.8,0.9-2.7,0-3.5c-1-1-2.5-0.9-3.5,0c-1.2,1-2.8,1.4-4.1,2.4c-0.5,0.3-0.5,0.3-0.1,0.1c-0.3,0.1-0.2,0.1,0.1,0
				c-0.3,0-0.6,0-0.9,0c-0.6,0-1.2-0.1-1.8-0.1c-1.6,0-3.3,0.4-4.3,1.9c-0.2,0.3-0.4,0.7-0.5,1s-0.1,0.6-0.1,0.9
				c0-0.4,0.1-0.6,0.3-0.9c-0.1,0-0.5,0.4-0.5,0.5c-0.3,0.1-0.3,0.2-0.1,0.1c0.3,0,0.4,0,0.1,0c0.4,0.1,0.8,0.2,1.3,0.3
				c0.3,0.2,0.4,0.5,0.3,0.1c-0.1-0.2-0.3-0.5-0.4-0.7c-0.3-0.6-0.5-1.1-0.9-1.6c-0.5-0.6-1-1.1-1.8-1.3c-0.4-0.1-0.8-0.1-1.2-0.1
				c-0.3,0-0.6,0.1-0.9,0.3c-0.4,0.2-0.2,0.1,0.6-0.1c0.6,0.2,1.2,0.5,1.8,0.7c0.4,0.3,0.6,0.6-0.2-0.2c-0.2-0.2-0.5-0.4-0.8-0.6
				c-0.6-0.3-1.3-0.3-1.9-0.2c-1.2,0.2-0.2,0.1-0.2,0.3c0,0.1,0,0-0.1-0.2s-0.4-0.4-0.6-0.6c-0.8-0.7-1.8-1.1-2.8-1.3
				c-0.4-0.1-0.8-0.1-1.3-0.2c-0.6-0.1-0.4-0.2-0.1,0.2C260.6,85.3,256.3,87.8,257.9,90.5L257.9,90.5z"/>
		</g>
	</g>
	<g>
		<g>
			<path class="st0" d="M252.7,50.7c1.2-0.2,1.9-1.1,2.6-1.9c0.1-0.2,0.3-0.3,0.4-0.5c0.1-0.1,0.3-0.2,0,0c-0.4,0.2,0.1,0,0.1,0
				s-0.6,0.3-0.2,0.1c0,0-0.6,0.1-0.2,0c0.4,0,0,0-0.1,0c0.2,0.1,0.5,0.1,0.7,0.2c0.5,0.2,1.3,0.7,2.1,0.7c1.1,0,2-0.6,2.5-1.5
				c0.7-1.1,0.7-2.6,0.8-3.9c0-0.2,0.1-0.9,0-0.4c0-0.3,0.1-0.6,0.2-0.9c0-0.1,0.1-0.2,0.1-0.4c0.1-0.3,0.3-0.3,0,0.1
				c0.2-0.2,0.1-0.1-0.2,0.1c0.4-0.3-0.8,0.3-1,0.4c-0.1,0-0.5-0.2-0.1,0c0.1,0.1,0.3,0.1,0.4,0.1c-0.4-0.2,0.3,0.2,0.5,0.2
				c0.8,0.4,1.6,0.8,2.4,1c2,0.5,4.1-0.3,5-2.2c0.3-0.7,0.4-1.5,0.4-2.2c0-0.3,0-0.6,0-0.9c0-0.1,0-0.3,0-0.4c0-0.2,0-0.1,0,0.1
				c0-0.1,0-0.2,0.1-0.3c0.2-0.2,0,0.1-0.1,0.2c-0.2,0.2,0.3-0.3,0.4-0.3c0.3-0.3,0.6-0.5,0.8-0.8c0.7-0.6,1.3-1.3,2-1.9
				c0.7-0.7,1.5-1.2,2-2.1c0.7-1.2,1-2.6,0.5-3.9c-0.4-1.3-1.7-2.1-3.1-1.7c-1.3,0.3-2.2,1.8-1.7,3.1c0.3,0.8,0.1-0.2,0.1-0.2
				c0.3,0.5-0.2,0.3-0.1,0.2c-0.2,0.2-0.3,0.4-0.6,0.6c-0.6,0.5-1.1,1-1.6,1.5c-1,1-2.4,2-3.1,3.2c-0.8,1.4-0.6,2.9-0.7,4.4
				c0,0.4,0.1-0.4,0-0.1s0.1-0.3,0.2-0.3c0.1-0.2,0.2-0.3,0.4-0.4c0.1,0,0.5-0.1,0.3-0.1c-0.3,0.1,0.4,0.1,0.1,0
				c-0.1-0.1-0.3-0.1-0.4-0.1c-0.4-0.1,0.3,0.2,0,0c-0.2-0.1-0.4-0.2-0.5-0.3c-1.4-0.7-3-1.5-4.6-1c-1.5,0.5-2.3,2-2.7,3.4
				c-0.1,0.7-0.2,1.4-0.3,2.1c0,0.3-0.1,0.6-0.1,0.8c0,0.1,0,0.3,0,0.4c0,0.3,0.1-0.5,0,0c0,0.2-0.1,0.4-0.1,0.6
				c0,0.3,0.1-0.1,0.1-0.2c-0.2,0.3,0.2-0.3,0.2-0.3c2.2-2.3,1.4-0.5,2.4-0.4c-0.2,0-0.5-0.3-0.7-0.4c-0.5-0.2-1-0.4-1.5-0.6
				c-1.7-0.5-3.5-0.1-4.8,1.1c-0.3,0.3-0.5,0.6-0.8,0.9c-0.1,0.2-0.3,0.3-0.4,0.5c0,0,0.5-0.3,0.2-0.2c0.2-0.1,0.6-0.2,0.2-0.1
				c-1.3,0.3-2.1,1.8-1.7,3.1C250.1,50.4,251.4,51,252.7,50.7L252.7,50.7z"/>
		</g>
	</g>
	<g>
		<g>
			<path class="st0" d="M150.6,31.3c-0.1-1.1,0.6-2.2,1.1-3.3c0.6-1.4,1-2.9,0.5-4.4c-1.2,0.9-2.4,1.9-3.7,2.8
				c2.9,1.5,5.5-1.2,5.9-4c0.3-1.5,0-2.8-0.7-4c-0.5-0.8-1.4-1.7-1.6-2.5c-0.3-1.3-1.8-2.1-3.1-1.7c-1.4,0.4-2,1.7-1.7,3.1
				c0.2,1,0.5,1.9,1.3,2.5c1.4,1,3.2,0.5,4.1-0.8c0.9-1.4,1.2-3.2,1.4-4.7c0.4-2.3,0.7-4.6,0.7-6.9c0-1.9,0-4.1-1.2-5.7
				c-1-1.3-2.6-1.7-4.1-0.9c-1.1,0.6-1.9,1.6-2.6,2.7c-1.8,2.7,2.5,5.2,4.3,2.5c0.1-0.2,0.3-0.4,0.4-0.6c-0.2,0.3-0.2,0.2,0,0
				c0.1-0.1,0.3-0.2,0.3-0.3c0.1-0.3-0.5,0.3-0.1,0.1s-0.5,0.2-0.3,0.1c-0.4,0.1-0.7,0.1-1,0c-0.5-0.1-0.9-0.5-1-0.7
				c0.3,0.5-0.1-0.6,0,0.1c0,0.1,0.1,0.2,0.1,0.4c0.1,0.5,0,0.2,0,0c0,0.7,0.1,1.4,0.1,2.1c0,0.8-0.1,1.7-0.1,2.5
				c0,0.4-0.1,0.9-0.1,1.3c0,0.2,0,0.4-0.1,0.6c0,0.3,0-0.2,0-0.2c0,0.1,0,0.3-0.1,0.4c-0.2,1.5-0.5,2.9-0.9,4.3
				c0,0.1-0.1,0.2-0.1,0.4c-0.1,0.4,0.3-0.6,0.1-0.2c-0.3,0.6,0.4-0.3,0.6-0.4c0.8-0.5,2.2-0.3,2.7,0.3c0.1,0.1,0.5,0.8,0.5,0.8
				c-0.1,0-0.2-0.8-0.2-0.9c-1.6,0.4-3.2,0.9-4.8,1.3c0.3,1.4,1.2,2.4,2,3.5c0.3,0.4,0.4,0.4,0.2,0.8c0,0.1-0.1,0.4-0.1,0.4
				c0.1,0,0,0.1-0.2,0.2c0.6-0.2,0.7-0.3,0.3-0.2c0.4,0,0.9,0,1.3,0c0.1,0,0.2,0.1,0.2,0.1c-1.8-0.9-4.4,0.6-3.7,2.8
				c0.1,0.4,0.1,0.1,0.1,0c0,0.3-0.1,0.6-0.2,0.9c-0.2,0.5-0.4,0.9-0.6,1.4c-0.6,1.3-1.1,2.7-1,4.2c0.1,1.3,1.1,2.5,2.5,2.5
				C149.4,33.8,150.7,32.7,150.6,31.3L150.6,31.3z"/>
		</g>
	</g>
	<g>
		<g>
			<path class="st0" d="M34.2,37.7c-0.4,0.2,0.5-0.2,0.6,0C34.8,37.7,34.2,37.6,34.2,37.7c-0.4-0.2-0.8-0.3-1.3-0.3
				c-0.9-0.1-0.7-0.2,0.5,1c-0.7-0.7,1.2,1.6,1,0.8c-0.1-0.3,0-0.1,0,0.1c0-0.2,0.1-0.4,0.1-0.5c0.3-1.2,0.7-2.4,0.6-3.7
				c-0.2-2.1-1.7-3.2-2.9-4.3c-0.9-0.8-2-1.1-3.2-0.8c-0.2,0-0.7,0.1-0.8,0.3c-0.2,0.2,0,0,0.1,0c0.2,0-0.2-0.1-0.2-0.1
				c-0.8-0.3-1.7,0-2.5,0.1c-0.1,0-0.2,0-0.4,0.1c0.6-0.1,0,0,0,0c0,0.2-0.3-0.2,0.1,0.1c0.4,0.3,1.6,1.2,0.5,0.1
				c-0.6-0.7-1.4-1-2.3-1c-0.3,0-0.6,0.1-0.9,0.2c0.7-0.3,2.7,1.3,1.4-0.1c-0.9-1-2.3-1.6-3.5-2.1s-2.5-0.8-3.8-0.7
				c-1.2,0.1-2.1,0.7-2.8,1.5c-0.2,0.2-0.7,0.6,0,0.1c0.6-0.4,2.1,0,2.6,0.6c-0.1-0.1-0.1-0.4,0,0.2c0-0.1-0.1-0.2-0.1-0.4
				c0-0.1-0.1-0.3-0.1-0.4s-0.1-0.7-0.1-0.3c0,0.3,0-0.2,0-0.3c0-0.2,0-0.4,0-0.6c0-0.3,0-0.6,0-0.9c0-0.2,0.1-1.3,0-0.5
				c0.2-1.3-0.3-2.7-1.7-3.1c-1.2-0.3-2.9,0.4-3.1,1.7c-0.4,2.4-0.5,6,1.4,7.8c1.4,1.4,3.3,1,4.6-0.3c0.1-0.2,0.3-0.3,0.4-0.5
				c-0.3,0.2-0.6,0.3-0.9,0.3h0.5c-0.6,0,0.3,0.1,0.4,0.1c0.3,0.1,0.6,0.2,1,0.3c0.2,0.1,0.3,0.1,0.5,0.2c-0.2-0.1-0.2-0.1,0.1,0
				s0.5,0.3,0.8,0.4c0.2,0.1,0.4,0.5,0.1,0c0.2,0.2,0.2,0.1-0.1-0.2c0.2,0.3,0.4,0.5,0.6,0.8c0.6,0.7,1.4,1.2,2.4,1.1
				c0.1,0,0.6,0,0.9-0.1c0.7-0.2,0.1-0.4-1.7-0.5c-0.2-0.2-0.1,0,0.3,0.4c1.2,1.3,2.9,1,4.5,0.7c0.3,0,0.3,0,0,0
				c0.3,0,0.3,0-0.1-0.1c0.4,0,0.8,0.2,1.3,0.2s1-0.1,1.4-0.2c0.2-0.1,0.3-0.1,0.5-0.2c-0.3,0-0.3,0,0,0c-0.4-0.1-0.8-0.2-1.3-0.3
				c-0.2-0.2-0.2-0.2,0.1,0.1c0.1,0.1,0.3,0.3,0.4,0.4c0.2,0.2,0.5,0.4,0.7,0.6l-0.1-0.1c0.2,0.2,0.2,0.2,0.1,0c0-0.1,0-0.2,0-0.3
				v0.5c0-0.7-0.1,0.3-0.1,0.4c-0.1,0.2-0.1,0.5-0.2,0.7c-0.2,0.7-0.3,1.4-0.4,2.1c-0.1,1.6,0.8,3.2,2.5,3.4
				c1.6,0.2,3.2,0.6,4.9-0.2c1.2-0.6,1.5-2.3,0.9-3.4C36.9,37.3,35.4,37.1,34.2,37.7L34.2,37.7z"/>
		</g>
	</g>
	<g>
		<g>
			<path class="st0" d="M24.4,85.8C23,86.3,21.5,86.7,20,87c-0.4,0.1-0.7,0.2-1.1,0.3c-0.1,0-0.3,0.1-0.4,0.1c-0.3,0.2,0-0.1,0.1,0
				c0.4,0.3,0.9,0.3,1.2,0.6c0.1,0.1,0.1,0.5,0.2,0.3c0-0.1-0.2-0.8-0.1-0.4c-0.2-1.2,0-2.7-0.6-3.8c-0.9-1.6-3-1.7-4.2-0.4
				c-0.3,0.3-0.5,0.7-0.7,1.1c-0.1,0.2-0.2,0.3-0.3,0.5c0,0,0.3-0.4,0.1-0.2c-0.2,0.1-0.2,0.1,0,0.1s0.4-0.2,0.7-0.3
				c0,0,0.5,0,0.6,0c0,0-0.3-0.1-0.4-0.1c-0.5-0.1-1.1-0.1-1.7-0.1c-1,0-2,0.2-3.1,0.2c-0.3,0-0.7,0.1-1,0c0.2,0,0.4-0.1,0.1,0
				c0.1,0,0.4,0.2,0.2,0.1c-0.2-0.2,0.1,0.1,0.1,0.1c-0.1,0-0.2-0.2-0.3-0.3c0.4,0.5-0.1-0.1-0.2-0.3c-0.1-0.2-0.3-0.5-0.4-0.7
				c-0.3-0.5-0.6-1-0.9-1.4c-1-1.3-2.4-1.9-4-2c-3.2-0.1-3.2,4.9,0,5c0.6,0-0.3,0.1,0.2,0c-0.3-0.1-0.3-0.1-0.2-0.1
				c0.2,0.1,0.1,0.1-0.1-0.1c0.1,0,0.5,0.6,0.1,0.1c0.1,0.2,0.2,0.3,0.3,0.5c0.4,0.6,0.7,1.3,1.1,1.8c1.3,1.8,3.2,2.4,5.3,2.2
				c0.9-0.1,1.8-0.2,2.7-0.2c0.2,0,0.4,0,0.6,0c0.3,0,0.6-0.2-0.1,0c0.3-0.1,0.9,0.2,1.3,0.2c1.1,0,2.1-0.6,2.8-1.4
				c0.3-0.4,0.6-0.7,0.8-1.2c0.1-0.1,0.1-0.2,0.2-0.3l0.1-0.1c-0.3,0.5-0.7,0.8-1.3,0.9c-0.4,0-0.9,0-1.3,0l0,0
				c-0.4-0.2-0.7-0.4-1.1-0.6c-0.5-1-0.6-1.2-0.5-0.8c0,0.2,0,0.2,0,0.1c0-0.2,0,0.5,0,0.6c0.1,0.7,0.1,1.4,0.2,2.1
				c0.2,1.3,1,2.6,2.2,3.1c1.4,0.6,2.9,0,4.3-0.3c1.4-0.4,2.8-0.7,4.2-1.2C28.7,89.6,27.4,84.8,24.4,85.8L24.4,85.8z"/>
		</g>
	</g>
	<g>
		<g>
			<path class="st0" d="M38.5,137.4c-0.2,0.1-0.4,0.2-0.5,0.3c-0.5,0.3,0.2-0.1-0.3,0.1c-0.6,0.2-1.2,0.4-1.8,0.7
				c-1.2,0.4-2.3,0.8-3.4,1.4c-1.1,0.5-2.1,1.4-2.3,2.7c-0.1,0.8,0.1,1.5,0.6,2.1c0.2,0.3,0.5,0.6,0.9,0.8c0.1,0,0.2,0.1,0.2,0.1
				c0.1,0,0.2,0.1,0.3,0.1l-0.1-0.1c-1.8,0.4-0.4-1.5-0.3-1.9c0-0.1,0.4-0.4,0-0.1c-0.2,0.1-0.3,0.3-0.5,0.5
				c-0.4,0.4-0.8,0.8-1.1,1.4c-1,1.9-1,3.6-0.2,5.5c0.1,0.3,0.4,0.7,0.4,0.9c0-0.1,0.2,0.8,0.1,0.4c0.1,0.3,0,0.5,0,0.5
				c0,0.1-0.1,0.3-0.1,0.4c0.1-0.3-0.2,0.1-0.1,0c0.3-0.2-0.4,0.2-0.5,0.3c-0.3,0.2-0.6,0.3-0.9,0.5c-0.6,0.3-1.1,0.5-1.7,0.8
				c-3.2,1.4-7,2.9-6.4,7.1c0.2,1.3,1.9,2.1,3.1,1.7c1.4-0.4,2-1.7,1.7-3.1c0,0.1,0.1,0.2,0,0.3c0,0.1,0,0.5,0,0.2
				c0-0.2,0.1,0,0,0.1c0,0,0.3-0.2,0.1-0.1c-0.2,0.1,0.2-0.1,0.3-0.2c0.1-0.1,0.2-0.1,0.3-0.2c0.3-0.2,0.6-0.3,1-0.5
				c1.1-0.5,2.3-1,3.4-1.5c1.3-0.6,2.7-1.2,3.6-2.4c1-1.3,1.4-2.9,1.1-4.6c-0.1-0.8-0.4-1.5-0.7-2.3c-0.1-0.3-0.3-0.6-0.5-0.9
				c-0.1-0.3,0.1-0.2,0,0.1c0.1-0.2,0.2-0.4,0.3-0.7c0.1-0.4-0.5,0.4,0,0c0.3-0.3,0.7-0.6,0.9-0.9c1.2-1.4,1.4-3.4,0-4.8
				c-0.3-0.3-0.6-0.5-0.9-0.7c-0.3-0.2-0.8-0.5-0.2,0.1c0.1,0.1,0.2,0.2,0.3,0.4c-0.1,0.9-0.2,1.7-0.3,2.6c0.2-0.2-0.1,0.1-0.1,0
				c0,0.1-0.3,0.1,0,0c0.1,0,0.2-0.1,0.3-0.2c0.1-0.1,0.7-0.3,0.5-0.2c-0.3,0.1,0,0,0.1,0c0.2-0.1,0.3-0.1,0.5-0.2
				c0.6-0.2,1.1-0.4,1.7-0.6c1.2-0.4,2.4-0.9,3.5-1.5C43.8,140.1,41.3,135.8,38.5,137.4L38.5,137.4z"/>
		</g>
	</g>
	<g>
		<g>
			<path class="st0" d="M136.3,143.4c-0.6,1.4-1.4,2.8-1.3,4.4c0.1,1.6,1.5,3.6,3.2,3.8c-0.8-1.9-1.2-2.4-1.2-1.5c0-0.3,0-0.3,0,0
				c-0.1,0.3-0.2,0.6-0.3,0.9c-0.2,0.7-0.5,1.4-0.5,2.1c0,0.8,0.1,1.7,0.1,2.6c0.1,1.4,0.2,2.8,0.3,4.2c0,0.3,0,0.6,0.1,0.9
				c0,0.5,0.1,0.3,0.3-0.6c0.2-0.4,0.6-0.7,1-0.8c-0.4,0.1,0.6,0-0.1,0c-0.2,0-0.4,0-0.5,0c-1.8,0-3.6,1.2-3,3.2
				c0.3,1,1,1.4,1.7,1.9c0.2,0.1,0.3,0.4,0.4,0.4c0,0,0-0.3,0-0.4c-0.6,1.2-0.4,2.7,0.9,3.4c1.1,0.6,2.9,0.3,3.4-0.9
				c0.7-1.5,0.9-3,0-4.5c-0.3-0.6-0.7-1.1-1.2-1.5c-0.3-0.3-0.7-0.5-1-0.8c-0.6-0.4-0.3-0.5,0.3,0.5c0.1,0.4,0.2,0.8,0.3,1.3l0,0
				c-0.2,0.6-0.5,1.2-0.7,1.8l0,0c-0.4,0.2-0.7,0.4-1.1,0.6c0.1,0-0.8,0-0.2,0.1c0.1,0,0.3,0,0.4,0c0.5,0,1.1,0,1.6-0.2
				c1.5-0.4,2.5-1.6,2.6-3.1c0.1-2.2-0.3-4.5-0.5-6.7c0-0.4,0-0.7-0.1-1.1c0,0,0-0.2,0-0.3c-0.1,0.5-0.1,0.6,0,0.3
				c0-0.1,0.1-0.3,0.1-0.4c0.4-1.1,0.8-2.1,0.8-3.3c0-1-0.6-2-1.4-2.5c-0.2-0.1-1-0.5-0.7-0.3c-0.1-0.1-0.2-0.1-0.3-0.2
				c-0.2-0.1-0.1-0.1,0.1,0.1c0.1,0.1,0.2,0.3,0.3,0.5c0,0.4,0,0.4,0,0.2s0-0.1,0,0.2c0-0.1,0.1-0.3,0.1-0.4c0,0,0.2-0.7,0.1-0.3
				c0.1-0.4,0.3-0.7,0.5-1.1c0.6-1.2,0.4-2.7-0.9-3.4C138.7,141.9,136.9,142.1,136.3,143.4L136.3,143.4z"/>
		</g>
	</g>
</g>
</svg>
