<?xml version="1.0" encoding="utf-8"?>
<!-- Generator: Adobe Illustrator 25.2.0, SVG Export Plug-In . SVG Version: 6.00 Build 0)  -->
<svg version="1.1" id="Layer_1" xmlns="http://www.w3.org/2000/svg" xmlns:xlink="http://www.w3.org/1999/xlink" x="0px" y="0px"
	 viewBox="0 0 210.4 68.2" style="enable-background:new 0 0 210.4 68.2;" xml:space="preserve">
<style type="text/css">
	.st0{fill:#FFFFFF;}
	.st1{fill:#010101;}
</style>
<g>
	<g>
		<path class="st0" d="M203.9,61.5V50c0-18.1-1.1-32.7-3.3-43.7l-195-1v58.1c17.7-0.7,39.2-0.9,64.6-0.7
			C105.8,62.9,186.5,62.5,203.9,61.5z"/>
		<path class="st1" d="M210.4,49.5c0-19.5-1.2-34.6-3.6-45.2L205.4,1L4.5,0L3.6,2.5C1.2,13.4,0,28.6,0,48.1v19.2l210.3,1.4
			L210.4,49.5L210.4,49.5z M203.9,61.5c-17.5,1-98.1,1.4-133.7,1.2c-25-0.2-46.3,0-63.9,0.7l0,0l0.1-15.7c0-17.2,1-31.3,3-42.3
			l191.1,1c2.2,11,3.3,25.5,3.3,43.7v11.4H203.9z"/>
	</g>
	<g>
		<path class="st1" d="M23.4,53.8c-2.2-1.4-3.8-3.4-4.7-5.7c-0.3-0.8-0.5-1.9-0.6-2.8c-0.2-1-0.3-2.1-0.3-3.3
			c-0.1-2.9,1.3-4.7,5.5-4.9c0.1,0,0.2,0,0.4,0h0.8c0.4,0,0.8,0,1.4,0c0.6,0.1,1.2,0.2,1.7,0.5c-1.7-1.8-3-3.9-4.1-5.8
			c-0.4-0.8-1.2-2.1-1.6-2.9l-0.6-1.1l-0.5-1.1c-0.7-1.4-1-2.9-1-4.3c0-0.6,0.1-1.4,0.2-2c0.1-0.4,0.1-1,0.3-1.4l0.1-0.1
			c0.3-1.3,0.9-2.4,1.6-3.4l1.6-1.8c1-1,2.4-1.9,3.7-2.4c2.3-0.7,5-1.2,7.5-1.2c0.9,0,1.8,0.1,2.9,0.3c2.3,0.5,4.2,1.8,5.5,3.4
			l1.3,1.1c0.6,0.5,1.2,1.1,1.6,1.7c0.9,1.3,1.4,2.9,1.7,4.4c0.2,1,0.4,2.1,0.5,3.1c0,0.1,0.1,0.4,0.1,0.5c0.1,0.5-0.1,1.1-0.1,1.7
			c-0.3,1.4-1.2,2.3-2.6,2.9l-2.4,0.7h0.1l-1.1,0.3h-0.1c-0.3,0-0.7,0.1-0.9,0.1c-0.1,0-0.2,0-0.3,0l0.7,0.8l0.2,0.1
			c0.5,0.7,1.1,1.5,1.7,2.1h0.1c1.9,2.2,3.1,5.1,3.9,7.6c0.5,1.6,0.6,3.2,0.5,4.9v0.1c0.1,1.6-0.1,3.2-0.5,4.8
			c-0.5,2.3-1.9,4.2-3.9,5.7c-2.3,1.7-5,2.6-8.1,2.4c-1.1,0-2.2-0.2-3.1-0.5c-1-0.3-2.3-0.6-3.2-1c-1.6-0.6-3-1.3-4.1-2.3L23.4,53.8
			z M42.1,39.1c-0.7-2.4-1.7-4.8-3.5-6.9l-1.8-2.1c-1-1.1-1.9-2.1-2.9-3.2c-0.6-0.7-1.1-1.4-1.5-2.2c-0.4-0.9-0.6-1.7-0.5-2.6
			c0-0.6,0.2-1.1,0.7-1.6c0.6-0.6,1.5-0.6,2.1,0c0.3,0.3,0.5,0.6,0.6,1c0.2,0.6,0.3,1.3,0.4,1.9c0.1,0.4,0.2,0.8,0.3,1.2
			c0.3,0.7,0.9,1.1,1.8,1c0.2,0,0.4,0,0.5,0c1.1-0.3,2.2-0.6,3.2-1c0.6-0.2,1-0.6,1.1-1.2c0.1-0.4,0.1-0.9,0.1-1.3
			c-0.2-1.1-0.3-2.2-0.5-3.3c-0.3-1.3-0.7-2.5-1.5-3.7c-0.9-1.4-2.3-2.4-4.1-2.8c-0.7-0.1-1.5-0.2-2.2-0.2c-2.3,0-4.4,0.4-6.5,1.1
			c-1,0.3-1.9,0.9-2.5,1.6l-1.5,1.7c-0.5,0.7-0.9,1.5-1.1,2.3c-0.1,0.5-0.3,1-0.3,1.5c-0.3,1.7-0.2,3.5,0.6,5.2l0.6,1.1
			c0.7,1.3,1.4,2.5,2.1,3.8c1.1,2,2.3,3.9,3.9,5.5c0.6,0.6,1.2,1.2,1.8,1.8c1.2,1.2,2.1,2.6,2.7,4.1c0.3,0.8,0.4,1.7,0.3,2.5
			c-0.2,1-0.7,1.9-1.7,2.5c-0.8,0.5-1.8,0.5-2.5,0.1c-0.5-0.3-1-0.6-1.4-1c-1.3-1.2-1.8-2.7-2-4.3c-0.1-0.5-0.1-1-0.2-1.5
			c-0.1-0.6-0.5-1-1.3-1c-0.3,0-0.6,0-1,0s-0.7,0-1.1,0c-2.2,0.1-2.9,1-2.9,2.6c0.1,1,0.2,2.1,0.3,3.1c0.1,0.8,0.3,1.6,0.5,2.4
			c1,2.6,2.9,4.6,5.9,5.7c1,0.3,1.9,0.6,3,0.9c0.8,0.2,1.7,0.4,2.5,0.4c2.4,0.1,4.5-0.6,6.3-1.9c1.6-1.2,2.7-2.7,3.1-4.5
			c0.3-1.4,0.5-2.9,0.4-4.4C42.6,42,42.5,40.6,42.1,39.1z M31,45l-0.2-0.2C30.9,44.9,30.9,45,31,45z"/>
		<path class="st1" d="M48.8,53.9c-1-0.6-1.6-1.5-1.8-2.9c-0.1-0.4-0.1-1-0.1-1.4v-2c0-1.6,0-3.2-0.1-4.8c0-1.2-0.1-2.3-0.2-3.5
			v-0.2l-0.1-1.9c0-0.4-0.1-0.8-0.1-1.5c0-0.2-0.1-0.5-0.1-0.7c-0.1-0.6-0.1-1.5-0.1-2.2c0-2.2,0.2-4.5,0.3-6.7l0.3-5.6
			c0.1-1,0.1-1.9,0.1-2.8v-0.8c0-0.3,0.1-0.6,0.1-1c0.1-0.5,0.1-1,0.3-1.5c0.5-1.8,1.9-2.9,4.1-3.4c0.6-0.1,1.4-0.2,2.2-0.2
			c0.6,0,1.4,0,1.9,0.1c1.6,0.2,2.8,0.8,3.5,1.8l1.9,1.6c0.7,0.6,1.1,1.5,1.2,2.5c0,0.3,0,0.5,0.1,0.8v1.6c0,1,0.1,2,0.1,2.9v2.6
			c0,1.4-0.1,2.8-0.1,4.1c-0.1,1.4-0.1,2.7-0.1,4c0,1.1,0.1,2.3,0.1,3.4c0,0.6,0.1,1.2,0.1,1.8c0,1.3,0,2.5,0.1,3.9
			c0.1,1.1,0.2,2.3,0.1,3.4l-0.2,5.3c-0.1,0.7-0.1,1.4-0.1,2.1c-0.2,2.9-1.7,4-5.1,4.1h-1.8c-0.6,0-1.1-0.1-1.7-0.2
			c-1.1-0.2-1.9-0.5-2.5-1L48.8,53.9z M57,15.5c-0.1-0.2-0.1-0.5-0.1-0.7c-0.1-0.9-0.6-1.5-1.7-1.6c-1.1-0.1-2.2-0.1-3.2,0
			c-1.1,0.2-1.7,0.8-2,1.7c-0.1,0.4-0.2,0.9-0.2,1.3c-0.1,1.4-0.1,2.9-0.2,4.4l-0.3,5.6c-0.2,2.2-0.3,4.4-0.3,6.7
			c-0.1,1.4,0.2,2.9,0.2,4.3c0.1,1.9,0.3,3.7,0.3,5.6c0.1,2.1,0.1,4.3,0.1,6.5c0,0.5-0.1,1,0.1,1.5c0.1,1,0.6,1.5,1.8,1.7
			c0.4,0.1,0.7,0.1,1.1,0.1h1.8c1.7,0,2.5-0.6,2.6-2.1c0-0.7,0.1-1.4,0.1-2.1l0.2-5.3c0.1-1,0-2.1-0.1-3.2c-0.1-1.4-0.1-2.7-0.1-4
			c-0.1-1.8-0.2-3.5-0.2-5.3c0-2.7,0.1-5.4,0.1-8.2c0-1.8-0.1-3.5-0.1-5.5v-1.4H57z"/>
		<path class="st1" d="M61,23.8c0.1-1.8,0.2-3.8,0.7-5.6c0.3-1.3,0.9-2.5,1.6-3.5c1.6-2.4,4.1-3.9,7.2-4.6c1.5-0.3,3.1-0.5,4.7-0.5
			c1.7,0,3.4,0.3,4.8,0.8c1.7,0.5,3.3,1.6,4.4,2.9l1.6,1.3c0.7,0.6,1.3,1.3,1.8,2c0.8,1.3,1.4,2.7,1.7,4.1c0.3,1.3,0.4,2.4,0.4,3.7
			c0.1,1,0.1,2.3,0.1,3.3c0,0.6-0.1,1.2-0.2,1.8h-0.1c-0.3,1.3-1,2.2-2.2,2.7l1.4,1.2c0.6,0.5,1,1.1,1.2,1.9
			c0.2,0.6,0.4,1.3,0.4,2.2c0.1,0.6,0.1,1.5,0.1,2c0,0.3,0.1,0.5,0.1,0.9c0.1,2,0.2,4.4,0.3,6.3c0,0.7-0.1,1.6-0.2,2.5
			c-0.2,1-0.4,1.9-0.7,2.9h0.1c-0.4,1.3-1.1,2.4-2.2,3.3c-1.8,1.6-3.9,2.8-6.5,3.3c-1.6,0.3-3.2,0.5-4.9,0.4c-2.4,0-4.7-0.7-6.6-2
			l-0.9-0.7l-1.3-1.1l-0.6-0.4c-1.6-1.1-2.8-2.3-3.6-3.9c-1-1.8-1.6-3.7-1.8-5.7l-0.5-4.7v-1.5c0-0.1,0.1-0.2,0.1-0.3v-2.2L61,23.8z
			 M63.9,36.6v2.2c0,0.5-0.1,1.1-0.1,1.6l0.5,4.7c0.2,1.7,0.8,3.4,1.6,4.9c0.6,1.3,1.6,2.3,2.9,3.1c1.5,1,3.2,1.5,5.1,1.5
			c1.4,0,2.8-0.1,4.2-0.4c2.1-0.5,3.8-1.4,5.3-2.7c0.8-0.7,1.3-1.4,1.6-2.4c0.3-0.9,0.5-1.8,0.6-2.7c0.1-0.7,0.2-1.5,0.2-2.2
			c-0.1-2.1-0.2-4.2-0.3-6.3c-0.1-1-0.1-1.9-0.2-2.8c-0.1-0.6-0.2-1.3-0.4-1.9c-0.3-0.9-1.1-1.4-2.2-1.4c-0.4,0-0.8,0-1.2,0
			l-1.6,0.1L77,32.1l-1.9,0.3c-1.1,0.2-1.9,0.8-1.9,2c-0.1,0.6,0,1.3,0,1.9c0,1.1,0.9,1.8,2.1,1.7h1.6c0.8,0,1.2,0.3,1.4,0.9
			c0,0.1,0.1,0.3,0.1,0.4c0,1.6,0.2,3.2-0.3,4.8c-0.2,0.9-0.4,1.7-1,2.4c-1.2,1.7-3.8,1.5-5,0.4c-0.4-0.4-0.6-0.9-0.8-1.4
			c-0.3-1.4-0.4-2.9-0.4-4.4c0-2.9,0-5.7-0.1-8.6c0-0.5,0-1.1,0.1-1.6c0.2-1.5,0.2-3.1,0.2-4.6c0-1.4,0.2-5.3,0.6-6.7
			c0.1-0.3,0.2-0.7,0.4-1c0.8-1.3,2.5-1.4,3.5-0.2c0.3,0.3,0.5,0.7,0.7,1c0.4,0.9,0.5,4.4,0.6,5.3c0.1,0.6,0.1,1.2,0.2,1.8
			c0.2,0.9,0.9,1.4,1.9,1.4c1.2,0,2.3-0.1,3.5-0.2c1-0.1,1.6-0.6,1.7-1.4c0.1-0.4,0.2-0.9,0.2-1.3c0-1.1,0-2.1-0.1-3.2
			c0-1.2-0.1-2.3-0.3-3.4c-0.3-1.2-0.8-2.4-1.5-3.5c-0.9-1.3-2.1-2.3-3.8-2.8c-1.2-0.4-2.5-0.6-3.9-0.6s-2.7,0.1-3.9,0.4
			c-2.4,0.5-4.3,1.7-5.5,3.5c-0.6,1-1.1,1.9-1.4,3c-0.5,1.6-0.6,3.4-0.6,5L63.9,36.6z M76.5,30v0.2h0.3L76.5,30z"/>
		<path class="st1" d="M107.3,55.3c-1-0.5-1.7-1.2-2.1-2.3l-0.5-1.6l-0.4-2.2c0.1,0.9,0.2,1.8,0.3,2.7c0,0.1,0,0.1,0.1,0.3
			c0,0.1,0.1,0.6,0.1,0.8s0.1,0.4,0.1,0.6c0.2,2-1,4-4.3,4.1h-0.1l-2.6,0.2h-1.3c-1.2-0.1-2.1-0.5-2.8-1l-1.9-1.6
			c-1.1-0.5-1.9-1.4-2.1-2.8c-0.1-0.2-0.1-0.6-0.1-0.9v-1.2c0-0.4-0.1-0.8-0.1-1.3v-1.3c0-0.9-0.1-1.8,0-2.6c0-0.7-0.1-1.4-0.1-2
			v-2.1c-0.1-1.2-0.1-3.2-0.1-4.4V26.3c0-0.4-0.1-0.9-0.1-1.3v-2.5c0-0.9-0.1-1.8,0-2.5v-0.7c0-1.6,0-3.2,0.2-4.6
			c0.5-2.4,1.8-3.4,4.5-3.9h0.1c0.8-0.1,1.5-0.1,2.2-0.1s1.7,0,2.4,0.1c1.3,0.1,2.8,0.3,4.4,0.7l0.8,0.2c1,0.5,2,1.2,2.6,2l1.8,1.5
			l0.2,0.1c0-0.2,0.1-0.4,0.1-0.5v-0.2c0.4-1.4,1.7-2.4,2.9-2.8c1.4-0.5,2.7-0.5,4.1-0.4c1.4,0.2,2.5,0.8,3.2,1.9l1.6,1.4h0.1
			l0.2,0.1c0.5,0.4,0.9,0.9,1.1,1.5l0.2,0.8c0.3,1.5,0.6,3,0.9,4.5c0.2,0.9,0.3,1.9,0.4,2.5c0.2,2.6,0.4,5.4,0.5,8.1
			c0,0.3,0.1,0.7,0.1,1.2c0.1,1.3,0.2,2.9,0.2,4.2c0,1-0.1,2.1-0.1,3.1c0,0.5-0.1,0.9-0.1,1.4c0,0.3-0.1,0.7-0.1,1
			c-0.1,0.6-0.1,1.2-0.1,1.8l-0.3,8.1c0,0.6-0.1,1.2-0.2,1.8c-0.5,1.8-1.7,2.9-4.2,3.1c-0.3,0-0.7,0.1-1.1,0.1l-5-0.1h-0.6
			c-1.3-0.1-2.4-0.5-3.1-1.1L107.3,55.3z M100,24.7c0.3,0.7,0.6,1.4,0.8,2.2l2.6,8.6c0.4,1.4,0.9,2.8,1.3,4.2
			c1,3.7,1.9,7.4,2.6,11.2c0.1,0.5,0.3,1,0.4,1.4c0.3,0.8,1.1,1.2,2.1,1.3h0.3l5,0.1c0.3,0,0.5,0,0.9-0.1c1-0.1,1.7-0.6,1.9-1.5
			c0.1-0.5,0.2-0.9,0.2-1.4l0.3-8.2c0-0.9,0.1-1.9,0.2-2.8c0.1-1.5,0.2-3,0.2-4.5c0-1.8-0.2-3.6-0.3-5.3c-0.2-2.7-0.3-5.3-0.5-8
			c-0.1-0.8-0.2-1.5-0.3-2.3c-0.3-1.5-0.6-3-0.9-4.5l-0.2-0.6c-0.3-0.6-0.8-1-1.5-1c-0.9-0.1-1.8,0-2.6,0.3c-0.5,0.2-1,0.5-1.1,1
			c-0.1,0.3-0.2,0.7-0.1,1c0,1.6,0.1,3.3,0.1,4.9c0.1,0.9,0.1,1.7,0.1,2.5c0.1,1.5,0.2,3.1,0.2,4.6c0,1.7-0.1,3.4-0.2,5.1
			c0,0.4-0.1,0.8-0.2,1.1c-0.1,0.1-0.1,0.3-0.3,0.4c-0.2,0-0.3-0.3-0.4-0.4c-0.2-0.3-0.3-0.6-0.4-0.9l-1.1-2.4l-2.3-7.7
			c-0.8-2.4-1.4-4.8-2.2-7.1c-0.1-0.2-0.2-0.5-0.3-0.7c-0.3-0.7-0.8-1.1-1.6-1.5l-0.8-0.3c-1.1-0.3-2.3-0.5-3.6-0.5
			c-1.2-0.1-2.5-0.2-3.8,0c-1.4,0.2-2.1,0.7-2.3,1.9c-0.3,1.7-0.2,3.4-0.2,5.1c-0.1,2.1,0.1,4.2,0.1,6.3c0,3.4,0.1,6.9,0,10.4
			c0,2.8,0.1,5.7,0.1,8.5c-0.1,2.1,0.1,4.3,0.1,6.3c0,0.2,0,0.3,0.1,0.5c0.1,0.9,0.7,1.3,1.7,1.4h1l2.6-0.2c1.5,0,2-0.9,1.9-1.8
			c0-0.2-0.1-0.5-0.1-0.7c0-0.3-0.1-0.6-0.1-0.9c-0.2-1.7-0.4-3.4-0.4-5c-0.1-1.7-0.2-3.4-0.3-5.1v-8.4c0-1.2,0.2-2.4,0.1-3.6
			c-0.1-1-0.1-1.9,0.2-2.9c0.1-0.3,0.1-0.6,0.4-0.7C99.7,24,99.9,24.4,100,24.7z M120.2,14.6C120.3,14.6,120.3,14.6,120.2,14.6
			L120.2,14.6z"/>
		<path class="st1" d="M147.2,13.7l0.4,0.3c0.4-1.4,1.5-2.5,4.4-2.7c0.9,0,2.3,0,3.2,0c0.6,0,1.6,0.1,2.2,0.2
			c1.4,0.2,2.5,0.8,3.3,1.7l2.2,1.8c0.5,0.5,0.9,1,1.2,1.8c0.2,0.6,0.2,1.1,0.3,1.7h0.1c0.4,3,0.8,6.3,1,9.3
			c0.1,2.1,0.2,4.3,0.2,6.3s0,4.1-0.3,6l-0.2,1.2c-0.1,0.4-0.2,0.9-0.2,1.4l-0.2,1.4c-0.1,0.7-0.2,1.5-0.3,2.1
			c-0.3,1.7-0.8,3.5-1.6,5.3h-0.1c-1.1,2.8-5.1,5.6-8.8,6c-0.6,0-1.3,0.1-1.8,0.2l-0.9,0.1c-0.9,0-2.3-0.1-3-0.3
			c-2.5-0.6-4.6-1.6-6.3-3.1l-1.3-1c-1.2-0.8-2.3-1.7-3.2-2.8c-1.8-2-2.8-4.4-3.2-6.8l0,0c-0.4-1.8-0.5-4-0.4-5.8
			c0-0.9-0.1-1.7-0.1-2.5l-0.2-3.9c0-1-0.1-2.1-0.1-3.2v-0.5c0-0.2,0.1-0.3,0.1-0.5V24c0-0.6,0.1-1.2,0-1.9
			c-0.1-1.2-0.2-2.9-0.2-4.1v-1.1c0-0.4,0.1-0.8,0.1-1.2c0-2.8,1.5-4.4,5.6-4.2c0.6,0,1.1,0,1.6,0c0.2,0,0.5,0,0.8,0h0.8l1.8,0.1
			C145.5,12.1,146.6,12.7,147.2,13.7z M151.5,31.1v2.3c0.1,3.6-0.5,7.1-1.1,10.6c-0.2,0.7-0.3,1.4-0.8,1.9c-0.6,1-1.7,1-2.6,0.3
			c-0.2-0.2-0.3-0.3-0.4-0.5c-0.2-0.4-0.4-0.7-0.5-1.1c-0.3-1-0.4-2-0.4-3c-0.1-1.2-0.1-2.5-0.1-3.8c-0.1-1.6-0.1-3.3-0.1-4.9
			c0.1-1.3,0.1-2.6,0-3.9c-0.1-2-0.1-4-0.2-6.1V22c-0.2-1.9-0.3-3.7-0.2-5.6v-0.8c-0.1-0.9-0.6-1.4-1.7-1.5l-1.7-0.1
			c-1,0-2.1,0-3-0.1c-1.9-0.1-2.6,0.6-2.6,1.9c-0.1,2.1-0.1,4.2,0.1,6.3c0.1,1.5,0,3,0,4.5c0,0.6-0.1,1.2-0.1,1.8
			c0.1,1.1,0.1,2.2,0.1,3.2l0.2,3.8c0.1,0.9,0.1,1.8,0.1,2.7c-0.1,1.8,0.1,3.6,0.4,5.3c0.4,2.1,1.2,4.1,2.8,5.8
			c1.7,1.9,3.7,3.3,6.5,3.9c0.8,0.1,1.5,0.3,2.3,0.2s1.6-0.2,2.5-0.3c2.9-0.3,5.8-2.4,6.7-4.6c0.7-1.6,1.2-3.3,1.5-4.9
			c0.2-1.2,0.3-2.3,0.4-3.4c0.1-0.9,0.3-1.7,0.4-2.6c0.3-1.9,0.3-3.8,0.3-5.7c0-2.1-0.1-4.2-0.2-6.3c-0.2-3-0.5-6.1-1-9.1
			c-0.1-0.5-0.1-0.9-0.3-1.3c-0.3-0.9-0.9-1.4-2.1-1.5c-0.6-0.1-1.2-0.1-1.8-0.1c-1,0-1.9-0.1-2.9,0c-1.6,0-1.9,0.9-1.9,1.7l0.1,1
			l0.3,2.2c0.3,2,0.5,4,0.8,6c0.1,1.4,0.2,2.8,0.2,4.2V31.1L151.5,31.1z M164.4,18.5C164.4,18.6,164.5,18.6,164.4,18.5L164.4,18.5z"
			/>
		<path class="st1" d="M164.5,22.8c0-0.5-0.1-1-0.1-1.4V20c0-0.3-0.1-0.6-0.1-1v-3c0-0.6,0-1.1,0.2-1.7c0.4-1.8,1.9-3.1,4.3-3.3
			c0.9,0,2.1-0.1,2.9-0.1c0.9,0,2.1,0.1,3.1,0.2c1.5,0.2,3.1,0.4,4.6,0.5c3.3,0.4,5.9,2,7.6,4l1.3,1c1.7,1.4,2.8,3.2,3.1,4.9
			c0.4,1.9,0.8,3.9,0.8,5.8c0,0.8,0,1.8,0.1,2.7h0.1c0.1,0.3,0.1,0.6,0.1,1.2v0.1c0.1,1.1-0.1,2.2-0.5,3.2l-0.6,1.8
			c-0.6,1.6-1.8,2.9-3.3,3.9c-1.9,1.2-4.1,2.2-6.5,2.5l-1.1,0.1v1c0.1,1.9,0.2,3.9,0.3,5.8c0.1,1.3,0.1,2.3,0.1,3.6
			c0.2,0.5,0.2,0.8,0,1.3c-0.1,1.9-1.4,3.2-4.2,3.5c-0.9,0.1-1.6,0.2-2.5,0.3c-0.5,0.1-1.1,0-1.7,0h0.1c-1.2-0.1-2.1-0.5-2.8-1
			l-2.1-1.7c-1.2-0.7-1.9-1.7-2-2.9c-0.1-0.9-0.2-2.1-0.2-3c-0.1-1.5-0.2-3.1-0.4-4.8c-0.1-0.7-0.2-1.5-0.2-2.2l-0.1-1.2l-0.2-1.7
			c-0.2-1.9-0.3-3.9-0.3-5.7v-1.2c0-0.4,0.1-0.9,0.1-1.3v-5C164.5,25.3,164.5,24.1,164.5,22.8z M167,27.2c0.1,4.2-0.2,8.4,0.2,12.6
			c0.2,1.6,0.3,3.3,0.5,4.9c0.2,1.7,0.4,3.3,0.4,5c0,1,0.1,1.9,0.2,2.9c0.1,0.8,0.6,1.4,1.8,1.5c0.3,0,0.5,0,0.8,0l2.8-0.3
			c1.5-0.1,1.9-0.9,1.9-1.9c0.1-0.1,0.1-0.2,0-0.4c0-1.3-0.1-2.7-0.1-4l-0.3-5.9c0-0.5-0.1-1,0-1.5c0-1,0.4-1.4,1.5-1.5l1.8-0.2
			c1.9-0.3,3.7-1,5.3-2c1.1-0.8,2-1.7,2.4-2.9l0.6-1.8c0.3-0.9,0.5-1.7,0.4-2.6c-0.1-1.3-0.3-2.7-0.3-4c0-1.8-0.3-3.6-0.7-5.4
			c-0.4-2.4-3-5.4-7.1-5.7c-1.6-0.1-3.2-0.4-4.8-0.6c-1.8-0.3-3.6-0.2-5.5-0.1c-1,0-1.7,0.6-1.8,1.4c-0.1,0.4-0.1,0.8-0.1,1.3
			c0,1.3,0.1,2.6,0.1,4c0.1,2.3,0.1,4.6-0.2,6.9v0.3H167z M174,21.6c0.1-1.2,0.8-1.7,2.2-1.7c1.5,0,2.4,0.5,3.1,1.6
			c0.5,0.8,0.6,1.7,0.8,2.5c0.1,0.8,0.3,1.6,0.3,2.4c0.1,0.9,0.2,1.8,0.1,2.6c-0.2,1.7-1.9,3.1-3.9,3.2c-1.2,0-1.7-0.3-1.9-1.3
			c-0.1-0.6-0.2-1.2-0.2-1.8l-0.3-4.5c0-0.6-0.1-1.2-0.1-1.8C173.9,22.4,173.9,22,174,21.6z"/>
	</g>
</g>
</svg>
