<?xml version="1.0" encoding="utf-8"?>
<!-- Generator: Adobe Illustrator 25.2.0, SVG Export Plug-In . SVG Version: 6.00 Build 0)  -->
<svg version="1.1" id="Layer_1" xmlns="http://www.w3.org/2000/svg" xmlns:xlink="http://www.w3.org/1999/xlink" x="0px" y="0px"
	 viewBox="0 0 131.7 131.7" style="enable-background:new 0 0 131.7 131.7;" xml:space="preserve">
<style type="text/css">
	.st0{fill:#FCBD2C;}
</style>
<g>
	<path class="st0" d="M123.4,81.3c1.4-5.2,8.3-9.8,8.3-15.4s-6.9-10.2-8.3-15.4c-1.4-5.4,2.2-12.8-0.5-17.5
		c-2.8-4.8-11-5.3-14.9-9.2c-3.9-3.9-4.4-12.2-9.2-14.9c-4.7-2.7-12.1,0.9-17.5-0.5C76.1,6.9,71.4,0,65.8,0S55.6,6.9,50.4,8.3
		c-5.4,1.4-12.8-2.2-17.5,0.5c-4.8,2.8-5.3,11-9.2,14.9c-3.9,3.9-12.2,4.4-14.9,9.2c-2.7,4.7,0.9,12.1-0.5,17.5
		C6.9,55.6,0,60.2,0,65.8c0,5.6,6.9,10.2,8.3,15.4c1.4,5.4-2.2,12.8,0.5,17.5c2.8,4.8,11,5.3,14.9,9.2c3.9,3.9,4.4,12.2,9.2,14.9
		c4.7,2.7,12.1-0.9,17.5,0.5c5.2,1.4,9.8,8.3,15.4,8.3c5.6,0,10.2-6.9,15.4-8.3c5.4-1.4,12.8,2.2,17.5-0.5c4.8-2.8,5.3-11,9.2-14.9
		c3.9-3.9,12.2-4.4,14.9-9.2C125.6,94.1,121.9,86.6,123.4,81.3z M113.1,81.7c-1.7-13.4-7.1-25.4-15-34.1c1.2-0.3,2.3-1,3.2-1.9
		c2.9-2.9,2.9-7.7,0-10.6c-1.5-1.5-3.4-2.2-5.3-2.2c-1.9,0-3.9,0.7-5.3,2.2c-1.2,1.2-1.9,2.7-2.1,4.2c-3.3-2.2-6.9-4-10.7-5.2
		c0.2-0.3,0.5-0.6,0.8-0.9c0.3-0.3,0.6-0.6,0.9-0.9c4.8-4.2,12.9-6.3,12.9-6.3c-7.4-1.8-14.2-1.9-20.2-1c3-3.2,6.1-5.4,6.1-5.4
		C64.5,21.3,54.6,27.6,48,34c-0.9,0.8-1.7,1.7-2.4,2.5c-0.8,0.8-1.5,1.7-2.1,2.5c-0.2,0.2-0.3,0.3-0.3,0.3c-0.2-1.6-0.9-3.1-2.1-4.2
		c-1.5-1.5-3.4-2.2-5.3-2.2c-1.9,0-3.9,0.7-5.3,2.2c-2.9,2.9-2.9,7.7,0,10.6c0.9,0.9,2,1.6,3.2,1.9C26.3,55.6,21.1,66.3,19,78.5
		c-0.2,1-0.3,2.1-0.5,3.2c-1.7-5-2.6-10.3-2.6-15.8C16,38.3,38.3,16,65.8,16s49.9,22.3,49.9,49.9C115.7,71.4,114.8,76.7,113.1,81.7z
		 M35.6,43.8c-2,0-3.5-1.6-3.5-3.5c0-2,1.6-3.5,3.5-3.5c2,0,3.5,1.6,3.5,3.5C39.1,42.2,37.6,43.8,35.6,43.8z M55.1,63.9
		c0.1-0.1,0.2-0.1,0.3-0.2c0.5-0.4,1-0.7,1.5-1c0.1-0.1,0.2-0.1,0.3-0.2c0.5-0.3,1.1-0.6,1.8-0.9c1.4-0.5,3.3-0.9,5.2-1
		c0.5,0,1,0,1.5,0s1,0,1.5,0c2,0.1,3.8,0.5,5.2,1c0.7,0.3,1.3,0.6,1.8,0.9c0.1,0.1,0.2,0.1,0.3,0.2c0.5,0.3,1,0.6,1.5,1
		c0.1,0.1,0.2,0.1,0.3,0.2c6.1,4.1,15.1,0.5,15.1,7c0,6.6-6.1,12-13.5,12l0,0c-0.2,0-0.5,0-0.7,0c-3-0.1-7.4-2.6-9.2-3.8
		c0,0-0.1-0.1-0.1-0.1c-0.4-0.2-0.6-0.4-0.7-0.4c-0.5-0.3-1.1-0.7-1.6-0.7s-1.1,0.3-1.6,0.7c-0.1,0.1-0.3,0.2-0.7,0.4
		c0,0-0.1,0.1-0.1,0.1c-1.8,1.1-6.2,3.6-9.3,3.8c-0.2,0-0.4,0-0.7,0c0,0,0,0,0,0c-7.5,0-13.5-5.4-13.5-12C40,64.4,49,68,55.1,63.9z
		 M41.9,54.4c0-4.4,3.6-8,8-8c4.4,0,8,3.6,8,8c0,1.9-0.7,3.7-1.8,5.1c-0.8,0.4-1.6,1-2.4,1.6c-0.7,0.5-1.5,0.9-2.3,1.2
		c-0.5,0.1-0.9,0.1-1.4,0.1C45.4,62.4,41.9,58.8,41.9,54.4z M73.8,54.4c0-4.4,3.6-8,8-8c4.4,0,8,3.6,8,8s-3.6,8-8,8
		c-0.5,0-0.9,0-1.4-0.1c-0.8-0.3-1.6-0.7-2.3-1.2c-0.8-0.6-1.6-1.1-2.4-1.6C74.5,58.2,73.8,56.4,73.8,54.4z M77.8,85.4
		c-0.3,1.6-0.7,3.2-1.2,4.7c-0.4,1.1-1.4,1.9-2.5,1.9h-4c-1.5,0-2.7-1.4-2.7-3.1v-7.3c0.7,0.6,1.4,1.1,2.2,1.5
		C72.1,84.6,74.9,85.3,77.8,85.4z M64.3,81.6v7.3c0,1.7-1.2,3.1-2.7,3.1h-4c-1.1,0-2.1-0.7-2.5-1.9c-0.5-1.5-0.9-3-1.2-4.7
		c2.9-0.1,5.7-0.9,8.2-2.3C62.8,82.7,63.6,82.2,64.3,81.6z M65.8,102.8c6.5,0,12,4.9,14.4,10.8c-4.6,1.4-9.4,2.1-14.4,2.1
		c-5,0-9.9-0.7-14.4-2.1C53.8,107.6,59.4,102.8,65.8,102.8z M92.5,40.3c0-2,1.6-3.5,3.5-3.5c2,0,3.5,1.6,3.5,3.5
		c0,2-1.6,3.5-3.5,3.5C94.1,43.8,92.5,42.2,92.5,40.3z"/>
	<path class="st0" d="M53.8,54.4C53.8,54.4,53.8,54.4,53.8,54.4c0-2.2-1.8-4-4-4c-0.3,0-0.6,0-0.9,0.1c0,0,0.1,0,0.1,0.1
		c0.7,0.2,1.2,0.9,1.2,1.6c0,0,0,0,0,0c0,1-0.8,1.7-1.8,1.7c-1,0-1.7-0.8-1.8-1.7c0,0,0,0,0,0c0-0.1,0-0.2,0-0.3c0,0,0-0.1,0-0.1
		c-0.6,0.7-0.9,1.6-0.9,2.6c0,0,0,0,0,0c0,2.2,1.8,4,4,4C52,58.4,53.8,56.6,53.8,54.4z"/>
	<path class="st0" d="M81.8,58.4c2.2,0,4-1.8,4-4c0-2.2-1.8-4-4-4c-0.3,0-0.6,0-0.9,0.1c0.8,0.2,1.3,0.9,1.3,1.7
		c0,1-0.8,1.8-1.8,1.8c-1,0-1.8-0.8-1.8-1.8c0-0.1,0-0.3,0-0.4c-0.6,0.7-0.9,1.6-0.9,2.6C77.8,56.6,79.6,58.4,81.8,58.4z"/>
	<path class="st0" d="M65.8,75.1c3.2,0,5.9-1.7,7.5-4.2c0.8-1.3,1.3-2.9,1.3-4.6c0-2.3-3.8-3.5-7.9-3.6c-0.3,0-0.6,0-0.9,0
		c-0.3,0-0.6,0-0.9,0c-4.1,0.2-7.9,1.4-7.9,3.6c0,1.7,0.5,3.3,1.3,4.6C59.9,73.4,62.7,75.1,65.8,75.1z"/>
</g>
</svg>
