<?xml version="1.0" encoding="utf-8"?>
<!-- Generator: Adobe Illustrator 25.2.0, SVG Export Plug-In . SVG Version: 6.00 Build 0)  -->
<svg version="1.1" id="Layer_1" xmlns="http://www.w3.org/2000/svg" xmlns:xlink="http://www.w3.org/1999/xlink" x="0px" y="0px"
	 viewBox="0 0 1507.1 362.4" style="enable-background:new 0 0 1507.1 362.4;" xml:space="preserve">
<style type="text/css">
	.st0{fill:none;}
	.st1{fill:#1F130C;}
	.st2{fill:none;stroke:#1F130C;stroke-width:3;stroke-miterlimit:10;}
	.st3{fill:#F8B928;}
	.st4{fill:#71B2FF;}
	.st5{fill:#412412;}
	.st6{fill:#FFFFFF;}
	.st7{fill:#FBBB2B;}
	.st8{clip-path:url(#SVGID_2_);}
	.st9{fill:#BCBCBC;}
	.st10{fill:#BE1E2D;}
	.st11{fill:#56EDB6;}
	.st12{opacity:0.4;fill:#FFFFFF;enable-background:new    ;}
	.st13{fill:#B06E29;stroke:#1F130C;stroke-width:4;stroke-linejoin:round;stroke-miterlimit:10;}
	.st14{fill:#F9A421;stroke:#1F130C;stroke-width:4;stroke-linejoin:round;stroke-miterlimit:10;}
	.st15{fill:#E0D080;stroke:#1F130C;stroke-width:4;stroke-linejoin:round;stroke-miterlimit:10;}
	.st16{fill:#D4DDD9;stroke:#1F130C;stroke-width:4;stroke-linejoin:round;stroke-miterlimit:10;}
	.st17{fill:#EF4923;}
	.st18{fill:#B06E29;}
	.st19{fill:#D4DDD9;}
</style>
<path class="st0" d="M184.4,81.2c-0.8-0.1-1.4-0.2-1.8-0.2l-2.6-2.6c-0.1,0.6-0.1,1.1-0.1,1.7v1.7c0,3.5,0.3,6.2,0.9,8
	c1.5,0.8,2.7,1.3,3.6,1.6L184.4,81.2L184.4,81.2z"/>
<path class="st0" d="M175.6,182c-3,3.7-4.5,7.6-4.5,11.6c0,3.8,1.2,6.8,3.6,8.9s5.6,3.2,9.4,3.2c4.2,0,7.6-1.8,10.2-5.3
	c2.4-3.2,3.5-7,3.5-11.4c0-3.7-1-6.8-2.9-9.2c-2.1-2.6-5-3.8-8.7-3.8C182.4,176.1,178.8,178.1,175.6,182z"/>
<path class="st0" d="M112.9,85.6c3.6,0,6.6-1.6,8.7-4.7c1.9-2.7,2.9-6,2.9-9.9c0-2.6-0.5-4.8-1.6-6.6c-1.4-0.6-2.8-0.9-4.3-0.9
	c-3.4,0-6.4,1.7-9.2,5.2s-4.2,6.9-4.2,10.4c0,1.8,0.3,3.4,0.9,4.7C108.2,85,110.4,85.6,112.9,85.6z"/>
<path class="st0" d="M189.3,110.8c1.8,0,4.4-0.4,7.5-1.3c3.9-1,5.8-2.2,5.8-3.3c0-17.1-0.5-31.5-1.6-43.2l-10.9,0.4
	c-4.2,0.1-7.7,0.7-10.5,1.6c-0.5,2.2-0.8,3.8-0.8,4.9c0,2.7,0.4,4.6,1.1,5.7c2.8,0.3,5,0.5,6.4,0.6v18c-5.1-1.5-8.3-3.1-9.7-4.8
	c-1.7-2-2.5-5.8-2.5-11.2c0-6.3,1.3-11.8,4-16.4c3.2-5.4,7.5-8.2,13.1-8.2c0.9,0,2,0.2,3.3,0.6l3.1,0.9c2.5-3.2,3.9-7.3,4.3-12.2
	c-4.3-2-7.2-3-8.9-3c-12.6,0-21.9,3.2-27.8,9.5c-5.7,6.2-8.5,15.6-8.5,28.3c0,9.5,3,17.4,9.1,23.6
	C172.1,107.6,179.9,110.8,189.3,110.8z"/>
<path class="st0" d="M88.7,102c6.4,5.8,15,8.7,25.8,8.7c9.1,0,16.8-3.3,23.1-10c6.2-6.5,9.3-14.4,9.3-23.6c0-11.6-2.5-20.5-7.5-26.8
	c-5.5-7-13.9-10.5-25.2-10.5c-5.5,0-11.1,2-16.7,6c-5.2,3.7-9.5,8.2-13,13.6c-3.9,6-5.8,11.9-5.8,17.7C78.7,87.7,82.1,96,88.7,102z
	 M104.4,64c3.2-3.9,6.8-5.9,10.7-5.9c3.7,0,6.6,1.3,8.7,3.8c1.9,2.4,2.9,5.4,2.9,9.2c0,4.4-1.2,8.1-3.5,11.4
	c-2.6,3.5-6,5.3-10.2,5.3c-3.9,0-7-1.1-9.4-3.2s-3.6-5.1-3.6-8.9C99.9,71.6,101.4,67.7,104.4,64z"/>
<path class="st0" d="M47.8,110.2l3.7,0.1c2.5,0.1,4.4,0.1,5.7,0.1c8.3,0,12.5-1.3,12.5-3.8c0-1.5-0.2-3.7-0.7-6.7s-0.7-5.2-0.7-6.7
	v-0.1c0,0,0-0.2,0.1-0.5v-2.3c0-2.3-1.3-3.4-3.8-3.3H61c-2.4,0.1-4.1,0.1-5.3,0.1c-4,0-6-0.4-6-1.3c0-5.6,0.3-13,0.9-22.2
	c0.7-9.9,1-17.3,1-22.2h-3.2c-5,0-9.1,0.3-12.1,0.9L31.8,111C40.2,110.4,45.5,110.1,47.8,110.2z"/>
<path class="st0" d="M1007.4,293.5c-1.3-1.1-2.9-1.6-5-1.6c-1.2,0-2.1,0.2-2.7,0.6c-0.3,2.3-0.7,7.1-1.2,14.5c2.5,0,4.8-0.9,7.1-2.6
	c2.5-1.8,3.7-3.9,3.7-6.3C1009.4,296.1,1008.7,294.5,1007.4,293.5z"/>
<path class="st0" d="M1093.8,295.2h-2.4c-0.6,3.5-0.9,9-0.9,16.6v2.7c0,0.3,0,0.7,0,1.1v9.4h3.6c2.4,0,5.2-1.9,8.3-5.8
	c3.2-3.9,4.8-7,4.8-9.4c0-3.2-1.4-6.4-4.3-9.7C1100,296.8,1097,295.2,1093.8,295.2z"/>
<path class="st0" d="M24,300.7h-0.8c-0.4,3.5-0.6,8.4-0.6,14.7v2.6c0,0.3,0,0.7,0,1.2v3.1c1.3-0.9,2.9-2.4,4.7-4.5
	c3-3.5,4.4-6.2,4.4-8c0-2.3-1.2-4.9-3.5-7.7C26.7,301.1,25.3,300.7,24,300.7z"/>
<path class="st0" d="M235.8,89.9c0.1,0.7,0.2,1.2,0.2,1.4c0.7-0.4,1.1-1.2,1.1-2.4c0-0.2-0.1-0.5-0.3-0.9c-0.2-0.2-0.4-0.3-0.5-0.4
	c-1.4-0.8-2.7-1.7-4-2.7l3.3,3.2L235.8,89.9z"/>
<path class="st0" d="M220.7,107.9c3.4,1.9,8.6,2.9,15.7,2.9c6.4,0,11.7-1.9,15.9-5.8c4.2-3.9,6.2-9,6.2-15.4
	c0-6.5-1.9-11.7-5.8-15.7c-1.9-2-5.5-4.4-10.7-7.2c-3.8-2.1-5.8-4.1-5.8-6c0-1.3,0.5-2.4,1.6-3.3c1.1-0.9,2.2-1.3,3.5-1.3
	c1.6,0,2.7,0.8,3.6,2.3l1.7,4.3c8.3-1.8,13.8-3.1,16.3-3.8c0-5.3-2-9.8-5.9-13.5c-4-3.6-8.6-5.4-14-5.4c-7.4,0-13.4,1.9-17.9,5.7
	s-7.3,9.4-8.3,16.6c0.6,4.8,2.8,9,6.6,12.6c1.3,1.2,3,2.6,5,4c1.8,1.2,3.5,2.4,5.3,3.6c3.6,2.4,5.4,4.6,5.4,6.5
	c0,3.3-1.6,4.9-4.8,4.9h-0.7c-0.2,0-0.4,0-0.6-0.1c-1-1.3-1.7-2.7-2.1-4c-0.1-0.5-0.4-1.6-0.6-3.3h-8.8c-2.6,0-4.7,0-6.5-0.1
	c-0.5,1.7-0.7,4.3-0.7,7.7C214.3,100.8,216.4,105.4,220.7,107.9z"/>
<path class="st0" d="M1042.8,159.3c-0.5,5.4-1.4,10.8-2.6,16.3l-3.6,16c-1-3.1-1.8-5.6-2.3-7.6l-1.8-7.7c-1.6-6.7-3.1-11.7-4.5-15.2
	c-2.1-0.5-5.6-0.9-10.5-1.3c-4.5-0.3-6.9-0.4-7.2-0.4l-2.6,16.4c-1.1,7-2.5,12.3-4,16c-1.1-3.4-2.8-9-4.9-16.9
	c-1.9-7.2-3.6-12.8-5-16.8c-4.1,0.7-10,1.9-17.9,3.6c4.4,20,8,36.9,10.9,50.9c0.7,3.4,1.4,5.8,2,7.2c1,2.4,2.4,3.6,4.2,3.7l10.1,0.4
	c6.3,0.3,9.8,0.4,10.3,0.4c1.3-3.2,2.4-7.5,3.3-12.7c1.1-6.6,1.9-10.9,2.6-12.9c1.3,3.9,2.7,8.8,4,14.6c2.2,9.4,3.3,14.3,3.4,14.7
	l29.9-2.1l10-65.7l-2.3-2.3C1056,158.6,1048.9,159.1,1042.8,159.3z"/>
<path class="st0" d="M717,175.5c-1.3-1.1-2.9-1.6-5-1.6c-1.2,0-2.1,0.2-2.7,0.6c-0.3,2.3-0.7,7.1-1.2,14.5c2.5,0,4.8-0.9,7.1-2.6
	c2.5-1.8,3.7-3.9,3.7-6.3C718.9,178.1,718.3,176.5,717,175.5z"/>
<path class="st0" d="M128.8,275.9c-0.3,1.9-0.6,4-1.1,6.2c-2,10.6-3.2,21.1-3.6,31.7l-1.1,31.8c4.2,0.4,6.5,0.6,7.1,0.6l30-0.6
	v-14.8c0-0.9-2.8-1.6-8.3-2.1c-5.2-0.4-9-0.7-11.6-0.9V320c0.6-0.2,1.5-0.4,2.8-0.7l3.8-0.8c3.3-0.7,5.4-1.3,6.5-1.7
	c1-2.6,1.5-6.5,1.5-11.7l-11.4-1.8c0.1-4.3,0.3-7.6,0.4-9.8c1.4,0,2.9,0,4.5,0c4.8,0,9.7-0.4,14.7-1.3l1-15.1
	c-4.3-0.8-10.2-1.1-17.6-1.1h-17.6V275.9z"/>
<path class="st0" d="M369.4,281.3c-4-3.6-8.6-5.4-14-5.4c-7.4,0-13.4,1.9-17.9,5.7c-4.5,3.8-7.3,9.4-8.3,16.6
	c0.6,4.8,2.8,9,6.6,12.6c1.3,1.2,3,2.6,5,4c1.8,1.2,3.5,2.4,5.3,3.6c3.6,2.4,5.4,4.6,5.4,6.5c0,3.3-1.6,4.9-4.8,4.9H346
	c-0.2,0-0.4,0-0.6-0.1c-1-1.3-1.7-2.7-2.1-4c-0.1-0.5-0.4-1.6-0.6-3.3h-8.8c-2.6,0-4.7,0-6.5-0.1c-0.5,1.7-0.7,4.3-0.7,7.7
	c0,6.8,2.1,11.4,6.4,13.8c3.4,1.9,8.6,2.9,15.7,2.9c6.4,0,11.7-1.9,15.9-5.8c4.2-3.9,6.2-9,6.2-15.4c0-6.5-1.9-11.7-5.8-15.7
	c-1.9-2-5.5-4.4-10.7-7.2c-3.8-2.1-5.8-4.1-5.8-6c0-1.3,0.5-2.4,1.6-3.3s2.2-1.3,3.5-1.3c1.6,0,2.7,0.8,3.6,2.3l1.7,4.3
	c8.3-1.8,13.8-3.1,16.3-3.8C375.3,289.5,373.4,285,369.4,281.3z"/>
<path class="st0" d="M357.7,301.1l-1.3-3.4c-1.4,0.3-2.1,1.1-2.2,2.3c0.3,0.2,0.8,0.5,1.3,0.6c2.1,1.1,3.9,2.2,5.5,3.3l-3-2.9
	C357.9,301.1,357.8,301.1,357.7,301.1z"/>
<path class="st0" d="M375.5,294.9l-0.1-0.1v0.2L375.5,294.9z"/>
<path class="st0" d="M348.1,325.9c0.1,0.7,0.2,1.2,0.2,1.4c0.7-0.4,1.1-1.2,1.1-2.4c0-0.2-0.1-0.5-0.3-0.9c-0.2-0.2-0.4-0.3-0.5-0.4
	c-1.4-0.8-2.7-1.7-4-2.7l3.3,3.2L348.1,325.9z"/>
<path class="st0" d="M644,176.1c-3.9,0-7.5,2-10.7,5.9c-3,3.7-4.5,7.6-4.5,11.6c0,3.8,1.2,6.8,3.6,8.9s5.6,3.2,9.4,3.2
	c4.2,0,7.6-1.8,10.2-5.3c2.4-3.2,3.5-7,3.5-11.4c0-3.7-1-6.8-2.9-9.2C650.6,177.4,647.7,176.1,644,176.1z"/>
<path class="st0" d="M695.8,295.2h-2.4c-0.6,3.5-0.9,9-0.9,16.6v2.7c0,0.3,0,0.7,0,1.1v9.4h3.6c2.4,0,5.2-1.9,8.3-5.8
	c3.2-3.9,4.8-7,4.8-9.4c0-3.2-1.4-6.4-4.3-9.7C702,296.8,699,295.2,695.8,295.2z"/>
<path class="st0" d="M95.1,318.8c6.1-3.4,10.3-7.1,12.8-11.2s3.7-9.6,3.7-16.5c0-5.3-2.7-9.3-8.2-12c-4.3-2.2-9.4-3.3-15.2-3.3
	c-10.1,0-18.6,2.1-25.7,6.3c-0.1,4.8-0.9,13.7-2.3,26.5c-1.1,10-1.6,18.9-1.6,26.5v9.6c1.4,1.3,4,1.9,7.7,1.9c0.6,0,1.5,0,2.8-0.1
	c1.2-0.1,2.2-0.1,2.8-0.1h1.4c1.3,0,2.3,0.1,3.1,0.4c1.4-0.2,2.2-3.5,2.3-9.9c0.1-5.9,0.2-9.8,0.3-11.9c1.2,1.7,2.2,3.2,2.8,4.4
	c3.4,6.3,5.7,10.6,6.9,12.8l2.2,4c3.2-0.1,6.8-0.7,10.8-1.6l10.7-2.6c-0.1-2.6-2.6-6.6-7.3-11.9L95.1,318.8z M88,304.4
	c-2.3,1.7-4.6,2.6-7.1,2.6c0.5-7.3,0.9-12.2,1.2-14.5c0.6-0.4,1.5-0.6,2.7-0.6c2,0,3.7,0.5,5,1.6s1.9,2.6,1.9,4.6
	C91.7,300.5,90.5,302.6,88,304.4z"/>
<path class="st0" d="M88.3,297.3c-0.4,0-0.7,0-0.9,0.1c-0.2,2.3-0.4,4-0.5,5.2c1.8-1.4,2.6-2.9,2.6-4.5v-0.4c0-0.1-0.1-0.2-0.1-0.3
	C89.1,297.3,88.7,297.3,88.3,297.3z"/>
<path class="st0" d="M37.7,285.1c-7.1-6.2-16.5-9.3-28.5-9.3c-0.4,0-1.4,0.1-2.8,0.2c-1.2,0.1-2.1,0.2-2.8,0.1
	c0.1,3.4,0.2,7,0.2,10.8c0,5.4-0.2,13.6-0.6,24.6c-0.4,10.9-0.6,19.1-0.6,24.6c0,1.3,0,2.8,0.1,4.6c0.1,2.7,0.2,4.2,0.2,4.7
	c5.8,0.9,9.7,1.4,11.6,1.4c9.3,0,17.4-3.4,24.1-10.1s10.1-14.8,10.1-24.1C48.8,300.8,45.1,291.6,37.7,285.1z M29,319.2
	c-3.2,3.9-6,5.8-8.3,5.8h-3.6v-9.4c0-0.5,0-0.9,0-1.1v-2.7c0-7.6,0.3-13.1,0.9-16.6h2.4c3.2,0,6.2,1.6,9.1,4.9
	c2.9,3.2,4.3,6.5,4.3,9.7C33.8,312.2,32.2,315.3,29,319.2z"/>
<path class="st0" d="M1118.4,157.9c-1.2,0-2.2,0.1-3,0.2c-3.9,0.7-7.5,1.4-10.8,2.2c-0.8,2.4-1.1,4.7-1.1,6.9l0.2,6c0,2,0,3.2,0,3.4
	v2.6c0,1.3-0.1,3.3-0.4,6c-2.1,0.8-5,1.3-8.8,1.6c0-15.8-0.1-25.4-0.3-28.7l-5-0.1c-1.9,0-5.1,0-9.4,0.2c-3.5,13.5-5.2,35.9-5.2,67
	c0,2.4,0.9,3.6,2.7,3.6c2.8,0,8.2-0.3,16.3-0.9c-0.3-3.3-0.4-7.2-0.4-11.8v-3c0-0.4,0-0.7,0-1v-7.8l10.4-1.2l0.2,17.5
	c0,0.5,0,1.2-0.1,2.1c-0.1,1-0.2,1.8-0.2,2.1c0,1.3,0.4,2.3,1.3,3.1l16-0.8c0.6-3.6,0.9-6.8,0.9-9.7c0-8.7-0.2-19.2-0.7-31.4
	C1120.1,169.2,1119.3,159.8,1118.4,157.9z"/>
<path class="st0" d="M313.4,308.2c-1.5-19.5-2.6-30.3-3.3-32.3c-1.5,0-4.3,0.1-8.6,0.2l-17,0.6c-0.6,2.2-1.5,7.6-2.8,16.3
	c-0.9,6.7-2.4,11.9-4.3,15.8h-0.2c-3.8-11.8-6.9-22.2-9.3-31c-3.7,0.5-6.7,0.8-9.2,1.1c-3.4,0.4-6.4,1-8.9,2
	c-1.9,4.2-3,10.5-3.4,18.8l-1.1,24.7c-0.4,9.5-1.2,16.7-2.4,21.6c0.2,0.1,2,0.1,5.2,0c4.7-0.1,7.1-0.2,7.2-0.2
	c0.5,0,1.3,0.1,2.4,0.3c1.1,0.2,1.9,0.3,2.4,0.3c1.7,0,2.6-0.5,2.6-1.6c0-2.5,0-5.6,0.1-9.4l0.4-17.3c1.7,3.2,3.1,7.7,4.3,13.6
	c1.4,6.7,2.6,11.3,3.5,13.8c1.4-0.1,2.3-0.2,2.9-0.3c7-0.6,11.2-1.1,12.6-1.3c2.9-10.7,4.8-18.3,5.8-22.9
	c1.3,10.5,2.5,18.4,3.4,23.6h15.2c2.1,0,3.7-0.3,5-0.9c-0.2-5.6-0.5-10.3-0.8-13.9L313.4,308.2z"/>
<path class="st0" d="M210,275.8l-10.4,0.5l-6,0.2c-1.9,0-3.4,0.1-4.5,0.1l-4-0.1c-2.7,8.6-5,19.3-6.9,32.3l-4.7,32.7
	c2.7,1.5,6.4,2.6,11,3.3l7,1.1c0.7-1.2,1.3-4.6,2.1-10.2c0.7-4.9,1.3-7.7,2-8.4c0.5-0.6,2.2-1.1,5.3-1.5c3.8-0.5,5.8-0.7,6-0.8
	c1.5,3.5,3.4,7.1,5.5,10.9l6.1,10.7l18.2-9.7C229.5,317.5,220.7,297.1,210,275.8z M201.5,313l-5.9-0.1c0.1-1.8,0.4-4.4,1-8
	c0.6-3.5,0.9-6.2,1-8c4.1,7.3,6.4,12.5,7.1,15.7C203.8,313,202.8,313,201.5,313z"/>
<path class="st0" d="M245.3,65.1l-1.3-3.4c-1.4,0.3-2.1,1.1-2.2,2.3c0.3,0.2,0.8,0.5,1.3,0.6c2.1,1.1,3.9,2.2,5.5,3.3l-2.9-2.9
	C245.6,65.1,245.4,65.1,245.3,65.1z"/>
<path class="st0" d="M1404.7,226.8c-0.9-7.6-1.4-15.5-1.8-23.9l-1-23.9c11.3,0,18.3,0,21.2-0.2c0.3-2.2,0.5-5.7,0.5-10.4
	c0-4.4-0.2-7-0.6-7.7c-1,0-2.2-0.1-3.8-0.2l-9.7-0.8c-6.6-0.5-11.1-0.8-13.6-0.8c-10.4,0-18.3,0.4-23.6,1.1c-1.1,7-2,12.6-2.7,16.7
	c6.7,0.9,11.7,1.6,15.1,2.1l-3.4,50c4.7-0.4,8.6-0.7,11.6-0.9C1398.2,227.5,1402.1,227.2,1404.7,226.8z"/>
<path class="st0" d="M911.7,84.6c2.4,2.1,5.6,3.2,9.4,3.2c4.2,0,7.6-1.8,10.2-5.3c2.4-3.2,3.5-7,3.5-11.4c0-3.7-1-6.8-2.9-9.2
	c-2.1-2.6-5-3.8-8.7-3.8c-3.9,0-7.5,2-10.7,5.9c-3,3.7-4.5,7.6-4.5,11.6C908.1,79.5,909.3,82.4,911.7,84.6z"/>
<path class="st0" d="M1419.1,294.1c-3.9,0-7.5,2-10.7,5.9c-3,3.7-4.5,7.6-4.5,11.6c0,3.8,1.2,6.8,3.6,8.9s5.6,3.2,9.4,3.2
	c4.2,0,7.6-1.8,10.2-5.3c2.4-3.2,3.6-7,3.6-11.4c0-3.7-1-6.8-2.9-9.2C1425.7,295.4,1422.8,294.1,1419.1,294.1z"/>
<path class="st0" d="M642.6,83.2c3.2-3.9,4.8-7,4.8-9.4c0-3.2-1.4-6.4-4.3-9.7c-2.9-3.2-5.9-4.9-9.1-4.9h-2.4
	c-0.6,3.5-0.9,9-0.9,16.6v2.7c0,0.3,0,0.7,0,1.1V89h3.6C636.6,89,639.4,87.1,642.6,83.2z"/>
<path class="st0" d="M451.4,187c-0.6,3.5-0.9,6.2-1,8l5.9,0.1c1.2,0,2.3-0.1,3.3-0.3c-0.7-3.2-3-8.4-7.1-15.7
	C452.3,180.9,452,183.5,451.4,187z"/>
<path class="st0" d="M423.9,110.8c4.7-0.4,8.6-0.7,11.6-0.9c5.2-0.3,9.1-0.7,11.7-1.1c-0.9-7.6-1.4-15.5-1.8-23.9l-1-23.9
	c11.3,0,18.3,0,21.2-0.2c0.3-2.2,0.5-5.7,0.5-10.4c0-4.4-0.2-7-0.6-7.7c-1,0-2.2-0.1-3.8-0.2l-9.7-0.8c-6.6-0.5-11.1-0.8-13.6-0.8
	c-10.4,0-18.3,0.4-23.6,1.1c-1.1,7-2,12.6-2.7,16.7c6.7,0.9,11.7,1.6,15.1,2.1L423.9,110.8z"/>
<path class="st0" d="M986,69.2c0.6-0.2,3-1.1,7.1-2.6c3.2-1.2,4.7-2.7,4.7-4.5c0-0.9-0.5-1.8-1.6-2.8c-1-0.9-2-1.4-2.9-1.4
	c-2.3,0-5.2,0.2-8.7,0.6c0.4,1,0.7,2.8,0.9,5.3C985.7,65.5,985.9,67.4,986,69.2z"/>
<path class="st0" d="M1357.1,160.8c-11.9,0-18.4,0.3-19.5,0.8c-1.2,8.9-2,44.6-2,54.2v9.5l0.3,7.1c7.1,0,14-1.1,20.9-3.3
	c0.5-5.8,0.7-12.7,0.7-20.9c0-1.8,0-3.3-0.1-4.3l-0.3-6c-0.2-4-0.1-33.8-0.1-36.7L1357.1,160.8z"/>
<path class="st0" d="M263.1,58.9l-0.1-0.1V59L263.1,58.9z"/>
<path class="st0" d="M1479.5,299.7c0.8,0.1,1.4,0.1,1.8,0.1c4.7,0,7-1.7,7-5c0-2.1-3.2-3.2-9.5-3.2h-1.7c0,1.7,0.2,4.4,0.6,8
	C1478.2,299.6,1478.8,299.7,1479.5,299.7z"/>
<path class="st0" d="M368.3,85.6c3.6,0,6.6-1.6,8.7-4.7c1.9-2.7,2.9-6,2.9-9.9c0-2.6-0.5-4.8-1.6-6.6c-1.4-0.6-2.8-0.9-4.3-0.9
	c-3.4,0-6.4,1.7-9.2,5.2s-4.2,6.9-4.2,10.4c0,1.8,0.3,3.4,0.9,4.7C363.5,85,365.8,85.6,368.3,85.6z"/>
<path class="st0" d="M1249.6,84.6c2.4,2.1,5.6,3.2,9.4,3.2c4.2,0,7.6-1.8,10.2-5.3c2.4-3.2,3.6-7,3.6-11.4c0-3.7-1-6.8-2.9-9.2
	c-2.1-2.6-5-3.8-8.7-3.8c-3.9,0-7.5,2-10.7,5.9c-3,3.7-4.5,7.6-4.5,11.6C1246,79.5,1247.2,82.4,1249.6,84.6z"/>
<path class="st0" d="M1487.1,317.2c-0.7-0.8-2.2-1.3-4.3-1.6c-1.2-0.2-2.8-0.4-4.8-0.7c-0.3,3.2-0.4,6.2-0.4,9
	c0,2.3,0.7,3.4,2.1,3.4c1.8,0,3.7-0.5,5.8-1.4c2.5-1.1,3.8-2.5,3.8-4.1c0-0.5-0.2-1.3-0.7-2.4
	C1487.9,318.4,1487.5,317.6,1487.1,317.2z"/>
<path class="st0" d="M246.7,181.7c0.8,0.1,1.4,0.1,1.8,0.1c4.7,0,7-1.7,7-5c0-2.1-3.2-3.2-9.5-3.2h-1.7c0,1.7,0.2,4.4,0.6,8
	C245.4,181.6,246,181.7,246.7,181.7z"/>
<path class="st0" d="M1155.3,305c-0.6,3.5-0.9,6.2-1,8l5.9,0.1c1.2,0,2.3-0.1,3.3-0.3c-0.7-3.2-3-8.4-7.1-15.7
	C1156.2,298.9,1155.9,301.5,1155.3,305z"/>
<path class="st0" d="M1170.2,227.6v-14.8c0-0.9-2.8-1.6-8.3-2.1c-5.2-0.4-9-0.7-11.6-0.9V202c0.6-0.2,1.5-0.4,2.8-0.7l3.8-0.8
	c3.3-0.7,5.4-1.3,6.5-1.7c1-2.6,1.5-6.5,1.5-11.7l-11.4-1.8c0.1-4.3,0.3-7.6,0.4-9.8c1.4,0,2.9,0,4.5,0c4.8,0,9.7-0.4,14.7-1.3
	l1-15.1c-4.3-0.8-10.2-1.1-17.6-1.1h-17.7c-0.3,1.9-0.6,4-1.1,6.2c-2,10.6-3.2,21.1-3.6,31.7l-1.1,31.8c4.2,0.4,6.5,0.6,7.1,0.6
	L1170.2,227.6z"/>
<path class="st0" d="M286.5,108.4l8.9-1.7c0-1.3-0.3-4.8-0.9-10.5c-0.4-3.8-0.6-6.7-0.6-8.7c0-0.7,0-1.3,0.1-1.9
	c6.9-2.6,11.5-4.3,13.9-5.2c12.2-4.6,18.2-11.6,18.2-21c0-6.4-2.7-11.4-8.2-15c-4.7-3-10.4-4.5-17.2-4.5c-9.1,0-17.7,1.3-25.8,4
	c0,5.7-0.4,15.5-1.2,29.3c-0.8,13.1-1.1,22.8-1.1,29.3c0,3.8,0.5,6.6,1.5,8.3C281,109.4,285.1,108.6,286.5,108.4z M301,57.9
	c0.9,0,1.9,0.5,2.9,1.4s1.6,1.9,1.6,2.8c0,1.8-1.6,3.4-4.7,4.5c-4.1,1.6-6.4,2.4-7.1,2.6c-0.1-1.8-0.3-3.7-0.4-5.5
	c-0.2-2.5-0.5-4.2-0.9-5.3C295.8,58.1,298.7,57.9,301,57.9z"/>
<path class="st0" d="M1253.6,157.9c-0.3,1.9-0.6,4-1.1,6.2c-2,10.6-3.2,21.1-3.5,31.7l-1.1,31.8c4.2,0.4,6.5,0.6,7.1,0.6l30-0.6
	v-14.8c0-0.9-2.8-1.6-8.3-2.1c-5.2-0.4-9-0.7-11.6-0.9V202c0.6-0.2,1.5-0.4,2.8-0.7l3.8-0.8c3.3-0.7,5.4-1.3,6.5-1.7
	c1-2.6,1.5-6.5,1.5-11.7l-11.4-1.8c0.1-4.3,0.3-7.6,0.4-9.8c1.4,0,2.9,0,4.5,0c4.8,0,9.7-0.4,14.7-1.3l1-15.1
	c-4.3-0.8-10.2-1.1-17.6-1.1L1253.6,157.9L1253.6,157.9z"/>
<path class="st0" d="M254.3,199.2c-0.7-0.8-2.2-1.3-4.3-1.6c-1.2-0.2-2.8-0.4-4.8-0.7c-0.3,3.2-0.4,6.2-0.4,9c0,2.3,0.7,3.4,2.1,3.4
	c1.8,0,3.7-0.5,5.8-1.4c2.5-1.1,3.8-2.5,3.8-4.1c0-0.5-0.2-1.3-0.7-2.4C255.1,200.4,254.7,199.6,254.3,199.2z"/>
<path class="st0" d="M1108.1,57.5c-1.3-1.1-2.9-1.6-5-1.6c-1.2,0-2.1,0.2-2.7,0.6c-0.3,2.3-0.7,7.1-1.2,14.5c2.5,0,4.8-0.9,7.1-2.6
	c2.5-1.8,3.7-3.9,3.7-6.3C1110.1,60.1,1109.4,58.5,1108.1,57.5z"/>
<path class="st0" d="M344.1,102c6.4,5.8,15,8.7,25.8,8.7c9.1,0,16.8-3.3,23.1-10c6.2-6.5,9.3-14.4,9.3-23.6
	c0-11.6-2.5-20.5-7.5-26.8c-5.5-7-13.9-10.5-25.2-10.5c-5.5,0-11.1,2-16.7,6c-5.2,3.7-9.5,8.2-13,13.6c-3.9,6-5.8,11.9-5.8,17.7
	C334,87.7,337.4,96,344.1,102z M359.7,64c3.2-3.9,6.8-5.9,10.7-5.9c3.7,0,6.6,1.3,8.7,3.8c1.9,2.4,2.9,5.4,2.9,9.2
	c0,4.4-1.2,8.1-3.5,11.4c-2.6,3.5-6,5.3-10.2,5.3c-3.9,0-7-1.1-9.4-3.2s-3.6-5.1-3.6-8.9C355.2,71.6,356.7,67.7,359.7,64z"/>
<path class="st0" d="M1214.4,179.7c0-0.1-0.1-0.2-0.1-0.3c-0.4-0.1-0.8-0.1-1.1-0.1c-0.4,0-0.7,0-0.9,0.1c-0.2,2.3-0.4,4-0.5,5.2
	c1.8-1.4,2.6-2.9,2.6-4.5V179.7z"/>
<path class="st0" d="M352.5,180.1c0-0.9-0.5-1.8-1.6-2.8c-1-0.9-2-1.4-2.9-1.4c-2.3,0-5.2,0.2-8.7,0.6c0.4,1,0.7,2.8,0.9,5.3
	c0.1,1.8,0.3,3.7,0.4,5.5c0.6-0.2,3-1.1,7.1-2.6C350.9,183.4,352.5,181.9,352.5,180.1z"/>
<path class="st0" d="M1203.6,218.8c0.1-5.9,0.2-9.8,0.3-11.9c1.2,1.7,2.2,3.2,2.8,4.4c3.4,6.3,5.7,10.6,6.9,12.8l2.2,4
	c3.2-0.1,6.8-0.7,10.8-1.6l10.7-2.6c-0.1-2.6-2.6-6.6-7.3-11.9l-10.1-11.3c6.1-3.4,10.3-7.1,12.8-11.2c2.5-4.1,3.7-9.6,3.7-16.5
	c0-5.3-2.7-9.3-8.2-12c-4.3-2.2-9.4-3.3-15.2-3.3c-10.1,0-18.7,2.1-25.7,6.3c-0.1,4.8-0.9,13.7-2.3,26.5c-1.1,10-1.6,18.9-1.6,26.5
	v9.6c1.4,1.3,4,1.9,7.7,1.9c0.6,0,1.5,0,2.8-0.1c1.2-0.1,2.2-0.1,2.8-0.1h1.4c1.3,0,2.3,0.1,3.1,0.4
	C1202.6,228.6,1203.4,225.3,1203.6,218.8z M1206.9,174.5c0.6-0.4,1.5-0.6,2.7-0.6c2,0,3.7,0.5,5,1.6s1.9,2.6,1.9,4.6
	c0,2.4-1.2,4.5-3.7,6.3c-2.3,1.7-4.6,2.6-7.1,2.6C1206.2,181.6,1206.6,176.8,1206.9,174.5z"/>
<path class="st0" d="M298.4,65.2c2.4-0.9,3.7-1.5,4-1.8c-1.8,0.1-3.2,0.2-4.2,0.3c0.1,0.2,0.1,0.5,0.1,0.8v0.7H298.4z"/>
<path class="st1" d="M29.9,113.3l3.3,3.4c1,0,2.9-0.2,5.6-0.4L44,116c3.4-0.2,5.8-0.3,7.2-0.3l9.4,0.3c9.6,0,14.4-1.9,14.4-5.8
	c0-1.5-0.2-3.8-0.7-6.7c-0.5-3-0.7-5.2-0.7-6.7v-0.5c0-0.2,0-0.5,0.1-0.9v-1.6c0-1.7-0.4-2.9-1.3-3.8l-2.6-2.6
	c-0.9-1.8-2.8-2.7-5.5-2.6l-3.5,0.1c-0.1,0-0.2,0-0.3,0.1h-2c-0.5,0-0.9,0.1-1.1,0.1H55c0.2-4.2,0.5-10.1,0.9-17.7l0.4-7.3
	c0.1-1.2,0.2-3.5,0.4-6.7l0.1-5.8c0-1.9,0.1-3.4,0.1-4.5l-3.3-3.3v-0.4h-5.3c-5.4,0-9.6,0.3-12.6,1L34.1,41l-4.8,72.4h0.2
	C29.8,113.3,29.8,113.3,29.9,113.3z M36.3,42.4c3.1-0.6,7.1-0.9,12.1-0.9h3.2c0,4.9-0.3,12.3-1,22.2c-0.6,9.2-0.9,16.6-0.9,22.2
	c0,0.9,2,1.3,6,1.3c1.1,0,2.9,0,5.3-0.1h3.5c2.6-0.1,3.8,1,3.8,3.3v2.3c0,0.3-0.1,0.4-0.1,0.5v0.1c0,1.5,0.2,3.7,0.7,6.7
	c0.4,3,0.7,5.2,0.7,6.7c0,2.5-4.2,3.8-12.5,3.8c-1.3,0-3.2,0-5.7-0.1l-3.7-0.1c-2.2-0.1-7.6,0.2-16,0.9L36.3,42.4z"/>
<path class="st1" d="M87.4,103.5c0.5,0.4,1,0.8,1.4,1.2l0.9,0.9c7.1,7.1,16.5,10.6,28.3,10.6c9.7,0,17.8-3.5,24.5-10.6
	c6.5-6.9,9.8-15.2,9.8-24.9c0-13.7-3.4-23.9-10.1-30.6l-1.2-1.2c-5.9-7.5-14.9-11.2-26.8-11.2c-5.9,0-11.9,2.2-18,6.5
	c-5.5,3.9-10.1,8.6-13.6,14.3c-4,6.2-6,12.4-6,18.6C76.6,88.3,80.2,97.1,87.4,103.5z M84.6,59.4c3.5-5.3,7.8-9.9,13-13.6
	c5.6-4,11.2-6,16.7-6c11.3,0,19.7,3.5,25.2,10.5c5,6.3,7.5,15.2,7.5,26.8c0,9.2-3.1,17-9.3,23.6c-6.3,6.7-14,10-23.1,10
	c-10.7,0-19.3-2.9-25.8-8.7c-6.7-6.1-10-14.4-10-25C78.7,71.3,80.7,65.4,84.6,59.4z"/>
<path class="st1" d="M103.5,84.6c2.4,2.1,5.6,3.2,9.4,3.2c4.2,0,7.6-1.8,10.2-5.3c2.4-3.2,3.5-7,3.5-11.4c0-3.7-1-6.8-2.9-9.2
	c-2.1-2.6-5-3.8-8.7-3.8c-3.9,0-7.5,2-10.7,5.9c-3,3.7-4.5,7.6-4.5,11.6C99.9,79.5,101.1,82.4,103.5,84.6z M109.5,68.8
	c2.8-3.5,5.8-5.2,9.2-5.2c1.5,0,3,0.3,4.3,0.9c1,1.8,1.6,4,1.6,6.6c0,3.8-1,7.1-2.9,9.9c-2.2,3.1-5.1,4.7-8.7,4.7
	c-2.5,0-4.7-0.6-6.7-1.8c-0.6-1.3-0.9-2.8-0.9-4.7C105.4,75.7,106.7,72.3,109.5,68.8z"/>
<path class="st1" d="M167.5,105.4l1.2,1.2c6.4,6.4,14.5,9.7,24.2,9.7c2.1,0,4.8-0.5,8-1.3c4.8-1.3,7.2-3.1,7.2-5.2
	c0-17.2-0.5-31.7-1.6-43.3l-3.3-3.3v-0.4l-2.1-1.9l-10.9,0.4c-0.7,0-1.5,0.1-2.5,0.2c2.1-1.6,4.5-2.4,7.3-2.4c0.6,0,1.4,0.2,2.6,0.5
	c2.4,0.7,3.9,1,4.7,1c3.1-4.1,4.9-9.2,5.5-15.3l-3.4-3.3c0-0.1,0-0.2,0.1-0.2v-0.1c-5.5-2.6-9.2-3.8-11.1-3.8
	c-13.2,0-23,3.4-29.3,10.2c-6.1,6.6-9.2,16.5-9.2,29.8c0,10.1,3.7,18.9,11.2,26.4C166.5,104.6,167,105,167.5,105.4z M165.5,49.4
	c5.9-6.3,15.2-9.5,27.8-9.5c1.7,0,4.6,1,8.9,3c-0.4,4.9-1.9,9-4.3,12.2l-3.1-0.9c-1.3-0.4-2.4-0.6-3.3-0.6c-5.5,0-9.9,2.7-13.1,8.2
	c-2.7,4.6-4,10.1-4,16.4c0,5.4,0.8,9.2,2.5,11.2c1.4,1.7,4.6,3.2,9.7,4.8v-18c-1.4-0.1-3.5-0.3-6.4-0.6c-0.8-1.1-1.1-3-1.1-5.7
	c0-1.1,0.3-2.7,0.8-4.9c2.8-0.9,6.3-1.4,10.5-1.6l10.9-0.4c1,11.6,1.6,26,1.6,43.2c0,1.2-1.9,2.3-5.8,3.3c-3.2,0.9-5.7,1.3-7.5,1.3
	c-9.5,0-17.2-3.1-23.3-9.4c-6.1-6.2-9.1-14.1-9.1-23.6C157,65,159.8,55.6,165.5,49.4z M179.8,81.7V80c0-0.6,0-1.1,0.1-1.7l2.6,2.6
	c0.4,0,1,0.1,1.8,0.2v10.1c-0.9-0.3-2.1-0.8-3.6-1.6C180.1,87.9,179.8,85.2,179.8,81.7z"/>
<path class="st1" d="M261.6,47.4L261.6,47.4L261.6,47.4C261.5,47.4,261.5,47.4,261.6,47.4L261.6,47.4z"/>
<path class="st1" d="M218.5,109.1l1.8,1.8c3.6,3.6,10.1,5.3,19.5,5.3c6.9,0,12.6-2.2,17.2-6.5l-0.1-0.1c4.6-4.3,7-9.8,7-16.6
	c0-7-2.1-12.7-6.3-17l-0.3-0.2h0.1l-1.4-1.4c-0.1-0.1-0.7-0.8-1.8-2.1c-1.5-1.4-3.2-2.7-5.1-4c2.7-0.4,7.2-1.4,13.6-3.1l6.4-2
	c-0.1-2.7-0.7-5.5-2-8.3s-2.8-5.1-4.7-6.9l-0.8-0.7h-0.1l-0.1-0.1l0,0l-0.2-0.2c-4.5-6.3-10.6-9.4-18.3-9.4c-8,0-14.5,2.1-19.4,6.2
	c-4.9,4.2-7.9,10.2-8.9,18.2c0.7,5.9,3.2,10.8,7.7,14.7c0.1,0.1,0.3,0.3,0.7,0.6l1.8,1.7c0,0.1,0.2,0.3,0.4,0.4l0.3,0.3
	c0.5,0.5,2.5,2,5.8,4.4h-9.4h-1.5c-1.6,0-2.3-0.1-2.1-0.1H215l-2.1,1.6c-0.5,1.8-0.8,4.5-0.8,8.2
	C212.1,101.2,214.3,106.2,218.5,109.1z M215,86.3c1.8,0,4,0.1,6.5,0.1h8.8c0.3,1.7,0.5,2.8,0.6,3.3c0.4,1.4,1.1,2.7,2.1,4
	c0.2,0,0.4,0.1,0.6,0.1h0.7c3.2,0,4.8-1.6,4.8-4.9c0-1.9-1.8-4-5.4-6.5c-1.8-1.2-3.6-2.4-5.3-3.6c-2-1.4-3.7-2.7-5-4
	c-3.8-3.6-6-7.8-6.6-12.6c1-7.3,3.8-12.8,8.3-16.6s10.5-5.7,17.9-5.7c5.4,0,10.1,1.8,14,5.4c4,3.6,5.9,8.1,5.9,13.5
	c0,0,0.1,0,0.1,0.1V59v-0.2c-2.6,0.8-8,2-16.3,3.8l-1.7-4.3c-0.8-1.6-2-2.3-3.6-2.3c-1.3,0-2.4,0.5-3.5,1.3c-1.1,0.9-1.6,2-1.6,3.3
	c0,1.9,1.9,3.9,5.8,6c5.2,2.8,8.8,5.3,10.7,7.2c3.8,4,5.8,9.2,5.8,15.7c0,6.4-2.1,11.5-6.2,15.4c-4.2,3.9-9.5,5.8-15.9,5.8
	c-7.1,0-12.3-1-15.7-2.9c-4.3-2.5-6.4-7.1-6.4-13.8C214.3,90.6,214.5,88.1,215,86.3z M232.2,84.9c1.3,1,2.7,1.9,4,2.7
	c0.1,0.1,0.3,0.2,0.5,0.4c0.2,0.4,0.3,0.7,0.3,0.9c0,1.2-0.4,2-1.1,2.4c0-0.2-0.1-0.7-0.2-1.4l-0.3-1.8L232.2,84.9z M248.6,68
	c-1.6-1-3.5-2.1-5.5-3.3c-0.5-0.2-0.9-0.4-1.3-0.6c0.1-1.2,0.8-2,2.2-2.3l1.3,3.4c0.1,0,0.3,0,0.4-0.1L248.6,68z"/>
<path class="st1" d="M261.8,47.6c0,0-0.1-0.1-0.2-0.2l0.1,0.1L261.8,47.6z"/>
<path class="st1" d="M273.5,113.1l3.3,3.3c0.1,0,2.4-0.5,7-1.3l17.1-3.3c0-2.7-0.3-6.8-0.9-12.4c-0.4-3.7-0.6-6.6-0.6-8.5v-0.5
	c2.5-0.9,5.7-2.2,9.8-3.7c0.5-0.1,1.5-0.5,2.9-1c5.7-2.1,10.2-4.9,13.6-8.4c4-4.2,6-9,6-14.4c0-5.5-1.8-10.1-5.4-13.7L326,49l-1.1-1
	c-4.8-6.9-12.9-10.3-24.1-10.3c-9.6,0-18.9,1.5-27.9,4.6c0,3-0.1,7.3-0.4,12.9l-0.4,8.4c-0.1,1.7-0.3,4.8-0.5,9.4
	c-0.8,13.3-1.1,23.1-1.1,29.4c0,4.4,0.8,8,2.5,10.7C273.2,113.1,273.3,113.1,273.5,113.1z M273.9,73.2c0.8-13.9,1.2-23.6,1.2-29.3
	c8.1-2.7,16.7-4,25.8-4c6.8,0,12.5,1.5,17.2,4.5c5.5,3.5,8.2,8.5,8.2,15c0,9.4-6.1,16.4-18.2,21c-2.4,0.9-7.1,2.6-13.9,5.2
	c0,0.6-0.1,1.2-0.1,1.9c0,2,0.2,4.9,0.6,8.7c0.6,5.7,0.9,9.2,0.9,10.5l-8.9,1.7c-1.4,0.3-5.5,1.1-12.3,2.4c-1-1.7-1.5-4.5-1.5-8.3
	C272.8,96,273.1,86.3,273.9,73.2z"/>
<path class="st1" d="M293.6,69.2c0.6-0.2,3-1.1,7.1-2.6c3.2-1.2,4.7-2.7,4.7-4.5c0-0.9-0.5-1.8-1.6-2.8c-1-0.9-2-1.4-2.9-1.4
	c-2.3,0-5.2,0.2-8.7,0.6c0.4,1,0.7,2.8,0.9,5.3C293.4,65.5,293.5,67.4,293.6,69.2z M302.4,63.4c-0.3,0.2-1.7,0.8-4,1.8v-0.7
	c0-0.3,0-0.5-0.1-0.8C299.2,63.7,300.6,63.6,302.4,63.4z"/>
<path class="st1" d="M342.7,103.5c0.5,0.4,1,0.8,1.4,1.2l0.9,0.9c7.1,7.1,16.5,10.6,28.3,10.6c9.7,0,17.8-3.5,24.5-10.6
	c6.5-6.9,9.8-15.2,9.8-24.9c0-13.7-3.4-23.9-10.1-30.6l-1.2-1.2c-5.9-7.5-14.9-11.2-26.8-11.2c-5.9,0-11.9,2.2-18,6.5
	c-5.5,3.9-10.1,8.6-13.6,14.3c-4,6.2-6,12.4-6,18.6C331.9,88.3,335.5,97.1,342.7,103.5z M339.9,59.4c3.5-5.3,7.8-9.9,13-13.6
	c5.6-4,11.2-6,16.7-6c11.3,0,19.7,3.5,25.2,10.5c5,6.3,7.5,15.2,7.5,26.8c0,9.2-3.1,17-9.3,23.6c-6.3,6.7-14,10-23.1,10
	c-10.7,0-19.3-2.9-25.8-8.7c-6.7-6.1-10-14.4-10-25C334,71.3,336,65.4,339.9,59.4z"/>
<path class="st1" d="M358.8,84.6c2.4,2.1,5.6,3.2,9.4,3.2c4.2,0,7.6-1.8,10.2-5.3c2.4-3.2,3.5-7,3.5-11.4c0-3.7-1-6.8-2.9-9.2
	c-2.1-2.6-5-3.8-8.7-3.8c-3.9,0-7.5,2-10.7,5.9c-3,3.7-4.5,7.6-4.5,11.6C355.2,79.5,356.4,82.4,358.8,84.6z M364.8,68.8
	c2.8-3.5,5.8-5.2,9.2-5.2c1.5,0,3,0.3,4.3,0.9c1,1.8,1.6,4,1.6,6.6c0,3.8-1,7.1-2.9,9.9c-2.2,3.1-5.1,4.7-8.7,4.7
	c-2.5,0-4.7-0.6-6.7-1.8c-0.6-1.3-0.9-2.8-0.9-4.7C360.7,75.7,362.1,72.3,364.8,68.8z"/>
<path class="st1" d="M413.6,63.9l6.1,0.8c0.3,0,2,0.3,5.2,0.8l-3.2,47.7h0.1c0.1,0,0.2-0.1,0.2-0.1l3.4,3.4l5.4-0.5
	c3.4-0.3,8.8-0.8,16.1-1.3c2.3-0.2,4.3-0.4,6-0.6c0,0-0.2-1.9-0.5-5.5l-0.6-6.3c-0.4-4.8-0.7-9.4-0.9-13.8L450,66.6h5.7
	c0.7,0,2.3,0,5-0.1l8-0.1c0.5,0,1.3,0,2.3-0.1c0.5-3.6,0.7-7.7,0.7-12.3c0-4.7-0.5-7.9-1.5-9.6l-3.1-3c0-0.3-0.2-0.5-0.4-0.8
	c-2.8-0.1-7.6-0.4-14.1-1c-6.1-0.5-10.8-0.8-14.1-0.8c-11.1,0-19.6,0.5-25.5,1.3c-0.4,2.4-0.7,4.3-0.9,5.8l-1.8,10.9
	c0,0.1-0.2,1.4-0.6,3.8c0.1,0,0.4,0,0.6,0.1L413.6,63.9z M415,42c5.3-0.8,13.2-1.1,23.6-1.1c2.5,0,7,0.3,13.6,0.8l9.7,0.8
	c1.5,0.1,2.8,0.2,3.8,0.2c0.4,0.7,0.6,3.3,0.6,7.7c0,4.8-0.2,8.3-0.5,10.4c-2.9,0.2-10,0.3-21.2,0.2l1,23.9
	c0.3,8.3,0.9,16.3,1.8,23.9c-2.6,0.4-6.5,0.7-11.7,1.1c-3.1,0.2-7,0.5-11.6,0.9l3.4-50c-3.4-0.5-8.4-1.2-15.1-2.1
	C413,54.6,413.9,49.1,415,42z"/>
<path class="st1" d="M1063.8,109.6V94.8c0-0.9-2.8-1.6-8.3-2.1c-5.2-0.4-9-0.7-11.6-0.9V84c0.6-0.2,1.5-0.4,2.8-0.7l3.8-0.8
	c3.3-0.7,5.4-1.3,6.5-1.7c1-2.6,1.5-6.5,1.5-11.7l-11.4-1.8c0.1-4.3,0.3-7.6,0.4-9.8c1.4,0,2.9,0,4.5,0c4.8,0,9.7-0.4,14.7-1.3
	l1-15.1c-4.3-0.8-10.2-1.1-17.6-1.1h-17.7c-0.3,1.9-0.6,4-1.1,6.2c-2,10.6-3.2,21.1-3.6,31.7l-1.1,31.8c4.2,0.4,6.5,0.6,7.1,0.6
	L1063.8,109.6z"/>
<path class="st1" d="M978.9,108.4l8.9-1.7c0-1.3-0.3-4.8-0.9-10.5c-0.4-3.8-0.6-6.7-0.6-8.7c0-0.7,0-1.3,0.1-1.9
	c6.9-2.6,11.5-4.3,13.9-5.2c12.2-4.6,18.2-11.6,18.2-21c0-6.4-2.7-11.4-8.2-15c-4.7-3-10.4-4.5-17.2-4.5c-9.1,0-17.7,1.3-25.8,4
	c0,5.7-0.4,15.5-1.2,29.3c-0.8,13.1-1.1,22.8-1.1,29.3c0,3.8,0.5,6.6,1.5,8.3C973.4,109.4,977.5,108.6,978.9,108.4z M993.4,57.9
	c0.9,0,1.9,0.5,2.9,1.4s1.6,1.9,1.6,2.8c0,1.8-1.6,3.4-4.7,4.5c-4.1,1.6-6.4,2.4-7.1,2.6c-0.1-1.8-0.3-3.7-0.4-5.5
	c-0.2-2.5-0.5-4.2-0.9-5.3C988.2,58.1,991.1,57.9,993.4,57.9z"/>
<path class="st1" d="M1195,106.5v-9.9c0-0.9,0-1.6-0.1-2.3l-0.3-3.8c-0.1-1.7-0.1-2.8-0.1-3.4c0-1.2,0-2.1,0.1-2.7l8-0.3
	c4.2-0.1,6.2-0.8,6.2-2.1c0-1.9-0.4-6.6-1.2-14.1c-0.3-0.1-2.3-0.3-6-0.6c-3.3-0.3-5.3-0.7-6.1-1.2v-1.6c0-2.9,0.4-5.4,1.1-7.7
	c2.4-0.7,5.7-1.1,10-1.4c5.2-0.4,8.6-0.7,10.1-1v-7.6c0-3.1-0.5-5.4-1.6-7.1h-6.4c-9.4-0.1-19.5,0.6-30.2,2.2
	c0.1,9.1-0.1,23.3-0.6,42.7l-0.7,25.5c2.8,0,5.9-0.3,9.4-0.9C1191.1,108.6,1194,107.6,1195,106.5z"/>
<path class="st1" d="M1113.5,82.8c6.1-3.4,10.3-7.1,12.8-11.2s3.7-9.6,3.7-16.5c0-5.3-2.7-9.3-8.2-12c-4.3-2.2-9.4-3.3-15.2-3.3
	c-10.1,0-18.7,2.1-25.7,6.3c-0.1,4.8-0.9,13.7-2.3,26.5c-1.1,10-1.6,18.9-1.6,26.5v9.6c1.4,1.3,4,1.9,7.7,1.9c0.6,0,1.5,0,2.8-0.1
	c1.2-0.1,2.2-0.1,2.8-0.1h1.4c1.3,0,2.3,0.1,3.1,0.4c1.4-0.2,2.2-3.5,2.3-9.9c0.1-5.9,0.2-9.8,0.3-11.9c1.2,1.7,2.2,3.2,2.8,4.4
	c3.4,6.3,5.7,10.6,6.9,12.8l2.2,4c3.2-0.1,6.8-0.7,10.8-1.6l10.7-2.6c-0.1-2.6-2.6-6.6-7.3-11.9L1113.5,82.8z M1106.4,68.4
	c-2.3,1.7-4.6,2.6-7.1,2.6c0.5-7.3,0.9-12.2,1.2-14.5c0.6-0.4,1.5-0.6,2.7-0.6c2,0,3.7,0.5,5,1.6s1.9,2.6,1.9,4.6
	C1110.1,64.5,1108.8,66.6,1106.4,68.4z"/>
<path class="st1" d="M896.9,102c6.4,5.8,15,8.7,25.8,8.7c9.1,0,16.8-3.3,23.1-10c6.2-6.5,9.3-14.4,9.3-23.6
	c0-11.6-2.5-20.5-7.5-26.8c-5.5-7-13.9-10.5-25.2-10.5c-5.5,0-11.1,2-16.7,6c-5.2,3.7-9.5,8.2-13,13.6c-3.9,6-5.8,11.9-5.8,17.7
	C886.9,87.7,890.2,96,896.9,102z M912.6,64c3.2-3.9,6.8-5.9,10.7-5.9c3.7,0,6.6,1.3,8.7,3.8c1.9,2.4,2.9,5.4,2.9,9.2
	c0,4.4-1.2,8.1-3.5,11.4c-2.6,3.5-6,5.3-10.2,5.3c-3.9,0-7-1.1-9.4-3.2s-3.6-5.1-3.6-8.9C908.1,71.6,909.6,67.7,912.6,64z"/>
<path class="st1" d="M765.8,110.2c1.8-4.1,4.9-15.1,9.2-33.1c4.4-18.2,6.6-29.3,6.6-33.1l-0.6-2.7c-6-1-10-1.5-12.2-1.5
	c-2.5,0-4.5,0.2-6.1,0.6c-0.2,1.4-0.7,3.4-1.3,6l-2.1,8.9c-1.9,8.2-3,13.1-3.2,14.8c-0.4,2.7-0.6,5-0.8,7.1
	c-0.2,2.9-0.7,5.3-1.3,7.1c-2.6-4.8-5.1-11.5-7.5-20.2c-3.2-11.2-5.3-18.1-6.2-20.7l-17.5,1.3c1,1,4.5,11.1,10.6,30.3l10.8,34.3
	c5.1,1,11,1.5,17.5,1.5C763.5,110.9,764.9,110.7,765.8,110.2z"/>
<path class="st1" d="M709.6,109.6V94.8c0-0.9-2.8-1.6-8.3-2.1c-5.2-0.4-9-0.7-11.6-0.9V84c0.6-0.2,1.5-0.4,2.8-0.7l3.8-0.8
	c3.3-0.7,5.4-1.3,6.5-1.7c1-2.6,1.5-6.5,1.5-11.7l-11.4-1.8c0.1-4.3,0.3-7.6,0.4-9.8c1.4,0,2.9,0,4.5,0c4.8,0,9.7-0.4,14.7-1.3
	l1-15.1c-4.3-0.8-10.2-1.1-17.6-1.1h-17.7c-0.3,1.9-0.6,4-1.1,6.2c-2,10.6-3.2,21.1-3.6,31.7l-1.1,31.8c4.2,0.4,6.5,0.6,7.1,0.6
	L709.6,109.6z"/>
<path class="st1" d="M616.5,109.4c5.8,0.9,9.7,1.4,11.6,1.4c9.3,0,17.4-3.4,24.1-10.1c6.7-6.7,10.1-14.8,10.1-24.1
	c0-11.8-3.7-20.9-11.1-27.4c-7.1-6.2-16.5-9.3-28.5-9.3c-0.4,0-1.4,0.1-2.8,0.2c-1.2,0.1-2.1,0.2-2.8,0.1c0.1,3.4,0.2,7,0.2,10.8
	c0,5.4-0.2,13.6-0.6,24.6c-0.4,10.9-0.6,19.1-0.6,24.6c0,1.3,0,2.8,0.1,4.6C616.5,107.3,616.5,108.9,616.5,109.4z M630.7,79.7
	c0-0.5,0-0.9,0-1.1v-2.7c0-7.6,0.3-13.1,0.9-16.6h2.4c3.2,0,6.2,1.6,9.1,4.9c2.9,3.2,4.3,6.5,4.3,9.7c0,2.4-1.6,5.6-4.8,9.4
	c-3.2,3.9-6,5.8-8.3,5.8h-3.6L630.7,79.7L630.7,79.7z"/>
<path class="st1" d="M856,110.2l3.7,0.1c2.5,0.1,4.4,0.1,5.7,0.1c8.3,0,12.5-1.3,12.5-3.8c0-1.5-0.2-3.7-0.7-6.7s-0.7-5.2-0.7-6.7
	v-0.1c0,0,0-0.2,0.1-0.5v-2.3c0-2.3-1.3-3.4-3.8-3.3h-3.5c-2.4,0.1-4.1,0.1-5.3,0.1c-4,0-6-0.4-6-1.3c0-5.6,0.3-13,0.9-22.2
	c0.7-9.9,1-17.3,1-22.2h-3.2c-5,0-9.1,0.3-12.1,0.9l-4.5,68.7C848.4,110.4,853.7,110.1,856,110.2z"/>
<path class="st1" d="M795.3,39.9c-0.3,1.9-0.6,4-1.1,6.2c-2,10.6-3.2,21.1-3.5,31.7l-1.1,31.8c4.2,0.4,6.5,0.6,7.1,0.6l30-0.6V94.8
	c0-0.9-2.8-1.6-8.3-2.1c-5.2-0.4-9-0.7-11.6-0.9V84c0.6-0.2,1.5-0.4,2.8-0.7l3.8-0.8c3.3-0.7,5.4-1.3,6.5-1.7
	c1-2.6,1.5-6.5,1.5-11.7L810,67.2c0.1-4.3,0.3-7.6,0.4-9.8c1.4,0,2.9,0,4.5,0c4.8,0,9.7-0.4,14.7-1.3l1-15.1
	c-4.3-0.8-10.2-1.1-17.6-1.1H795.3z"/>
<path class="st1" d="M1349.2,102.6l-4.2-12.2c-7.2,0.2-12.6-0.5-16.2-2.1c-5.2-2.3-7.8-6.6-7.8-13.1c0-2.6,0.5-5,1.4-7.4
	c1.1-2.7,2.6-4.7,4.5-6c1.4-0.9,4-2,7.6-3.2c3.4-1.1,6.1-1.8,8.1-2.1c1.3-2.5,2.6-5.5,3.9-9.2l1.3-3.8c-0.9-2.5-4.3-3.7-10.3-3.7
	c-10,0-18.3,4.6-25.1,13.7c-6.2,8.5-9.4,17.8-9.4,27.9c0,8,2.6,14.8,7.8,20.5c5.3,5.9,11.9,8.8,19.8,8.8
	C1336.2,110.8,1342.3,108.1,1349.2,102.6z"/>
<path class="st1" d="M1387.5,110.8c11.5,0,20-4.9,25.3-14.6c4.3-7.7,6.4-17.9,6.4-30.5c0-16.8-1.6-25.2-4.7-25.1l-7.2,0.1
	c-6.4,0-10.2,0.6-11.4,1.8c0,1.8,0.3,5.4,0.9,10.7c0.3,2.8,0.5,5.1,0.5,7c0,6.8-0.5,12.6-1.5,17.5c-1.7,8.3-4.6,12.5-8.7,12.5
	c-6,0-8.9-6.4-8.9-19.1c0-4.6,0.1-9.7,0.2-15.4c0.2-7.6,0.3-12.7,0.2-15.4l-3.1-0.4l-15.8,1.1c0.1,1,0.1,2.4-0.1,4
	c-0.3,2.2-0.5,3.6-0.5,4.1v12.4c0,13.9,1.5,24.6,4.4,32.1C1368,105,1376,110.8,1387.5,110.8z"/>
<path class="st1" d="M1478.3,58.9L1478.3,58.9L1478.3,58.9L1478.3,58.9z"/>
<path class="st1" d="M1473.7,89.5c0-6.5-1.9-11.7-5.8-15.7c-1.9-2-5.5-4.4-10.7-7.2c-3.8-2.1-5.8-4.1-5.8-6c0-1.3,0.5-2.4,1.6-3.3
	c1.1-0.9,2.2-1.3,3.5-1.3c1.6,0,2.7,0.8,3.5,2.3l1.7,4.3c8.3-1.8,13.8-3.1,16.3-3.8c0-5.3-2-9.8-5.9-13.5c-4-3.6-8.6-5.4-14-5.4
	c-7.4,0-13.4,1.9-17.9,5.7s-7.3,9.4-8.3,16.6c0.6,4.8,2.8,9,6.6,12.6c1.3,1.2,3,2.6,5,4c1.8,1.2,3.5,2.4,5.3,3.6
	c3.6,2.4,5.4,4.6,5.4,6.5c0,3.3-1.6,4.9-4.8,4.9h-0.7c-0.2,0-0.4,0-0.6-0.1c-1-1.3-1.7-2.7-2.1-4c-0.1-0.5-0.4-1.6-0.6-3.3h-8.8
	c-2.6,0-4.7,0-6.5-0.1c-0.5,1.7-0.7,4.3-0.7,7.7c0,6.8,2.1,11.4,6.4,13.8c3.4,1.9,8.6,2.9,15.7,2.9c6.4,0,11.7-1.9,15.9-5.8
	C1471.6,101.1,1473.7,95.9,1473.7,89.5z"/>
<path class="st1" d="M1234.9,102c6.4,5.8,15,8.7,25.8,8.7c9.1,0,16.8-3.3,23.1-10c6.2-6.5,9.3-14.4,9.3-23.6
	c0-11.6-2.5-20.5-7.5-26.8c-5.5-7-13.9-10.5-25.2-10.5c-5.5,0-11.1,2-16.7,6c-5.2,3.7-9.5,8.2-13,13.6c-3.9,6-5.8,11.9-5.8,17.7
	C1224.9,87.7,1228.2,96,1234.9,102z M1250.6,64c3.2-3.9,6.8-5.9,10.7-5.9c3.7,0,6.6,1.3,8.7,3.8c1.9,2.4,2.9,5.4,2.9,9.2
	c0,4.4-1.2,8.1-3.6,11.4c-2.6,3.5-6,5.3-10.2,5.3c-3.9,0-7-1.1-9.4-3.2s-3.6-5.1-3.6-8.9C1246,71.6,1247.5,67.7,1250.6,64z"/>
<path class="st1" d="M454.2,158.3l-6,0.2c-1.9,0-3.4,0.1-4.5,0.1l-4-0.1c-2.7,8.6-5,19.3-6.9,32.3l-4.7,32.7c2.7,1.5,6.4,2.6,11,3.3
	l7,1.1c0.7-1.2,1.3-4.6,2.1-10.2c0.7-4.9,1.3-7.7,2-8.4c0.5-0.6,2.2-1.1,5.3-1.5c3.8-0.5,5.8-0.7,6-0.8c1.5,3.5,3.4,7.1,5.5,10.9
	l6.1,10.7l18.2-9.7c-7-19.5-15.9-39.9-26.6-61.2L454.2,158.3z M456.2,195l-5.9-0.1c0.1-1.8,0.4-4.4,1-8c0.6-3.5,0.9-6.2,1-8
	c4.1,7.3,6.4,12.5,7.1,15.7C458.5,195,457.5,195,456.2,195z"/>
<path class="st1" d="M355.1,198.4c12.2-4.6,18.2-11.6,18.2-21c0-6.4-2.7-11.4-8.2-15c-4.7-3-10.4-4.5-17.2-4.5
	c-9.1,0-17.7,1.3-25.8,4c0,5.7-0.4,15.5-1.2,29.3c-0.8,13.1-1.1,22.8-1.1,29.3c0,3.8,0.5,6.6,1.5,8.3c6.8-1.3,10.9-2.1,12.3-2.4
	l8.9-1.7c0-1.3-0.3-4.8-0.9-10.5c-0.4-3.8-0.6-6.7-0.6-8.7c0-0.7,0-1.3,0.1-1.9C348.1,201,352.7,199.3,355.1,198.4z M340.7,187.2
	c-0.1-1.8-0.3-3.7-0.4-5.5c-0.2-2.5-0.5-4.2-0.9-5.3c3.5-0.4,6.4-0.6,8.7-0.6c0.9,0,1.9,0.5,2.9,1.4s1.6,1.9,1.6,2.8
	c0,1.8-1.6,3.4-4.7,4.5C343.7,186.2,341.3,187,340.7,187.2z"/>
<path class="st1" d="M577.7,214.6c0-0.9,0-1.6-0.1-2.3l-0.3-3.8c-0.1-1.7-0.1-2.8-0.1-3.4c0-1.2,0-2.1,0.1-2.7l8-0.3
	c4.2-0.1,6.2-0.8,6.2-2.1c0-1.9-0.4-6.6-1.2-14.1c-0.3-0.1-2.3-0.3-6-0.6c-3.3-0.3-5.3-0.7-6.1-1.2v-1.6c0-2.9,0.4-5.4,1.1-7.7
	c2.4-0.7,5.7-1.1,10-1.4c5.2-0.4,8.6-0.7,10.1-1v-7.6c0-3.1-0.5-5.4-1.6-7.1h-6.4c-9.4-0.1-19.5,0.6-30.2,2.2
	c0.1,9.1-0.1,23.3-0.6,42.7l-0.7,25.5c2.8,0,5.9-0.3,9.4-0.9c4.7-0.8,7.5-1.7,8.5-2.8v-9.8H577.7z"/>
<path class="st1" d="M530.8,202.9l-1-23.9c11.3,0,18.3,0,21.2-0.2c0.3-2.2,0.5-5.7,0.5-10.4c0-4.4-0.2-7-0.6-7.7
	c-1,0-2.2-0.1-3.8-0.2l-9.7-0.8c-6.6-0.5-11.1-0.8-13.6-0.8c-10.4,0-18.3,0.4-23.6,1.1c-1.1,7-2,12.6-2.7,16.7
	c6.7,0.9,11.7,1.6,15.1,2.1l-3.4,50c4.7-0.4,8.6-0.7,11.6-0.9c5.2-0.3,9.1-0.7,11.7-1.1C531.7,219.2,531.1,211.3,530.8,202.9z"/>
<path class="st1" d="M250.6,158.6h-0.9c-0.4,0-0.8,0-1.1,0h-6c-9.6,0-14.4,0.7-14.4,2.1c0,2.7,0.1,6.7,0.4,12.1
	c0.3,5.4,0.4,9.4,0.4,12.1c0,21.6,0.8,35,2.4,40.3c0.5,1.7,2,2.8,4.3,3.3c1.1,0.2,3,0.4,5.8,0.4c9.2,0,16.6-1.9,22.2-5.8
	c6.4-4.5,9.7-11.1,9.7-20c0-3.4-0.7-6.3-2.1-8.7c-1.6-2.8-3.9-4.6-7-5.2c3.1-2.9,5.2-5.2,6.4-6.8c2.1-2.9,3.1-5.8,3.1-8.5
	c0-5.2-2.7-9.2-8.2-11.9C261.3,159.7,256.2,158.6,250.6,158.6z M246.1,173.7c6.3,0,9.5,1.1,9.5,3.2c0,3.3-2.3,5-7,5
	c-0.4,0-1,0-1.8-0.1s-1.4-0.1-1.8-0.1c-0.4-3.6-0.6-6.2-0.6-8L246.1,173.7L246.1,173.7z M252.6,207.9c-2.1,0.9-4.1,1.4-5.8,1.4
	c-1.4,0-2.1-1.1-2.1-3.4c0-2.8,0.1-5.8,0.4-9c2,0.3,3.6,0.5,4.8,0.7c2.2,0.3,3.6,0.9,4.3,1.6c0.4,0.4,0.8,1.2,1.3,2.2
	c0.5,1.1,0.7,1.8,0.7,2.4C256.4,205.4,255.1,206.8,252.6,207.9z"/>
<path class="st1" d="M419,224.7c0-1.5-0.2-3.7-0.7-6.7s-0.7-5.2-0.7-6.7v-0.1c0,0,0-0.2,0.1-0.5v-2.3c0-2.3-1.3-3.4-3.8-3.3h-3.5
	c-2.4,0.1-4.1,0.1-5.3,0.1c-4,0-6-0.4-6-1.3c0-5.6,0.3-13,0.9-22.2c0.7-9.9,1-17.3,1-22.2h-3.2c-5,0-9.1,0.3-12.1,0.9l-4.5,68.7
	c8.5-0.7,13.8-0.9,16-0.9l3.7,0.1c2.5,0.1,4.4,0.1,5.7,0.1C414.9,228.5,419,227.2,419,224.7z"/>
<path class="st1" d="M722.3,200.8c6.1-3.4,10.3-7.1,12.8-11.2c2.5-4.1,3.7-9.6,3.7-16.5c0-5.3-2.7-9.3-8.2-12
	c-4.3-2.2-9.4-3.3-15.2-3.3c-10.1,0-18.6,2.1-25.7,6.3c-0.1,4.8-0.9,13.7-2.3,26.5c-1.1,10-1.6,18.9-1.6,26.5v9.6
	c1.4,1.3,4,1.9,7.7,1.9c0.6,0,1.5,0,2.8-0.1c1.2-0.1,2.2-0.1,2.8-0.1h1.4c1.3,0,2.3,0.1,3.1,0.4c1.4-0.2,2.2-3.5,2.3-9.9
	c0.1-5.9,0.2-9.8,0.3-11.9c1.2,1.7,2.2,3.2,2.8,4.4c3.4,6.3,5.7,10.6,6.9,12.8l2.2,4c3.2-0.1,6.8-0.7,10.8-1.6l10.7-2.6
	c-0.1-2.6-2.6-6.6-7.3-11.9L722.3,200.8z M715.2,186.4c-2.3,1.7-4.6,2.6-7.1,2.6c0.5-7.3,0.9-12.2,1.2-14.5c0.6-0.4,1.5-0.6,2.7-0.6
	c2,0,3.7,0.5,5,1.6s1.9,2.6,1.9,4.6C718.9,182.5,717.7,184.6,715.2,186.4z"/>
<path class="st1" d="M770,217.3l0.4-17.3c1.7,3.2,3.1,7.7,4.3,13.6c1.4,6.7,2.6,11.3,3.5,13.8c1.4-0.1,2.3-0.2,2.9-0.3
	c7-0.6,11.2-1.1,12.6-1.3c2.9-10.7,4.8-18.3,5.8-22.9c1.3,10.5,2.5,18.4,3.4,23.6h15.2c2.1,0,3.7-0.3,5-0.9
	c-0.2-5.6-0.5-10.3-0.8-13.9l-1.6-21.6c-1.5-19.5-2.6-30.3-3.3-32.3c-1.5,0-4.3,0.1-8.6,0.2l-17,0.6c-0.6,2.2-1.5,7.6-2.8,16.3
	c-0.9,6.7-2.4,11.9-4.3,15.8h-0.2c-3.8-11.8-6.9-22.2-9.3-31c-3.7,0.5-6.7,0.8-9.2,1.1c-3.4,0.4-6.4,1-8.9,2
	c-1.9,4.2-3,10.5-3.4,18.8l-1.1,24.7c-0.4,9.5-1.2,16.7-2.4,21.6c0.2,0.1,2,0.1,5.2,0c4.7-0.1,7.1-0.2,7.2-0.2
	c0.5,0,1.3,0.1,2.4,0.3c1.1,0.2,1.9,0.3,2.4,0.3c1.7,0,2.6-0.5,2.6-1.6C769.8,224.3,769.9,221.1,770,217.3z"/>
<path class="st1" d="M168.7,163.8c-5.2,3.7-9.5,8.2-13,13.6c-3.9,6-5.8,11.9-5.8,17.7c0,10.6,3.3,18.9,10,25
	c6.4,5.8,15,8.7,25.8,8.7c9.1,0,16.8-3.3,23.1-10c6.2-6.5,9.3-14.4,9.3-23.6c0-11.6-2.5-20.5-7.5-26.8c-5.5-7-13.9-10.5-25.2-10.5
	C179.9,157.8,174.3,159.8,168.7,163.8z M195,179.9c1.9,2.4,2.9,5.4,2.9,9.2c0,4.4-1.2,8.1-3.5,11.4c-2.6,3.5-6,5.3-10.2,5.3
	c-3.9,0-7-1.1-9.4-3.2s-3.6-5.1-3.6-8.9c0-4,1.5-7.9,4.5-11.6c3.2-3.9,6.8-5.9,10.7-5.9C190,176.1,192.9,177.4,195,179.9z"/>
<path class="st1" d="M88,201.3c0.9,18.3,8.5,27.5,23.1,27.5c9.1,0,16.4-4.7,21.7-14.1c4.4-7.9,6.7-16.8,6.7-26.6
	c0-12-1.2-21.7-3.6-29c-3.6-0.8-6.1-1.1-7.4-1.1c-4,0-6.9,0.5-8.7,1.3c1.1,8.9,1.7,14.9,1.7,17.8c0,7.7-0.5,14.2-1.4,19.5
	c-1.7,9.4-4.7,14.1-9.1,14.1c-5.2,0-7.7-3.9-7.7-11.8v-1.1C98,198,92.9,199.2,88,201.3z"/>
<path class="st1" d="M643.1,157.8c-5.5,0-11.1,2-16.7,6c-5.2,3.7-9.5,8.2-13,13.6c-3.9,6-5.8,11.9-5.8,17.7c0,10.6,3.3,18.9,10,25
	c6.4,5.8,15,8.7,25.8,8.7c9.1,0,16.8-3.3,23.1-10c6.2-6.5,9.3-14.4,9.3-23.6c0-11.6-2.5-20.5-7.5-26.8
	C662.8,161.3,654.4,157.8,643.1,157.8z M652,200.4c-2.6,3.5-6,5.3-10.2,5.3c-3.9,0-7-1.1-9.4-3.2s-3.6-5.1-3.6-8.9
	c0-4,1.5-7.9,4.5-11.6c3.2-3.9,6.8-5.9,10.7-5.9c3.7,0,6.6,1.3,8.7,3.8c1.9,2.4,2.9,5.4,2.9,9.2C655.6,193.4,654.4,197.2,652,200.4z
	"/>
<path class="st1" d="M1068.7,159.6l0.1-0.1l-3.8-3.8c-9.8,0.9-17.8,1.4-24.1,1.6c-0.7,5.8-1.6,11.7-2.7,17.7
	c-0.2,0.7-0.4,1.5-0.6,2.5c0,0.1,0,0.3-0.1,0.5c-1.3-5.5-2.8-10.5-4.5-14.9l-3.2-3.1l-0.2-0.6c-2.7-0.6-6.7-1.1-11.9-1.6
	c-3.5-0.3-5.8-0.4-6.6-0.4c-1,0-1.9,0.4-2.8,1.3l-2.7,17c0,0.4-0.2,1.2-0.4,2.4l-0.4,2.3l-0.3-1.1c-1.9-7.6-3.9-14.2-5.9-19.7
	l-3.2-3.2c0-0.1-0.1-0.3-0.2-0.6c-3.6,0.5-8.3,1.4-14,2.6l-5.9,1.3l-1.8,0.6l11.3,53c0.4,2.1,1.1,4.6,2.1,7.6c0.9,2,2,3.4,3.4,4.3
	l2.4,2.4c1.1,1.1,2.4,1.6,3.9,1.6c0.5,0,3.8,0.1,10,0.4c5.2,0.2,8.4,0.4,9.6,0.4h2.1c1.5-3.8,2.7-8.1,3.6-13l2.3,9.5
	c0.3,1.3,0.6,2.6,1,4l0.3-0.1l3.4,3.4l33-2.4l10.4-68.2l-3.4-3.3v-0.3H1068.7z M1056.5,225.9l-29.9,2.1c-0.1-0.4-1.2-5.3-3.4-14.7
	c-1.4-5.8-2.7-10.7-4-14.6c-0.6,2-1.5,6.3-2.6,12.9c-0.9,5.3-2,9.5-3.3,12.7c-0.5,0-4-0.1-10.3-0.4l-10.1-0.4
	c-1.8-0.1-3.1-1.3-4.2-3.7c-0.6-1.4-1.3-3.8-2-7.2c-2.9-14-6.5-30.9-10.9-50.9c7.9-1.8,13.8-3,17.9-3.6c1.4,4,3,9.6,5,16.8
	c2.1,7.9,3.8,13.5,4.9,16.9c1.6-3.7,2.9-9.1,4-16l2.6-16.4c0.2-0.1,2.6,0,7.2,0.4c4.9,0.4,8.4,0.8,10.5,1.3
	c1.4,3.5,2.9,8.5,4.5,15.2l1.8,7.7c0.5,2,1.2,4.5,2.3,7.6l3.6-16c1.2-5.4,2.1-10.9,2.6-16.3c6.1-0.2,13.2-0.7,21.3-1.4l2.3,2.3
	L1056.5,225.9z"/>
<path class="st1" d="M1123.1,159.5l-3.1-3.1c-0.1-0.1-0.2-0.4-0.3-0.6c-2.7,0-5.6,0.4-8.7,1.1c-2.1,0.5-3.5,0.8-4.3,0.9l-3.2,0.6
	h-0.3c-0.1,0-0.2,0.1-0.3,0.1c-1.1,3.4-1.6,6.3-1.6,8.9l0.1,11.9c0,0.3-0.1,1.8-0.3,4.5c-0.5,0.2-1,0.3-1.3,0.4v-15.7
	c0-2.8-0.1-5.6-0.3-8.5l-3.6-3.6l-8.4-0.4c-0.4,0-1,0-1.8,0l-5,0.1c-0.5,0-1.4,0-2.6,0.1c-3.7,14.7-5.6,37.7-5.6,69.1
	c0,2.7,0.8,4.5,2.4,5.3l2.7,2.7c0.8,0.8,1.8,1.1,3.3,1.1c2.9,0,8.4-0.3,16.4-0.9l1.8-2.1c-0.2-3.3-0.4-7.2-0.4-11.6v-3
	c0-0.4,0-0.7,0-0.9v-6.2l2.8-0.3l0.1,11.8v1.3c0,1.4,0,2.2,0,2.4c0,1.9,0.9,3.7,2.7,5.2h0.2l2.8,2.8c0.1,0.1,0.2,0.2,0.4,0.4
	l0.2,0.2l18.1-0.9c0.8-4.8,1.1-8.7,1.1-11.5c0-8.7-0.2-19.2-0.7-31.5C1125.6,172.6,1124.5,162.5,1123.1,159.5z M1120.6,227.2
	l-16,0.8c-0.9-0.7-1.3-1.7-1.3-3.1c0-0.4,0.1-1.1,0.2-2.1c0.1-0.9,0.2-1.6,0.1-2.1l-0.2-17.5l-10.4,1.2v7.8c0,0.3,0,0.6,0,1v3
	c0,4.5,0.1,8.5,0.4,11.8c-8,0.6-13.5,0.9-16.3,0.9c-1.8,0-2.7-1.2-2.7-3.6c0-31.1,1.7-53.4,5.2-67c4.4-0.2,7.5-0.3,9.4-0.2l5,0.1
	c0.2,3.3,0.3,12.9,0.3,28.7c3.8-0.3,6.7-0.8,8.8-1.6c0.3-2.7,0.4-4.8,0.4-6v-2.6c0-0.2,0-1.4,0-3.4l-0.2-6c0-2.2,0.3-4.5,1.1-6.9
	c3.3-0.8,6.9-1.5,10.8-2.2c0.8-0.1,1.8-0.2,3-0.2c0.9,1.8,1.8,11.3,2.4,28.3c0.5,12.2,0.7,22.7,0.7,31.4
	C1121.5,220.4,1121.2,223.7,1120.6,227.2z"/>
<path class="st1" d="M1143.8,233.7l31.9-0.7v-16.7c0-0.6-0.2-1.1-0.7-1.6l-2.8-2.8c-0.7-1.8-4-2.9-10-3.3c-1.9-0.1-4.1-0.3-6.4-0.4
	V207c0.9-0.2,4-0.9,9.4-2.3c1.4-0.3,2.5-0.7,3.3-1c1.3-3.3,1.9-8.3,1.9-14.9l-3.3-3.3V185l-7.9-1.1c0-0.7,0-1.7,0.1-3h2.7
	c5,0,10.5-0.5,16.5-1.6l1.2-18.4l-3.4-3.3l0.1-0.4c-6-1-12.6-1.5-19.9-1.5H1137c-0.5,2.8-0.9,5-1.1,6.6l-0.2,1.3
	c-2.1,13.3-3.3,23.9-3.5,32l-1.1,33.8h0.5l3.3,3.3C1140.1,233.5,1143.2,233.7,1143.8,233.7z M1134.2,195.8
	c0.3-10.6,1.5-21.1,3.6-31.7c0.4-2.3,0.8-4.4,1.1-6.2h17.7c7.4,0,13.3,0.4,17.6,1.1l-1,15.1c-5,0.9-9.9,1.3-14.7,1.3
	c-1.6,0-3.1,0-4.5,0c-0.1,2.2-0.2,5.4-0.4,9.8l11.4,1.8c0,5.2-0.5,9.1-1.5,11.7c-1,0.4-3.2,1-6.5,1.7l-3.8,0.8
	c-1.3,0.3-2.2,0.5-2.8,0.7v7.8c2.6,0.2,6.4,0.5,11.6,0.9c5.5,0.5,8.3,1.2,8.3,2.1v14.8l-30,0.6c-0.6,0-2.9-0.2-7.1-0.6L1134.2,195.8
	z"/>
<path class="st1" d="M1216.5,180.1c0-2-0.6-3.5-1.9-4.6s-2.9-1.6-5-1.6c-1.2,0-2.1,0.2-2.7,0.6c-0.3,2.3-0.7,7.1-1.2,14.5
	c2.5,0,4.8-0.9,7.1-2.6C1215.3,184.6,1216.5,182.5,1216.5,180.1z M1211.7,184.5c0.1-1.1,0.3-2.9,0.5-5.2c0.2,0,0.5-0.1,0.9-0.1
	s0.8,0,1.1,0.1c0,0.1,0,0.2,0.1,0.3v0.4C1214.4,181.6,1213.5,183.1,1211.7,184.5z"/>
<path class="st1" d="M1204.6,234.3c3-0.5,4.5-4.4,4.5-11.9v-2.3c0,0.1,0,0.2,0.1,0.3c2,3.9,3.8,7.2,5.4,9.9h0.4l3.3,3.3
	c4-0.2,8.1-0.8,12.3-1.8l12.3-2.9c-0.2-4.1-2.8-9-7.9-14.6l-8.5-9.4c5.6-3.4,9.7-7.3,12.1-11.7c2.3-4.3,3.4-9.8,3.4-16.5
	c0-4.1-1.4-7.4-4.1-10.1l-1.7-1.6c-1.6-2.3-3.9-4.2-6.9-5.8c-4.5-2.3-9.9-3.5-16.1-3.5c-10.6,0-19.8,2.4-27.8,7.2
	c-0.1,5.5-0.9,14.7-2.3,27.5c-1.1,9.5-1.6,17.9-1.6,25.3v1.3l0.1,10.5c0.3,0.2,0.7,0.6,1.3,1l2.4,2.5c1.9,2,5.2,3,9.7,3h0.9
	c0.4,0,0.9,0,1.3-0.1h0.1c0.3,0,0.9,0,1.6-0.1c0.7,0,1.2-0.1,1.6-0.1h1.4C1202.8,233.9,1203.8,234,1204.6,234.3z M1198.2,228.4h-1.4
	c-0.6,0-1.5,0-2.8,0.1c-1.2,0.1-2.2,0.1-2.8,0.1c-3.7,0-6.3-0.6-7.7-1.9v-9.6c0-7.6,0.5-16.4,1.6-26.5c1.5-12.8,2.2-21.7,2.3-26.5
	c7.1-4.2,15.6-6.3,25.7-6.3c5.8,0,10.9,1.1,15.2,3.3c5.4,2.7,8.2,6.7,8.2,12c0,6.9-1.2,12.4-3.7,16.5s-6.8,7.9-12.8,11.2l10.1,11.3
	c4.7,5.3,7.2,9.3,7.3,11.9l-10.7,2.6c-4,0.9-7.6,1.5-10.8,1.6l-2.2-4c-1.2-2.2-3.5-6.5-6.9-12.8c-0.7-1.2-1.6-2.7-2.8-4.4
	c0,2.1-0.1,6.1-0.3,11.9c-0.2,6.4-1,9.8-2.3,9.9C1200.5,228.5,1199.5,228.4,1198.2,228.4z"/>
<path class="st1" d="M1291.2,157.3c-6-1-12.6-1.5-19.9-1.5h-19.5c-0.5,2.8-0.9,5-1.1,6.6l-0.2,1.3c-2.1,13.3-3.3,23.9-3.5,32
	l-1.1,33.8h0.5l3.3,3.3c5.4,0.6,8.5,0.9,9.1,0.9l31.9-0.7v-16.7c0-0.6-0.2-1.1-0.7-1.6l-2.8-2.8c-0.7-1.8-4-2.9-10-3.3
	c-1.9-0.1-4.1-0.3-6.4-0.4V207c0.9-0.2,4-0.9,9.4-2.3c1.4-0.3,2.5-0.7,3.3-1c1.3-3.3,1.9-8.3,1.9-14.9l-3.3-3.3V185l-7.9-1.1
	c0-0.7,0-1.7,0.1-3h2.7c5,0,10.5-0.5,16.5-1.6l1.2-18.4l-3.4-3.3L1291.2,157.3z M1287.9,174.2c-5,0.9-9.9,1.3-14.7,1.3
	c-1.6,0-3.1,0-4.5,0c-0.1,2.2-0.2,5.4-0.4,9.8l11.4,1.8c0,5.2-0.5,9.1-1.5,11.7c-1,0.4-3.2,1-6.5,1.7l-3.8,0.8
	c-1.3,0.3-2.2,0.5-2.8,0.7v7.8c2.6,0.2,6.4,0.5,11.6,0.9c5.5,0.5,8.3,1.2,8.3,2.1v14.8l-30,0.6c-0.6,0-2.9-0.2-7.1-0.6l1.1-31.8
	c0.3-10.6,1.5-21.1,3.5-31.7c0.4-2.3,0.8-4.4,1.1-6.2h17.7c7.4,0,13.3,0.4,17.6,1.1L1287.9,174.2z"/>
<path class="st1" d="M1335.6,160.2c-1.3,9.7-2.2,45.8-2.2,55.5v9.6l0.4,9.2h0.4l3.3,3.3c8.4,0,16.5-1.3,24.4-3.8
	c0.6-6.9,0.9-14.3,0.9-22.3c0-1.9,0-3.3-0.1-4.3l-0.3-6c-0.2-4-0.1-33.7-0.1-36.3l0.4-2.7l-3.4-3.3v-0.2l-18.5,0.3
	C1338.2,159.5,1336.4,159.8,1335.6,160.2z M1357.4,203.9c0,1,0.1,2.4,0.1,4.3c0,8.1-0.2,15.1-0.7,20.9c-6.8,2.2-13.8,3.3-20.9,3.3
	l-0.3-7.1v-9.5c0-9.6,0.8-45.3,2-54.2c1-0.5,7.5-0.8,19.5-0.8l-0.1,0.5c0,2.9-0.1,32.7,0.1,36.7L1357.4,203.9z"/>
<path class="st1" d="M1388.2,234c3.4-0.3,8.8-0.8,16.1-1.3c2.3-0.2,4.3-0.4,6-0.6c0,0-0.2-1.9-0.5-5.5l-0.6-6.3
	c-0.4-4.8-0.7-9.4-0.9-13.8l-0.9-21.9h5.7c0.7,0,2.3,0,5-0.1l8-0.1c0.5,0,1.3,0,2.3-0.1c0.5-3.6,0.7-7.7,0.7-12.3
	c0-4.7-0.5-7.9-1.5-9.6l-3.1-3c0-0.3-0.2-0.5-0.4-0.8c-2.8-0.1-7.5-0.4-14.1-1c-6.1-0.5-10.8-0.8-14.1-0.8
	c-11.1,0-19.6,0.5-25.5,1.3c-0.4,2.4-0.7,4.3-0.9,5.8l-1.8,10.9c0,0.1-0.2,1.4-0.6,3.8c0.1,0,0.4,0,0.6,0.1l3.2,3.2l6.1,0.8
	c0.3,0,2,0.3,5.2,0.8l-3.2,47.7h0.1c0.1,0,0.2-0.1,0.2-0.1l3.4,3.4L1388.2,234z M1384.8,178.8c-3.4-0.5-8.4-1.2-15.1-2.1
	c0.7-4.1,1.6-9.7,2.7-16.7c5.3-0.8,13.2-1.1,23.6-1.1c2.5,0,7,0.3,13.6,0.8l9.7,0.8c1.5,0.1,2.8,0.2,3.8,0.2
	c0.4,0.7,0.6,3.3,0.6,7.7c0,4.8-0.2,8.3-0.5,10.4c-2.9,0.2-10,0.3-21.2,0.2l1,23.9c0.3,8.3,0.9,16.3,1.8,23.9
	c-2.6,0.4-6.5,0.7-11.7,1.1c-3.1,0.2-7,0.5-11.6,0.9L1384.8,178.8z"/>
<path class="st1" d="M1.3,274L1.3,274C1.3,273.9,1.3,273.9,1.3,274z"/>
<path class="st1" d="M20.4,295.2H18c-0.6,3.5-0.9,9-0.9,16.6v2.7c0,0.3,0,0.7,0,1.1v9.4h3.6c2.4,0,5.2-1.9,8.3-5.8
	c3.2-3.9,4.8-7,4.8-9.4c0-3.2-1.4-6.4-4.3-9.7C26.6,296.8,23.6,295.2,20.4,295.2z M27.2,317.8c-1.8,2.1-3.3,3.6-4.7,4.5v-3.1
	c0-0.5,0-0.9,0-1.2v-2.6c0-6.2,0.2-11.1,0.6-14.7H24c1.4,0,2.7,0.5,4.1,1.3c2.4,2.8,3.5,5.4,3.5,7.7
	C31.6,311.6,30.1,314.3,27.2,317.8z"/>
<path class="st1" d="M43.1,287.7c-0.7-0.8-2-2.1-4-4.1C32,277,22,273.7,9.2,273.7c-0.7,0-1.7,0.1-3.1,0.2C5.2,274,4.6,274,4.5,274
	c-0.2,0-0.5,0-0.8-0.1H1.3c0,0.2,0,1.2,0.1,2.9l0.2,10c0,5.4-0.2,13.6-0.6,24.6c-0.4,10.9-0.6,19.1-0.6,24.6c0,0.4,0,1.1,0.1,1.9
	c0,0.8,0.1,1.5,0.1,1.9v0.9c0,0.2,0,0.6,0.1,1v1.1l0.1,2c0,1.3,0.1,1.8,0.1,1.6v0.9c0,0,0.1,0,0.3,0.1h0.3l3.2,3.3
	c6.9,1.1,11.4,1.7,13.6,1.7c9.9,0,18.4-3.5,25.5-10.6s10.6-15.6,10.6-25.5c0-11.5-3.4-20.5-10.1-27.3L43.1,287.7z M38.7,336.7
	c-6.7,6.7-14.8,10.1-24.1,10.1c-2,0-5.9-0.5-11.6-1.4c0-0.5-0.1-2-0.2-4.7c-0.1-1.8-0.1-3.3-0.1-4.6c0-5.4,0.2-13.6,0.6-24.6
	c0.4-10.9,0.6-19.1,0.6-24.6c0-3.8-0.1-7.4-0.2-10.8c0.7,0.1,1.7,0.1,2.8-0.1c1.5-0.1,2.4-0.2,2.8-0.2c11.9,0,21.4,3.1,28.5,9.3
	c7.4,6.5,11.1,15.6,11.1,27.4C48.8,321.9,45.4,329.9,38.7,336.7z"/>
<path class="st1" d="M89.8,293.5c-1.3-1.1-2.9-1.6-5-1.6c-1.2,0-2.1,0.2-2.7,0.6c-0.3,2.3-0.7,7.1-1.2,14.5c2.5,0,4.8-0.9,7.1-2.6
	c2.5-1.8,3.7-3.9,3.7-6.3C91.7,296.1,91,294.5,89.8,293.5z M89.6,298.1c0,1.6-0.9,3.1-2.6,4.5c0.1-1.1,0.3-2.9,0.5-5.2
	c0.2,0,0.5-0.1,0.9-0.1s0.8,0,1.1,0.1c0,0.1,0,0.2,0.1,0.3V298.1z"/>
<path class="st1" d="M101.6,322.9c5.6-3.4,9.7-7.3,12.1-11.7c2.3-4.3,3.4-9.8,3.4-16.5c0-4.1-1.4-7.4-4.1-10.1l-1.7-1.6
	c-1.6-2.3-3.9-4.2-6.9-5.8c-4.5-2.3-9.9-3.5-16.1-3.5c-10.6,0-19.8,2.4-27.8,7.2c-0.1,5.5-0.9,14.7-2.3,27.5
	c-1.1,9.5-1.6,17.9-1.6,25.3v1.3l0.1,10.5c0.3,0.2,0.7,0.6,1.3,1l2.4,2.5c1.9,2,5.2,3,9.7,3H71c0.4,0,0.9,0,1.3-0.1h0.1
	c0.3,0,0.9,0,1.6-0.1c0.7,0,1.2-0.1,1.6-0.1H77c1.1,0,2,0.1,2.8,0.4c3-0.5,4.5-4.4,4.5-11.9v-2.3c0,0.1,0,0.2,0.1,0.3
	c2,3.9,3.8,7.2,5.4,9.9h0.4l3.3,3.3c4-0.2,8.1-0.8,12.3-1.8L118,347c-0.2-4.1-2.8-9-7.9-14.6L101.6,322.9z M101.8,344.5
	c-4,0.9-7.6,1.5-10.8,1.6l-2.2-4c-1.2-2.2-3.5-6.5-6.9-12.8c-0.7-1.2-1.6-2.7-2.8-4.4c0,2.1-0.1,6.1-0.3,11.9
	c-0.2,6.4-1,9.8-2.3,9.9c-0.7-0.2-1.7-0.4-3.1-0.4H72c-0.6,0-1.5,0-2.8,0.1c-1.2,0.1-2.2,0.1-2.8,0.1c-3.7,0-6.3-0.6-7.7-1.9V335
	c0-7.6,0.5-16.4,1.6-26.5c1.5-12.8,2.2-21.7,2.3-26.5c7.1-4.2,15.6-6.3,25.7-6.3c5.8,0,10.9,1.1,15.2,3.3c5.4,2.7,8.2,6.7,8.2,12
	c0,6.9-1.2,12.4-3.7,16.5s-6.8,7.9-12.8,11.2l10.1,11.3c4.7,5.3,7.2,9.3,7.3,11.9L101.8,344.5z"/>
<path class="st1" d="M166.4,275.3c-6-1-12.6-1.5-19.9-1.5H127c-0.5,2.8-0.9,5-1.1,6.6l-0.2,1.3c-2.1,13.3-3.3,23.9-3.5,32l-1.1,33.8
	h0.5l3.3,3.3c5.4,0.6,8.5,0.9,9.1,0.9l31.9-0.7v-16.7c0-0.6-0.2-1.1-0.7-1.6l-2.8-2.8c-0.7-1.8-4-2.9-10-3.3
	c-1.9-0.1-4.1-0.3-6.4-0.4V325c0.9-0.2,4-0.9,9.4-2.3c1.4-0.3,2.5-0.7,3.3-1c1.3-3.3,1.9-8.3,1.9-14.9l-3.3-3.3V303l-7.9-1.1
	c0-0.7,0-1.7,0.1-3h2.7c5,0,10.5-0.5,16.5-1.6l1.2-18.4l-3.4-3.3L166.4,275.3z M163.1,292.2c-5,0.9-9.9,1.3-14.7,1.3
	c-1.6,0-3.1,0-4.5,0c-0.1,2.2-0.2,5.4-0.4,9.8l11.4,1.8c0,5.2-0.5,9.1-1.5,11.7c-1,0.4-3.2,1-6.5,1.7l-3.8,0.8
	c-1.3,0.3-2.2,0.5-2.8,0.7v7.8c2.6,0.2,6.4,0.5,11.6,0.9c5.5,0.5,8.3,1.2,8.3,2.1v14.8l-30,0.6c-0.6,0-2.9-0.2-7.1-0.6l1.1-31.8
	c0.3-10.6,1.5-21.1,3.6-31.7c0.4-2.3,0.8-4.4,1.1-6.2h17.7c7.4,0,13.3,0.4,17.6,1.1L163.1,292.2z"/>
<path class="st1" d="M196.7,305c-0.6,3.5-0.9,6.2-1,8l5.9,0.1c1.2,0,2.3-0.1,3.3-0.3c-0.7-3.2-3-8.4-7.1-15.7
	C197.6,298.9,197.2,301.5,196.7,305z"/>
<path class="st1" d="M214.7,277.4l-3.1-3.1c-0.2-0.3-0.3-0.5-0.4-0.7l-11.8,0.6c-3.9,0.2-6.9,0.3-9,0.3H189l-5.6-0.1
	c-3.1,9.8-5.6,21.1-7.5,34.2l-4.9,34.2c0.2,0,0.5,0.2,0.8,0.4l3,3.1c4.1,2.2,8.8,3.6,13.9,4.4l2.8,0.4c1,0.1,2.5,0.4,4.5,0.7
	c1.2-2.5,2.2-6.5,2.9-12c0.6-4.5,1.1-7,1.5-7.5c0.1-0.2,1.5-0.5,4-0.9c0.4,0,1.3-0.1,2.6-0.3c1,1.9,2.1,3.9,3.3,6l7.2,12.6l0.2-0.1
	l3.4,3.4l20.2-10.8c0.1-0.7,0.2-1.5,0.4-2.2C234.3,319.4,225.3,298.6,214.7,277.4z M218.3,346.8l-6.1-10.7c-2.2-3.8-4-7.5-5.5-10.9
	c-0.2,0-2.2,0.3-6,0.8c-3,0.4-4.8,0.9-5.3,1.5c-0.7,0.7-1.3,3.5-2,8.4c-0.7,5.5-1.4,8.9-2.1,10.2l-7-1.1c-4.6-0.8-8.3-1.9-11-3.3
	L178,309c1.8-13,4.1-23.7,6.9-32.3l4,0.1c1.1,0,2.6,0,4.5-0.1l6-0.2l10.4-0.5c10.7,21.3,19.5,41.7,26.6,61.2L218.3,346.8z"/>
<path class="st1" d="M318.9,311.6c-1.5-19.7-2.8-31.1-3.8-34.1l-3.3-3.2c0-0.1,0-0.3-0.1-0.6c-0.8,0-2,0-3.7,0.1l-15.1,0.4
	c-0.5,0-3.8,0.1-10.1,0.4c-0.7,2.6-1.8,8.6-3.3,18c-0.3,2.2-0.7,4.2-1.1,6c-2.4-8-4.3-14.4-5.5-19.5l-3.3-3.3v-0.3
	c0-0.1-0.1-0.2-0.1-0.2c-1.4,0.1-3.5,0.4-6.2,0.7l-2.7,0.4c-0.4,0-1.1,0.1-2.1,0.2c-3.5,0.4-6.9,1.2-10.4,2.4
	c-2.2,4.7-3.5,11.5-3.9,20.4l-0.7,14.4c-0.1,1.8-0.2,5.2-0.4,10.3c-0.2,5.9-0.7,11.1-1.3,15.5c0.2,0.6,0.4,1.1,0.6,1.7l-1,0.5
	c-0.3,1.6-0.6,3.1-0.9,4.5c0.6,0.5,1.1,0.9,1.4,1.1l2.3,2.3c0.9,0.9,2.2,1.4,3.6,1.4h1.6c0.2,0,0.9,0,2.2-0.1
	c3.8-0.1,6.2-0.2,7.2-0.2c0.5,0,1.3,0.1,2.4,0.3c1.1,0.2,1.9,0.3,2.4,0.3c3,0,4.5-1.2,4.5-3.5v-4.8c0.5,1.6,1,3.1,1.6,4.4
	c0.1,0,0.2-0.1,0.4-0.1l3.3,3.3c1.7-0.3,4-0.6,7-0.8c3.6-0.2,5.9-0.4,7-0.6c1.3-0.2,2.7-0.4,4.2-0.7l1.7-6.2
	c0.2,1.4,0.4,2.7,0.6,3.9h0.4l3.3,3.3h16.8c2.3,0,4.6-0.5,7-1.6c-0.4-8.6-1.1-18.7-2-30.4L318.9,311.6z M310.9,344.6h-15.2
	c-0.9-5.3-2.1-13.1-3.4-23.6c-1,4.5-2.9,12.2-5.8,22.9c-1.4,0.3-5.6,0.7-12.6,1.3c-0.6,0-1.5,0.1-2.9,0.3c-1-2.5-2.2-7.1-3.5-13.8
	c-1.2-5.9-2.6-10.5-4.3-13.6l-0.4,17.3c-0.1,3.8-0.1,7-0.1,9.4c0,1-0.9,1.6-2.6,1.6c-0.5,0-1.3-0.1-2.4-0.3
	c-1.1-0.2-1.9-0.3-2.4-0.3c-0.1,0-2.5,0.1-7.2,0.2c-3.2,0.1-4.9,0.1-5.2,0c1.2-4.9,2-12.1,2.4-21.6l1.1-24.7
	c0.4-8.3,1.5-14.6,3.4-18.8c2.6-0.9,5.5-1.6,8.9-2c2.4-0.2,5.5-0.6,9.2-1.1c2.4,8.8,5.5,19.1,9.3,31h0.2c1.9-3.8,3.3-9.1,4.3-15.8
	c1.2-8.7,2.2-14.1,2.8-16.3l17-0.6c4.3-0.1,7.1-0.2,8.6-0.2c0.8,2,1.9,12.8,3.3,32.3l1.6,21.6c0.3,3.6,0.5,8.3,0.8,13.9
	C314.6,344.3,312.9,344.6,310.9,344.6z"/>
<path class="st1" d="M241.8,339.8c-0.1,0.8-0.2,1.5-0.4,2.2l1-0.5C242.2,340.9,242,340.4,241.8,339.8z"/>
<path class="st1" d="M373.9,283.4L373.9,283.4L373.9,283.4L373.9,283.4L373.9,283.4z"/>
<path class="st1" d="M374.1,283.6c0,0-0.1-0.1-0.2-0.2l0.1,0.1L374.1,283.6z"/>
<path class="st1" d="M381.4,299.3c-0.1-2.7-0.7-5.5-2-8.3s-2.8-5.1-4.7-6.9l-0.8-0.7h-0.1l-0.1-0.1l0,0l-0.2-0.2
	c-4.5-6.3-10.6-9.4-18.3-9.4c-8,0-14.5,2.1-19.4,6.2c-4.9,4.2-7.9,10.2-8.9,18.2c0.7,5.9,3.2,10.8,7.7,14.7c0.1,0.1,0.3,0.3,0.7,0.6
	l1.8,1.7c0,0.1,0.2,0.3,0.4,0.4l0.3,0.3c0.5,0.5,2.5,2,5.8,4.4h-9.4h-1.5c-1.6,0-2.3-0.1-2.1-0.1H327l-2.1,1.6
	c-0.5,1.8-0.8,4.5-0.8,8.2c0,7.1,2.1,12.2,6.4,15.1l1.8,1.8c3.6,3.6,10.1,5.3,19.5,5.3c6.9,0,12.6-2.2,17.2-6.5l-0.1-0.1
	c4.6-4.3,7-9.8,7-16.6c0-7-2.1-12.7-6.3-17l-0.3-0.2h0.1l-1.4-1.4c-0.1-0.1-0.7-0.8-1.8-2.1c-1.5-1.4-3.2-2.7-5.1-4
	c2.7-0.4,7.2-1.4,13.6-3.1L381.4,299.3z M359,298.6l-1.7-4.3c-0.8-1.6-2-2.3-3.6-2.3c-1.3,0-2.4,0.5-3.5,1.3c-1.1,0.9-1.6,2-1.6,3.3
	c0,1.9,1.9,3.9,5.8,6c5.2,2.8,8.8,5.3,10.7,7.2c3.8,4,5.8,9.2,5.8,15.7c0,6.4-2.1,11.5-6.2,15.4c-4.2,3.9-9.5,5.8-15.9,5.8
	c-7.1,0-12.3-1-15.7-2.9c-4.3-2.5-6.4-7.1-6.4-13.8c0-3.4,0.2-6,0.7-7.7c1.8,0,4,0.1,6.5,0.1h8.8c0.3,1.7,0.5,2.8,0.6,3.3
	c0.4,1.4,1.1,2.7,2.1,4c0.2,0,0.4,0.1,0.6,0.1h0.7c3.2,0,4.8-1.6,4.8-4.9c0-1.9-1.8-4-5.4-6.5c-1.8-1.2-3.6-2.4-5.3-3.6
	c-2-1.4-3.7-2.7-5-4c-3.8-3.6-6-7.8-6.6-12.6c1-7.3,3.8-12.8,8.3-16.6c4.5-3.8,10.5-5.7,17.9-5.7c5.4,0,10.1,1.8,14,5.4
	c4,3.6,5.9,8.1,5.9,13.5c0,0,0.1,0,0.1,0.1l-0.1,0.1v-0.2C372.8,295.6,367.3,296.8,359,298.6z M360.9,304c-1.6-1-3.5-2.1-5.5-3.3
	c-0.5-0.2-0.9-0.4-1.3-0.6c0.1-1.2,0.8-2,2.2-2.3l1.3,3.4c0.1,0,0.3,0,0.4-0.1L360.9,304z M344.6,320.9c1.3,1,2.7,1.9,4,2.7
	c0.1,0.1,0.3,0.2,0.5,0.4c0.2,0.4,0.3,0.7,0.3,0.9c0,1.2-0.4,2-1.1,2.4c0-0.2-0.1-0.7-0.2-1.4l-0.3-1.8L344.6,320.9z"/>
<path class="st1" d="M1111.1,285.1c-7.1-6.2-16.5-9.3-28.5-9.3c-0.4,0-1.4,0.1-2.8,0.2c-1.2,0.1-2.1,0.2-2.8,0.1
	c0.1,3.4,0.2,7,0.2,10.8c0,5.4-0.2,13.6-0.6,24.6c-0.4,10.9-0.6,19.1-0.6,24.6c0,1.3,0,2.8,0.1,4.6c0.1,2.7,0.2,4.2,0.2,4.7
	c5.8,0.9,9.7,1.4,11.6,1.4c9.3,0,17.4-3.4,24.1-10.1s10.1-14.8,10.1-24.1C1122.2,300.8,1118.5,291.6,1111.1,285.1z M1102.4,319.2
	c-3.2,3.9-6,5.8-8.3,5.8h-3.6v-9.4c0-0.5,0-0.9,0-1.1v-2.7c0-7.6,0.3-13.1,0.9-16.6h2.4c3.2,0,6.2,1.6,9.1,4.9
	c2.9,3.2,4.3,6.5,4.3,9.7C1107.2,312.2,1105.6,315.3,1102.4,319.2z"/>
<path class="st1" d="M819.1,278.5l-9.7-0.8c-6.6-0.5-11.1-0.8-13.6-0.8c-10.4,0-18.3,0.4-23.6,1.1c-1.1,7-2,12.6-2.7,16.7
	c6.7,0.9,11.7,1.6,15.1,2.1l-3.4,50c4.7-0.4,8.6-0.7,11.6-0.9c5.2-0.3,9.1-0.7,11.7-1.1c-0.9-7.6-1.4-15.5-1.8-23.9l-1-23.9
	c11.3,0,18.3,0,21.2-0.2c0.3-2.2,0.5-5.7,0.5-10.4c0-4.4-0.2-7-0.6-7.7C821.8,278.6,820.6,278.6,819.1,278.5z"/>
<path class="st1" d="M1158.2,276.3l-6,0.2c-1.9,0-3.4,0.1-4.5,0.1l-4-0.1c-2.7,8.6-5,19.3-6.9,32.3l-4.7,32.7
	c2.7,1.5,6.4,2.6,11,3.3l7,1.1c0.7-1.2,1.3-4.6,2.1-10.2c0.7-4.9,1.3-7.7,2-8.4c0.5-0.6,2.2-1.1,5.3-1.5c3.8-0.5,5.8-0.7,6-0.8
	c1.5,3.5,3.4,7.1,5.5,10.9l6.1,10.7l18.2-9.7c-7-19.5-15.9-39.9-26.6-61.2L1158.2,276.3z M1160.2,313l-5.9-0.1c0.1-1.8,0.4-4.4,1-8
	c0.6-3.5,0.9-6.2,1-8c4.1,7.3,6.4,12.5,7.1,15.7C1162.5,313,1161.4,313,1160.2,313z"/>
<path class="st1" d="M1272.1,308.2c-1.5-19.5-2.6-30.3-3.3-32.3c-1.5,0-4.3,0.1-8.6,0.2l-17,0.6c-0.6,2.2-1.5,7.6-2.8,16.3
	c-0.9,6.7-2.4,11.9-4.3,15.8h-0.2c-3.8-11.8-6.9-22.2-9.3-31c-3.7,0.5-6.7,0.8-9.2,1.1c-3.4,0.4-6.4,1-8.9,2
	c-1.9,4.2-3,10.5-3.4,18.8l-1.1,24.7c-0.4,9.5-1.2,16.7-2.4,21.6c0.2,0.1,2,0.1,5.2,0c4.7-0.1,7.1-0.2,7.2-0.2
	c0.5,0,1.3,0.1,2.4,0.3c1.1,0.2,1.9,0.3,2.4,0.3c1.7,0,2.6-0.5,2.6-1.6c0-2.5,0-5.6,0.1-9.4l0.4-17.3c1.7,3.2,3.1,7.7,4.3,13.6
	c1.4,6.7,2.6,11.3,3.5,13.8c1.4-0.1,2.3-0.2,2.9-0.3c7-0.6,11.2-1.1,12.6-1.3c2.9-10.7,4.8-18.3,5.8-22.9
	c1.3,10.5,2.5,18.4,3.4,23.6h15.2c2.1,0,3.7-0.3,5-0.9c-0.2-5.6-0.5-10.3-0.8-13.9L1272.1,308.2z"/>
<path class="st1" d="M713.1,285.1c-7.1-6.2-16.5-9.3-28.5-9.3c-0.4,0-1.4,0.1-2.8,0.2c-1.2,0.1-2.1,0.2-2.8,0.1
	c0.1,3.4,0.2,7,0.2,10.8c0,5.4-0.2,13.6-0.6,24.6c-0.4,10.9-0.6,19.1-0.6,24.6c0,1.3,0,2.8,0.1,4.6c0.1,2.7,0.2,4.2,0.2,4.7
	c5.8,0.9,9.7,1.4,11.6,1.4c9.3,0,17.4-3.4,24.1-10.1s10.1-14.8,10.1-24.1C724.2,300.8,720.5,291.6,713.1,285.1z M704.4,319.2
	c-3.2,3.9-6,5.8-8.3,5.8h-3.6v-9.4c0-0.5,0-0.9,0-1.1v-2.7c0-7.6,0.3-13.1,0.9-16.6h2.4c3.2,0,6.2,1.6,9.1,4.9
	c2.9,3.2,4.3,6.5,4.3,9.7C709.2,312.2,707.6,315.3,704.4,319.2z"/>
<path class="st1" d="M963.6,316c-0.2-4-0.3-7.4-0.3-10.3l0.1-0.5c-11.9,0-18.4,0.3-19.5,0.8c-1.2,8.9-1.8,18.2-1.8,27.8v9.5l0.3,7.1
	c7.1,0,14-1.1,20.9-3.3c0.5-5.8,0.7-12.7,0.7-20.9c0-1.8,0-3.3-0.1-4.3L963.6,316z"/>
<path class="st1" d="M895.7,275.9c-0.3,1.9-0.6,4-1.1,6.2c-2,10.6-3.2,21.1-3.6,31.7l-1.1,31.8c4.2,0.4,6.5,0.6,7.1,0.6l30-0.6
	v-14.8c0-0.9-2.8-1.6-8.3-2.1c-5.2-0.4-9-0.7-11.6-0.9V320c0.6-0.2,1.5-0.4,2.8-0.7l3.8-0.8c3.3-0.7,5.4-1.3,6.5-1.7
	c1-2.6,1.5-6.5,1.5-11.7l-11.4-1.8c0.1-4.3,0.3-7.6,0.4-9.8c1.4,0,2.9,0,4.5,0c4.8,0,9.7-0.4,14.7-1.3l1-15.1
	c-4.3-0.8-10.2-1.1-17.6-1.1h-17.6V275.9z"/>
<path class="st1" d="M875.2,275.9c-1.2,0-2.2,0.1-3,0.2c-3.9,0.7-7.5,1.4-10.8,2.2c-0.8,2.4-1.1,4.7-1.1,6.9l0.2,6c0,2,0,3.2,0,3.4
	v2.6c0,1.3-0.1,3.3-0.4,6c-2.1,0.8-5,1.3-8.8,1.6c0-15.8-0.1-25.4-0.3-28.7l-5-0.1c-1.9,0-5.1,0-9.4,0.2c-3.5,13.5-5.2,35.9-5.2,67
	c0,2.4,0.9,3.6,2.7,3.6c2.8,0,8.2-0.3,16.3-0.9c-0.3-3.3-0.4-7.2-0.4-11.8v-3c0-0.4,0-0.7,0-1v-7.8l10.4-1.2l0.2,17.5
	c0,0.5,0,1.2-0.1,2.1c-0.1,1-0.2,1.8-0.2,2.1c0,1.3,0.4,2.3,1.3,3.1l16-0.8c0.6-3.6,0.9-6.8,0.9-9.7c0-8.7-0.2-19.2-0.7-31.4
	C877,287.2,876.2,277.8,875.2,275.9z"/>
<path class="st1" d="M1012.8,318.8c6.1-3.4,10.3-7.1,12.8-11.2s3.7-9.6,3.7-16.5c0-5.3-2.7-9.3-8.2-12c-4.3-2.2-9.4-3.3-15.2-3.3
	c-10.1,0-18.7,2.1-25.7,6.3c-0.1,4.8-0.9,13.7-2.3,26.5c-1.1,10-1.6,18.9-1.6,26.5v9.6c1.4,1.3,4,1.9,7.7,1.9c0.6,0,1.5,0,2.8-0.1
	c1.2-0.1,2.2-0.1,2.8-0.1h1.4c1.3,0,2.3,0.1,3.1,0.4c1.4-0.2,2.2-3.5,2.3-9.9c0.1-5.9,0.2-9.8,0.3-11.9c1.2,1.7,2.2,3.2,2.8,4.4
	c3.4,6.3,5.7,10.6,6.9,12.8l2.2,4c3.2-0.1,6.8-0.7,10.8-1.6l10.7-2.6c-0.1-2.6-2.6-6.6-7.3-11.9L1012.8,318.8z M1005.7,304.4
	c-2.3,1.7-4.6,2.6-7.1,2.6c0.5-7.3,0.9-12.2,1.2-14.5c0.6-0.4,1.5-0.6,2.7-0.6c2,0,3.7,0.5,5,1.6s1.9,2.6,1.9,4.6
	C1009.4,300.5,1008.1,302.6,1005.7,304.4z"/>
<path class="st1" d="M961.9,279.3c-3-2.2-6.4-3.3-10.3-3.3c-3.5,0-6.3,1.3-8.4,4c-1.9,2.5-2.9,5.5-2.9,9.1c0,3.4,1.5,6,4.4,8
	c2.6,1.7,5.6,2.6,9.1,2.6c3.6,0,6.6-0.9,9-2.8c2.7-2,4-4.8,4-8.3C966.8,284.7,965.2,281.7,961.9,279.3z"/>
<path class="st1" d="M598.6,316c-0.2-4-0.3-7.4-0.3-10.3l0.1-0.5c-11.9,0-18.4,0.3-19.5,0.8c-1.2,8.9-1.8,18.2-1.8,27.8v9.5l0.3,7.1
	c7.1,0,14-1.1,20.9-3.3c0.5-5.8,0.7-12.7,0.7-20.9c0-1.8,0-3.3-0.1-4.3L598.6,316z"/>
<path class="st1" d="M559,275.8c-9.4-0.1-19.5,0.6-30.2,2.2c0.1,9.1-0.1,23.3-0.6,42.7l-0.7,25.5c2.8,0,5.9-0.3,9.4-0.9
	c4.7-0.8,7.5-1.7,8.5-2.8v-9.9c0-0.9,0-1.6-0.1-2.3l-0.3-3.8c-0.1-1.7-0.1-2.8-0.1-3.4c0-1.2,0-2.1,0.1-2.7l8-0.3
	c4.2-0.1,6.2-0.8,6.2-2.1c0-1.9-0.4-6.6-1.2-14.1c-0.3-0.1-2.3-0.3-6-0.6c-3.3-0.3-5.3-0.7-6.1-1.2v-1.6c0-2.9,0.4-5.4,1.1-7.7
	c2.4-0.7,5.7-1.1,10-1.4c5.2-0.4,8.6-0.7,10.1-1v-7.6c0-3.1-0.5-5.4-1.6-7.1L559,275.8L559,275.8z"/>
<path class="st1" d="M1497.1,307.2c3.1-2.9,5.2-5.2,6.4-6.8c2.1-2.9,3.1-5.8,3.1-8.5c0-5.2-2.7-9.2-8.2-11.9
	c-4.4-2.2-9.4-3.3-15.1-3.3h-0.9c-0.4,0-0.8,0-1.1,0h-6c-9.6,0-14.4,0.7-14.4,2.1c0,2.7,0.1,6.7,0.4,12.1s0.4,9.4,0.4,12.1
	c0,21.6,0.8,35,2.4,40.3c0.5,1.7,2,2.8,4.3,3.3c1.1,0.2,3,0.4,5.8,0.4c9.2,0,16.6-1.9,22.2-5.8c6.4-4.5,9.7-11.1,9.7-20
	c0-3.4-0.7-6.3-2.1-8.7C1502.5,309.5,1500.2,307.8,1497.1,307.2z M1478.9,291.7c6.3,0,9.5,1.1,9.5,3.2c0,3.3-2.3,5-7,5
	c-0.4,0-1,0-1.8-0.1s-1.4-0.1-1.8-0.1c-0.4-3.6-0.6-6.2-0.6-8H1478.9z M1485.4,325.9c-2.1,0.9-4.1,1.4-5.8,1.4
	c-1.4,0-2.1-1.1-2.1-3.4c0-2.8,0.1-5.8,0.4-9c2,0.3,3.6,0.5,4.8,0.7c2.2,0.3,3.6,0.9,4.3,1.6c0.4,0.4,0.8,1.2,1.3,2.2
	c0.5,1.1,0.7,1.8,0.7,2.4C1489.2,323.4,1487.9,324.8,1485.4,325.9z"/>
<path class="st1" d="M1418.2,275.8c-5.5,0-11.1,2-16.7,6c-5.2,3.7-9.5,8.2-13,13.6c-3.9,6-5.8,11.9-5.8,17.7c0,10.6,3.3,18.9,10,25
	c6.4,5.8,15,8.7,25.8,8.7c9.1,0,16.8-3.3,23.1-10c6.2-6.5,9.3-14.4,9.3-23.6c0-11.6-2.5-20.5-7.5-26.8
	C1437.8,279.3,1429.4,275.8,1418.2,275.8z M1427.1,318.4c-2.6,3.5-6,5.3-10.2,5.3c-3.9,0-7-1.1-9.4-3.2s-3.6-5.1-3.6-8.9
	c0-4,1.5-7.9,4.5-11.6c3.2-3.9,6.8-5.9,10.7-5.9c3.7,0,6.6,1.3,8.7,3.8c1.9,2.4,2.9,5.4,2.9,9.2
	C1430.7,311.4,1429.5,315.2,1427.1,318.4z"/>
<path class="st1" d="M596.8,279.3c-3-2.2-6.4-3.3-10.3-3.3c-3.5,0-6.3,1.3-8.4,4c-1.9,2.5-2.9,5.5-2.9,9.1c0,3.4,1.5,6,4.4,8
	c2.6,1.7,5.6,2.6,9.1,2.6c3.6,0,6.6-0.9,9-2.8c2.7-2,4-4.8,4-8.3C601.8,284.7,600.2,281.7,596.8,279.3z"/>
<path class="st1" d="M666.6,278.3l-21.2,0.1c0,0.8-0.1,2-0.2,3.5c-0.1,1.5-0.2,2.7-0.2,3.5c0,2.8,0.1,6.3,0.4,10.5
	c0.3,4.9,0.5,8.4,0.5,10.5c0,3.7-0.3,6.5-0.9,8.2c-2.3-5.1-4.6-11.5-7-19.2l-6-19.6l-17.9,1.9l-1.8,32c-0.8,14-1.2,24.6-1.2,32
	c0,2.2,0.5,3.8,1.4,4.9c12.7,0,19.1-0.8,19-2.3c-0.5-14.3-0.4-22.5,0.3-24.5c4.4,12,7.8,20.8,10,26.3c5.7-0.6,13.9-1.1,24.6-1.6
	c0-5.7-0.2-14.3-0.6-25.8c-0.3-10.1-0.5-18.7-0.5-25.8c0-1.1,0.2-4.2,0.6-9.2C666.4,280.8,666.5,279,666.6,278.3z"/>
<path class="st1" d="M1361.2,275.8c-4,0-6.9,0.5-8.7,1.3c1.1,8.9,1.7,14.9,1.7,17.8c0,7.7-0.5,14.2-1.4,19.5
	c-1.7,9.4-4.7,14.1-9.1,14.1c-5.2,0-7.7-3.9-7.7-11.8v-1.1c-5.2,0.3-10.2,1.5-15.2,3.6c0.9,18.3,8.5,27.5,23.1,27.5
	c9.1,0,16.4-4.7,21.7-14.1c4.4-7.9,6.7-16.8,6.7-26.6c0-12-1.2-21.7-3.5-29C1365,276.2,1362.6,275.8,1361.2,275.8z"/>
<g>
	<path class="st2" d="M441.2,313.4"/>
	<path class="st2" d="M434.4,289.7"/>
	<g>
		<g>
			<g>
				<circle class="st1" cx="454.9" cy="314.7" r="45.1"/>
				<path class="st3" d="M456.9,326.1c0,0,0.1,0,0.1,0.1C456.9,326.1,456.9,326.1,456.9,326.1L456.9,326.1z"/>
				<path class="st4" d="M427.1,299c-1-0.3-2-0.8-2.8-1.6c-2.5-2.5-2.5-6.6,0-9.2c1.3-1.3,2.9-1.9,4.6-1.9c1.7,0,3.3,0.6,4.6,1.9
					c1,1,1.6,2.3,1.8,3.7c0,0,0.1-0.1,0.3-0.3c0.6-0.7,1.2-1.4,1.8-2.1c0.7-0.7,1.4-1.4,2.1-2.1c5.7-5.5,14.2-10.9,26.2-12.4
					c0,0-2.7,1.9-5.3,4.7c5.2-0.8,11-0.7,17.4,0.9c0,0-7,1.8-11.1,5.4c-0.3,0.2-0.5,0.5-0.8,0.7c-0.2,0.3-0.5,0.5-0.7,0.8
					c3.2,1,6.3,2.5,9.2,4.4c0.2-1.3,0.8-2.6,1.8-3.7c1.3-1.3,2.9-1.9,4.6-1.9c1.7,0,3.3,0.6,4.6,1.9c2.5,2.5,2.5,6.6,0,9.2
					c-0.8,0.8-1.8,1.3-2.8,1.6c6.7,7.5,11.4,17.8,12.9,29.4c1.4-4.3,2.2-8.9,2.2-13.6c0-23.7-19.2-42.9-42.9-42.9
					s-42.9,19.2-42.9,42.9c0,4.8,0.8,9.3,2.2,13.6c0.1-0.9,0.3-1.8,0.4-2.7C416.5,315.2,420.9,305.9,427.1,299z"/>
				<path class="st3" d="M452.9,326.1c0,0,0.1,0,0.1-0.1v-0.1C453,326.1,452.9,326.1,452.9,326.1z"/>
				<path class="st3" d="M440.5,301.6h-0.1c0.6,0.2,1.1,0.7,1.1,1.4l0,0C441.6,302.3,441.1,301.8,440.5,301.6z"/>
				<path class="st3" d="M438.5,303c0-0.1,0-0.2,0-0.3l0,0C438.5,302.8,438.5,302.9,438.5,303L438.5,303z"/>
				<path class="st5" d="M427.7,342.5c-0.6-1-0.9-1.6-0.9-1.6s0.3,0.6,0.7,1.7c0.4,1.1,1,2.7,1.5,4.6c0.2,0.6,0.4,1.3,0.5,2
					c0.5,0.4,1.1,0.8,1.7,1.2c-0.4-1.3-0.9-2.5-1.3-3.5C429,345.1,428.2,343.6,427.7,342.5z"/>
				<path class="st5" d="M482.5,342.7c0.4-1.1,0.7-1.7,0.7-1.7s-0.4,0.6-0.9,1.6c-0.6,1-1.3,2.5-2.1,4.4c-0.4,1.1-0.9,2.2-1.3,3.5
					c0.6-0.4,1.1-0.8,1.7-1.2c0.2-0.7,0.4-1.4,0.5-2C481.5,345.3,482.1,343.8,482.5,342.7z"/>
				<path class="st3" d="M441.2,308.4c1.9,0,3.4-1.5,3.4-3.4l0,0C444.6,306.8,443.1,308.3,441.2,308.4c-1.9-0.1-3.4-1.6-3.4-3.5l0,0
					C437.8,306.8,439.3,308.4,441.2,308.4z"/>
				<path class="st6" d="M444.4,329.4L444.4,329.4c0.2,0,0.4,0,0.6,0C444.8,329.4,444.6,329.4,444.4,329.4L444.4,329.4z"/>
				<path class="st6" d="M465.5,310.7c0.6,0.4,1.3,0.8,2,1c0.4,0.1,0.8,0.1,1.2,0.1c3.8,0,6.9-3.1,6.9-6.9c0-3.8-3.1-6.9-6.9-6.9
					c-3.8,0-6.9,3.1-6.9,6.9c0,1.7,0.6,3.2,1.6,4.4C464.1,309.7,464.8,310.1,465.5,310.7z M466.1,302.7c0,0.1,0,0.2,0,0.3
					c0,0.8,0.7,1.5,1.5,1.5s1.5-0.7,1.5-1.5c0-0.7-0.5-1.3-1.1-1.5c0.2-0.1,0.5-0.1,0.8-0.1c1.9,0,3.4,1.5,3.4,3.4s-1.5,3.4-3.4,3.4
					s-3.4-1.5-3.4-3.4C465.3,304.1,465.6,303.3,466.1,302.7z"/>
				<path class="st6" d="M441.2,311.8c0.4,0,0.8,0,1.2-0.1c0.7-0.3,1.4-0.6,2-1c0.7-0.5,1.4-1,2.1-1.3c1-1.2,1.6-2.7,1.6-4.4
					c0-3.8-3.1-6.9-6.9-6.9c-3.8,0-6.9,3.1-6.9,6.9C434.3,308.7,437.4,311.8,441.2,311.8z M437.8,304.9c0-0.8,0.3-1.6,0.8-2.2v0.1
					l0,0c0,0.1,0,0.2,0,0.3c0,0.8,0.7,1.5,1.5,1.5s1.5-0.7,1.5-1.5c0-0.7-0.5-1.3-1.1-1.4h0.1c0,0-0.1,0-0.1-0.1
					c0.2-0.1,0.5-0.1,0.8-0.1c1.9,0,3.4,1.5,3.4,3.4l0,0l0,0c0,1.9-1.5,3.4-3.4,3.4C439.3,308.4,437.8,306.8,437.8,304.9
					L437.8,304.9L437.8,304.9z"/>
				<path class="st6" d="M464.9,329.4c0.2,0,0.4,0,0.6,0l0,0l0,0C465.3,329.4,465.1,329.4,464.9,329.4z"/>
				<path class="st1" d="M441.2,308.3c1.9,0,3.4-1.5,3.4-3.4s-1.5-3.4-3.4-3.4c-0.2,0-0.4,0-0.7,0.1c0.6,0.2,1,0.8,1,1.4l0,0l0,0
					c0,0.8-0.7,1.5-1.5,1.5s-1.5-0.7-1.5-1.5l0,0l0,0c0-0.1,0-0.2,0-0.3c-0.5,0.6-0.8,1.3-0.8,2.2
					C437.8,306.8,439.3,308.3,441.2,308.3z"/>
				<path class="st5" d="M438.6,302.7c-0.5,0.6-0.8,1.4-0.8,2.2l0,0C437.8,304.1,438.1,303.3,438.6,302.7L438.6,302.7z"/>
				<path class="st5" d="M440,304.6c0.8,0,1.5-0.7,1.5-1.5l0,0C441.5,303.9,440.9,304.5,440,304.6c-0.8-0.1-1.5-0.7-1.5-1.6l0,0
					C438.5,303.9,439.2,304.6,440,304.6z"/>
				<path class="st5" d="M444.6,304.9L444.6,304.9c0-1.9-1.5-3.5-3.4-3.5c-0.3,0-0.5,0-0.8,0.1c0,0,0.1,0,0.1,0.1
					c0.2,0,0.4-0.1,0.7-0.1C443.1,301.5,444.6,303,444.6,304.9z"/>
				<path class="st1" d="M468.7,308.4c1.9,0,3.4-1.5,3.4-3.4s-1.5-3.4-3.4-3.4c-0.3,0-0.5,0-0.8,0.1c0.7,0.2,1.1,0.8,1.1,1.5
					c0,0.8-0.7,1.5-1.5,1.5s-1.5-0.7-1.5-1.5c0-0.1,0-0.2,0-0.3c-0.5,0.6-0.8,1.4-0.8,2.2C465.3,306.8,466.8,308.4,468.7,308.4z"/>
				<path class="st5" d="M495.6,328.4c-1.5-11.6-6.1-21.8-12.9-29.4c1-0.3,2-0.8,2.8-1.6c2.5-2.5,2.5-6.6,0-9.2
					c-1.3-1.3-2.9-1.9-4.6-1.9c-1.7,0-3.3,0.6-4.6,1.9c-1,1-1.6,2.3-1.8,3.7c-2.9-1.9-6-3.4-9.2-4.4c0.2-0.3,0.4-0.5,0.7-0.8
					c0.2-0.3,0.5-0.5,0.8-0.7c4.1-3.6,11.1-5.4,11.1-5.4c-6.4-1.5-12.2-1.6-17.4-0.9c2.6-2.7,5.3-4.7,5.3-4.7
					c-12,1.4-20.5,6.9-26.2,12.4c-0.7,0.7-1.4,1.4-2.1,2.1c-0.7,0.7-1.3,1.4-1.8,2.1c-0.2,0.2-0.3,0.3-0.3,0.3
					c-0.2-1.3-0.8-2.6-1.8-3.7c-1.3-1.3-2.9-1.9-4.6-1.9c-1.7,0-3.3,0.6-4.6,1.9c-2.5,2.5-2.5,6.6,0,9.2c0.8,0.8,1.8,1.3,2.8,1.6
					c-6.2,6.9-10.7,16.2-12.5,26.6c-0.2,0.9-0.3,1.8-0.4,2.7c2.8,8.4,8.2,15.7,15.2,20.9c-0.2-0.7-0.4-1.4-0.5-2
					c-0.6-1.9-1.1-3.5-1.5-4.6s-0.7-1.7-0.7-1.7s0.4,0.6,0.9,1.6c0.6,1,1.3,2.5,2.1,4.4c0.4,1.1,0.9,2.2,1.3,3.5
					c3.5,2.3,7.3,4.2,11.4,5.4c2.1-5.1,6.8-9.3,12.4-9.3c5.6,0,10.3,4.2,12.4,9.3c4.1-1.2,7.9-3.1,11.4-5.4c0.4-1.3,0.9-2.5,1.3-3.5
					c0.8-1.9,1.6-3.3,2.1-4.4c0.6-1,0.9-1.6,0.9-1.6s-0.3,0.6-0.7,1.7c-0.4,1.1-1,2.7-1.5,4.6c-0.2,0.6-0.4,1.3-0.5,2
					C487.4,344.1,492.8,336.8,495.6,328.4z M468.7,298.1c3.8,0,6.9,3.1,6.9,6.9c0,3.8-3.1,6.9-6.9,6.9c-0.4,0-0.8,0-1.2-0.1
					c-0.7-0.3-1.4-0.6-2-1c-0.7-0.5-1.4-1-2.1-1.3c-1-1.2-1.6-2.7-1.6-4.4C461.8,301.2,464.9,298.1,468.7,298.1z M441.2,298.1
					c3.8,0,6.9,3.1,6.9,6.9c0,1.7-0.6,3.2-1.6,4.4c-0.7,0.4-1.4,0.8-2.1,1.3c-0.6,0.4-1.3,0.8-2,1c-0.4,0.1-0.8,0.1-1.2,0.1
					c-3.8,0-6.9-3.1-6.9-6.9C434.3,301.2,437.4,298.1,441.2,298.1z M428.9,295.8c-1.7,0-3-1.4-3-3c0-1.7,1.4-3,3-3c1.7,0,3,1.4,3,3
					C432,294.4,430.6,295.8,428.9,295.8z M453.6,334.6c0,1.5-1,2.6-2.3,2.6h-3.5c-0.9,0-1.8-0.6-2.1-1.6c-0.5-1.3-0.8-2.6-1-4
					c2.5-0.1,4.9-0.8,7-1.9c0.7-0.4,1.3-0.8,1.9-1.3L453.6,334.6L453.6,334.6z M464.2,335.6c-0.4,1-1.2,1.6-2.1,1.6h-3.5
					c-1.3,0-2.3-1.2-2.3-2.6v-6.3c0.6,0.5,1.2,0.9,1.9,1.3c2.1,1.2,4.5,1.9,7,1.9C465,333,464.7,334.4,464.2,335.6z M465.5,329.4
					L465.5,329.4c-0.2,0-0.4,0-0.6,0c-3.1-0.1-5.9-1.3-8-3.2c0,0-0.1,0-0.1-0.1l0.1,0.1c0,0-0.3-0.2-0.6-0.5
					c-0.4-0.3-0.9-0.6-1.4-0.6c-0.4,0-0.9,0.3-1.4,0.6c-0.4,0.3-0.6,0.5-0.6,0.5l0.1-0.1c0,0-0.1,0-0.1,0.1c-2,1.9-4.8,3.1-8,3.2
					c-0.2,0-0.4,0-0.6,0l0,0c-6.4,0-11.6-4.6-11.6-10.3c0-5.6,7.8-2.5,13-6c0.1-0.1,0.2-0.1,0.2-0.2c0.5-0.3,0.9-0.6,1.3-0.9
					c0.1-0.1,0.2-0.1,0.3-0.2c0.4-0.3,0.9-0.5,1.6-0.8c1.2-0.5,2.8-0.8,4.5-0.9c0.4,0,0.9,0,1.3,0s0.9,0,1.3,0
					c1.7,0.1,3.3,0.4,4.5,0.9c0.6,0.2,1.1,0.5,1.6,0.8c0.1,0.1,0.2,0.1,0.3,0.2c0.4,0.3,0.9,0.5,1.3,0.9c0.1,0.1,0.2,0.1,0.2,0.2
					c5.2,3.5,13,0.4,13,6C477.2,324.8,471.9,329.4,465.5,329.4z M480.9,295.8c-1.7,0-3-1.4-3-3c0-1.7,1.4-3,3-3c1.7,0,3,1.4,3,3
					C484,294.4,482.6,295.8,480.9,295.8z M484.1,340c0,0-3.8,4.3-4.3,9.7"/>
				<path class="st5" d="M464.9,329.4c-2.6-0.1-6.4-2.3-8-3.2C459,328,461.8,329.3,464.9,329.4z"/>
				<path class="st5" d="M452.9,326.2c0,0,0.3-0.2,0.6-0.5C453.4,325.7,453.2,325.9,452.9,326.2L452.9,326.2z"/>
				<path class="st5" d="M456.9,326.2l-0.1-0.1c-0.3-0.2-0.5-0.3-0.6-0.4C456.7,326,456.9,326.2,456.9,326.2z"/>
				<path class="st5" d="M452.9,326.1c-1.6,1-5.4,3.1-8,3.2C448.1,329.3,450.9,328,452.9,326.1z"/>
				<path class="st7" d="M467.3,355.8c-2.1-5.1-6.8-9.3-12.4-9.3c-5.6,0-10.3,4.2-12.4,9.3c3.9,1.2,8.1,1.8,12.4,1.8
					C459.3,357.6,463.4,357,467.3,355.8z"/>
				<path class="st7" d="M428.9,289.7c-1.7,0-3,1.4-3,3c0,1.7,1.4,3,3,3c1.7,0,3-1.4,3-3C432,291.1,430.6,289.7,428.9,289.7z"/>
				<path class="st7" d="M484,292.8c0-1.7-1.4-3-3-3c-1.7,0-3,1.4-3,3c0,1.7,1.4,3,3,3S484,294.4,484,292.8z"/>
				<path class="st1" d="M455.7,312c-0.3,0-0.5,0-0.8,0s-0.5,0-0.8,0c-3.5,0.1-6.8,1.2-6.8,3.1c0,1.5,0.4,2.8,1.1,4
					c1.3,2.1,3.7,3.6,6.4,3.6s5.1-1.4,6.4-3.6c0.7-1.2,1.1-2.5,1.1-4C462.5,313.2,459.2,312.1,455.7,312z"/>
				<path class="st6" d="M444.6,331.6c0.2,1.4,0.6,2.8,1,4c0.4,1,1.2,1.6,2.1,1.6h3.5c1.3,0,2.3-1.2,2.3-2.6v-6.3
					c-0.6,0.5-1.2,0.9-1.9,1.3C449.5,330.8,447.1,331.5,444.6,331.6z"/>
				<path class="st6" d="M456.3,328.3v6.3c0,1.5,1,2.6,2.3,2.6h3.5c0.9,0,1.8-0.6,2.1-1.6c0.5-1.3,0.8-2.6,1-4
					c-2.5-0.1-4.9-0.8-7-1.9C457.5,329.3,456.9,328.8,456.3,328.3z"/>
				<path class="st7" d="M464.2,313.1c-0.1-0.1-0.2-0.1-0.2-0.2c-0.5-0.3-0.9-0.6-1.3-0.9c-0.1-0.1-0.2-0.1-0.3-0.2
					c-0.4-0.3-0.9-0.5-1.6-0.8c-1.2-0.5-2.8-0.8-4.5-0.9c-0.4,0-0.9,0-1.3,0s-0.9,0-1.3,0c-1.7,0.1-3.3,0.4-4.5,0.9
					c-0.6,0.2-1.1,0.5-1.6,0.8c-0.1,0.1-0.2,0.1-0.3,0.2c-0.4,0.3-0.9,0.5-1.3,0.9c-0.1,0.1-0.2,0.1-0.2,0.2c-5.2,3.5-13,0.4-13,6
					c0,5.7,5.2,10.3,11.6,10.3l0,0c0.2,0,0.4,0,0.5,0c2.6-0.1,6.4-2.3,8-3.2l0.1-0.1v0.1c0.3-0.2,0.5-0.3,0.6-0.4
					c0.4-0.3,0.9-0.6,1.4-0.6c0.4,0,0.9,0.3,1.4,0.6c0.1,0,0.3,0.2,0.6,0.4v-0.1l0.1,0.1c1.6,1,5.4,3.1,8,3.2c0.2,0,0.4,0,0.5,0l0,0
					c6.4,0,11.6-4.6,11.6-10.3C477.2,313.5,469.4,316.6,464.2,313.1z M461.4,319.1c-1.3,2.1-3.7,3.6-6.4,3.6s-5.1-1.4-6.4-3.6
					c-0.7-1.2-1.1-2.5-1.1-4c0-1.9,3.3-3,6.8-3.1c0.3,0,0.5,0,0.8,0s0.5,0,0.8,0c3.5,0.1,6.8,1.2,6.8,3.1
					C462.5,316.6,462.1,317.9,461.4,319.1z"/>
			</g>
			<rect x="432.7" y="295.8" class="st5" width="45.2" height="6.5"/>
		</g>
		<g>
			<g>
				<defs>
					<circle id="SVGID_1_" cx="454.9" cy="314.7" r="42.9"/>
				</defs>
				<clipPath id="SVGID_2_">
					<use xlink:href="#SVGID_1_"  style="overflow:visible;"/>
				</clipPath>
				<g class="st8">
					<g>
						<g>
							<g>
								<polygon class="st9" points="448.4,346.5 442.4,349.1 434.7,342.6 430.8,356.8 450.5,363.6 452.3,353.5 448,347 								"/>
								<polygon class="st9" points="412.3,350.4 426,355.1 413.2,343.2 								"/>
								<polygon class="st9" points="467.4,349.1 461.5,346.5 461.9,347 457.6,353.5 459.4,363.6 479.1,356.8 475.2,342.6 								
									"/>
								<polygon class="st9" points="496.6,343.2 483.9,355.1 497.6,350.4 								"/>
							</g>
							<polygon class="st10" points="457.6,353.5 461.9,347 461.5,346.5 454.9,343.5 454.9,343.5 454.9,343.5 454.9,343.5 
								454.9,343.5 448.4,346.5 448,347 452.3,353.5 450.5,363.6 448,378 454.9,378 454.9,378 461.9,378 459.4,363.6 							"/>
							<g>
								<polygon class="st1" points="410.9,341 413.2,343.2 426,355.1 430.1,359 430.8,356.8 434.7,342.6 436.5,336.1 436.7,335.2 
									414.7,325.6 								"/>
								<polygon class="st1" points="495.2,325.6 473.1,335.2 473.4,336.1 475.2,342.6 479.1,356.8 479.7,359 483.9,355.1 
									496.6,343.2 499,341 								"/>
							</g>
							<polygon class="st6" points="473.4,336.1 473.1,335.2 455.7,342.8 455.2,343 454.9,343.1 454.7,343 454.2,342.8 436.7,335.2 
								436.5,336.1 434.7,342.6 442.4,349.1 448.4,346.5 454.9,343.5 461.5,346.5 467.4,349.1 475.2,342.6 							"/>
						</g>
					</g>
				</g>
			</g>
		</g>
	</g>
</g>
<g>
	<g>
		<circle class="st1" cx="905" cy="196" r="45.1"/>
		<path class="st3" d="M907,207.3c0,0,0.1,0,0.1,0.1C907,207.4,907,207.3,907,207.3L907,207.3z"/>
		<path class="st11" d="M877.2,180.3c-1-0.3-2-0.8-2.8-1.6c-2.5-2.5-2.5-6.6,0-9.2c1.3-1.3,2.9-1.9,4.6-1.9s3.3,0.6,4.6,1.9
			c1,1,1.6,2.3,1.8,3.7c0,0,0.1-0.1,0.3-0.3c0.6-0.7,1.2-1.4,1.8-2.1c0.7-0.7,1.4-1.4,2.1-2.1c5.7-5.5,14.2-10.9,26.2-12.4
			c0,0-2.7,1.9-5.3,4.7c5.2-0.8,11-0.7,17.4,0.9c0,0-7,1.8-11.1,5.4c-0.3,0.2-0.5,0.5-0.8,0.7c-0.2,0.3-0.5,0.5-0.7,0.8
			c3.2,1,6.3,2.5,9.2,4.4c0.2-1.3,0.8-2.6,1.8-3.7c1.3-1.3,2.9-1.9,4.6-1.9s3.3,0.6,4.6,1.9c2.5,2.5,2.5,6.6,0,9.2
			c-0.8,0.8-1.8,1.3-2.8,1.6c6.7,7.5,11.4,17.8,12.9,29.4c1.4-4.3,2.2-8.9,2.2-13.6c0-23.7-19.2-42.9-42.9-42.9
			c-23.7,0-42.9,19.2-42.9,42.9c0,4.8,0.8,9.3,2.2,13.6c0.1-0.9,0.3-1.8,0.4-2.7C866.6,196.4,871,187.2,877.2,180.3z"/>
		<path class="st3" d="M903,207.4c0,0,0.1,0,0.1-0.1v-0.1C903.1,207.3,903.1,207.4,903,207.4z"/>
		<path class="st3" d="M890.6,182.8h-0.1c0.6,0.2,1.1,0.7,1.1,1.4l0,0C891.7,183.6,891.2,183,890.6,182.8z"/>
		<path class="st3" d="M888.6,184.3c0-0.1,0-0.2,0-0.3l0,0C888.6,184.1,888.6,184.2,888.6,184.3L888.6,184.3z"/>
		<path class="st5" d="M877.8,223.8c-0.6-1-0.9-1.6-0.9-1.6s0.3,0.6,0.7,1.7c0.4,1.1,1,2.7,1.5,4.6c0.2,0.6,0.4,1.3,0.5,2
			c0.5,0.4,1.1,0.8,1.7,1.2c-0.4-1.3-0.9-2.5-1.3-3.5C879.1,226.3,878.3,224.8,877.8,223.8z"/>
		<path class="st5" d="M932.6,223.9c0.4-1.1,0.7-1.7,0.7-1.7s-0.4,0.6-0.9,1.6c-0.6,1-1.3,2.5-2.1,4.4c-0.4,1.1-0.9,2.2-1.3,3.5
			c0.6-0.4,1.1-0.8,1.7-1.2c0.2-0.7,0.4-1.4,0.5-2C931.6,226.6,932.2,225,932.6,223.9z"/>
		<path class="st3" d="M891.3,189.6c1.9,0,3.4-1.5,3.4-3.4l0,0C894.7,188,893.2,189.6,891.3,189.6c-1.9-0.1-3.4-1.6-3.4-3.5l0,0
			C887.9,188.1,889.4,189.6,891.3,189.6z"/>
		<path class="st6" d="M894.5,210.7L894.5,210.7c0.2,0,0.4,0,0.6,0C894.9,210.6,894.7,210.7,894.5,210.7L894.5,210.7z"/>
		<path class="st6" d="M894.7,212.9c0.2,1.4,0.6,2.8,1,4c0.4,1,1.2,1.6,2.1,1.6h3.5c1.3,0,2.3-1.2,2.3-2.6v-6.3
			c-0.6,0.5-1.2,0.9-1.9,1.3C899.6,212.1,897.2,212.8,894.7,212.9z"/>
		<path class="st6" d="M906.4,209.6v6.3c0,1.5,1,2.6,2.3,2.6h3.5c0.9,0,1.8-0.6,2.1-1.6c0.5-1.3,0.8-2.6,1-4c-2.5-0.1-4.9-0.8-7-1.9
			C907.6,210.5,907,210.1,906.4,209.6z"/>
		<path class="st6" d="M915.6,191.9c0.6,0.4,1.3,0.8,2,1c0.4,0.1,0.8,0.1,1.2,0.1c3.8,0,6.9-3.1,6.9-6.9s-3.1-6.9-6.9-6.9
			s-6.9,3.1-6.9,6.9c0,1.7,0.6,3.2,1.6,4.4C914.2,191,914.9,191.4,915.6,191.9z M916.2,184c0,0.1,0,0.2,0,0.3c0,0.8,0.7,1.5,1.5,1.5
			s1.5-0.7,1.5-1.5c0-0.7-0.5-1.3-1.1-1.5c0.2-0.1,0.5-0.1,0.8-0.1c1.9,0,3.4,1.5,3.4,3.4s-1.5,3.4-3.4,3.4s-3.4-1.5-3.4-3.4
			C915.4,185.4,915.7,184.6,916.2,184z"/>
		<path class="st6" d="M891.3,193.1c0.4,0,0.8,0,1.2-0.1c0.7-0.3,1.4-0.6,2-1c0.7-0.5,1.4-1,2.1-1.3c1-1.2,1.6-2.7,1.6-4.4
			c0-3.8-3.1-6.9-6.9-6.9s-6.9,3.1-6.9,6.9C884.4,190,887.5,193.1,891.3,193.1z M887.9,186.1c0-0.8,0.3-1.6,0.8-2.2v0.1l0,0
			c0,0.1,0,0.2,0,0.3c0,0.8,0.7,1.5,1.5,1.5s1.5-0.7,1.5-1.5c0-0.7-0.5-1.3-1.1-1.4h0.1c0,0-0.1,0-0.1-0.1c0.2-0.1,0.5-0.1,0.8-0.1
			c1.9,0,3.4,1.5,3.4,3.4l0,0l0,0c0,1.9-1.5,3.4-3.4,3.4C889.4,189.6,887.9,188.1,887.9,186.1C887.9,186.2,887.9,186.2,887.9,186.1
			C887.9,186.2,887.9,186.1,887.9,186.1z"/>
		<path class="st7" d="M914.3,194.3c-0.1-0.1-0.2-0.1-0.2-0.2c-0.5-0.3-0.9-0.6-1.3-0.9c-0.1-0.1-0.2-0.1-0.3-0.2
			c-0.4-0.3-0.9-0.5-1.6-0.8c-1.2-0.5-2.8-0.8-4.5-0.9c-0.4,0-0.9,0-1.3,0s-0.9,0-1.3,0c-1.7,0.1-3.3,0.4-4.5,0.9
			c-0.6,0.2-1.1,0.5-1.6,0.8c-0.1,0.1-0.2,0.1-0.3,0.2c-0.4,0.3-0.9,0.5-1.3,0.9c-0.1,0.1-0.2,0.1-0.2,0.2c-5.2,3.5-13,0.4-13,6
			c0,5.7,5.2,10.3,11.6,10.3l0,0c0.2,0,0.4,0,0.5,0c2.6-0.1,6.4-2.3,8-3.2l0.1-0.1v0.1c0.3-0.2,0.5-0.3,0.6-0.4
			c0.4-0.3,0.9-0.6,1.4-0.6c0.4,0,0.9,0.3,1.4,0.6c0.1,0,0.3,0.2,0.6,0.4v-0.1l0.1,0.1c1.6,1,5.4,3.1,8,3.2c0.2,0,0.4,0,0.5,0l0,0
			c6.4,0,11.6-4.6,11.6-10.3C927.3,194.7,919.5,197.9,914.3,194.3z M911.5,200.4c-1.3,2.1-3.7,3.6-6.4,3.6c-2.7,0-5.1-1.4-6.4-3.6
			c-0.7-1.2-1.1-2.5-1.1-4c0-1.9,3.3-3,6.8-3.1c0.3,0,0.5,0,0.8,0s0.5,0,0.8,0c3.5,0.1,6.8,1.2,6.8,3.1
			C912.6,197.8,912.2,199.2,911.5,200.4z"/>
		<path class="st6" d="M915,210.6c0.2,0,0.4,0,0.6,0l0,0l0,0C915.4,210.7,915.2,210.6,915,210.6z"/>
		<path class="st5" d="M891.3,189.6c1.9,0,3.4-1.5,3.4-3.4s-1.5-3.4-3.4-3.4c-0.2,0-0.4,0-0.7,0.1c0.6,0.2,1,0.8,1,1.4l0,0l0,0
			c0,0.8-0.7,1.5-1.5,1.5s-1.5-0.7-1.5-1.5l0,0l0,0c0-0.1,0-0.2,0-0.3c-0.5,0.6-0.8,1.3-0.8,2.2C887.9,188,889.4,189.6,891.3,189.6z
			"/>
		<path class="st5" d="M888.7,183.9c-0.5,0.6-0.8,1.4-0.8,2.2l0,0C887.9,185.3,888.2,184.6,888.7,183.9
			C888.7,184,888.7,183.9,888.7,183.9z"/>
		<path class="st5" d="M890.1,185.8c0.8,0,1.5-0.7,1.5-1.5l0,0C891.6,185.1,891,185.8,890.1,185.8c-0.8-0.1-1.5-0.7-1.5-1.6l0,0
			C888.6,185.2,889.3,185.8,890.1,185.8z"/>
		<path class="st5" d="M894.7,186.2C894.7,186.2,894.7,186.1,894.7,186.2c0-1.9-1.5-3.5-3.4-3.5c-0.3,0-0.5,0-0.8,0.1
			c0,0,0.1,0,0.1,0.1c0.2,0,0.4-0.1,0.7-0.1C893.2,182.8,894.7,184.3,894.7,186.2z"/>
		<path class="st5" d="M918.8,189.6c1.9,0,3.4-1.5,3.4-3.4s-1.5-3.4-3.4-3.4c-0.3,0-0.5,0-0.8,0.1c0.7,0.2,1.1,0.8,1.1,1.5
			c0,0.8-0.7,1.5-1.5,1.5s-1.5-0.7-1.5-1.5c0-0.1,0-0.2,0-0.3c-0.5,0.6-0.8,1.4-0.8,2.2C915.4,188.1,916.9,189.6,918.8,189.6z"/>
		<path class="st5" d="M945.7,209.6c-1.5-11.6-6.1-21.8-12.9-29.4c1-0.3,2-0.8,2.8-1.6c2.5-2.5,2.5-6.6,0-9.2
			c-1.3-1.3-2.9-1.9-4.6-1.9s-3.3,0.6-4.6,1.9c-1,1-1.6,2.3-1.8,3.7c-2.9-1.9-6-3.4-9.2-4.4c0.2-0.3,0.4-0.5,0.7-0.8
			c0.2-0.3,0.5-0.5,0.8-0.7c4.1-3.6,11.1-5.4,11.1-5.4c-6.4-1.5-12.2-1.6-17.4-0.9c2.6-2.7,5.3-4.7,5.3-4.7
			c-12,1.4-20.5,6.9-26.2,12.4c-0.7,0.7-1.4,1.4-2.1,2.1s-1.3,1.4-1.8,2.1c-0.2,0.2-0.3,0.3-0.3,0.3c-0.2-1.3-0.8-2.6-1.8-3.7
			c-1.3-1.3-2.9-1.9-4.6-1.9s-3.3,0.6-4.6,1.9c-2.5,2.5-2.5,6.6,0,9.2c0.8,0.8,1.8,1.3,2.8,1.6c-6.2,6.9-10.7,16.2-12.5,26.6
			c-0.2,0.9-0.3,1.8-0.4,2.7c2.8,8.4,8.2,15.7,15.2,20.9c-0.2-0.7-0.4-1.4-0.5-2c-0.6-1.9-1.1-3.5-1.5-4.6s-0.7-1.7-0.7-1.7
			s0.4,0.6,0.9,1.6c0.6,1,1.3,2.5,2.1,4.4c0.4,1.1,0.9,2.2,1.3,3.5c3.5,2.3,7.3,4.2,11.4,5.4c2.1-5.1,6.8-9.3,12.4-9.3
			s10.3,4.2,12.4,9.3c4.1-1.2,7.9-3.1,11.4-5.4c0.4-1.3,0.9-2.5,1.3-3.5c0.8-1.9,1.6-3.3,2.1-4.4c0.6-1,0.9-1.6,0.9-1.6
			s-0.3,0.6-0.7,1.7c-0.4,1.1-1,2.7-1.5,4.6c-0.2,0.6-0.4,1.3-0.5,2C937.5,225.3,942.9,218,945.7,209.6z M918.8,179.3
			c3.8,0,6.9,3.1,6.9,6.9s-3.1,6.9-6.9,6.9c-0.4,0-0.8,0-1.2-0.1c-0.7-0.3-1.4-0.6-2-1c-0.7-0.5-1.4-1-2.1-1.3
			c-1-1.2-1.6-2.7-1.6-4.4C911.9,182.4,915,179.3,918.8,179.3z M891.3,179.3c3.8,0,6.9,3.1,6.9,6.9c0,1.7-0.6,3.2-1.6,4.4
			c-0.7,0.4-1.4,0.8-2.1,1.3c-0.6,0.4-1.3,0.8-2,1c-0.4,0.1-0.8,0.1-1.2,0.1c-3.8,0-6.9-3.1-6.9-6.9
			C884.4,182.4,887.5,179.3,891.3,179.3z M879,177c-1.7,0-3-1.4-3-3c0-1.7,1.4-3,3-3c1.7,0,3,1.4,3,3C882.1,175.7,880.7,177,879,177
			z M903.7,215.9c0,1.5-1,2.6-2.3,2.6h-3.5c-0.9,0-1.8-0.6-2.1-1.6c-0.5-1.3-0.8-2.6-1-4c2.5-0.1,4.9-0.8,7-1.9
			c0.7-0.4,1.3-0.8,1.9-1.3V215.9z M914.3,216.9c-0.4,1-1.2,1.6-2.1,1.6h-3.5c-1.3,0-2.3-1.2-2.3-2.6v-6.3c0.6,0.5,1.2,0.9,1.9,1.3
			c2.1,1.2,4.5,1.9,7,1.9C915.1,214.3,914.8,215.6,914.3,216.9z M915.6,210.7L915.6,210.7c-0.2,0-0.4,0-0.6,0
			c-3.1-0.1-5.9-1.3-8-3.2c0,0-0.1,0-0.1-0.1l0.1,0.1c0,0-0.3-0.2-0.6-0.5c-0.4-0.3-0.9-0.6-1.4-0.6c-0.4,0-0.9,0.3-1.4,0.6
			c-0.4,0.3-0.6,0.5-0.6,0.5l0.1-0.1c0,0-0.1,0-0.1,0.1c-2,1.9-4.8,3.1-8,3.2c-0.2,0-0.4,0-0.6,0l0,0c-6.4,0-11.6-4.6-11.6-10.3
			c0-5.6,7.8-2.5,13-6c0.1-0.1,0.2-0.1,0.2-0.2c0.5-0.3,0.9-0.6,1.3-0.9c0.1-0.1,0.2-0.1,0.3-0.2c0.4-0.3,0.9-0.5,1.6-0.8
			c1.2-0.5,2.8-0.8,4.5-0.9c0.4,0,0.9,0,1.3,0s0.9,0,1.3,0c1.7,0.1,3.3,0.4,4.5,0.9c0.6,0.2,1.1,0.5,1.6,0.8
			c0.1,0.1,0.2,0.1,0.3,0.2c0.4,0.3,0.9,0.5,1.3,0.9c0.1,0.1,0.2,0.1,0.2,0.2c5.2,3.5,13,0.4,13,6C927.3,206,922,210.6,915.6,210.7z
			 M931,177c-1.7,0-3-1.4-3-3c0-1.7,1.4-3,3-3c1.7,0,3,1.4,3,3C934.1,175.7,932.7,177,931,177z M934.2,221.3c0,0-3.8,4.3-4.3,9.7"/>
		<path class="st5" d="M915,210.6c-2.6-0.1-6.4-2.3-8-3.2C909.1,209.3,911.9,210.5,915,210.6z"/>
		<path class="st5" d="M903,207.5c0,0,0.3-0.2,0.6-0.5c-0.1,0-0.3,0.2-0.6,0.4V207.5z"/>
		<path class="st5" d="M907,207.5l-0.1-0.1c-0.3-0.2-0.5-0.3-0.6-0.4C906.8,207.2,907,207.5,907,207.5z"/>
		<path class="st5" d="M903,207.4c-1.6,1-5.4,3.1-8,3.2C898.2,210.5,901,209.3,903,207.4z"/>
		<path class="st1" d="M905.8,193.3c-0.3,0-0.5,0-0.8,0s-0.5,0-0.8,0c-3.5,0.1-6.8,1.2-6.8,3.1c0,1.5,0.4,2.8,1.1,4
			c1.3,2.1,3.7,3.6,6.4,3.6c2.7,0,5.1-1.4,6.4-3.6c0.7-1.2,1.1-2.5,1.1-4C912.6,194.4,909.3,193.4,905.8,193.3z"/>
		<path class="st7" d="M917.5,237.1c-2.1-5.1-6.8-9.3-12.4-9.3s-10.3,4.2-12.4,9.3c3.9,1.2,8.1,1.8,12.4,1.8
			S913.5,238.3,917.5,237.1z"/>
		<path class="st7" d="M879,171c-1.7,0-3,1.4-3,3c0,1.7,1.4,3,3,3c1.7,0,3-1.4,3-3C882.1,172.3,880.7,171,879,171z"/>
		<path class="st7" d="M934.1,174c0-1.7-1.4-3-3-3c-1.7,0-3,1.4-3,3c0,1.7,1.4,3,3,3C932.7,177,934.1,175.7,934.1,174z"/>
	</g>
	<g>
		<g>
			<g>
				<path class="st1" d="M901.3,182.1c0,0.2,0,0.4-0.1,0.6c0,0.2-0.1,0.5-0.1,0.7c-1.9,13.8-11.1,13.7-12.5,13.7
					c-5.1-0.1-7.7-3.2-8.8-6.8c-1.2-3.8-0.9-8.1-0.3-9.9c1.3-3.7,6.3-5.1,9.8-5.1c1.5,0,7-0.6,9.9,1.8
					C900.6,178.1,901.5,179.7,901.3,182.1z"/>
				<path class="st1" d="M921.4,197.2c-1.2,0-8.4,0.1-11.4-9c-0.5-1.4-0.8-2.9-1.1-4.8c0-0.2-0.1-0.5-0.1-0.7s0-0.4-0.1-0.6
					c-0.4-8.1,9.8-6.8,11.9-6.8c1.9,0,4.3,0.4,6.2,1.4c1.7,0.8,3,2,3.6,3.7C931.7,184,931.8,197,921.4,197.2z"/>
			</g>
			<g>
				<path class="st12" d="M899.4,177.1l-19.5,13.3c-1.2-3.8-0.9-8.1-0.3-9.9c1.3-3.7,6.3-5.1,9.8-5.1
					C890.9,175.3,896.4,174.7,899.4,177.1z"/>
				<path class="st12" d="M926.9,176.7L910,188.2c-0.5-1.4-0.8-2.9-1.1-4.8c0-0.2-0.1-0.5-0.1-0.7s0-0.4-0.1-0.6
					c-0.4-8.1,9.8-6.8,11.9-6.8C922.6,175.3,924.9,175.7,926.9,176.7z"/>
			</g>
		</g>
		<path class="st1" d="M920.8,174.3h-31.6c-8.7,0-11.8,4.9-11.5,10.5s2,13.4,10.6,13.4s12.6-7.2,13.6-11c0.4-1.4,0.8-2.2,1.3-2.7
			c0.9-0.9,1.7-0.7,1.7-0.7s2.1-0.4,3,3.4c0,0.1,0.1,0.3,0.1,0.4c1.2,3.9,5.2,10.5,13.5,10.5c8.6,0,10.3-7.8,10.6-13.4
			C932.6,179.2,929.6,174.3,920.8,174.3z M901.3,182.1c0,0.2,0,0.4-0.1,0.6c0,0.2-0.1,0.5-0.1,0.7c-1.9,13.8-11.1,13.7-12.5,13.7
			c-10.4-0.1-10.3-13.2-9.1-16.7c1.3-3.7,6.3-5.1,9.8-5.1C891.6,175.3,901.8,174.1,901.3,182.1z M907.6,180.2c0,0.3-0.3,0.4-0.5,0.4
			c-0.5-0.1-1.3-0.1-2-0.1c-0.5,0-1.2,0.1-1.7,0.1c-0.1,0-0.2,0-0.3,0c-0.3,0-0.5-0.2-0.5-0.4c-0.2-1.5-1-3-1.5-3.8
			c-0.2-0.3,0-0.7,0.4-0.7h7.2c0.4,0,0.6,0.4,0.4,0.7c-0.3,0.4-0.6,1-0.9,1.7C907.9,178.7,907.7,179.5,907.6,180.2z M921.4,197.2
			c-1.4,0-10.7,0.1-12.5-13.7c0-0.2-0.1-0.5-0.1-0.7s0-0.4-0.1-0.6c-0.4-8.1,9.8-6.8,11.9-6.8c3.5,0,8.6,1.4,9.8,5.1
			C931.7,184,931.8,197,921.4,197.2z"/>
	</g>
</g>
<g>
	<g>
		<path class="st13" d="M544.1,22.9L544.1,22.9c-5,0-11.1,4.8-15.2,11.2c-4.5,7-5.5,16.7-4.7,17.9c3,4.6,19.9,4.2,19.9,4.2l0,0
			c0,0,16.9,0.4,19.9-4.2c0.8-1.1-0.2-10.8-4.7-17.9C555.2,27.5,549.1,22.9,544.1,22.9z"/>
		<path class="st14" d="M535.2,26.8c0,0,3.8,16.9,0,20.2c-2,1.8-10.7-1.6-10.7-1.6c-0.2,0.9-0.3,1.8-0.4,2.6c0,0,10.5,3.7,13.1,1.4
			c4.8-4.1,0.7-24.6,0.7-24.6C537,25.4,536.1,26,535.2,26.8z"/>
		<path class="st14" d="M553,47c-3.8-3.3,0-20.2,0-20.2c-0.9-0.7-1.8-1.4-2.7-2c0,0-4.1,20.5,0.7,24.6c2.6,2.3,13.1-1.4,13.1-1.4
			c-0.1-0.8-0.2-1.7-0.4-2.6C563.6,45.5,555,48.8,553,47z"/>
		<path class="st15" d="M543.5,30c-0.9,0-1.7,0.7-1.7,1.7c0,0.9,0.7,1.7,1.7,1.7c0.9,0,1.7-0.7,1.7-1.7
			C545.1,30.9,544.4,30,543.5,30z"/>
		<path class="st14" d="M544,36.8c-0.9,0-1.7,0.7-1.7,1.7c0,0.9,0.7,1.7,1.7,1.7c0.9,0,1.7-0.7,1.7-1.7
			C545.7,37.5,544.9,36.8,544,36.8z"/>
		<path class="st14" d="M543.9,43.5c-0.9,0-1.7,0.7-1.7,1.7c0,0.9,0.7,1.7,1.7,1.7c0.9,0,1.7-0.7,1.7-1.7
			C545.6,44.3,544.8,43.5,543.9,43.5z"/>
		<path class="st14" d="M564.1,48.9c0,0.3-0.1,0.5-0.2,0.6c-3,4.6-19.9,4.2-19.9,4.2l0,0c0,0-16.9,0.4-19.9-4.2
			c-0.1-0.1-0.1-0.3-0.2-0.6c-0.9,0.1-1.2,1.8-0.6,2.9c2.8,4.7,20.6,4.3,20.6,4.3l0,0c0,0,17.9,0.4,20.6-4.3
			C565.4,50.7,565,49,564.1,48.9z"/>
		<path class="st16" d="M544.1,11.5L544.1,11.5c-0.9,0-4.1,12.2-4.1,12.2h4.1l0,0h4.1C548.2,23.8,545,11.5,544.1,11.5z"/>
		<path class="st16" d="M521.1,26.5c-4.7-4.5-4.8-15.9-4.6-17.7c0.2-1.8,2-5.7,0.5-6.3c-1.5-0.5-7.7,8.3-5.5,22.3
			s13.2,19.7,13.2,19.7s2.3-1.4,4.8-6.1c2.4-4.6,1.9-7.7,1.9-7.7S525.8,31,521.1,26.5z"/>
		<path class="st16" d="M571.2,2.5c-1.5,0.5,0.3,4.5,0.5,6.3s0.1,13.2-4.6,17.7s-10.3,4.2-10.3,4.2s-0.6,3.1,1.9,7.7
			c2.5,4.7,4.8,6.1,4.8,6.1s11-5.7,13.2-19.7S572.6,2,571.2,2.5z"/>
		<path class="st14" d="M548.2,22.9h-8.4c-0.5,0-0.8,0.4-0.8,0.8s0.4,0.8,0.8,0.8h8.4c0.5,0,0.8-0.4,0.8-0.8S548.6,22.9,548.2,22.9z
			"/>
	</g>
	<circle class="st1" cx="544.1" cy="75.5" r="45.1"/>
	<path class="st3" d="M546,87c0,0,0.1,0,0.1,0.1C546.1,87,546,87,546,87L546,87z"/>
	<path class="st17" d="M516.3,59.9c-1-0.3-2-0.8-2.8-1.6c-2.5-2.5-2.5-6.6,0-9.2c1.3-1.3,2.9-1.9,4.6-1.9s3.3,0.6,4.6,1.9
		c1,1,1.6,2.3,1.8,3.7c0,0,0.1-0.1,0.3-0.3c0.6-0.7,1.2-1.4,1.8-2.1c0.7-0.7,1.4-1.4,2.1-2.1c5.7-5.5,14.2-10.9,26.2-12.4
		c0,0-2.7,1.9-5.3,4.7c5.2-0.8,11-0.7,17.4,0.9c0,0-7,1.8-11.1,5.4c-0.3,0.2-0.5,0.5-0.8,0.7c-0.2,0.3-0.5,0.5-0.7,0.8
		c3.2,1,6.3,2.5,9.2,4.4c0.2-1.3,0.8-2.6,1.8-3.7c1.3-1.3,2.9-1.9,4.6-1.9s3.3,0.6,4.6,1.9c2.5,2.5,2.5,6.6,0,9.2
		c-0.8,0.8-1.8,1.3-2.8,1.6c6.7,7.5,11.4,17.8,12.9,29.4c1.4-4.3,2.2-8.9,2.2-13.6c0-23.7-19.2-42.9-42.9-42.9S501.1,52,501.1,75.7
		c0,4.8,0.8,9.3,2.2,13.6c0.1-0.9,0.3-1.8,0.4-2.7C505.6,76,510.1,66.8,516.3,59.9z"/>
	<path class="st3" d="M542.1,87c0,0,0.1,0,0.1-0.1v-0.1C542.2,87,542.1,87,542.1,87z"/>
	<path class="st3" d="M529.7,62.5h-0.1c0.6,0.2,1.1,0.7,1.1,1.4l0,0C530.7,63.2,530.3,62.7,529.7,62.5z"/>
	<path class="st3" d="M527.7,63.9c0-0.1,0-0.2,0-0.3l0,0C527.7,63.7,527.7,63.8,527.7,63.9L527.7,63.9z"/>
	<path class="st5" d="M518.1,101.9c-0.6-1-2.2-0.1-2.2-0.1s0.3,0.6,0.7,1.7c0.4,1.1,1,2.7,1.5,4.6c0.2,0.6,0.4,1.3,0.5,2
		c0.5,0.4,1.1,0.8,1.7,1.2c-0.4-1.3-0.9-2.5-1.3-3.5C518.2,105.9,518.7,103,518.1,101.9z"/>
	<path class="st5" d="M571.4,103.3c0.4-1.1,0.7-1.7,0.7-1.7s-0.4,0.6-0.9,1.6c-0.6,1-1.3,2.5-2.1,4.4c-0.4,1.1-0.9,2.2-1.3,3.5
		c0.6-0.4,1.1-0.8,1.7-1.2c0.2-0.7,0.4-1.4,0.5-2C570.4,105.9,570.9,104.4,571.4,103.3z"/>
	<path class="st3" d="M530.4,69.3c1.9,0,3.4-1.5,3.4-3.4l0,0C533.8,67.7,532.2,69.2,530.4,69.3c-1.9-0.1-3.4-1.6-3.4-3.5l0,0
		C526.9,67.7,528.5,69.3,530.4,69.3z"/>
	<path class="st6" d="M533.5,90.3L533.5,90.3c0.2,0,0.4,0,0.6,0C533.9,90.3,533.8,90.3,533.5,90.3C533.6,90.3,533.5,90.3,533.5,90.3
		z"/>
	<path class="st6" d="M533.8,92.5c0.2,1.4,0.6,2.8,1,4c0.4,1,1.2,1.6,2.1,1.6h3.5c1.3,0,2.3-1.2,2.3-2.6v-6.3
		c-0.6,0.5-1.2,0.9-1.9,1.3C538.7,91.7,536.3,92.4,533.8,92.5z"/>
	<path class="st6" d="M545.5,89.2v6.3c0,1.5,1,2.6,2.3,2.6h3.5c0.9,0,1.8-0.6,2.1-1.6c0.5-1.3,0.8-2.6,1-4c-2.5-0.1-4.9-0.8-7-1.9
		C546.7,90,546.1,89.7,545.5,89.2z"/>
	<path class="st6" d="M554.7,71.5c0.6,0.4,1.3,0.8,2,1c0.4,0.1,0.8,0.1,1.2,0.1c3.8,0,6.9-3.1,6.9-6.9c0-3.8-3.1-6.9-6.9-6.9
		S551,62,551,65.8c0,1.7,0.6,3.2,1.6,4.4C553.2,70.5,553.9,71,554.7,71.5z M555.2,63.5c0,0.1,0,0.2,0,0.3c0,0.8,0.7,1.5,1.5,1.5
		s1.5-0.7,1.5-1.5c0-0.7-0.5-1.3-1.1-1.5c0.2-0.1,0.5-0.1,0.8-0.1c1.9,0,3.4,1.5,3.4,3.4c0,1.9-1.5,3.4-3.4,3.4s-3.4-1.5-3.4-3.4
		C554.4,65,554.7,64.2,555.2,63.5z"/>
	<path class="st6" d="M530.4,72.7c0.4,0,0.8,0,1.2-0.1c0.7-0.3,1.4-0.6,2-1c0.7-0.5,1.4-1,2.1-1.3c1-1.2,1.6-2.7,1.6-4.4
		c0-3.8-3.1-6.9-6.9-6.9s-6.9,3.1-6.9,6.9C523.5,69.5,526.6,72.7,530.4,72.7z M526.9,65.8c0-0.8,0.3-1.6,0.8-2.2v0.1l0,0
		c0,0.1,0,0.2,0,0.3c0,0.8,0.7,1.5,1.5,1.5s1.5-0.7,1.5-1.5c0-0.7-0.5-1.3-1.1-1.4h0.1c0,0-0.1,0-0.1-0.1c0.2-0.1,0.5-0.1,0.8-0.1
		c1.9,0,3.4,1.5,3.4,3.4l0,0l0,0c0,1.9-1.5,3.4-3.4,3.4C528.5,69.3,526.9,67.7,526.9,65.8L526.9,65.8L526.9,65.8z"/>
	<path class="st7" d="M553.3,74c-0.1-0.1-0.2-0.1-0.2-0.2c-0.5-0.3-0.9-0.6-1.3-0.9c-0.1-0.1-0.2-0.1-0.3-0.2
		c-0.4-0.3-0.9-0.5-1.6-0.8c-1.2-0.5-2.8-0.8-4.5-0.9c-0.4,0-0.9,0-1.3,0s-0.9,0-1.3,0c-1.7,0.1-3.3,0.4-4.5,0.9
		c-0.6,0.2-1.1,0.5-1.6,0.8c-0.1,0.1-0.2,0.1-0.3,0.2c-0.4,0.3-0.9,0.5-1.3,0.9c-0.1,0.1-0.2,0.1-0.2,0.2c-5.2,3.5-13,0.4-13,6
		c0,5.7,5.2,10.3,11.6,10.3l0,0c0.2,0,0.4,0,0.5,0c2.6-0.1,6.4-2.3,8-3.2l0.1-0.1V87c0.3-0.2,0.5-0.3,0.6-0.4
		c0.4-0.3,0.9-0.6,1.4-0.6s0.9,0.3,1.4,0.6c0.1,0,0.3,0.2,0.6,0.4v-0.1l0.1,0.1c1.6,1,5.4,3.1,8,3.2c0.2,0,0.4,0,0.5,0l0,0
		c6.4,0,11.6-4.6,11.6-10.3C566.3,74.4,558.5,77.5,553.3,74z M550.5,80c-1.3,2.1-3.7,3.6-6.4,3.6c-2.7,0-5.1-1.4-6.4-3.6
		c-0.7-1.2-1.1-2.5-1.1-4c0-1.9,3.3-3,6.8-3.1c0.3,0,0.5,0,0.8,0s0.5,0,0.8,0c3.5,0.1,6.8,1.2,6.8,3.1
		C551.7,77.5,551.2,78.8,550.5,80z"/>
	<path class="st6" d="M554.1,90.3c0.2,0,0.4,0,0.6,0l0,0l0,0C554.5,90.3,554.3,90.3,554.1,90.3z"/>
	<path class="st1" d="M530.4,69.2c1.9,0,3.4-1.5,3.4-3.4c0-1.9-1.5-3.4-3.4-3.4c-0.2,0-0.4,0-0.7,0.1c0.6,0.2,1,0.8,1,1.4l0,0l0,0
		c0,0.8-0.7,1.5-1.5,1.5s-1.5-0.7-1.5-1.5l0,0l0,0c0-0.1,0-0.2,0-0.3c-0.5,0.6-0.8,1.3-0.8,2.2C526.9,67.7,528.5,69.2,530.4,69.2z"
		/>
	<path class="st5" d="M527.7,63.5c-0.5,0.6-0.8,1.4-0.8,2.2l0,0C526.9,65,527.2,64.2,527.7,63.5L527.7,63.5z"/>
	<path class="st5" d="M529.2,65.5c0.8,0,1.5-0.7,1.5-1.5l0,0C530.7,64.7,530,65.4,529.2,65.5c-0.8-0.1-1.5-0.7-1.5-1.6l0,0
		C527.7,64.8,528.4,65.5,529.2,65.5z"/>
	<path class="st5" d="M533.8,65.8L533.8,65.8c0-1.9-1.5-3.5-3.4-3.5c-0.3,0-0.5,0-0.8,0.1c0,0,0.1,0,0.1,0.1c0.2,0,0.4-0.1,0.7-0.1
		C532.2,62.4,533.8,63.9,533.8,65.8z"/>
	<path class="st1" d="M557.9,69.3c1.9,0,3.4-1.5,3.4-3.4c0-1.9-1.5-3.4-3.4-3.4c-0.3,0-0.5,0-0.8,0.1c0.7,0.2,1.1,0.8,1.1,1.5
		c0,0.8-0.7,1.5-1.5,1.5s-1.5-0.7-1.5-1.5c0-0.1,0-0.2,0-0.3c-0.5,0.6-0.8,1.4-0.8,2.2C554.4,67.7,556,69.3,557.9,69.3z"/>
	<path class="st5" d="M584.8,89.2c-1.5-11.6-6.1-21.8-12.9-29.4c1-0.3,2-0.8,2.8-1.6c2.5-2.5,2.5-6.6,0-9.2
		c-1.3-1.3-2.9-1.9-4.6-1.9s-3.3,0.6-4.6,1.9c-1,1-1.6,2.3-1.8,3.7c-2.9-1.9-6-3.4-9.2-4.4c0.2-0.3,0.4-0.5,0.7-0.8
		c0.2-0.3,0.5-0.5,0.8-0.7c4.1-3.6,11.1-5.4,11.1-5.4c-6.4-1.5-12.2-1.6-17.4-0.9c2.6-2.7,5.3-4.7,5.3-4.7
		c-12,1.4-20.5,6.9-26.2,12.4c-0.7,0.7-1.4,1.4-2.1,2.1s-1.3,1.4-1.8,2.1c-0.2,0.2-0.3,0.3-0.3,0.3c-0.2-1.3-0.8-2.6-1.8-3.7
		c-1.3-1.3-2.9-1.9-4.6-1.9s-3.3,0.6-4.6,1.9c-2.5,2.5-2.5,6.6,0,9.2c0.8,0.8,1.8,1.3,2.8,1.6c-6.2,6.9-10.7,16.2-12.5,26.6
		c-0.2,0.9-0.3,1.8-0.4,2.7c2.8,8.4,8.2,15.7,15.2,20.9c-0.2-0.7-0.4-1.4-0.5-2c-0.6-1.9-1.1-3.5-1.5-4.6s-0.7-1.7-0.7-1.7
		s0.4,0.6,0.9,1.6c0.6,1,1.3,2.5,2.1,4.4c0.4,1.1,0.9,2.2,1.3,3.5c3.5,2.3,7.3,4.2,11.4,5.4c2.1-5.1,6.8-9.3,12.4-9.3
		s10.3,4.2,12.4,9.3c4.1-1.2,7.9-3.1,11.4-5.4c0.4-1.3,0.9-2.5,1.3-3.5c0.8-1.9,1.6-3.3,2.1-4.4c0.6-1,0.9-1.6,0.9-1.6
		s-0.3,0.6-0.7,1.7c-0.4,1.1-1,2.7-1.5,4.6c-0.2,0.6-0.4,1.3-0.5,2C576.6,104.9,582,97.7,584.8,89.2z M557.9,59
		c3.8,0,6.9,3.1,6.9,6.9c0,3.8-3.1,6.9-6.9,6.9c-0.4,0-0.8,0-1.2-0.1c-0.7-0.3-1.4-0.6-2-1c-0.7-0.5-1.4-1-2.1-1.3
		c-1-1.2-1.6-2.7-1.6-4.4C551,62,554.1,59,557.9,59z M530.4,59c3.8,0,6.9,3.1,6.9,6.9c0,1.7-0.6,3.2-1.6,4.4
		c-0.7,0.4-1.4,0.8-2.1,1.3c-0.6,0.4-1.3,0.8-2,1c-0.4,0.1-0.8,0.1-1.2,0.1c-3.8,0-6.9-3.1-6.9-6.9C523.5,62,526.6,59,530.4,59z
		 M518.1,56.7c-1.7,0-3-1.4-3-3c0-1.7,1.4-3,3-3c1.7,0,3,1.4,3,3S519.8,56.7,518.1,56.7z M542.8,95.5c0,1.5-1,2.6-2.3,2.6H537
		c-0.9,0-1.8-0.6-2.1-1.6c-0.5-1.3-0.8-2.6-1-4c2.5-0.1,4.9-0.8,7-1.9c0.7-0.4,1.3-0.8,1.9-1.3V95.5z M553.4,96.5
		c-0.4,1-1.2,1.6-2.1,1.6h-3.5c-1.3,0-2.3-1.2-2.3-2.6v-6.3c0.6,0.5,1.2,0.9,1.9,1.3c2.1,1.2,4.5,1.9,7,1.9
		C554.2,93.9,553.9,95.3,553.4,96.5z M554.7,90.3L554.7,90.3c-0.2,0-0.4,0-0.6,0c-3.1-0.1-5.9-1.3-8-3.2c0,0-0.1,0-0.1-0.1l0.1,0.1
		c0,0-0.3-0.2-0.6-0.5c-0.4-0.3-0.9-0.6-1.4-0.6s-0.9,0.3-1.4,0.6c-0.4,0.3-0.6,0.5-0.6,0.5l0.1-0.1c0,0-0.1,0-0.1,0.1
		c-2,1.9-4.8,3.1-8,3.2c-0.2,0-0.4,0-0.6,0l0,0c-6.4,0-11.6-4.6-11.6-10.3c0-5.6,7.8-2.5,13-6c0.1-0.1,0.2-0.1,0.2-0.2
		c0.5-0.3,0.9-0.6,1.3-0.9c0.1-0.1,0.2-0.1,0.3-0.2c0.4-0.3,0.9-0.5,1.6-0.8c1.2-0.5,2.8-0.8,4.5-0.9c0.4,0,0.9,0,1.3,0s0.9,0,1.3,0
		c1.7,0.1,3.3,0.4,4.5,0.9c0.6,0.2,1.1,0.5,1.6,0.8c0.1,0.1,0.2,0.1,0.3,0.2c0.4,0.3,0.9,0.5,1.3,0.9c0.1,0.1,0.2,0.1,0.2,0.2
		c5.2,3.5,13,0.4,13,6C566.3,85.7,561.1,90.3,554.7,90.3z M570.1,56.7c-1.7,0-3-1.4-3-3c0-1.7,1.4-3,3-3c1.7,0,3,1.4,3,3
		S571.8,56.7,570.1,56.7z M573.3,100.8c-0.1-0.3-4.3,1.9-3.9,8.9"/>
	<path class="st5" d="M554.1,90.3c-2.6-0.1-6.4-2.3-8-3.2C548.2,88.9,551,90,554.1,90.3z"/>
	<path class="st5" d="M542.1,87c0,0,0.3-0.2,0.6-0.5c-0.1,0-0.3,0.2-0.6,0.4V87z"/>
	<path class="st5" d="M546.1,87l-0.1-0.1c-0.3-0.2-0.5-0.3-0.6-0.4C545.8,86.9,546.1,87,546.1,87z"/>
	<path class="st5" d="M542.1,87c-1.6,1-5.4,3.1-8,3.2C537.2,90,540.1,88.9,542.1,87z"/>
	<path class="st1" d="M544.9,72.9c-0.3,0-0.5,0-0.8,0s-0.5,0-0.8,0c-3.5,0.1-6.8,1.2-6.8,3.1c0,1.5,0.4,2.8,1.1,4
		c1.3,2.1,3.7,3.6,6.4,3.6c2.7,0,5.1-1.4,6.4-3.6c0.7-1.2,1.1-2.5,1.1-4C551.7,74,548.4,73,544.9,72.9z"/>
	<path class="st7" d="M556.5,116.7c-2.1-5.1-6.8-9.3-12.4-9.3s-10.3,4.2-12.4,9.3c3.9,1.2,8.1,1.8,12.4,1.8S552.6,117.9,556.5,116.7
		z"/>
	<path class="st7" d="M518.1,50.5c-1.7,0-3,1.4-3,3c0,1.7,1.4,3,3,3c1.7,0,3-1.4,3-3C521.1,52,519.8,50.5,518.1,50.5z"/>
	<path class="st7" d="M573.1,53.5c0-1.7-1.4-3-3-3c-1.7,0-3,1.4-3,3c0,1.7,1.4,3,3,3C571.8,56.7,573.1,55.3,573.1,53.5z"/>
	<g>
		<path class="st18" d="M544.1,22.9L544.1,22.9c-5,0-11.1,4.8-15.2,11.2c-4.5,7-5.5,16.7-4.7,17.9c3,4.6,19.9,4.2,19.9,4.2l0,0
			c0,0,16.9,0.4,19.9-4.2c0.8-1.1-0.2-10.8-4.7-17.9C555.2,27.5,549.1,22.9,544.1,22.9z"/>
		<path class="st7" d="M535.2,26.8c0,0,3.8,16.9,0,20.2c-2,1.8-10.7-1.6-10.7-1.6c-0.2,0.9-0.3,1.8-0.4,2.6c0,0,10.5,3.7,13.1,1.4
			c4.8-4.1,0.7-24.6,0.7-24.6C537,25.4,536.1,26,535.2,26.8z"/>
		<path class="st7" d="M553,47c-3.8-3.3,0-20.2,0-20.2c-0.9-0.7-1.8-1.4-2.7-2c0,0-4.1,20.5,0.7,24.6c2.6,2.3,13.1-1.4,13.1-1.4
			c-0.1-0.8-0.2-1.7-0.4-2.6C563.6,45.5,555,48.8,553,47z"/>
		<path class="st7" d="M544,36.8c-0.9,0-1.7,0.7-1.7,1.7c0,0.9,0.7,1.7,1.7,1.7c0.9,0,1.7-0.7,1.7-1.7
			C545.7,37.5,544.9,36.8,544,36.8z"/>
		<path class="st7" d="M544,30c-0.9,0-1.7,0.7-1.7,1.7c0,0.9,0.7,1.7,1.7,1.7c0.9,0,1.7-0.7,1.7-1.7C545.7,30.9,544.9,30,544,30z"/>
		<path class="st7" d="M543.9,43.5c-0.9,0-1.7,0.7-1.7,1.7c0,0.9,0.7,1.7,1.7,1.7c0.9,0,1.7-0.7,1.7-1.7
			C545.6,44.3,544.8,43.5,543.9,43.5z"/>
		<path class="st7" d="M564.1,48.9c0,0.3-0.1,0.5-0.2,0.6c-3,4.6-19.9,4.2-19.9,4.2l0,0c0,0-16.9,0.4-19.9-4.2
			c-0.1-0.1-0.1-0.3-0.2-0.6c-0.9,0.1-1.2,1.8-0.6,2.9c2.8,4.7,20.6,4.3,20.6,4.3l0,0c0,0,17.9,0.4,20.6-4.3
			C565.4,50.7,565,49,564.1,48.9z"/>
		<path class="st19" d="M544.1,11.5L544.1,11.5c-0.9,0-4.1,12.2-4.1,12.2h4.1l0,0h4.1C548.2,23.8,545,11.5,544.1,11.5z"/>
		<path class="st19" d="M521.1,26.5c-4.7-4.5-4.8-15.9-4.6-17.7c0.2-1.8,2-5.7,0.5-6.3c-1.5-0.5-7.7,8.3-5.5,22.3
			s13.2,19.7,13.2,19.7s2.3-1.4,4.8-6.1c2.4-4.6,1.9-7.7,1.9-7.7S525.8,31,521.1,26.5z"/>
		<path class="st19" d="M571.2,2.5c-1.5,0.5,0.3,4.5,0.5,6.3s0.1,13.2-4.6,17.7s-10.3,4.2-10.3,4.2s-0.6,3.1,1.9,7.7
			c2.5,4.7,4.8,6.1,4.8,6.1s11-5.7,13.2-19.7S572.6,2,571.2,2.5z"/>
		<path class="st7" d="M548.2,22.9h-8.4c-0.5,0-0.8,0.4-0.8,0.8s0.4,0.8,0.8,0.8h8.4c0.5,0,0.8-0.4,0.8-0.8S548.6,22.9,548.2,22.9z"
			/>
	</g>
	<g>
		<ellipse class="st5" cx="529.4" cy="70.5" rx="8.7" ry="3"/>
		<ellipse class="st5" cx="558.8" cy="70.5" rx="8.7" ry="3"/>
	</g>
</g>
</svg>
