<?xml version="1.0" encoding="utf-8"?>
<!-- Generator: Adobe Illustrator 25.2.0, SVG Export Plug-In . SVG Version: 6.00 Build 0)  -->
<svg version="1.1" id="Layer_1" xmlns="http://www.w3.org/2000/svg" xmlns:xlink="http://www.w3.org/1999/xlink" x="0px" y="0px"
	 viewBox="0 0 1509.7 841.9" style="enable-background:new 0 0 1509.7 841.9;" xml:space="preserve">
<style type="text/css">
	.st0{fill:#422513;}
	.st1{fill:#FABA29;}
	.st2{fill:#F04A23;}
	.st3{fill:#FFFFFF;}
	.st4{fill:#FCBD2C;}
</style>
<g>
	<path class="st0" d="M734,526L734,526c0-0.1,0-0.2,0-0.3v-1.1c0-1.2-0.6-1.7-1.9-1.7h-1.8c-1.2,0-2.1,0.1-2.6,0.1c-2,0-3-0.2-3-0.6
		c0-2.8,0.2-6.5,0.5-11.1c0.3-5,0.5-8.7,0.5-11.1h-1.6c-2.5,0-4.5,0.2-6.1,0.5l-2.3,34.3c4.2-0.3,6.9-0.5,8-0.4l1.8,0.1
		c1.2,0,2.2,0.1,2.8,0.1c4.2,0,6.2-0.6,6.2-1.9c0-0.8-0.1-1.9-0.3-3.4S734,526.8,734,526z"/>
	<path class="st0" d="M828.4,502.1c-2-1.8-4.3-2.7-7-2.7c-3.7,0-6.7,1-9,2.9s-3.6,4.7-4.1,8.3c0.3,2.4,1.4,4.5,3.3,6.3
		c0.7,0.6,1.5,1.3,2.5,2c0.9,0.6,1.8,1.2,2.7,1.8c1.8,1.2,2.7,2.3,2.7,3.2c0,1.6-0.8,2.4-2.4,2.4h-0.4c-0.1,0-0.2,0-0.3,0
		c-0.5-0.7-0.9-1.3-1.1-2c-0.1-0.2-0.2-0.8-0.3-1.6h-4.4c-1.3,0-2.4,0-3.3,0c-0.2,0.9-0.4,2.1-0.4,3.8c0,3.4,1.1,5.7,3.2,6.9
		c1.7,1,4.3,1.5,7.8,1.5c3.2,0,5.9-1,8-2.9s3.1-4.5,3.1-7.7s-1-5.9-2.9-7.8c-1-1-2.8-2.2-5.4-3.6c-1.9-1-2.9-2-2.9-3
		c0-0.6,0.3-1.2,0.8-1.6s1.1-0.7,1.8-0.7c0.8,0,1.4,0.4,1.8,1.2l0.9,2.1c4.2-0.9,6.9-1.5,8.2-1.9
		C831.4,506.1,830.4,503.9,828.4,502.1z"/>
	<path class="st0" d="M831.4,508.8L831.4,508.8L831.4,508.8L831.4,508.8z"/>
	<path class="st0" d="M757,499.3c-2.7,0-5.5,1-8.3,3c-2.6,1.8-4.8,4.1-6.5,6.8c-1.9,3-2.9,6-2.9,8.8c0,5.3,1.7,9.5,5,12.5
		c3.2,2.9,7.5,4.4,12.9,4.4c4.5,0,8.4-1.7,11.5-5s4.6-7.2,4.6-11.8c0-5.8-1.2-10.3-3.7-13.4C766.8,501.1,762.6,499.3,757,499.3z
		 M761.5,520.6c-1.3,1.8-3,2.7-5.1,2.7c-1.9,0-3.5-0.5-4.7-1.6s-1.8-2.6-1.8-4.5c0-2,0.8-4,2.3-5.8c1.6-2,3.4-2.9,5.4-2.9
		c1.8,0,3.3,0.6,4.3,1.9c1,1.2,1.5,2.7,1.5,4.6C763.2,517.1,762.6,519,761.5,520.6z"/>
	<path class="st0" d="M795,511.1c-2.1,0.1-3.8,0.3-5.3,0.8c-0.3,1.1-0.4,1.9-0.4,2.4c0,1.3,0.2,2.3,0.6,2.8c1.4,0.1,2.5,0.2,3.2,0.3
		v9c-2.5-0.8-4.1-1.5-4.8-2.4c-0.8-1-1.2-2.9-1.2-5.6c0-3.1,0.7-5.9,2-8.2c1.6-2.7,3.8-4.1,6.5-4.1c0.4,0,1,0.1,1.6,0.3l1.6,0.5
		c1.2-1.6,2-3.6,2.2-6.1c-2.1-1-3.6-1.5-4.4-1.5c-6.3,0-11,1.6-13.9,4.8c-2.8,3.1-4.3,7.8-4.3,14.2c0,4.8,1.5,8.7,4.5,11.8
		s6.9,4.7,11.6,4.7c0.9,0,2.2-0.2,3.8-0.6c1.9-0.5,2.9-1.1,2.9-1.7c0-8.6-0.3-15.8-0.8-21.6L795,511.1z"/>
	<path class="st0" d="M930.8,500.6l-4.9-0.4c-3.3-0.3-5.5-0.4-6.8-0.4c-5.2,0-9.1,0.2-11.8,0.6c-0.5,3.5-1,6.3-1.4,8.3
		c3.3,0.4,5.8,0.8,7.5,1l-1.7,25c2.3-0.2,4.3-0.4,5.8-0.5c2.6-0.2,4.6-0.3,5.9-0.5c-0.4-3.8-0.7-7.8-0.9-11.9l-0.5-12
		c5.6,0,9.2,0,10.6-0.1c0.2-1.1,0.2-2.8,0.2-5.2c0-2.2-0.1-3.5-0.3-3.8C932.2,500.7,931.5,500.7,930.8,500.6z"/>
	<path class="st0" d="M858.9,501.6c-2.3-1.5-5.2-2.3-8.6-2.3c-4.5,0-8.8,0.7-12.9,2c0,2.8-0.2,7.7-0.6,14.7
		c-0.4,6.5-0.6,11.4-0.6,14.6c0,1.9,0.2,3.3,0.7,4.2c3.4-0.7,5.4-1.1,6.1-1.2l4.5-0.9c0-0.7-0.1-2.4-0.4-5.3
		c-0.2-1.9-0.3-3.3-0.3-4.3c0-0.4,0-0.7,0-1c3.4-1.3,5.8-2.1,7-2.6c6.1-2.3,9.1-5.8,9.1-10.5C863,505.9,861.6,503.4,858.9,501.6z
		 M850.2,512.7c-2,0.8-3.2,1.2-3.5,1.3c-0.1-0.9-0.1-1.8-0.2-2.8c-0.1-1.2-0.3-2.1-0.5-2.6c1.7-0.2,3.2-0.3,4.3-0.3
		c0.4,0,0.9,0.2,1.4,0.7s0.8,0.9,0.8,1.4C852.6,511.3,851.8,512.1,850.2,512.7z"/>
	<path class="st0" d="M884.6,499.3c-2.7,0-5.5,1-8.3,3c-2.6,1.8-4.8,4.1-6.5,6.8c-1.9,3-2.9,6-2.9,8.8c0,5.3,1.7,9.5,5,12.5
		c3.2,2.9,7.5,4.4,12.9,4.4c4.5,0,8.4-1.7,11.5-5s4.6-7.2,4.6-11.8c0-5.8-1.2-10.3-3.7-13.4C894.5,501.1,890.3,499.3,884.6,499.3z
		 M889.1,520.6c-1.3,1.8-3,2.7-5.1,2.7c-1.9,0-3.5-0.5-4.7-1.6s-1.8-2.6-1.8-4.5c0-2,0.8-4,2.3-5.8c1.6-2,3.4-2.9,5.4-2.9
		c1.8,0,3.3,0.6,4.3,1.9c1,1.2,1.5,2.7,1.5,4.6C890.9,517.1,890.3,519,889.1,520.6z"/>
	<path class="st0" d="M830.6,503.1L830.6,503.1L830.6,503.1L830.6,503.1L830.6,503.1z"/>
	<path class="st0" d="M830.8,503.2l-0.1-0.1L830.8,503.2L830.8,503.2z"/>
</g>
<g>
	<circle class="st0" cx="658.9" cy="517.1" r="38.6"/>
	<path class="st1" d="M660.6,526.8L660.6,526.8L660.6,526.8L660.6,526.8z"/>
	<path class="st2" d="M635.2,503.7c-0.9-0.2-1.7-0.7-2.4-1.4c-2.2-2.2-2.2-5.7,0-7.8c1.1-1.1,2.5-1.6,3.9-1.6s2.8,0.5,3.9,1.6
		c0.9,0.9,1.4,2,1.6,3.1c0,0,0.1-0.1,0.2-0.2c0.5-0.6,1-1.2,1.6-1.8c0.6-0.6,1.2-1.2,1.8-1.8c4.9-4.7,12.2-9.3,22.4-10.6
		c0,0-2.3,1.6-4.5,4c4.4-0.7,9.4-0.6,14.9,0.7c0,0-6,1.6-9.5,4.6c-0.2,0.2-0.5,0.4-0.7,0.6s-0.4,0.4-0.6,0.7
		c2.8,0.9,5.4,2.2,7.9,3.8c0.2-1.1,0.7-2.2,1.6-3.1c1.1-1.1,2.5-1.6,3.9-1.6s2.8,0.5,3.9,1.6c2.2,2.2,2.2,5.7,0,7.8
		c-0.7,0.7-1.5,1.1-2.4,1.4c5.8,6.4,9.8,15.2,11,25.1c1.2-3.7,1.9-7.6,1.9-11.6c0-20.3-16.4-36.7-36.7-36.7s-36.7,16.4-36.7,36.7
		c0,4.1,0.7,8,1.9,11.6c0.1-0.8,0.2-1.6,0.3-2.3C626.1,517.5,629.9,509.6,635.2,503.7z"/>
	<path class="st1" d="M657.2,526.9C657.2,526.8,657.3,526.8,657.2,526.9L657.2,526.9C657.3,526.8,657.2,526.8,657.2,526.9z"/>
	<path class="st1" d="M646.6,505.9L646.6,505.9c0.5,0.2,0.9,0.6,0.9,1.2l0,0C647.5,506.5,647.1,506,646.6,505.9z"/>
	<path class="st1" d="M644.9,507.1c0-0.1,0-0.2,0-0.3l0,0C644.9,506.9,644.9,507,644.9,507.1L644.9,507.1z"/>
	<path class="st0" d="M635.6,540.9c-0.5-0.9-0.8-1.4-0.8-1.4s0.2,0.5,0.6,1.5c0.3,0.9,0.8,2.3,1.3,3.9c0.2,0.5,0.3,1.1,0.5,1.7
		c0.5,0.3,0.9,0.7,1.4,1c-0.3-1.1-0.7-2.1-1.1-3C636.8,543,636.1,541.7,635.6,540.9z"/>
	<path class="st0" d="M682.5,541c0.3-0.9,0.6-1.5,0.6-1.5s-0.3,0.5-0.8,1.4s-1.1,2.1-1.8,3.7c-0.4,0.9-0.8,1.9-1.1,3
		c0.5-0.3,1-0.7,1.4-1c0.1-0.6,0.3-1.2,0.5-1.7C681.7,543.3,682.1,541.9,682.5,541z"/>
	<path class="st1" d="M647.2,511.7c1.6,0,2.9-1.3,2.9-2.9l0,0C650.1,510.3,648.8,511.6,647.2,511.7c-1.6-0.1-2.9-1.4-2.9-3l0,0
		C644.3,510.4,645.6,511.7,647.2,511.7z"/>
	<path class="st3" d="M649.9,529.6L649.9,529.6c0.2,0,0.3,0,0.5,0C650.2,529.6,650.1,529.6,649.9,529.6L649.9,529.6z"/>
	<path class="st3" d="M650.1,531.5c0.2,1.2,0.5,2.4,0.9,3.4c0.3,0.8,1,1.4,1.8,1.4h3c1.1,0,2-1,2-2.3v-5.4c-0.5,0.4-1.1,0.8-1.6,1.1
		C654.3,530.9,652.3,531.4,650.1,531.5z"/>
	<path class="st3" d="M660.1,528.7v5.4c0,1.2,0.9,2.3,2,2.3h3c0.8,0,1.5-0.5,1.8-1.4c0.4-1.1,0.7-2.2,0.9-3.4
		c-2.1-0.1-4.2-0.6-6-1.7C661.2,529.5,660.6,529.1,660.1,528.7z"/>
	<path class="st3" d="M668,513.6c0.5,0.4,1.1,0.7,1.7,0.9c0.3,0.1,0.7,0.1,1,0.1c3.2,0,5.9-2.6,5.9-5.9c0-3.2-2.6-5.9-5.9-5.9
		c-3.2,0-5.9,2.6-5.9,5.9c0,1.4,0.5,2.7,1.4,3.7C666.8,512.8,667.3,513.2,668,513.6z M668.5,506.8c0,0.1,0,0.2,0,0.3
		c0,0.7,0.6,1.3,1.3,1.3s1.3-0.6,1.3-1.3c0-0.6-0.4-1.1-1-1.3c0.2,0,0.4-0.1,0.7-0.1c1.6,0,2.9,1.3,2.9,2.9s-1.3,2.9-2.9,2.9
		c-1.6,0-2.9-1.3-2.9-2.9C667.8,508,668,507.4,668.5,506.8z"/>
	<path class="st3" d="M647.2,514.6c0.3,0,0.7,0,1-0.1c0.6-0.2,1.2-0.5,1.7-0.9c0.6-0.4,1.2-0.8,1.8-1.1c0.8-1,1.4-2.3,1.4-3.7
		c0-3.2-2.6-5.9-5.9-5.9c-3.2,0-5.9,2.6-5.9,5.9C641.3,512,644,514.6,647.2,514.6z M644.3,508.7c0-0.7,0.3-1.4,0.7-1.9
		c0,0,0,0,0,0.1l0,0c0,0.1,0,0.2,0,0.3c0,0.7,0.6,1.3,1.3,1.3s1.3-0.6,1.3-1.3c0-0.6-0.4-1.1-1-1.2h0.1h-0.1c0.2,0,0.4-0.1,0.7-0.1
		c1.6,0,2.9,1.3,2.9,2.9l0,0l0,0c0,1.6-1.3,2.9-2.9,2.9C645.6,511.7,644.3,510.4,644.3,508.7L644.3,508.7L644.3,508.7z"/>
	<path class="st4" d="M666.8,515.7c-0.1,0-0.1-0.1-0.2-0.1c-0.4-0.3-0.8-0.5-1.1-0.8c-0.1-0.1-0.2-0.1-0.2-0.2
		c-0.4-0.2-0.8-0.5-1.3-0.7c-1.1-0.4-2.4-0.6-3.8-0.7c-0.4,0-0.7,0-1.1,0c-0.4,0-0.8,0-1.1,0c-1.4,0.1-2.8,0.3-3.8,0.7
		c-0.5,0.2-1,0.4-1.3,0.7c-0.1,0.1-0.2,0.1-0.2,0.2c-0.4,0.2-0.7,0.5-1.1,0.8c-0.1,0.1-0.1,0.1-0.2,0.1c-4.5,3-11.1,0.4-11.1,5.1
		c0,4.9,4.5,8.8,10,8.8l0,0c0.2,0,0.3,0,0.5,0c2.2-0.1,5.5-1.9,6.8-2.8l0.1-0.1l0,0c0.3-0.2,0.4-0.3,0.5-0.3
		c0.4-0.2,0.8-0.5,1.2-0.5s0.8,0.3,1.2,0.5c0.1,0,0.2,0.2,0.5,0.3l0,0l0.1,0.1c1.3,0.8,4.6,2.7,6.8,2.8c0.2,0,0.3,0,0.5,0l0,0
		c5.5,0,10-4,10-8.8C677.9,516,671.3,518.7,666.8,515.7z M664.4,520.8c-1.1,1.8-3.2,3.1-5.5,3.1s-4.4-1.2-5.5-3.1
		c-0.6-1-1-2.1-1-3.4c0-1.7,2.8-2.5,5.8-2.7c0.2,0,0.5,0,0.7,0s0.5,0,0.7,0c3,0.1,5.8,1,5.8,2.7C665.4,518.7,665,519.8,664.4,520.8z
		"/>
	<path class="st3" d="M667.5,529.6c0.2,0,0.3,0,0.5,0l0,0l0,0C667.8,529.6,667.6,529.6,667.5,529.6z"/>
	<path class="st0" d="M647.2,511.6c1.6,0,2.9-1.3,2.9-2.9s-1.3-2.9-2.9-2.9c-0.2,0-0.4,0-0.6,0.1c0.5,0.2,0.9,0.6,0.9,1.2l0,0l0,0
		c0,0.7-0.6,1.3-1.3,1.3s-1.3-0.6-1.3-1.3l0,0l0,0c0-0.1,0-0.1,0-0.2c-0.4,0.5-0.7,1.1-0.7,1.9C644.3,510.3,645.6,511.6,647.2,511.6
		z"/>
	<path class="st0" d="M645,506.8c-0.4,0.5-0.7,1.2-0.7,1.9l0,0C644.3,508,644.5,507.4,645,506.8C644.9,506.8,644.9,506.8,645,506.8z
		"/>
	<path class="st0" d="M646.2,508.4c0.7,0,1.3-0.6,1.3-1.3l0,0C647.5,507.8,646.9,508.4,646.2,508.4c-0.7-0.1-1.3-0.6-1.3-1.3l0,0
		C644.9,507.8,645.5,508.4,646.2,508.4z"/>
	<path class="st0" d="M650.1,508.7L650.1,508.7c0-1.6-1.3-3-2.9-3c-0.2,0-0.4,0-0.7,0.1h0.1c0.2,0,0.4-0.1,0.6-0.1
		C648.8,505.8,650.1,507.1,650.1,508.7z"/>
	<path class="st0" d="M670.7,511.7c1.6,0,2.9-1.3,2.9-2.9s-1.3-2.9-2.9-2.9c-0.2,0-0.4,0-0.7,0.1c0.6,0.1,1,0.6,1,1.3
		c0,0.7-0.6,1.3-1.3,1.3s-1.3-0.6-1.3-1.3c0-0.1,0-0.2,0-0.3c-0.4,0.5-0.7,1.2-0.7,1.9C667.8,510.4,669.1,511.7,670.7,511.7z"/>
	<path class="st0" d="M693.7,528.7c-1.3-9.9-5.3-18.6-11-25.1c0.9-0.2,1.7-0.7,2.4-1.4c2.2-2.2,2.2-5.7,0-7.8
		c-1.1-1.1-2.5-1.6-3.9-1.6s-2.8,0.5-3.9,1.6c-0.9,0.9-1.4,2-1.6,3.1c-2.5-1.6-5.1-2.9-7.9-3.8c0.2-0.2,0.4-0.4,0.6-0.7
		c0.2-0.2,0.4-0.4,0.7-0.6c3.5-3.1,9.5-4.6,9.5-4.6c-5.5-1.3-10.5-1.4-14.9-0.7c2.2-2.3,4.5-4,4.5-4c-10.2,1.2-17.5,5.9-22.4,10.6
		c-0.6,0.6-1.2,1.2-1.8,1.8c-0.6,0.6-1.1,1.2-1.6,1.8c-0.2,0.2-0.2,0.2-0.2,0.2c-0.2-1.1-0.7-2.2-1.6-3.1c-1.1-1.1-2.5-1.6-3.9-1.6
		s-2.8,0.5-3.9,1.6c-2.2,2.2-2.2,5.7,0,7.8c0.7,0.7,1.5,1.1,2.4,1.4c-5.3,5.9-9.1,13.8-10.7,22.7c-0.1,0.8-0.2,1.6-0.3,2.3
		c2.4,7.2,7,13.4,13,17.9c-0.1-0.6-0.3-1.2-0.5-1.7c-0.5-1.6-0.9-3-1.3-3.9c-0.3-0.9-0.6-1.5-0.6-1.5s0.3,0.5,0.8,1.4
		s1.1,2.1,1.8,3.7c0.4,0.9,0.8,1.9,1.1,3c3,2,6.3,3.6,9.8,4.6c1.8-4.4,5.9-7.9,10.6-7.9c4.8,0,8.8,3.6,10.6,7.9
		c3.5-1.1,6.8-2.6,9.8-4.6c0.3-1.1,0.7-2.1,1.1-3c0.7-1.6,1.3-2.9,1.8-3.7c0.5-0.9,0.8-1.4,0.8-1.4s-0.2,0.5-0.6,1.5
		c-0.3,0.9-0.8,2.3-1.3,3.9c-0.2,0.5-0.3,1.1-0.5,1.7C686.7,542.2,691.3,536,693.7,528.7z M670.7,502.9c3.2,0,5.9,2.6,5.9,5.9
		c0,3.2-2.6,5.9-5.9,5.9c-0.3,0-0.7,0-1-0.1c-0.6-0.2-1.2-0.5-1.7-0.9c-0.6-0.4-1.2-0.8-1.8-1.1c-0.8-1-1.4-2.3-1.4-3.7
		C664.8,505.5,667.5,502.9,670.7,502.9z M647.2,502.9c3.2,0,5.9,2.6,5.9,5.9c0,1.4-0.5,2.7-1.4,3.7c-0.6,0.3-1.2,0.7-1.8,1.1
		c-0.5,0.4-1.1,0.7-1.7,0.9c-0.3,0.1-0.7,0.1-1,0.1c-3.2,0-5.9-2.6-5.9-5.9C641.3,505.5,644,502.9,647.2,502.9z M636.7,500.9
		c-1.4,0-2.6-1.2-2.6-2.6s1.2-2.6,2.6-2.6c1.4,0,2.6,1.2,2.6,2.6C639.3,499.7,638.1,500.9,636.7,500.9z M657.8,534.1
		c0,1.2-0.9,2.3-2,2.3h-3c-0.8,0-1.5-0.5-1.8-1.4c-0.4-1.1-0.7-2.2-0.9-3.4c2.1-0.1,4.2-0.6,6-1.7c0.6-0.3,1.1-0.7,1.6-1.1v5.3
		H657.8z M666.9,535c-0.3,0.8-1,1.4-1.8,1.4h-3c-1.1,0-2-1-2-2.3v-5.4c0.5,0.4,1.1,0.8,1.6,1.1c1.8,1,3.9,1.6,6,1.7
		C667.6,532.7,667.3,533.9,666.9,535z M668,529.6L668,529.6c-0.2,0-0.3,0-0.5,0c-2.7-0.1-5.1-1.2-6.8-2.8c0,0-0.1,0-0.1-0.1l0.1,0.1
		c0,0-0.2-0.2-0.6-0.4c-0.4-0.2-0.8-0.5-1.2-0.5s-0.8,0.3-1.2,0.5c-0.3,0.2-0.6,0.4-0.6,0.4l0.1-0.1c0,0-0.1,0-0.1,0.1
		c-1.7,1.6-4.1,2.7-6.8,2.8c-0.2,0-0.3,0-0.5,0l0,0c-5.5,0-10-4-10-8.8s6.6-2.1,11.1-5.1c0.1,0,0.1-0.1,0.2-0.1
		c0.4-0.3,0.8-0.5,1.1-0.8c0.1-0.1,0.2-0.1,0.2-0.2c0.4-0.2,0.8-0.5,1.3-0.7c1.1-0.4,2.4-0.6,3.8-0.7c0.4,0,0.7,0,1.1,0
		c0.4,0,0.8,0,1.1,0c1.4,0.1,2.8,0.3,3.8,0.7c0.5,0.2,1,0.4,1.3,0.7c0.1,0.1,0.2,0.1,0.2,0.2c0.4,0.2,0.7,0.5,1.1,0.8
		c0.1,0.1,0.1,0.1,0.2,0.1c4.4,3,11.1,0.4,11.1,5.1C677.9,525.7,673.5,529.6,668,529.6z M681.2,500.9c-1.4,0-2.6-1.2-2.6-2.6
		s1.2-2.6,2.6-2.6c1.4,0,2.6,1.2,2.6,2.6C683.8,499.7,682.6,500.9,681.2,500.9z M683.9,538.7c0,0-3.3,3.6-3.7,8.3"/>
	<path class="st0" d="M667.5,529.6c-2.2-0.1-5.5-1.9-6.8-2.8C662.4,528.5,664.8,529.5,667.5,529.6z"/>
	<path class="st0" d="M657.2,526.9c0,0,0.2-0.2,0.6-0.4c-0.1,0-0.2,0.2-0.5,0.3L657.2,526.9z"/>
	<path class="st0" d="M660.7,526.9L660.7,526.9c-0.4-0.3-0.5-0.4-0.6-0.4C660.4,526.7,660.7,526.9,660.7,526.9z"/>
	<path class="st0" d="M657.2,526.9c-1.3,0.8-4.6,2.7-6.8,2.8C653.1,529.5,655.5,528.5,657.2,526.9z"/>
	<path class="st0" d="M659.6,514.8c-0.2,0-0.5,0-0.7,0s-0.5,0-0.7,0c-3,0.1-5.8,1-5.8,2.7c0,1.2,0.4,2.4,1,3.4
		c1.1,1.8,3.2,3.1,5.5,3.1s4.3-1.2,5.5-3.1c0.6-1,1-2.1,1-3.4C665.4,515.8,662.6,514.9,659.6,514.8z"/>
	<path class="st4" d="M669.6,552.2c-1.8-4.4-5.9-7.9-10.6-7.9c-4.8,0-8.8,3.6-10.6,7.9c3.4,1,6.9,1.6,10.6,1.6
		C662.6,553.8,666.2,553.2,669.6,552.2z"/>
	<path class="st4" d="M636.7,495.7c-1.4,0-2.6,1.2-2.6,2.6s1.2,2.6,2.6,2.6c1.4,0,2.6-1.2,2.6-2.6
		C639.3,496.9,638.1,495.7,636.7,495.7z"/>
	<path class="st4" d="M683.8,498.3c0-1.4-1.2-2.6-2.6-2.6c-1.4,0-2.6,1.2-2.6,2.6s1.2,2.6,2.6,2.6S683.8,499.7,683.8,498.3z"/>
</g>
</svg>
