<?xml version="1.0" encoding="utf-8"?>
<!-- Generator: Adobe Illustrator 25.2.0, SVG Export Plug-In . SVG Version: 6.00 Build 0)  -->
<svg version="1.1" id="Layer_1" xmlns="http://www.w3.org/2000/svg" xmlns:xlink="http://www.w3.org/1999/xlink" x="0px" y="0px"
	 viewBox="0 0 312.5 77.2" style="enable-background:new 0 0 312.5 77.2;" xml:space="preserve">
<style type="text/css">
	.st0{fill:#422513;}
	.st1{fill:#FABA29;}
	.st2{fill:#F04A23;}
	.st3{fill:#FFFFFF;}
	.st4{fill:#FCBD2C;}
</style>
<g>
	<path class="st0" d="M113.7,47.5L113.7,47.5c0-0.1,0-0.2,0-0.3v-1.1c0-1.2-0.6-1.7-1.9-1.7H110c-1.2,0-2.1,0.1-2.6,0.1
		c-2,0-3-0.2-3-0.6c0-2.8,0.2-6.5,0.5-11.1c0.3-5,0.5-8.7,0.5-11.1h-1.6c-2.5,0-4.5,0.2-6.1,0.5l-2.3,34.3c4.2-0.3,6.9-0.5,8-0.4
		l1.8,0.1c1.2,0,2.2,0.1,2.8,0.1c4.2,0,6.2-0.6,6.2-1.9c0-0.8-0.1-1.9-0.3-3.4S113.7,48.3,113.7,47.5z"/>
	<path class="st0" d="M208.1,23.6c-2-1.8-4.3-2.7-7-2.7c-3.7,0-6.7,1-9,2.9s-3.6,4.7-4.1,8.3c0.3,2.4,1.4,4.5,3.3,6.3
		c0.7,0.6,1.5,1.3,2.5,2c0.9,0.6,1.8,1.2,2.7,1.8c1.8,1.2,2.7,2.3,2.7,3.2c0,1.6-0.8,2.4-2.4,2.4h-0.4c-0.1,0-0.2,0-0.3,0
		c-0.5-0.7-0.9-1.3-1.1-2c-0.1-0.2-0.2-0.8-0.3-1.6h-4.4c-1.3,0-2.4,0-3.3,0c-0.2,0.9-0.4,2.1-0.4,3.8c0,3.4,1.1,5.7,3.2,6.9
		c1.7,1,4.3,1.5,7.8,1.5c3.2,0,5.9-1,8-2.9s3.1-4.5,3.1-7.7s-1-5.9-2.9-7.8c-1-1-2.8-2.2-5.4-3.6c-1.9-1-2.9-2-2.9-3
		c0-0.6,0.3-1.2,0.8-1.6s1.1-0.7,1.8-0.7c0.8,0,1.4,0.4,1.8,1.2l0.9,2.1c4.2-0.9,6.9-1.5,8.2-1.9C211.1,27.6,210.1,25.4,208.1,23.6z
		"/>
	<path class="st0" d="M211.1,30.3L211.1,30.3L211.1,30.3L211.1,30.3z"/>
	<path class="st0" d="M136.7,20.8c-2.7,0-5.5,1-8.3,3c-2.6,1.8-4.8,4.1-6.5,6.8c-1.9,3-2.9,6-2.9,8.8c0,5.3,1.7,9.5,5,12.5
		c3.2,2.9,7.5,4.4,12.9,4.4c4.5,0,8.4-1.7,11.5-5s4.6-7.2,4.6-11.8c0-5.8-1.2-10.3-3.7-13.4C146.5,22.6,142.3,20.8,136.7,20.8z
		 M141.2,42.1c-1.3,1.8-3,2.7-5.1,2.7c-1.9,0-3.5-0.5-4.7-1.6s-1.8-2.6-1.8-4.5c0-2,0.8-4,2.3-5.8c1.6-2,3.4-2.9,5.4-2.9
		c1.8,0,3.3,0.6,4.3,1.9c1,1.2,1.5,2.7,1.5,4.6C142.9,38.6,142.3,40.5,141.2,42.1z"/>
	<path class="st0" d="M174.7,32.6c-2.1,0.1-3.8,0.3-5.3,0.8c-0.3,1.1-0.4,1.9-0.4,2.4c0,1.3,0.2,2.3,0.6,2.8
		c1.4,0.1,2.5,0.2,3.2,0.3v9c-2.5-0.8-4.1-1.5-4.8-2.4c-0.8-1-1.2-2.9-1.2-5.6c0-3.1,0.7-5.9,2-8.2c1.6-2.7,3.8-4.1,6.5-4.1
		c0.4,0,1,0.1,1.6,0.3l1.6,0.5c1.2-1.6,2-3.6,2.2-6.1c-2.1-1-3.6-1.5-4.4-1.5c-6.3,0-11,1.6-13.9,4.8c-2.8,3.1-4.3,7.8-4.3,14.2
		c0,4.8,1.5,8.7,4.5,11.8s6.9,4.7,11.6,4.7c0.9,0,2.2-0.2,3.8-0.6c1.9-0.5,2.9-1.1,2.9-1.7c0-8.6-0.3-15.8-0.8-21.6L174.7,32.6z"/>
	<path class="st0" d="M310.5,22.1l-4.9-0.4c-3.3-0.3-5.5-0.4-6.8-0.4c-5.2,0-9.1,0.2-11.8,0.6c-0.5,3.5-1,6.3-1.4,8.3
		c3.3,0.4,5.8,0.8,7.5,1l-1.7,25c2.3-0.2,4.3-0.4,5.8-0.5c2.6-0.2,4.6-0.3,5.9-0.5c-0.4-3.8-0.7-7.8-0.9-11.9l-0.5-12
		c5.6,0,9.2,0,10.6-0.1c0.2-1.1,0.2-2.8,0.2-5.2c0-2.2-0.1-3.5-0.3-3.8C311.9,22.2,311.2,22.2,310.5,22.1z"/>
	<path class="st0" d="M238.6,23.1c-2.3-1.5-5.2-2.3-8.6-2.3c-4.5,0-8.8,0.7-12.9,2c0,2.8-0.2,7.7-0.6,14.7
		c-0.4,6.5-0.6,11.4-0.6,14.6c0,1.9,0.2,3.3,0.7,4.2c3.4-0.7,5.4-1.1,6.1-1.2l4.5-0.9c0-0.7-0.1-2.4-0.4-5.3
		c-0.2-1.9-0.3-3.3-0.3-4.3c0-0.4,0-0.7,0-1c3.4-1.3,5.8-2.1,7-2.6c6.1-2.3,9.1-5.8,9.1-10.5C242.7,27.4,241.3,24.9,238.6,23.1z
		 M229.9,34.2c-2,0.8-3.2,1.2-3.5,1.3c-0.1-0.9-0.1-1.8-0.2-2.8c-0.1-1.2-0.3-2.1-0.5-2.6c1.7-0.2,3.2-0.3,4.3-0.3
		c0.4,0,0.9,0.2,1.4,0.7s0.8,0.9,0.8,1.4C232.3,32.8,231.5,33.6,229.9,34.2z"/>
	<path class="st0" d="M264.3,20.8c-2.7,0-5.5,1-8.3,3c-2.6,1.8-4.8,4.1-6.5,6.8c-1.9,3-2.9,6-2.9,8.8c0,5.3,1.7,9.5,5,12.5
		c3.2,2.9,7.5,4.4,12.9,4.4c4.5,0,8.4-1.7,11.5-5s4.6-7.2,4.6-11.8c0-5.8-1.2-10.3-3.7-13.4C274.2,22.6,270,20.8,264.3,20.8z
		 M268.8,42.1c-1.3,1.8-3,2.7-5.1,2.7c-1.9,0-3.5-0.5-4.7-1.6s-1.8-2.6-1.8-4.5c0-2,0.8-4,2.3-5.8c1.6-2,3.4-2.9,5.4-2.9
		c1.8,0,3.3,0.6,4.3,1.9c1,1.2,1.5,2.7,1.5,4.6C270.6,38.6,270,40.5,268.8,42.1z"/>
	<path class="st0" d="M210.3,24.6L210.3,24.6L210.3,24.6L210.3,24.6L210.3,24.6z"/>
	<path class="st0" d="M210.5,24.7l-0.1-0.1L210.5,24.7L210.5,24.7z"/>
</g>
<g>
	<circle class="st0" cx="38.6" cy="38.6" r="38.6"/>
	<path class="st1" d="M40.3,48.3L40.3,48.3L40.3,48.3L40.3,48.3z"/>
	<path class="st2" d="M14.9,25.2c-0.9-0.2-1.7-0.7-2.4-1.4c-2.2-2.2-2.2-5.7,0-7.8c1.1-1.1,2.5-1.6,3.9-1.6s2.8,0.5,3.9,1.6
		c0.9,0.9,1.4,2,1.6,3.1c0,0,0.1-0.1,0.2-0.2c0.5-0.6,1-1.2,1.6-1.8c0.6-0.6,1.2-1.2,1.8-1.8C30.4,10.6,37.7,6,47.9,4.7
		c0,0-2.3,1.6-4.5,4c4.4-0.7,9.4-0.6,14.9,0.7c0,0-6,1.6-9.5,4.6c-0.2,0.2-0.5,0.4-0.7,0.6s-0.4,0.4-0.6,0.7
		c2.8,0.9,5.4,2.2,7.9,3.8c0.2-1.1,0.7-2.2,1.6-3.1c1.1-1.1,2.5-1.6,3.9-1.6s2.8,0.5,3.9,1.6c2.2,2.2,2.2,5.7,0,7.8
		c-0.7,0.7-1.5,1.1-2.4,1.4c5.8,6.4,9.8,15.2,11,25.1c1.2-3.7,1.9-7.6,1.9-11.6C75.3,18.4,58.9,2,38.6,2S1.9,18.4,1.9,38.7
		c0,4.1,0.7,8,1.9,11.6C3.9,49.5,4,48.7,4.1,48C5.8,39,9.6,31.1,14.9,25.2z"/>
	<path class="st1" d="M36.9,48.4C36.9,48.3,37,48.3,36.9,48.4L36.9,48.4C37,48.3,36.9,48.3,36.9,48.4z"/>
	<path class="st1" d="M26.3,27.4L26.3,27.4c0.5,0.2,0.9,0.6,0.9,1.2l0,0C27.2,28,26.8,27.5,26.3,27.4z"/>
	<path class="st1" d="M24.6,28.6c0-0.1,0-0.2,0-0.3l0,0C24.6,28.4,24.6,28.5,24.6,28.6L24.6,28.6z"/>
	<path class="st0" d="M15.3,62.4c-0.5-0.9-0.8-1.4-0.8-1.4s0.2,0.5,0.6,1.5c0.3,0.9,0.8,2.3,1.3,3.9c0.2,0.5,0.3,1.1,0.5,1.7
		c0.5,0.3,0.9,0.7,1.4,1c-0.3-1.1-0.7-2.1-1.1-3C16.5,64.5,15.8,63.2,15.3,62.4z"/>
	<path class="st0" d="M62.2,62.5c0.3-0.9,0.6-1.5,0.6-1.5s-0.3,0.5-0.8,1.4s-1.1,2.1-1.8,3.7c-0.4,0.9-0.8,1.9-1.1,3
		c0.5-0.3,1-0.7,1.4-1c0.1-0.6,0.3-1.2,0.5-1.7C61.4,64.8,61.8,63.4,62.2,62.5z"/>
	<path class="st1" d="M26.9,33.2c1.6,0,2.9-1.3,2.9-2.9l0,0C29.8,31.8,28.5,33.1,26.9,33.2c-1.6-0.1-2.9-1.4-2.9-3l0,0
		C24,31.9,25.3,33.2,26.9,33.2z"/>
	<path class="st3" d="M29.6,51.1L29.6,51.1c0.2,0,0.3,0,0.5,0C29.9,51.1,29.8,51.1,29.6,51.1L29.6,51.1z"/>
	<path class="st3" d="M29.8,53c0.2,1.2,0.5,2.4,0.9,3.4c0.3,0.8,1,1.4,1.8,1.4h3c1.1,0,2-1,2-2.3v-5.4c-0.5,0.4-1.1,0.8-1.6,1.1
		C34,52.4,32,52.9,29.8,53z"/>
	<path class="st3" d="M39.8,50.2v5.4c0,1.2,0.9,2.3,2,2.3h3c0.8,0,1.5-0.5,1.8-1.4c0.4-1.1,0.7-2.2,0.9-3.4c-2.1-0.1-4.2-0.6-6-1.7
		C40.9,51,40.3,50.6,39.8,50.2z"/>
	<path class="st3" d="M47.7,35.1c0.5,0.4,1.1,0.7,1.7,0.9c0.3,0.1,0.7,0.1,1,0.1c3.2,0,5.9-2.6,5.9-5.9c0-3.2-2.6-5.9-5.9-5.9
		c-3.2,0-5.9,2.6-5.9,5.9c0,1.4,0.5,2.7,1.4,3.7C46.5,34.3,47,34.7,47.7,35.1z M48.2,28.3c0,0.1,0,0.2,0,0.3c0,0.7,0.6,1.3,1.3,1.3
		s1.3-0.6,1.3-1.3c0-0.6-0.4-1.1-1-1.3c0.2,0,0.4-0.1,0.7-0.1c1.6,0,2.9,1.3,2.9,2.9S52.1,33,50.5,33c-1.6,0-2.9-1.3-2.9-2.9
		C47.5,29.5,47.7,28.9,48.2,28.3z"/>
	<path class="st3" d="M26.9,36.1c0.3,0,0.7,0,1-0.1c0.6-0.2,1.2-0.5,1.7-0.9c0.6-0.4,1.2-0.8,1.8-1.1c0.8-1,1.4-2.3,1.4-3.7
		c0-3.2-2.6-5.9-5.9-5.9c-3.2,0-5.9,2.6-5.9,5.9C21,33.5,23.7,36.1,26.9,36.1z M24,30.2c0-0.7,0.3-1.4,0.7-1.9c0,0,0,0,0,0.1l0,0
		c0,0.1,0,0.2,0,0.3c0,0.7,0.6,1.3,1.3,1.3s1.3-0.6,1.3-1.3c0-0.6-0.4-1.1-1-1.2h0.1h-0.1c0.2,0,0.4-0.1,0.7-0.1
		c1.6,0,2.9,1.3,2.9,2.9l0,0l0,0c0,1.6-1.3,2.9-2.9,2.9C25.3,33.2,24,31.9,24,30.2L24,30.2L24,30.2z"/>
	<path class="st4" d="M46.5,37.2c-0.1,0-0.1-0.1-0.2-0.1c-0.4-0.3-0.8-0.5-1.1-0.8c-0.1-0.1-0.2-0.1-0.2-0.2
		c-0.4-0.2-0.8-0.5-1.3-0.7c-1.1-0.4-2.4-0.6-3.8-0.7c-0.4,0-0.7,0-1.1,0c-0.4,0-0.8,0-1.1,0c-1.4,0.1-2.8,0.3-3.8,0.7
		c-0.5,0.2-1,0.4-1.3,0.7c-0.1,0.1-0.2,0.1-0.2,0.2c-0.4,0.2-0.7,0.5-1.1,0.8c-0.1,0.1-0.1,0.1-0.2,0.1c-4.5,3-11.1,0.4-11.1,5.1
		c0,4.9,4.5,8.8,10,8.8l0,0c0.2,0,0.3,0,0.5,0c2.2-0.1,5.5-1.9,6.8-2.8l0.1-0.1l0,0c0.3-0.2,0.4-0.3,0.5-0.3
		c0.4-0.2,0.8-0.5,1.2-0.5s0.8,0.3,1.2,0.5c0.1,0,0.2,0.2,0.5,0.3l0,0l0.1,0.1c1.3,0.8,4.6,2.7,6.8,2.8c0.2,0,0.3,0,0.5,0l0,0
		c5.5,0,10-4,10-8.8C57.6,37.5,51,40.2,46.5,37.2z M44.1,42.3c-1.1,1.8-3.2,3.1-5.5,3.1s-4.4-1.2-5.5-3.1c-0.6-1-1-2.1-1-3.4
		c0-1.7,2.8-2.5,5.8-2.7c0.2,0,0.5,0,0.7,0s0.5,0,0.7,0c3,0.1,5.8,1,5.8,2.7C45.1,40.2,44.7,41.3,44.1,42.3z"/>
	<path class="st3" d="M47.2,51.1c0.2,0,0.3,0,0.5,0l0,0l0,0C47.5,51.1,47.3,51.1,47.2,51.1z"/>
	<path class="st0" d="M26.9,33.1c1.6,0,2.9-1.3,2.9-2.9s-1.3-2.9-2.9-2.9c-0.2,0-0.4,0-0.6,0.1c0.5,0.2,0.9,0.6,0.9,1.2l0,0l0,0
		c0,0.7-0.6,1.3-1.3,1.3s-1.3-0.6-1.3-1.3l0,0l0,0c0-0.1,0-0.1,0-0.2c-0.4,0.5-0.7,1.1-0.7,1.9C24,31.8,25.3,33.1,26.9,33.1z"/>
	<path class="st0" d="M24.7,28.3c-0.4,0.5-0.7,1.2-0.7,1.9l0,0C24,29.5,24.2,28.9,24.7,28.3C24.6,28.3,24.6,28.3,24.7,28.3z"/>
	<path class="st0" d="M25.9,29.9c0.7,0,1.3-0.6,1.3-1.3l0,0C27.2,29.3,26.6,29.9,25.9,29.9c-0.7-0.1-1.3-0.6-1.3-1.3l0,0
		C24.6,29.3,25.2,29.9,25.9,29.9z"/>
	<path class="st0" d="M29.8,30.2L29.8,30.2c0-1.6-1.3-3-2.9-3c-0.2,0-0.4,0-0.7,0.1h0.1c0.2,0,0.4-0.1,0.6-0.1
		C28.5,27.3,29.8,28.6,29.8,30.2z"/>
	<path class="st0" d="M50.4,33.2c1.6,0,2.9-1.3,2.9-2.9s-1.3-2.9-2.9-2.9c-0.2,0-0.4,0-0.7,0.1c0.6,0.1,1,0.6,1,1.3
		c0,0.7-0.6,1.3-1.3,1.3s-1.3-0.6-1.3-1.3c0-0.1,0-0.2,0-0.3c-0.4,0.5-0.7,1.2-0.7,1.9C47.5,31.9,48.8,33.2,50.4,33.2z"/>
	<path class="st0" d="M73.4,50.2c-1.3-9.9-5.3-18.6-11-25.1c0.9-0.2,1.7-0.7,2.4-1.4c2.2-2.2,2.2-5.7,0-7.8
		c-1.1-1.1-2.5-1.6-3.9-1.6s-2.8,0.5-3.9,1.6c-0.9,0.9-1.4,2-1.6,3.1c-2.5-1.6-5.1-2.9-7.9-3.8c0.2-0.2,0.4-0.4,0.6-0.7
		c0.2-0.2,0.4-0.4,0.7-0.6c3.5-3.1,9.5-4.6,9.5-4.6C52.8,8,47.8,7.9,43.4,8.6c2.2-2.3,4.5-4,4.5-4c-10.2,1.2-17.5,5.9-22.4,10.6
		c-0.6,0.6-1.2,1.2-1.8,1.8c-0.6,0.6-1.1,1.2-1.6,1.8C21.9,19,21.9,19,21.9,19c-0.2-1.1-0.7-2.2-1.6-3.1c-1.1-1.1-2.5-1.6-3.9-1.6
		s-2.8,0.5-3.9,1.6c-2.2,2.2-2.2,5.7,0,7.8c0.7,0.7,1.5,1.1,2.4,1.4C9.6,31,5.8,38.9,4.2,47.8c-0.1,0.8-0.2,1.6-0.3,2.3
		c2.4,7.2,7,13.4,13,17.9c-0.1-0.6-0.3-1.2-0.5-1.7c-0.5-1.6-0.9-3-1.3-3.9c-0.3-0.9-0.6-1.5-0.6-1.5s0.3,0.5,0.8,1.4
		s1.1,2.1,1.8,3.7c0.4,0.9,0.8,1.9,1.1,3c3,2,6.3,3.6,9.8,4.6c1.8-4.4,5.9-7.9,10.6-7.9c4.8,0,8.8,3.6,10.6,7.9
		C52.7,72.5,56,71,59,69c0.3-1.1,0.7-2.1,1.1-3c0.7-1.6,1.3-2.9,1.8-3.7c0.5-0.9,0.8-1.4,0.8-1.4s-0.2,0.5-0.6,1.5
		c-0.3,0.9-0.8,2.3-1.3,3.9c-0.2,0.5-0.3,1.1-0.5,1.7C66.4,63.7,71,57.5,73.4,50.2z M50.4,24.4c3.2,0,5.9,2.6,5.9,5.9
		c0,3.2-2.6,5.9-5.9,5.9c-0.3,0-0.7,0-1-0.1c-0.6-0.2-1.2-0.5-1.7-0.9c-0.6-0.4-1.2-0.8-1.8-1.1c-0.8-1-1.4-2.3-1.4-3.7
		C44.5,27,47.2,24.4,50.4,24.4z M26.9,24.4c3.2,0,5.9,2.6,5.9,5.9c0,1.4-0.5,2.7-1.4,3.7c-0.6,0.3-1.2,0.7-1.8,1.1
		c-0.5,0.4-1.1,0.7-1.7,0.9c-0.3,0.1-0.7,0.1-1,0.1c-3.2,0-5.9-2.6-5.9-5.9C21,27,23.7,24.4,26.9,24.4z M16.4,22.4
		c-1.4,0-2.6-1.2-2.6-2.6s1.2-2.6,2.6-2.6c1.4,0,2.6,1.2,2.6,2.6C19,21.2,17.8,22.4,16.4,22.4z M37.5,55.6c0,1.2-0.9,2.3-2,2.3h-3
		c-0.8,0-1.5-0.5-1.8-1.4c-0.4-1.1-0.7-2.2-0.9-3.4c2.1-0.1,4.2-0.6,6-1.7c0.6-0.3,1.1-0.7,1.6-1.1v5.3L37.5,55.6L37.5,55.6z
		 M46.6,56.5c-0.3,0.8-1,1.4-1.8,1.4h-3c-1.1,0-2-1-2-2.3v-5.4c0.5,0.4,1.1,0.8,1.6,1.1c1.8,1,3.9,1.6,6,1.7
		C47.3,54.2,47,55.4,46.6,56.5z M47.7,51.1L47.7,51.1c-0.2,0-0.3,0-0.5,0c-2.7-0.1-5.1-1.2-6.8-2.8c0,0-0.1,0-0.1-0.1l0.1,0.1
		c0,0-0.2-0.2-0.6-0.4c-0.4-0.2-0.8-0.5-1.2-0.5s-0.8,0.3-1.2,0.5c-0.3,0.2-0.6,0.4-0.6,0.4l0.1-0.1c0,0-0.1,0-0.1,0.1
		c-1.7,1.6-4.1,2.7-6.8,2.8c-0.2,0-0.3,0-0.5,0l0,0c-5.5,0-10-4-10-8.8s6.6-2.1,11.1-5.1c0.1,0,0.1-0.1,0.2-0.1
		c0.4-0.3,0.8-0.5,1.1-0.8c0.1-0.1,0.2-0.1,0.2-0.2c0.4-0.2,0.8-0.5,1.3-0.7c1.1-0.4,2.4-0.6,3.8-0.7c0.4,0,0.7,0,1.1,0
		c0.4,0,0.8,0,1.1,0c1.4,0.1,2.8,0.3,3.8,0.7c0.5,0.2,1,0.4,1.3,0.7c0.1,0.1,0.2,0.1,0.2,0.2c0.4,0.2,0.7,0.5,1.1,0.8
		c0.1,0.1,0.1,0.1,0.2,0.1c4.4,3,11.1,0.4,11.1,5.1C57.6,47.2,53.2,51.1,47.7,51.1z M60.9,22.4c-1.4,0-2.6-1.2-2.6-2.6
		s1.2-2.6,2.6-2.6c1.4,0,2.6,1.2,2.6,2.6C63.5,21.2,62.3,22.4,60.9,22.4z M63.6,60.2c0,0-3.3,3.6-3.7,8.3"/>
	<path class="st0" d="M47.2,51.1c-2.2-0.1-5.5-1.9-6.8-2.8C42.1,50,44.5,51,47.2,51.1z"/>
	<path class="st0" d="M36.9,48.4c0,0,0.2-0.2,0.6-0.4c-0.1,0-0.2,0.2-0.5,0.3L36.9,48.4z"/>
	<path class="st0" d="M40.4,48.4L40.4,48.4C40,48.1,39.9,48,39.8,48C40.1,48.2,40.4,48.4,40.4,48.4z"/>
	<path class="st0" d="M36.9,48.4c-1.3,0.8-4.6,2.7-6.8,2.8C32.8,51,35.2,50,36.9,48.4z"/>
	<path class="st0" d="M39.3,36.3c-0.2,0-0.5,0-0.7,0s-0.5,0-0.7,0c-3,0.1-5.8,1-5.8,2.7c0,1.2,0.4,2.4,1,3.4
		c1.1,1.8,3.2,3.1,5.5,3.1s4.3-1.2,5.5-3.1c0.6-1,1-2.1,1-3.4C45.1,37.3,42.3,36.4,39.3,36.3z"/>
	<path class="st4" d="M49.3,73.7c-1.8-4.4-5.9-7.9-10.6-7.9c-4.8,0-8.8,3.6-10.6,7.9c3.4,1,6.9,1.6,10.6,1.6
		C42.3,75.3,45.9,74.7,49.3,73.7z"/>
	<path class="st4" d="M16.4,17.2c-1.4,0-2.6,1.2-2.6,2.6s1.2,2.6,2.6,2.6c1.4,0,2.6-1.2,2.6-2.6C19,18.4,17.8,17.2,16.4,17.2z"/>
	<path class="st4" d="M63.5,19.8c0-1.4-1.2-2.6-2.6-2.6c-1.4,0-2.6,1.2-2.6,2.6s1.2,2.6,2.6,2.6S63.5,21.2,63.5,19.8z"/>
</g>
</svg>
