<?xml version="1.0" encoding="utf-8"?>
<!-- Generator: Adobe Illustrator 25.2.0, SVG Export Plug-In . SVG Version: 6.00 Build 0)  -->
<svg version="1.1" id="Layer_1" xmlns="http://www.w3.org/2000/svg" xmlns:xlink="http://www.w3.org/1999/xlink" x="0px" y="0px"
	 viewBox="0 0 1509.7 841.9" style="enable-background:new 0 0 1509.7 841.9;" xml:space="preserve">
<style type="text/css">
	.st0{fill:#010101;}
	.st1{fill:#FFFFFF;}
	.st2{fill:#F04A23;}
</style>
<path class="st0" d="M553.4,499c-0.8-2.1-1.6-4.3-2.4-6.4l-0.5,8L553.4,499z"/>
<path class="st0" d="M693.7,556l0.1,0.1L693.7,556c-0.1-0.1-0.1-0.1-0.1-0.1L693.7,556z"/>
<path class="st1" d="M255.3,377.8v-0.4c0-0.1,0.1-0.6,0.2-1.3v-6.2c0-6.3-3.5-9.3-10.5-9.1h-9.7c-6.5,0.3-11.3,0.4-14.4,0.4
	c-11,0-16.5-1.2-16.5-3.5c0-15.3,0.8-35.6,2.5-60.9c1.8-27.2,2.7-47.5,2.7-60.9h-8.8c-13.7,0-24.8,0.8-33.3,2.5l-12.5,188.1
	c23.2-1.8,37.9-2.6,44-2.3l10.1,0.4c6.7,0.3,11.9,0.4,15.6,0.4c22.8,0,34.2-3.5,34.2-10.4c0-4.1-0.6-10.2-1.8-18.4
	C255.9,388.1,255.3,382,255.3,377.8z"/>
<path class="st1" d="M772.4,246.5c-10.8-9.9-23.6-14.9-38.4-14.9c-20.4,0-36.7,5.2-49.1,15.7c-12.4,10.4-19.9,25.6-22.7,45.6
	c1.6,13.2,7.6,24.8,18.1,34.6c3.6,3.4,8.2,7,13.8,10.9c4.8,3.2,9.7,6.5,14.6,9.7c9.8,6.6,14.8,12.5,14.8,17.7
	c0,8.9-4.3,13.4-13,13.4h-1.9c-0.5,0-1.1-0.1-1.8-0.2c-2.7-3.6-4.7-7.3-5.8-11.1c-0.4-1.3-1-4.3-1.7-8.9h-24.1c-7,0-13-0.1-17.9-0.2
	c-1.3,4.7-1.9,11.7-1.9,21c0,18.5,5.8,31.2,17.5,37.9c9.2,5.3,23.5,8,43,8c17.6,0,32.2-5.3,43.6-16c11.4-10.6,17.1-24.7,17.1-42.2
	c0-17.8-5.2-32.1-15.8-43c-5.3-5.4-15.1-12.1-29.4-19.8c-10.5-5.7-15.8-11.2-15.8-16.3c0-3.5,1.5-6.5,4.4-8.9
	c2.9-2.5,6.1-3.7,9.6-3.7c4.3,0,7.5,2.1,9.7,6.4l4.7,11.7c22.8-4.9,37.7-8.4,44.7-10.5C788.7,268.7,783.3,256.5,772.4,246.5z"/>
<path class="st1" d="M789.1,283.6c-0.1-0.1-0.3-0.2-0.4-0.2v0.6L789.1,283.6z"/>
<path class="st1" d="M381.2,231.5c-15,0-30.3,5.4-45.7,16.3c-14.3,10.1-26.1,22.5-35.6,37.2c-10.6,16.5-15.9,32.6-15.9,48.4
	c0,29.1,9.1,51.9,27.4,68.5c17.6,15.9,41.2,23.9,70.6,23.9c24.9,0,46-9.1,63.2-27.4c17-17.9,25.5-39.4,25.5-64.6
	c0-31.8-6.8-56.3-20.4-73.5C435,241.1,412,231.5,381.2,231.5z M405.7,348.2c-7.1,9.7-16.5,14.6-28,14.6c-10.6,0-19.3-2.9-25.9-8.8
	c-6.6-5.8-9.9-14-9.9-24.5c0-11,4.2-21.7,12.4-31.9c8.8-10.8,18.6-16.1,29.4-16.1c10.1,0,18,3.5,23.7,10.5c5.3,6.5,8,14.9,8,25.1
	C415.4,329,412.1,339.4,405.7,348.2z"/>
<path class="st1" d="M589.5,296c-11.4,0.4-21,1.8-28.8,4.3c-1.4,6-2.1,10.4-2.1,13.4c0,7.4,1,12.6,3.1,15.6
	c7.8,0.8,13.6,1.3,17.5,1.6v49.4c-13.9-4.1-22.7-8.5-26.5-13c-4.5-5.6-6.8-15.8-6.8-30.7c0-17.2,3.7-32.2,11.1-44.9
	c8.7-14.9,20.6-22.4,35.8-22.4c2.5,0,5.5,0.5,8.9,1.6l8.6,2.5c6.7-8.8,10.7-20,11.9-33.5c-11.7-5.4-19.8-8.2-24.3-8.2
	c-34.6,0-60,8.7-76.3,26.1c-15.6,16.9-23.3,42.7-23.3,77.6c0,26.1,8.3,47.7,24.9,64.8c16.6,17.1,37.9,25.7,63.8,25.7
	c5.1,0,11.9-1.2,20.6-3.5c10.6-2.9,15.9-5.9,15.9-9.1c0-46.9-1.4-86.4-4.3-118.3L589.5,296z"/>
<path class="st1" d="M1333.5,238.7l-26.6-2.1c-18-1.4-30.4-2.1-37.1-2.1c-28.5,0-50.1,1-64.6,3.1c-3,19.2-5.5,34.4-7.4,45.7
	c18.3,2.5,32,4.3,41.2,5.6l-9.3,136.9c12.8-1.2,23.5-2,31.9-2.5c14.3-0.9,25-1.9,32.1-2.9c-2.3-20.8-4-42.5-4.9-65.4l-2.7-65.6
	c30.9,0.1,50.3-0.1,58.2-0.6c0.9-6,1.4-15.5,1.4-28.6c0-12.1-0.6-19.1-1.7-21C1341.1,239.1,1337.7,238.9,1333.5,238.7z"/>
<path class="st1" d="M939.6,243.9c-12.8-8.3-28.5-12.5-47.1-12.5c-24.9,0-48.4,3.7-70.6,11.1c0,15.6-1.1,42.3-3.3,80.3
	c-2.1,35.8-3.1,62.5-3.1,80.1c0,10.5,1.4,18.1,4.1,22.8c18.5-3.6,29.8-5.8,33.7-6.6l24.5-4.7c0-3.6-0.8-13.2-2.3-28.8
	c-1-10.4-1.6-18.3-1.6-23.7c0-1.9,0.1-3.7,0.2-5.3c18.8-7,31.5-11.7,38.1-14.2c33.3-12.7,50-31.9,50-57.6
	C962.2,267.3,954.7,253.6,939.6,243.9z M892,304.8c-11.2,4.3-17.7,6.7-19.3,7.2c-0.4-5.1-0.8-10.1-1.2-15.2
	c-0.6-6.7-1.5-11.5-2.5-14.4c9.5-1,17.5-1.6,23.8-1.6c2.5,0,5.1,1.3,7.9,3.9c2.8,2.6,4.3,5.1,4.3,7.6
	C905,297.4,900.7,301.6,892,304.8z"/>
<path class="st1" d="M1080.6,231.5c-15,0-30.3,5.4-45.7,16.3c-14.3,10.1-26.1,22.5-35.6,37.2c-10.6,16.5-15.9,32.6-15.9,48.4
	c0,29.1,9.1,51.9,27.4,68.5c17.6,15.9,41.2,23.9,70.6,23.9c24.9,0,46-9.1,63.2-27.4c17-17.9,25.5-39.4,25.5-64.6
	c0-31.8-6.8-56.3-20.4-73.5C1134.5,241.1,1111.5,231.5,1080.6,231.5z M1105.2,348.2c-7.1,9.7-16.5,14.6-28,14.6
	c-10.6,0-19.3-2.9-25.9-8.8c-6.6-5.8-9.9-14-9.9-24.5c0-11,4.2-21.7,12.4-31.9c8.8-10.8,18.6-16.1,29.4-16.1
	c10.1,0,18,3.5,23.7,10.5c5.3,6.5,8,14.9,8,25.1C1114.9,329,1111.6,339.4,1105.2,348.2z"/>
<path class="st0" d="M270.3,387.5v-1.4c0-0.6,0.1-1.5,0.2-2.5v-4.3c0-4.5-1.2-8-3.5-10.3l-7.2-7.2c-2.6-5.1-7.6-7.5-15-7.2l-9.7,0.4
	c-0.3,0-0.5,0.1-0.8,0.2h-5.5c-1.4,0.1-2.4,0.2-2.9,0.2h-6.6c0.5-11.4,1.4-27.6,2.5-48.4l1.2-20c0.3-3.4,0.6-9.5,1-18.5l0.4-15.8
	c0.1-5.3,0.2-9.4,0.2-12.3l-9.1-9.1v-1.2h-14.6c-14.8,0-26.3,0.9-34.4,2.7l-4.5,1.6l-13,198.4h0.6c0.3-0.1,0.5-0.2,0.6-0.2l9.1,9.3
	c2.9-0.1,8-0.5,15.4-1l14.2-1c9.3-0.6,15.9-0.9,19.8-0.8l25.9,0.8c26.3,0,39.5-5.2,39.5-15.8c0-4.2-0.6-10.3-1.8-18.4
	C270.9,397.7,270.3,391.6,270.3,387.5z M224.8,425c-3.6,0-8.8-0.1-15.6-0.4l-10.1-0.4c-6.1-0.3-20.7,0.5-44,2.3l12.5-188.1
	c8.4-1.7,19.5-2.5,33.3-2.5h8.8c0,13.4-0.9,33.6-2.7,60.9c-1.7,25.3-2.5,45.6-2.5,60.9c0,2.3,5.5,3.5,16.5,3.5
	c3.1,0,7.9-0.1,14.4-0.4h9.7c7-0.3,10.5,2.8,10.5,9.1v6.2c-0.1,0.8-0.2,1.2-0.2,1.3v0.4c0,4.1,0.6,10.2,1.8,18.4
	c1.2,8.1,1.8,14.2,1.8,18.4C259,421.5,247.6,425,224.8,425z"/>
<path class="st0" d="M383.7,281.4c-10.8,0-20.5,5.4-29.4,16.1c-8.3,10.2-12.4,20.9-12.4,31.9c0,10.5,3.3,18.7,9.9,24.5
	c6.6,5.8,15.2,8.8,25.9,8.8c11.5,0,20.9-4.9,28-14.6c6.5-8.8,9.7-19.2,9.7-31.1c0-10.2-2.7-18.6-8-25.1
	C401.7,285,393.8,281.4,383.7,281.4z M401.6,344.1c-6,8.6-13.9,12.8-23.9,12.8c-6.9,0-13-1.6-18.3-4.9c-1.7-3.5-2.5-7.8-2.5-12.8
	c0-9.5,3.8-19,11.4-28.5c7.6-9.5,16-14.3,25.2-14.3c4.2,0,8.1,0.8,11.9,2.5c2.9,5.1,4.3,11.1,4.3,18.1
	C409.6,327.6,406.9,336.6,401.6,344.1z"/>
<path class="st0" d="M454.7,256.4c-16.2-20.5-40.7-30.7-73.5-30.7c-16.2,0-32.7,5.9-49.4,17.7c-15.2,10.6-27.6,23.7-37.3,39.1
	c-10.9,17.1-16.3,34.1-16.3,51c0,30.7,9.9,54.9,29.6,72.4c1.4,1,2.7,2.1,3.9,3.3l2.5,2.5c19.5,19.5,45.3,29.2,77.6,29.2
	c26.5,0,48.8-9.7,67.1-29c17.9-18.8,26.8-41.6,26.8-68.3c0-37.5-9.2-65.4-27.6-83.8L454.7,256.4z M445.2,398.4
	c-17.2,18.3-38.3,27.4-63.2,27.4c-29.4,0-53-8-70.6-23.9c-18.3-16.6-27.4-39.4-27.4-68.5c0-15.8,5.3-32,15.9-48.4
	c9.5-14.7,21.3-27,35.6-37.2c15.4-10.9,30.7-16.3,45.7-16.3c30.9,0,53.9,9.6,69.1,28.8c13.6,17.3,20.4,41.8,20.4,73.5
	C470.6,358.9,462.1,380.5,445.2,398.4z"/>
<path class="st0" d="M625.1,295.3v-1l-5.8-5.2l-30,1.2c-1.9,0.1-4.2,0.3-6.8,0.6c5.7-4.4,12.4-6.6,20-6.6c1.6,0,4,0.5,7.2,1.4
	c6.5,1.8,10.8,2.7,12.8,2.7c8.6-11.3,13.6-25.2,15-41.8l-9.3-9.1c0-0.3,0.1-0.5,0.2-0.6v-0.4c-15.1-7-25.2-10.5-30.5-10.5
	c-36.2,0-63,9.3-80.3,27.8c-16.7,18-25.1,45.3-25.1,81.7c0,27.8,10.2,51.9,30.7,72.4c1.2,1.2,2.5,2.3,3.9,3.3l3.3,3.3
	c17.6,17.6,39.7,26.5,66.3,26.5c5.7,0,13-1.2,22-3.7c13.2-3.6,19.8-8.4,19.8-14.2c0-47.2-1.4-86.8-4.3-118.7L625.1,295.3z
	 M607.6,422.3c-8.7,2.3-15.6,3.5-20.6,3.5c-25.9,0-47.2-8.6-63.8-25.7c-16.6-17.1-24.9-38.7-24.9-64.8c0-34.9,7.8-60.8,23.3-77.6
	c16.2-17.4,41.6-26.1,76.3-26.1c4.5,0,12.6,2.7,24.3,8.2c-1.2,13.5-5.1,24.6-11.9,33.5l-8.6-2.5c-3.5-1-6.5-1.6-8.9-1.6
	c-15.2,0-27.1,7.5-35.8,22.4c-7.4,12.7-11.1,27.7-11.1,44.9c0,14.9,2.3,25.2,6.8,30.7c3.8,4.5,12.6,8.9,26.5,13v-49.4
	c-3.9-0.3-9.7-0.8-17.5-1.6c-2.1-3-3.1-8.2-3.1-15.6c0-3,0.7-7.5,2.1-13.4c7.8-2.5,17.4-3.9,28.8-4.3l29.8-1.2
	c2.9,31.9,4.3,71.3,4.3,118.3C623.5,416.4,618.2,419.4,607.6,422.3z M560.9,346.2v-4.7c0-1.6,0.1-3.1,0.4-4.7l7.2,7.2
	c1,0.1,2.7,0.3,4.9,0.6v27.6c-2.5-0.8-5.8-2.2-9.9-4.3C561.7,363.1,560.9,355.8,560.9,346.2z"/>
<path class="st0" d="M784.8,252.3l0.1,0.1l-0.2-0.2c-0.1,0-0.1,0-0.1-0.1L784.8,252.3z"/>
<path class="st0" d="M805.4,295.8c-0.3-7.5-2-15.1-5.3-22.7c-3.3-7.6-7.6-13.8-12.9-18.8l-2.2-2.1l-0.1-0.1l-0.2-0.2
	c0.1,0,0.1,0.1,0.1,0.1l-0.5-0.5c-12.3-17.2-29.1-25.9-50.2-25.9c-22,0-39.8,5.7-53.1,17.1c-13.4,11.4-21.5,28-24.5,49.8
	c1.8,16.1,8.9,29.5,21.2,40.3c0.3,0.3,0.9,0.8,1.9,1.8l4.9,4.7c0.1,0.4,0.5,0.7,1.2,1l0.8,0.8c1.4,1.4,6.7,5.4,15.9,12.1h-25.7h-4.1
	c-4.4-0.1-6.3-0.2-5.6-0.2h-9.7l-5.6,4.3c-1.4,4.8-2.1,12.3-2.1,22.6c0,19.6,5.8,33.3,17.5,41.2l5.1,5.1
	c9.7,9.7,27.6,14.6,53.5,14.6c18.8,0,34.5-5.9,47.1-17.7l-0.2-0.2c12.7-11.7,19.1-26.8,19.1-45.5c0-19.2-5.8-34.8-17.3-46.7
	l-0.8-0.6h0.2l-3.9-3.9c-0.3-0.4-1.9-2.3-4.9-5.6c-4-3.8-8.7-7.4-14-10.9c7.3-1.2,19.7-4,37.2-8.4L805.4,295.8z M743.9,293.9
	l-4.7-11.7c-2.2-4.3-5.4-6.4-9.7-6.4c-3.5,0-6.7,1.2-9.6,3.7c-2.9,2.5-4.4,5.4-4.4,8.9c0,5.2,5.3,10.6,15.8,16.3
	c14.3,7.8,24.1,14.4,29.4,19.8c10.5,10.9,15.8,25.2,15.8,43c0,17.5-5.7,31.6-17.1,42.2c-11.4,10.6-25.9,16-43.6,16
	c-19.5,0-33.8-2.7-43-8c-11.7-6.7-17.5-19.4-17.5-37.9c0-9.3,0.6-16.3,1.9-21c4.9,0.1,10.9,0.2,17.9,0.2h24.1
	c0.8,4.7,1.4,7.7,1.7,8.9c1.2,3.8,3.1,7.5,5.8,11.1c0.6,0.1,1.2,0.2,1.8,0.2h1.9c8.7,0,13-4.5,13-13.4c0-5.2-4.9-11.1-14.8-17.7
	c-4.9-3.2-9.8-6.5-14.6-9.7c-5.6-3.9-10.2-7.5-13.8-10.9c-10.5-9.9-16.5-21.4-18.1-34.6c2.7-20,10.3-35.2,22.7-45.6
	c12.4-10.4,28.8-15.7,49.1-15.7c14.8,0,27.6,5,38.4,14.9c10.8,9.9,16.2,22.2,16.2,36.9c0.1,0,0.3,0.1,0.4,0.2l-0.4,0.4v-0.6
	C781.7,285.5,766.8,289,743.9,293.9z M749.2,308.5c-4.4-2.9-9.5-5.8-15.2-8.9c-1.4-0.5-2.6-1.1-3.5-1.8c0.3-3.4,2.3-5.5,6-6.4
	l3.7,9.3c0.4,0,0.7-0.1,1-0.2L749.2,308.5z M704.4,354.8c3.6,2.7,7.3,5.2,11.1,7.4c0.3,0.3,0.7,0.7,1.4,1.2c0.5,1,0.8,1.9,0.8,2.5
	c0,3.2-1,5.4-2.9,6.6c-0.1-0.6-0.3-1.9-0.6-3.9l-0.8-5.1L704.4,354.8z"/>
<path class="st0" d="M785.4,252.7c-0.1-0.1-0.4-0.3-0.7-0.5l0.2,0.2L785.4,252.7z"/>
<path class="st0" d="M961.6,256.6l-2.9-2.7c-13.2-18.8-35.3-28.2-66.1-28.2c-26.2,0-51.7,4.2-76.5,12.6c0,8.2-0.3,20-1,35.4l-1,23.1
	c-0.3,4.7-0.7,13.2-1.4,25.7c-2.1,36.3-3.1,63.2-3.1,80.5c0,12.1,2.3,21.9,6.8,29.4c0.3-0.1,0.6-0.2,1-0.2l9.1,9.1
	c0.3,0,6.7-1.2,19.3-3.7l46.9-8.9c0-7.3-0.8-18.5-2.3-33.8c-1-10.2-1.6-18-1.6-23.3v-1.4c6.7-2.6,15.7-6,26.8-10.1
	c1.4-0.4,4.1-1.3,8-2.7c15.6-5.7,27.9-13.4,37.2-23.2c10.9-11.4,16.3-24.6,16.3-39.5c0-15.2-4.9-27.7-14.8-37.5L961.6,256.6z
	 M912.2,342.5c-6.6,2.5-19.3,7.2-38.1,14.2c-0.1,1.6-0.2,3.3-0.2,5.3c0,5.4,0.5,13.4,1.6,23.7c1.6,15.6,2.3,25.2,2.3,28.8l-24.5,4.7
	c-3.9,0.8-15.1,3-33.7,6.6c-2.7-4.7-4.1-12.3-4.1-22.8c0-17.6,1-44.3,3.1-80.1c2.2-38,3.3-64.8,3.3-80.3
	c22.2-7.4,45.7-11.1,70.6-11.1c18.5,0,34.2,4.2,47.1,12.5c15,9.7,22.6,23.4,22.6,41C962.2,310.6,945.5,329.8,912.2,342.5z"/>
<path class="st0" d="M892.8,280.9c-6.3,0-14.3,0.5-23.8,1.6c1,2.9,1.9,7.7,2.5,14.4c0.4,5.1,0.8,10.1,1.2,15.2
	c1.7-0.5,8.1-2.9,19.3-7.2c8.6-3.2,13-7.4,13-12.5c0-2.5-1.4-5-4.3-7.6C897.9,282.2,895.3,280.9,892.8,280.9z M885.7,300.9V299
	c0-0.8-0.1-1.5-0.4-2.1c2.6-0.1,6.4-0.4,11.5-0.8C895.9,296.7,892.2,298.3,885.7,300.9z"/>
<path class="st0" d="M1083.2,281.4c-10.8,0-20.5,5.4-29.4,16.1c-8.3,10.2-12.4,20.9-12.4,31.9c0,10.5,3.3,18.7,9.9,24.5
	c6.6,5.8,15.2,8.8,25.9,8.8c11.5,0,20.9-4.9,28-14.6c6.5-8.8,9.7-19.2,9.7-31.1c0-10.2-2.7-18.6-8-25.1
	C1101.2,285,1093.3,281.4,1083.2,281.4z M1101.1,344.1c-6,8.6-13.9,12.8-23.9,12.8c-6.9,0-13-1.6-18.3-4.9
	c-1.7-3.5-2.5-7.8-2.5-12.8c0-9.5,3.8-19,11.4-28.5c7.6-9.5,16-14.3,25.2-14.3c4.2,0,8.1,0.8,11.9,2.5c2.9,5.1,4.3,11.1,4.3,18.1
	C1109,327.6,1106.4,336.6,1101.1,344.1z"/>
<path class="st0" d="M1154.2,256.4c-16.2-20.5-40.7-30.7-73.5-30.7c-16.2,0-32.7,5.9-49.4,17.7c-15.2,10.6-27.6,23.7-37.3,39.1
	c-10.9,17.1-16.3,34.1-16.3,51c0,30.7,9.9,54.9,29.6,72.4c1.4,1,2.7,2.1,3.9,3.3l2.5,2.5c19.5,19.5,45.3,29.2,77.6,29.2
	c26.5,0,48.8-9.7,67.1-29c17.9-18.8,26.8-41.6,26.8-68.3c0-37.5-9.2-65.4-27.6-83.8L1154.2,256.4z M1144.6,398.4
	c-17.2,18.3-38.3,27.4-63.2,27.4c-29.4,0-53-8-70.6-23.9c-18.3-16.6-27.4-39.4-27.4-68.5c0-15.8,5.3-32,15.9-48.4
	c9.5-14.7,21.3-27,35.6-37.2c15.4-10.9,30.7-16.3,45.7-16.3c30.9,0,53.9,9.6,69.1,28.8c13.6,17.3,20.4,41.8,20.4,73.5
	C1170.1,358.9,1161.6,380.5,1144.6,398.4z"/>
<path class="st0" d="M1348.1,235.5c-0.1-0.8-0.5-1.5-1-2.1c-7.8-0.3-20.7-1.2-38.7-2.7c-16.6-1.4-29.5-2.1-38.7-2.1
	c-30.4,0-53.6,1.2-69.8,3.7c-1,6.6-1.9,11.9-2.5,15.8l-5.1,30c0,0.4-0.5,3.8-1.6,10.3c0.4,0,1,0.1,1.7,0.4l8.8,8.8l16.7,2.1
	c0.8,0.1,5.5,0.8,14.2,2.1l-8.8,130.7h0.4c0.3-0.1,0.4-0.2,0.6-0.2l9.3,9.3l14.8-1.4c9.3-0.9,24.1-2.1,44.2-3.7
	c6.2-0.5,11.7-1.1,16.5-1.8c0-0.1-0.5-5.2-1.4-15.2l-1.6-17.3c-1.2-13.1-2-25.7-2.5-37.7l-2.5-60.1h15.6c1.8,0,6.4-0.1,13.6-0.2
	l21.8-0.4c1.3,0,3.4-0.1,6.4-0.2c1.3-9.9,1.9-21.1,1.9-33.7c0-13-1.4-21.7-4.1-26.3L1348.1,235.5z M1344.2,288.8
	c-7.9,0.5-27.3,0.7-58.2,0.6l2.7,65.6c0.9,22.8,2.5,44.6,4.9,65.4c-7.1,1-17.8,2-32.1,2.9c-8.4,0.5-19.1,1.4-31.9,2.5l9.3-136.9
	c-9.2-1.3-23-3.2-41.2-5.6c1.9-11.3,4.4-26.5,7.4-45.7c14.5-2.1,36-3.1,64.6-3.1c6.7,0,19.1,0.7,37.1,2.1l26.6,2.1
	c4.2,0.3,7.6,0.5,10.3,0.6c1.2,1.9,1.7,8.9,1.7,21C1345.6,273.3,1345.1,282.9,1344.2,288.8z"/>
<path class="st1" d="M747.7,474.5c-5.5-4.1-11.8-6.1-18.9-6.1c-6.4,0-11.6,2.5-15.4,7.4c-3.6,4.5-5.4,10.1-5.4,16.7
	c0,6.2,2.7,11.1,8.1,14.6c4.7,3.1,10.3,4.7,16.7,4.7c6.6,0,12.1-1.7,16.6-5.1c5-3.7,7.5-8.8,7.5-15.3
	C756.8,484.6,753.8,479,747.7,474.5z"/>
<path class="st2" d="M526.2,547.3c11.1-6.2,19-13.1,23.6-20.6c4.6-7.6,6.9-17.7,6.9-30.3c0-9.7-5-17-15-22.1c-7.9-4-17.2-6-28-6
	c-18.6,0-34.3,3.9-47.3,11.6c-0.2,8.9-1.6,25.1-4.3,48.7c-2,18.5-3,34.7-2.9,48.7V595c2.6,2.4,7.4,3.5,14.2,3.5
	c1.1,0,2.8-0.1,5.1-0.2c2.3-0.1,4-0.2,5.1-0.2h2.6c2.4,0,4.3,0.2,5.6,0.7c2.5-0.4,4-6.4,4.3-18.3c0.3-10.8,0.4-18.1,0.5-21.9
	c2.3,3.1,4,5.8,5.2,8.1c6.3,11.6,10.5,19.4,12.7,23.5l4.1,7.5c5.9-0.3,12.5-1.3,19.9-3l19.7-4.7c-0.3-4.8-4.7-12.1-13.5-21.8
	L526.2,547.3z M513.2,520.8c-4.2,3.1-8.5,4.7-13.1,4.7c1-13.5,1.7-22.4,2.2-26.7c1.1-0.8,2.8-1.2,5-1.2c3.7,0,6.8,1,9.1,3
	s3.5,4.8,3.5,8.5C520,513.6,517.7,517.5,513.2,520.8z"/>
<path class="st2" d="M680.5,469.6l-13.2,0.1c-11.8,0.1-18.8,1.2-21,3.3c0,3.3,0.6,9.9,1.7,19.7c0.6,5.1,0.9,9.5,0.9,12.9
	c0,12.5-0.9,23.2-2.7,32.1c-3.1,15.3-8.5,23-16.1,23c-11,0-16.5-11.7-16.5-35.1c0-8.4,0.1-17.9,0.4-28.4c0.4-13.9,0.5-23.4,0.4-28.3
	l-5.7-0.7l-29.1,2c0.3,1.9,0.2,4.4-0.3,7.5c-0.6,4.1-0.9,6.6-0.9,7.6v22.9c0,25.6,2.7,45.3,8.1,59.1c8.3,21.1,23,31.6,44.3,31.6
	c21.2,0,36.7-9,46.6-26.9c7.8-14.2,11.8-32.9,11.8-56C689.1,484.9,686.3,469.5,680.5,469.6z"/>
<path class="st1" d="M750.9,542.1c-0.3-7.3-0.5-13.6-0.5-18.9l0.1-0.9c-22,0-33.9,0.5-35.8,1.4c-2.3,16.4-3.4,33.4-3.4,51.1v17.5
	l0.5,13.1c13,0,25.8-2,38.4-6c0.9-10.6,1.3-23.4,1.3-38.4c0-3.4,0-6-0.1-7.8L750.9,542.1z"/>
<path class="st2" d="M213.1,547.3c11.1-6.2,19-13.1,23.6-20.6c4.6-7.6,6.9-17.7,6.9-30.3c0-9.7-5-17-15-22.1c-7.9-4-17.2-6-28-6
	c-18.6,0-34.3,3.9-47.3,11.6c-0.2,8.9-1.6,25.1-4.3,48.7c-2,18.5-3,34.7-2.9,48.7V595c2.6,2.4,7.4,3.5,14.2,3.5
	c1.1,0,2.8-0.1,5.1-0.2c2.3-0.1,4-0.2,5.1-0.2h2.6c2.4,0,4.3,0.2,5.6,0.7c2.5-0.4,4-6.4,4.3-18.3c0.3-10.8,0.4-18.1,0.5-21.9
	c2.3,3.1,4,5.8,5.2,8.1c6.3,11.6,10.5,19.4,12.7,23.5l4.1,7.5c5.9-0.3,12.5-1.3,19.9-3l19.7-4.7c-0.3-4.8-4.7-12.1-13.5-21.8
	L213.1,547.3z M200,520.8c-4.2,3.1-8.5,4.7-13.1,4.7c1-13.5,1.7-22.4,2.2-26.7c1.1-0.8,2.8-1.2,5-1.2c3.7,0,6.8,1,9.1,3
	c2.4,2,3.5,4.8,3.5,8.5C206.8,513.6,204.5,517.5,200,520.8z"/>
<path class="st2" d="M404.5,557.5c-9.6-4.2-14.4-12.2-14.4-24c0-4.7,0.9-9.2,2.6-13.6c2-5,4.7-8.6,8.2-11c2.6-1.7,7.3-3.7,14-5.9
	c6.3-2.1,11.2-3.4,14.9-3.9c2.4-4.5,4.8-10.2,7.2-17l2.5-7.1c-1.7-4.5-8-6.8-18.9-6.8c-18.4,0-33.8,8.4-46.1,25.2
	c-11.5,15.6-17.2,32.7-17.2,51.3c0,14.6,4.8,27.2,14.4,37.8c9.8,10.8,21.9,16.2,36.5,16.2c10,0,21.3-5,34-15l-7.7-22.5
	C421,561.6,411.1,560.4,404.5,557.5z"/>
<path class="st1" d="M865.4,473.1l-17.9-1.4c-12.1-1-20.4-1.4-24.9-1.4c-19.2,0-33.6,0.7-43.4,2.1c-2,12.9-3.7,23.1-5,30.7
	c12.3,1.7,21.5,2.9,27.7,3.8l-6.3,92c8.6-0.8,15.8-1.4,21.4-1.7c9.6-0.6,16.8-1.3,21.6-2c-1.6-13.9-2.7-28.6-3.3-43.9l-1.8-44
	c20.7,0.1,33.8,0,39.1-0.4c0.6-4,0.9-10.4,0.9-19.2c0-8.1-0.4-12.8-1.2-14.1C870.5,473.4,868.2,473.3,865.4,473.1z"/>
<path class="st2" d="M275.1,468.4c-0.5,3.5-1.2,7.3-2,11.5c-3.7,19.4-5.9,38.8-6.5,58.3l-2,58.5c7.7,0.8,12,1.2,13.1,1.2l55.1-1.2
	v-27.3c0-1.7-5.1-2.9-15.3-3.8c-9.5-0.8-16.6-1.3-21.3-1.7v-14.4c1-0.3,2.7-0.8,5.1-1.3l7.1-1.6c6-1.3,10-2.3,11.9-3.1
	c1.8-4.8,2.7-12,2.7-21.6l-20.9-3.3c0.3-8,0.5-14,0.7-18c2.6,0,5.4,0,8.4,0c8.9,0,17.9-0.8,27-2.4l1.8-27.8
	c-7.9-1.4-18.7-2.1-32.4-2.1H275.1z"/>
<path class="st2" d="M1237.1,472.8l-38.9,0.1c0,1.5-0.1,3.6-0.3,6.5c-0.2,2.8-0.3,5-0.3,6.5c0,5.1,0.3,11.6,0.8,19.3
	c0.6,9.1,0.9,15.5,0.9,19.3c0,6.9-0.5,11.9-1.6,15.2c-4.2-9.3-8.5-21.1-12.8-35.3l-11-36.1l-32.9,3.5l-3.4,58.9
	c-1.5,25.7-2.2,45.3-2.2,58.9c0,4,0.9,7,2.6,9c23.4,0,35.1-1.4,35-4.2c-0.9-26.4-0.7-41.4,0.5-45.1c8.2,22.1,14.3,38.2,18.4,48.3
	c10.4-1,25.5-2,45.2-3c0-10.5-0.3-26.3-1-47.4c-0.6-18.6-0.9-34.4-0.9-47.6c0-2,0.4-7.7,1.2-17
	C1236.8,477.4,1237,474.1,1237.1,472.8z"/>
<path class="st2" d="M1053.3,468.4c-0.5,3.5-1.2,7.3-2,11.5c-3.7,19.4-5.9,38.8-6.5,58.3l-2,58.5c7.7,0.8,12,1.2,13.1,1.2l55.1-1.2
	v-27.3c0-1.7-5.1-2.9-15.3-3.8c-9.5-0.8-16.6-1.3-21.3-1.7v-14.4c1-0.3,2.7-0.8,5.1-1.3l7.1-1.6c6-1.3,10-2.3,11.9-3.1
	c1.8-4.8,2.7-12,2.7-21.6l-20.9-3.3c0.3-8,0.5-14,0.7-18c2.6,0,5.4,0,8.4,0c8.9,0,17.9-0.8,27-2.4l1.8-27.8
	c-7.9-1.4-18.7-2.1-32.4-2.1H1053.3z"/>
<path class="st2" d="M1349.3,473.1l-17.9-1.4c-12.1-1-20.4-1.4-24.9-1.4c-19.2,0-33.6,0.7-43.4,2.1c-2,12.9-3.7,23.1-5,30.7
	c12.3,1.7,21.5,2.9,27.7,3.8l-6.3,92c8.6-0.8,15.8-1.4,21.4-1.7c9.6-0.6,16.8-1.3,21.6-2c-1.6-13.9-2.7-28.6-3.3-43.9l-1.8-44
	c20.7,0.1,33.8,0,39.1-0.4c0.6-4,0.9-10.4,0.9-19.2c0-8.1-0.4-12.8-1.2-14.1C1354.4,473.4,1352.1,473.3,1349.3,473.1z"/>
<path class="st2" d="M1018,527.8c-2.7-36-4.7-55.8-6.1-59.4c-2.7,0-8,0.1-15.8,0.4l-31.4,1.1c-1.1,4-2.8,14-5.1,29.9
	c-1.7,12.3-4.4,21.9-7.8,29h-0.4c-7.1-21.8-12.8-40.8-17.1-57c-6.8,0.9-12.4,1.5-16.9,2c-6.3,0.7-11.8,1.9-16.5,3.7
	c-3.5,7.8-5.6,19.3-6.3,34.6l-2.1,45.5c-0.8,17.5-2.3,30.7-4.4,39.7c0.4,0.2,3.6,0.2,9.5,0c8.7-0.3,13.2-0.4,13.3-0.4
	c1,0,2.4,0.2,4.4,0.5c2,0.4,3.4,0.5,4.4,0.5c3.1,0,4.7-1,4.7-2.9c0-4.5,0.1-10.3,0.3-17.4l0.8-31.7c3,5.8,5.7,14.2,7.8,25.1
	c2.5,12.4,4.7,20.8,6.5,25.3c2.5-0.3,4.3-0.4,5.4-0.5c12.9-1.1,20.6-2,23.1-2.5c5.3-19.7,8.9-33.7,10.7-42.1
	c2.4,19.3,4.5,33.8,6.3,43.5h28c3.8,0,6.9-0.5,9.1-1.6c-0.4-10.4-0.9-18.9-1.4-25.6L1018,527.8z"/>
<path class="st0" d="M225.1,554.9c10.4-6.2,17.8-13.4,22.2-21.6c4.2-7.9,6.3-18.1,6.3-30.4c0-7.5-2.5-13.7-7.6-18.5l-3.1-3
	c-2.9-4.2-7.1-7.7-12.7-10.6c-8.3-4.3-18.2-6.4-29.7-6.4c-19.4,0-36.5,4.4-51.2,13.3c-0.2,10.2-1.6,27-4.3,50.6c-2,17.4-3,33-3,46.6
	v2.5l0.1,19.3c0.5,0.4,1.4,1,2.5,1.8l4.4,4.6c3.6,3.7,9.5,5.5,17.8,5.5h1.7c0.8,0,1.6,0,2.5-0.1h0.3c0.6,0,1.6,0,2.9-0.1
	c1.3-0.1,2.3-0.1,2.9-0.1h2.6c2,0,3.7,0.3,5.2,0.8c5.5-0.9,8.2-8.1,8.2-21.8v-4.3c0,0.2,0.1,0.4,0.3,0.5c3.7,7.1,7,13.2,9.9,18.3
	h0.7l6.1,6.1c7.3-0.4,14.9-1.4,22.6-3.3l22.6-5.4c-0.4-7.6-5.2-16.6-14.5-26.9L225.1,554.9z M225.3,594.6c-7.3,1.7-13.9,2.7-19.9,3
	l-4.1-7.5c-2.2-4.1-6.4-11.9-12.7-23.5c-1.2-2.3-3-5-5.2-8.1c-0.1,3.8-0.3,11.1-0.5,21.9c-0.4,11.8-1.8,17.9-4.3,18.3
	c-1.3-0.4-3.2-0.7-5.6-0.7h-2.6c-1.1,0-2.8,0.1-5.1,0.2c-2.3,0.1-4,0.2-5.1,0.2c-6.9,0-11.6-1.2-14.2-3.5v-17.6
	c-0.1-14,0.9-30.3,2.9-48.7c2.7-23.6,4.1-39.9,4.3-48.7c13-7.8,28.7-11.6,47.3-11.6c10.7,0,20,2,28,6c10,5,15,12.4,15,22.1
	c0,12.6-2.3,22.7-6.9,30.3c-4.6,7.6-12.4,14.5-23.6,20.6l18.5,20.8c8.7,9.8,13.2,17,13.5,21.8L225.3,594.6z"/>
<path class="st0" d="M194.1,497.7c-2.2,0-3.8,0.4-5,1.2c-0.5,4.3-1.3,13.2-2.2,26.7c4.5,0,8.9-1.6,13.1-4.7
	c4.5-3.3,6.8-7.2,6.8-11.6c0-3.7-1.2-6.5-3.5-8.5C200.9,498.7,197.9,497.7,194.1,497.7z M202.9,509.2c0,2.9-1.6,5.6-4.8,8.2
	c0.2-2.1,0.5-5.3,0.9-9.5c0.4-0.1,0.9-0.1,1.7-0.1c0.7,0,1.4,0.1,2.1,0.3c0,0.2,0,0.4,0.1,0.5V509.2z"/>
<path class="st0" d="M344.2,467.2c-11-1.8-23.2-2.7-36.6-2.7h-35.9c-1,5.2-1.7,9.3-2.1,12.2l-0.4,2.5c-3.8,24.4-6,44-6.5,58.9
	l-2.1,62.2h0.9l6,6.1c10,1,15.6,1.6,16.7,1.6l58.7-1.3v-30.7c0-1-0.4-2-1.3-2.9l-5.1-5.1c-1.3-3.3-7.4-5.4-18.4-6.1
	c-3.6-0.3-7.5-0.5-11.8-0.8v-2.4c1.6-0.4,7.3-1.7,17.2-4.2c2.6-0.6,4.6-1.2,6-1.8c2.4-6.1,3.5-15.2,3.5-27.4l-6.1-6.1v-0.8
	l-14.5-2.1c0-1.2,0.1-3,0.3-5.5h5c9.1,0,19.3-1,30.4-2.9l2.2-33.8l-6.3-6.1L344.2,467.2z M338.2,498.3c-9.1,1.6-18.2,2.4-27,2.4
	c-3,0-5.7,0-8.4,0c-0.2,4-0.4,10-0.7,18l20.9,3.3c0,9.6-0.9,16.8-2.7,21.6c-1.9,0.8-5.9,1.8-11.9,3.1l-7.1,1.6
	c-2.4,0.5-4.1,1-5.1,1.3v14.4c4.7,0.3,11.8,0.9,21.3,1.7c10.2,0.9,15.3,2.1,15.3,3.8v27.3l-55.1,1.2c-1,0-5.4-0.4-13.1-1.2l2-58.5
	c0.6-19.4,2.8-38.8,6.5-58.3c0.8-4.2,1.4-8,2-11.5h32.5c13.7,0,24.5,0.7,32.4,2.1L338.2,498.3z"/>
<path class="st0" d="M437.4,558.4l-0.3-1h-2c-0.9,0.1-1.5,0.1-2,0.1h-3.4c-12,0-21.1-1.8-27.2-5.4c-1.7-3-2.5-7.1-2.5-12.1
	c0-4.2,0.7-8.2,2.2-12c1.7-4.4,4-7.6,7.1-9.7c2.5-1.7,7.2-3.7,14.1-5.7c6-1.8,11-3,15-3.7c1-1.8,2.1-4.2,3.4-7.1l2.7-6.7h0.1
	c0.6-1.4,1.4-3.3,2.2-5.7l2.7-7.7c-0.6-1.8-1.6-3.4-3-4.7l-4.4-4.3c-3.5-5.6-10.8-8.4-21.8-8.4c-19.6,0-36,8.9-49.3,26.8
	c-12,16.3-18,34.2-18,53.7c0,15.3,5.2,28.7,15.5,40.1c2.6,2.9,5,5.1,7.1,6.7l1.8,1.8c10.3,10.3,22.6,15.4,36.8,15.4
	c10.9,0,23-5.3,36.2-15.8l1.2-3.9l-8.5-24.8L437.4,558.4z M408,598.8c-14.6,0-26.7-5.4-36.5-16.2c-9.6-10.5-14.4-23.1-14.4-37.8
	c0-18.6,5.7-35.8,17.2-51.3c12.4-16.8,27.7-25.2,46.1-25.2c11,0,17.3,2.3,18.9,6.8l-2.5,7.1c-2.4,6.8-4.7,12.5-7.2,17
	c-3.7,0.5-8.6,1.8-14.9,3.9c-6.7,2.2-11.4,4.1-14,5.9c-3.5,2.4-6.2,6-8.2,11c-1.7,4.4-2.6,8.9-2.6,13.6c0,11.8,4.8,19.9,14.4,24
	c6.6,2.9,16.6,4.1,29.8,3.8l7.7,22.5C429.3,593.8,418,598.8,408,598.8z"/>
<path class="st0" d="M538.2,554.9c10.4-6.2,17.8-13.4,22.2-21.6c4.2-7.9,6.3-18.1,6.3-30.4c0-7.5-2.5-13.7-7.6-18.5l-3.1-3
	c-2.9-4.2-7.1-7.7-12.7-10.6c-8.3-4.3-18.2-6.4-29.7-6.4c-19.4,0-36.5,4.4-51.2,13.3c-0.2,10.2-1.6,27-4.3,50.6c-2,17.4-3,33-3,46.6
	v2.5l0.1,19.3c0.5,0.4,1.4,1,2.5,1.8l4.4,4.6c3.6,3.7,9.5,5.5,17.8,5.5h1.7c0.8,0,1.6,0,2.5-0.1h0.3c0.6,0,1.6,0,2.9-0.1
	s2.3-0.1,2.9-0.1h2.6c2,0,3.7,0.3,5.2,0.8c5.5-0.9,8.2-8.1,8.2-21.8v-4.3c0,0.2,0.1,0.4,0.3,0.5c3.7,7.1,7,13.2,9.9,18.3h0.7
	l6.1,6.1c7.3-0.4,14.9-1.4,22.6-3.3l22.6-5.4c-0.4-7.6-5.2-16.6-14.5-26.9L538.2,554.9z M538.5,594.6c-7.3,1.7-13.9,2.7-19.9,3
	l-4.1-7.5c-2.2-4.1-6.4-11.9-12.7-23.5c-1.2-2.3-3-5-5.2-8.1c-0.1,3.8-0.3,11.1-0.5,21.9c-0.4,11.8-1.8,17.9-4.3,18.3
	c-1.3-0.4-3.2-0.7-5.6-0.7h-2.6c-1.1,0-2.8,0.1-5.1,0.2c-2.3,0.1-4,0.2-5.1,0.2c-6.9,0-11.6-1.2-14.2-3.5v-17.6
	c-0.1-14,0.9-30.3,2.9-48.7c2.7-23.6,4.1-39.9,4.3-48.7c13-7.8,28.7-11.6,47.3-11.6c10.7,0,20,2,28,6c10,5,15,12.4,15,22.1
	c0,12.6-2.3,22.7-6.9,30.3c-4.6,7.6-12.4,14.5-23.6,20.6l18.5,20.8c8.7,9.8,13.2,17,13.5,21.8L538.5,594.6z"/>
<path class="st0" d="M507.3,497.7c-2.2,0-3.8,0.4-5,1.2c-0.5,4.3-1.3,13.2-2.2,26.7c4.5,0,8.9-1.6,13.1-4.7
	c4.5-3.3,6.8-7.2,6.8-11.6c0-3.7-1.2-6.5-3.5-8.5S511,497.7,507.3,497.7z M516,509.2c0,2.9-1.6,5.6-4.8,8.2c0.2-2.1,0.5-5.3,0.9-9.5
	c0.4-0.1,0.9-0.1,1.7-0.1c0.7,0,1.4,0.1,2.1,0.3c0,0.2,0,0.4,0.1,0.5V509.2z"/>
<path class="st0" d="M686.8,470c-1.7-2.9-3.8-4.3-6.1-4.3h-0.1l-13.2,0.1c-12.6,0.1-21,1.9-25,5.5c0,3.8,0.4,9.6,1.3,17.2
	c0.9,7.6,1.3,13.3,1.3,17.2c0,12.6-0.9,23.1-2.6,31.4c-2.8,13.2-6.9,19.9-12.3,19.9c-1.1,0-2.1-0.1-3-0.4c-2.3-5-3.4-13.2-3.4-24.3
	c0-5.7,0.1-14.4,0.4-26c0.3-11.6,0.4-20.3,0.4-26v-7.8l-6.1-6.1v-0.8l-9.5-1l-34,2.2c0.6,3.1,0.9,5,0.9,5.7c0,0.7-0.2,2.3-0.5,4.8
	c-0.5,3.7-0.8,6.4-0.8,8.1v22.9c0,43.8,8.6,72.2,25.7,85.1l2.5,2.5c8.8,8.8,20.3,13.2,34.6,13.2c22.6,0,39.2-9.6,49.8-28.7
	c8.1-14.6,12.1-33.9,12.1-57.7c0-26.9-2.6-42.9-7.7-47.8L686.8,470z M677.4,571.9c-9.9,17.9-25.5,26.9-46.6,26.9
	c-21.3,0-36-10.5-44.3-31.6c-5.4-13.8-8.1-33.5-8.1-59.1v-22.9c0-1,0.3-3.5,0.9-7.6c0.4-3,0.5-5.5,0.3-7.5l29.1-2l5.7,0.7
	c0.1,5,0,14.4-0.4,28.3c-0.3,10.5-0.4,19.9-0.4,28.4c0,23.4,5.5,35.1,16.5,35.1c7.6,0,12.9-7.7,16.1-23c1.8-9,2.7-19.7,2.7-32.1
	c0-3.5-0.3-7.8-0.9-12.9c-1.1-9.8-1.7-16.4-1.7-19.7c2.3-2.1,9.3-3.2,21-3.3l13.2-0.1c5.7-0.1,8.6,15.3,8.6,46.3
	C689.1,539,685.2,557.7,677.4,571.9z"/>
<path class="st0" d="M756.6,477.9c-1.7-2.3-3.9-4.5-6.5-6.5c-6.1-4.6-13.2-6.9-21.3-6.9c-7.5,0-13.5,2.9-18.2,8.6
	c-4.4,5.3-6.5,11.8-6.5,19.5c0,7.5,3.3,13.5,9.8,18l3,3c2.7,2.7,5.4,4.5,8,5.5c-7.4,0.5-12,1.2-13.7,2.1
	c-2.4,17.8-3.7,35.6-3.7,53.6v17.6l0.8,16.9h0.8l6.1,6.1c15.4,0,30.4-2.3,44.9-6.9c1.1-12.6,1.6-26.3,1.6-41c0-3.5,0-6.1-0.1-8
	l-0.5-11c-0.4-7.3-0.5-13.4-0.5-18.3l0.7-5l-6.3-6.1l0.1-0.8h-0.3c1.1-0.5,2.2-1.3,3.3-2.2c5.9-4.5,8.9-10.5,8.9-18
	c0-6.5-2.3-12.1-6.9-16.7L756.6,477.9z M750.3,599.3c-12.6,4-25.4,6-38.4,6l-0.5-13.1v-17.5c0-17.7,1.1-34.7,3.4-51.1
	c1.9-1,13.9-1.4,35.8-1.4l-0.1,0.9c0,5.3,0.2,11.6,0.5,18.9l0.5,11c0.1,1.8,0.1,4.4,0.1,7.8C751.6,575.9,751.2,588.7,750.3,599.3z
	 M749.4,506.8c-4.4,3.4-10,5.1-16.6,5.1c-6.4,0-12-1.6-16.7-4.7c-5.4-3.6-8.1-8.4-8.1-14.6c0-6.6,1.8-12.2,5.4-16.7
	c3.8-5,9-7.4,15.4-7.4c7.1,0,13.5,2,18.9,6.1c6.1,4.4,9.1,10.1,9.1,17C756.8,498,754.3,503.1,749.4,506.8z"/>
<path class="st0" d="M875.2,471c-0.1-0.5-0.3-1-0.7-1.4c-5.2-0.2-13.9-0.8-26-1.8c-11.1-1-19.8-1.4-26-1.4c-20.4,0-36,0.8-46.9,2.5
	c-0.7,4.4-1.3,8-1.7,10.6l-3.4,20.1c0,0.3-0.4,2.6-1,6.9c0.3,0,0.7,0.1,1.2,0.3l5.9,5.9l11.2,1.4c0.5,0.1,3.7,0.6,9.5,1.4l-5.9,87.8
	h0.3c0.2-0.1,0.3-0.1,0.4-0.1l6.3,6.3l9.9-0.9c6.3-0.6,16.2-1.4,29.7-2.5c4.2-0.4,7.9-0.7,11.1-1.2c0-0.1-0.3-3.5-0.9-10.2l-1-11.6
	c-0.8-8.8-1.4-17.2-1.7-25.3l-1.7-40.4h10.5c1.2,0,4.3,0,9.1-0.1l14.6-0.3c0.9,0,2.3,0,4.3-0.1c0.9-6.6,1.3-14.2,1.3-22.6
	c0-8.7-0.9-14.6-2.7-17.6L875.2,471z M872.6,506.8c-5.3,0.4-18.3,0.5-39.1,0.4l1.8,44c0.6,15.3,1.7,30,3.3,43.9
	c-4.8,0.7-12,1.3-21.6,2c-5.7,0.3-12.8,0.9-21.4,1.7l6.3-92c-6.2-0.9-15.4-2.1-27.7-3.8c1.3-7.6,3-17.8,5-30.7
	c9.8-1.4,24.2-2.1,43.4-2.1c4.5,0,12.8,0.5,24.9,1.4l17.9,1.4c2.8,0.2,5.1,0.3,6.9,0.4c0.8,1.3,1.2,6,1.2,14.1
	C873.5,496.4,873.2,502.8,872.6,506.8z"/>
<path class="st0" d="M1028.1,534.1c-2.8-36.2-5.1-57.1-7.1-62.7l-6-5.9c0-0.3-0.1-0.6-0.3-1.1c-1.5,0-3.7,0-6.8,0.1l-27.7,0.8
	c-0.9,0-7.1,0.2-18.5,0.7c-1.3,4.7-3.3,15.8-6,33.2c-0.6,4.1-1.3,7.8-2.1,11c-4.4-14.6-7.8-26.6-10.2-35.8l-6.1-6v-0.5
	c-0.1-0.2-0.1-0.3-0.1-0.4c-2.6,0.3-6.4,0.7-11.4,1.3l-5,0.7c-0.7,0.1-2,0.2-3.8,0.4c-6.4,0.7-12.7,2.2-19.1,4.4
	c-4,8.6-6.4,21.2-7.2,37.6l-1.3,26.5c-0.2,3.3-0.4,9.6-0.8,18.9c-0.7,17-2.3,30.7-4.8,41c1.1,1,2,1.7,2.6,2.1l4.3,4.3
	c1.7,1.7,4,2.6,6.7,2.6h2.9c0.4,0,1.7,0,4.1-0.1c7.1-0.3,11.4-0.4,13.2-0.4c1,0,2.4,0.2,4.4,0.5c2,0.3,3.4,0.5,4.4,0.5
	c5.5,0,8.2-2.1,8.2-6.4v-8.9c0.9,3,1.8,5.7,2.9,8.1c0.2-0.1,0.4-0.1,0.7-0.1l6.1,6.1c3-0.6,7.3-1.1,12.8-1.4
	c6.5-0.4,10.8-0.8,12.9-1.1c2.4-0.3,5-0.8,7.7-1.3l3.1-11.5c0.4,2.5,0.7,4.9,1.2,7.2h0.8l6.1,6.1h31c4.3,0,8.5-1,12.8-3
	c-0.8-15.8-2-34.4-3.7-55.9L1028.1,534.1z M1013.3,594.7h-28c-1.7-9.7-3.8-24.2-6.3-43.5c-1.8,8.4-5.4,22.4-10.7,42.1
	c-2.5,0.5-10.2,1.3-23.1,2.5c-1,0.1-2.8,0.3-5.4,0.5c-1.8-4.5-4-13-6.5-25.3c-2.2-10.9-4.8-19.2-7.8-25.1l-0.8,31.7
	c-0.2,7.1-0.3,12.8-0.3,17.4c0,1.9-1.6,2.9-4.7,2.9c-1,0-2.4-0.2-4.4-0.5c-2-0.4-3.4-0.5-4.4-0.5c-0.2,0-4.6,0.1-13.3,0.4
	c-5.9,0.2-9.1,0.2-9.5,0c2.2-9,3.7-22.2,4.4-39.7l2.1-45.5c0.7-15.3,2.8-26.9,6.3-34.6c4.7-1.7,10.2-3,16.5-3.7
	c4.4-0.4,10.1-1.1,16.9-2c4.4,16.2,10.1,35.2,17.1,57h0.4c3.5-7.1,6.1-16.7,7.8-29c2.3-15.9,4-25.9,5.1-29.9l31.4-1.1
	c7.8-0.3,13.1-0.4,15.8-0.4c1.4,3.7,3.4,23.5,6.1,59.4l3,39.7c0.5,6.7,1,15.2,1.4,25.6C1020.2,594.2,1017.1,594.7,1013.3,594.7z"/>
<path class="st0" d="M1122.4,467.2c-11-1.8-23.2-2.7-36.6-2.7h-35.9c-1,5.2-1.7,9.3-2.1,12.2l-0.4,2.5c-3.8,24.4-6,44-6.5,58.9
	l-2.1,62.2h0.9l6,6.1c10,1,15.6,1.6,16.7,1.6l58.7-1.3v-30.7c0-1-0.4-2-1.3-2.9l-5.1-5.1c-1.3-3.3-7.4-5.4-18.4-6.1
	c-3.6-0.3-7.5-0.5-11.8-0.8v-2.4c1.6-0.4,7.3-1.7,17.2-4.2c2.6-0.6,4.6-1.2,6-1.8c2.4-6.1,3.5-15.2,3.5-27.4l-6.1-6.1v-0.8
	l-14.5-2.1c0-1.2,0.1-3,0.3-5.5h5c9.1,0,19.3-1,30.4-2.9l2.2-33.8l-6.3-6.1L1122.4,467.2z M1116.4,498.3c-9.1,1.6-18.2,2.4-27,2.4
	c-3,0-5.7,0-8.4,0c-0.2,4-0.4,10-0.7,18l20.9,3.3c0,9.6-0.9,16.8-2.7,21.6c-1.9,0.8-5.9,1.8-11.9,3.1l-7.1,1.6
	c-2.4,0.5-4.1,1-5.1,1.3v14.4c4.7,0.3,11.8,0.9,21.3,1.7c10.2,0.9,15.3,2.1,15.3,3.8v27.3l-55.1,1.2c-1,0-5.4-0.4-13.1-1.2l2-58.5
	c0.6-19.4,2.8-38.8,6.5-58.3c0.8-4.2,1.4-8,2-11.5h32.5c13.7,0,24.5,0.7,32.4,2.1L1116.4,498.3z"/>
<path class="st0" d="M1241.3,468.9l-47,0.1c0,1.2-0.1,3.1-0.3,5.6c-0.2,2.5-0.3,4.4-0.3,5.6v0.7c-0.1,1-0.1,1.9-0.1,2.7v2.2
	c0,10.2,0.4,18.1,1,23.6l-11.8-38.4l-6-6l-0.3-0.9l-39.5,4l-3.5,62.3c-1.5,26.1-2.2,45.9-2.2,59.2c0,5,1.6,9.3,4.8,12.9h0.5l6.1,6.1
	c27,0,40.4-2.6,40.1-7.8c0-1.5-0.1-4.4-0.3-8.6l-0.3-7.7c2.2,5.9,4.5,11.7,6.9,17.4h0.3c0.1-0.1,0.2-0.1,0.3-0.1l6.3,6.3l10.3-0.9
	c12.5-1.1,26.1-2,40.6-2.5v-9.4c0-7.2-0.4-21.1-1-41.5c-0.6-17.9-0.9-33.8-0.9-47.4c0-3.6,0.4-9.1,1.2-16.7l0.4-3.8l0.5-7.6
	c0.1-1.2,0.1-2,0.1-2.5l-6.1-6.1V468.9z M1236.1,547.4c0.7,21.2,1,37,1,47.4c-19.7,1-34.8,2-45.2,3c-4.1-10.1-10.2-26.2-18.4-48.3
	c-1.2,3.7-1.4,18.7-0.5,45.1c0.1,2.8-11.6,4.2-35,4.2c-1.7-2-2.6-5-2.6-9c0-13.6,0.7-33.2,2.2-58.9l3.4-58.9l32.9-3.5l11,36.1
	c4.4,14.2,8.6,26,12.8,35.3c1-3.2,1.6-8.3,1.6-15.2c0-3.8-0.3-10.3-0.9-19.3c-0.5-7.8-0.8-14.2-0.8-19.3c0-1.5,0.1-3.6,0.3-6.5
	c0.2-2.8,0.3-5,0.3-6.5l38.9-0.1c-0.1,1.2-0.3,4.6-0.8,10.1c-0.8,9.3-1.2,15-1.2,17C1235.1,513,1235.4,528.9,1236.1,547.4z"/>
<path class="st0" d="M1359.1,471c-0.1-0.5-0.3-1-0.7-1.4c-5.2-0.2-13.9-0.8-26-1.8c-11.1-1-19.8-1.4-26-1.4c-20.4,0-36,0.8-46.9,2.5
	c-0.7,4.4-1.3,8-1.7,10.6l-3.4,20.1c0,0.3-0.4,2.6-1,6.9c0.3,0,0.7,0.1,1.2,0.3l5.9,5.9l11.2,1.4c0.5,0.1,3.7,0.6,9.5,1.4l-5.9,87.8
	h0.3c0.2-0.1,0.3-0.1,0.4-0.1l6.3,6.3l9.9-0.9c6.3-0.6,16.2-1.4,29.7-2.5c4.2-0.4,7.9-0.7,11.1-1.2c0-0.1-0.3-3.5-0.9-10.2l-1-11.6
	c-0.8-8.8-1.4-17.2-1.7-25.3l-1.7-40.4h10.5c1.2,0,4.3,0,9.1-0.1l14.6-0.3c0.9,0,2.3,0,4.3-0.1c0.9-6.6,1.3-14.2,1.3-22.6
	c0-8.7-0.9-14.6-2.7-17.6L1359.1,471z M1356.5,506.8c-5.3,0.4-18.3,0.5-39.1,0.4l1.8,44c0.6,15.3,1.7,30,3.3,43.9
	c-4.8,0.7-12,1.3-21.6,2c-5.7,0.3-12.8,0.9-21.4,1.7l6.3-92c-6.2-0.9-15.4-2.1-27.7-3.8c1.3-7.6,3-17.8,5-30.7
	c9.8-1.4,24.2-2.1,43.4-2.1c4.5,0,12.8,0.5,24.9,1.4l17.9,1.4c2.8,0.2,5.1,0.3,6.9,0.4c0.8,1.3,1.2,6,1.2,14.1
	C1357.4,496.4,1357.1,502.8,1356.5,506.8z"/>
</svg>
