<?xml version="1.0" encoding="utf-8"?>
<!-- Generator: Adobe Illustrator 25.2.0, SVG Export Plug-In . SVG Version: 6.00 Build 0)  -->
<svg version="1.1" id="Layer_1" xmlns="http://www.w3.org/2000/svg" xmlns:xlink="http://www.w3.org/1999/xlink" x="0px" y="0px"
	 viewBox="0 0 210.4 68.2" style="enable-background:new 0 0 210.4 68.2;" xml:space="preserve">
<style type="text/css">
	.st0{fill:#FFFFFF;}
	.st1{fill:#010101;}
</style>
<g>
	<g>
		<path class="st0" d="M203.9,61.5V50c0-18.1-1.1-32.7-3.3-43.7l-195-1v58.1c17.7-0.7,39.2-0.9,64.6-0.7
			C105.8,62.9,186.5,62.5,203.9,61.5z"/>
		<path class="st1" d="M210.4,49.5c0-19.5-1.2-34.6-3.6-45.2L205.4,1L4.5,0L3.6,2.5C1.2,13.4,0,28.6,0,48.1v19.2l210.3,1.4
			L210.4,49.5L210.4,49.5z M203.9,61.5c-17.5,1-98.1,1.4-133.7,1.2c-25-0.2-46.3,0-63.9,0.7l0,0l0.1-15.7c0-17.2,1-31.3,3-42.3
			l191.1,1c2.2,11,3.3,25.5,3.3,43.7L203.9,61.5L203.9,61.5z"/>
	</g>
</g>
</svg>
