<?xml version="1.0" encoding="utf-8"?>
<!-- Generator: Adobe Illustrator 25.2.0, SVG Export Plug-In . SVG Version: 6.00 Build 0)  -->
<svg version="1.1" id="Layer_1" xmlns="http://www.w3.org/2000/svg" xmlns:xlink="http://www.w3.org/1999/xlink" x="0px" y="0px"
	 viewBox="0 0 210.2 77.6" style="enable-background:new 0 0 210.2 77.6;" xml:space="preserve">
<style type="text/css">
	.st0{fill:#FFFFFF;}
	.st1{fill:#010101;}
</style>
<g>
	<path class="st0" d="M203.8,61.5V50c0-18.1-1.1-32.7-3.3-43.7l-195-1v58.1c17.7-0.7,39.2-0.9,64.6-0.7
		C105.7,62.9,186.4,62.5,203.8,61.5z"/>
	<path class="st1" d="M200.5,6.3c2.2,11,3.3,25.5,3.3,43.7v11.5c-17.5,1-98.1,1.4-133.7,1.2c-25.4-0.2-46.9,0.1-64.6,0.7l10.7,14.2
		c13.6-0.1,20-0.2,40.7-0.2h26.2c4.4,0.1,12.5,0,24.1-0.2l20.6-0.7c6.9-0.2,66.4-0.5,70.1-0.7l12.3-7V49.6c0-19.5-1.2-34.6-3.6-45.2
		l-1.4-3.3L4.3,0.1l1.1,5.3L200.5,6.3z"/>
	<path class="st1" d="M16.2,77.5L0,67.3V48.1C0,28.6,1.2,13.4,3.6,2.5l0.7-2.4l5.5,3.5C7.6,14.8,6.5,29.5,6.5,47.7L6.4,63.4"/>
</g>
</svg>
